<svg id="Camada_1" data-name="Camada 1" xmlns="http://www.w3.org/2000/svg" viewBox="0 0 488.77 80.98"><defs><style>.cls-1{fill:#095e4a;}.cls-2{fill:#0b8e6d;}</style></defs><title>Sem título-3</title><path class="cls-1" d="M296,459a40.49,40.49,0,1,0,40.5,40.49A40.49,40.49,0,0,0,296,459Zm0,76.5a36,36,0,1,1,36-36A36,36,0,0,1,296,535.54Z" transform="translate(-255.51 -459.04)"/><path class="cls-2" d="M296,471.25a28.28,28.28,0,1,0,28.28,28.28A28.28,28.28,0,0,0,296,471.25Zm0,53.43a25.15,25.15,0,1,1,25.15-25.15A25.15,25.15,0,0,1,296,524.68Z" transform="translate(-255.51 -459.04)"/><circle class="cls-1" cx="40.37" cy="40.96" r="15"/><path class="cls-1" d="M375.57,515c-.35-1.1-.73-2.24-1.14-3.4s-.81-2.33-1.22-3.48H360.79c-.41,1.16-.81,2.32-1.21,3.49s-.78,2.3-1.13,3.39H351q1.8-5.13,3.41-9.5t3.15-8.22c1-2.57,2.05-5,3-7.33s2-4.57,3.11-6.77h6.79q1.58,3.3,3.09,6.77t3.07,7.33c1,2.57,2.09,5.31,3.16,8.22s2.22,6.08,3.42,9.5ZM367,490.43c-.16.46-.4,1.09-.7,1.89s-.66,1.71-1.06,2.75-.83,2.19-1.31,3.45-1,2.57-1.49,3.94h9.11c-.49-1.38-1-2.7-1.42-3.95s-.89-2.41-1.3-3.46l-1.08-2.75C367.41,491.5,367.16,490.88,367,490.43Z" transform="translate(-255.51 -459.04)"/><path class="cls-1" d="M400.7,515.69q-7.77,0-11.83-4.32t-4.06-12.26a18.82,18.82,0,0,1,1.24-7.05,15.27,15.27,0,0,1,3.4-5.24,14.17,14.17,0,0,1,5.14-3.23,18.45,18.45,0,0,1,6.48-1.11,20.65,20.65,0,0,1,3.67.3,23.77,23.77,0,0,1,2.89.69,13.57,13.57,0,0,1,2.07.81c.55.27.95.49,1.19.64l-2.06,5.79a17.4,17.4,0,0,0-3.43-1.34,16.57,16.57,0,0,0-4.43-.55,9.92,9.92,0,0,0-3.23.55,7.44,7.44,0,0,0-2.81,1.77,8.8,8.8,0,0,0-1.95,3.15,13.14,13.14,0,0,0-.73,4.68,16.79,16.79,0,0,0,.48,4.11,8.61,8.61,0,0,0,1.56,3.28,7.51,7.51,0,0,0,2.83,2.19,10.12,10.12,0,0,0,4.22.8,19.57,19.57,0,0,0,2.8-.18c.83-.13,1.56-.27,2.21-.44a12.5,12.5,0,0,0,1.7-.57l1.33-.6,2,5.74a16.83,16.83,0,0,1-4.27,1.65A24.85,24.85,0,0,1,400.7,515.69Z" transform="translate(-255.51 -459.04)"/><path class="cls-1" d="M415.94,515V483.22h21.5v6H423.11v6.24h12.72v5.88H423.11V509h15.38v6Z" transform="translate(-255.51 -459.04)"/><path class="cls-1" d="M452.45,509.58a10.2,10.2,0,0,0,2.5-.25,4.7,4.7,0,0,0,1.59-.69,2.26,2.26,0,0,0,.82-1,3.5,3.5,0,0,0,.23-1.33,3.07,3.07,0,0,0-1.47-2.59,21,21,0,0,0-5.05-2.23q-1.56-.56-3.12-1.26a11.73,11.73,0,0,1-2.8-1.79,8.47,8.47,0,0,1-2-2.62,8.2,8.2,0,0,1-.78-3.74,9.32,9.32,0,0,1,.82-4,8.6,8.6,0,0,1,2.35-3,10.74,10.74,0,0,1,3.67-1.91,16.62,16.62,0,0,1,4.87-.67,19.34,19.34,0,0,1,9.41,2.21l-2.06,5.65a19.35,19.35,0,0,0-3-1.22,12.81,12.81,0,0,0-3.92-.53,7.25,7.25,0,0,0-3.7.71,2.42,2.42,0,0,0-1.12,2.19,2.5,2.5,0,0,0,.41,1.47,4,4,0,0,0,1.17,1.07,9.52,9.52,0,0,0,1.75.88c.65.26,1.38.53,2.18.8,1.65.61,3.09,1.22,4.31,1.81a11.67,11.67,0,0,1,3.06,2.09,7.6,7.6,0,0,1,1.81,2.81,11.18,11.18,0,0,1,.6,3.9,8.29,8.29,0,0,1-3.12,6.91q-3.14,2.46-9.42,2.46a25.73,25.73,0,0,1-3.81-.26,22.34,22.34,0,0,1-3-.62,16.19,16.19,0,0,1-2.25-.78,14.58,14.58,0,0,1-1.58-.78l2-5.69a17.9,17.9,0,0,0,3.51,1.4A18.33,18.33,0,0,0,452.45,509.58Z" transform="translate(-255.51 -459.04)"/><path class="cls-1" d="M479.18,509.58a10.25,10.25,0,0,0,2.5-.25,4.55,4.55,0,0,0,1.58-.69,2.28,2.28,0,0,0,.83-1,3.71,3.71,0,0,0,.23-1.33,3.07,3.07,0,0,0-1.47-2.59,21,21,0,0,0-5.05-2.23q-1.56-.56-3.12-1.26a11.54,11.54,0,0,1-2.8-1.79,8.47,8.47,0,0,1-2-2.62,8.07,8.07,0,0,1-.79-3.74,9.32,9.32,0,0,1,.83-4,8.46,8.46,0,0,1,2.34-3,10.79,10.79,0,0,1,3.68-1.91,16.6,16.6,0,0,1,4.86-.67,19.77,19.77,0,0,1,5.56.69,20,20,0,0,1,3.86,1.52l-2.07,5.65a19.22,19.22,0,0,0-3-1.22,12.93,12.93,0,0,0-3.93-.53,7.24,7.24,0,0,0-3.69.71,2.43,2.43,0,0,0-1.13,2.19,2.5,2.5,0,0,0,.42,1.47A4,4,0,0,0,478,494a9.42,9.42,0,0,0,1.74.88c.66.26,1.39.53,2.18.8,1.66.61,3.09,1.22,4.32,1.81a11.78,11.78,0,0,1,3.05,2.09,7.62,7.62,0,0,1,1.82,2.81,11.43,11.43,0,0,1,.59,3.9,8.29,8.29,0,0,1-3.12,6.91q-3.12,2.46-9.41,2.46a25.73,25.73,0,0,1-3.81-.26,22,22,0,0,1-3-.62,16.19,16.19,0,0,1-2.25-.78,14.83,14.83,0,0,1-1.59-.78l2-5.69a17.77,17.77,0,0,0,3.52,1.4A18.33,18.33,0,0,0,479.18,509.58Z" transform="translate(-255.51 -459.04)"/><path class="cls-1" d="M527.53,499.11a19.66,19.66,0,0,1-1.21,7.19,15,15,0,0,1-3.33,5.18,13.59,13.59,0,0,1-5,3.15,18.42,18.42,0,0,1-6.27,1.06,17.9,17.9,0,0,1-6.15-1.06,14,14,0,0,1-5.06-3.15,14.72,14.72,0,0,1-3.39-5.18,19.24,19.24,0,0,1-1.24-7.19,18.79,18.79,0,0,1,1.28-7.19,15.49,15.49,0,0,1,3.47-5.21,14.31,14.31,0,0,1,5-3.17,17.45,17.45,0,0,1,6-1.06,17.9,17.9,0,0,1,6.15,1.06,14,14,0,0,1,5,3.17,14.91,14.91,0,0,1,3.4,5.21A19.2,19.2,0,0,1,527.53,499.11Zm-24.29,0a14.51,14.51,0,0,0,.57,4.22,9.72,9.72,0,0,0,1.66,3.24,7.36,7.36,0,0,0,2.64,2.09,9,9,0,0,0,7.14,0,7.35,7.35,0,0,0,2.66-2.09,9.72,9.72,0,0,0,1.66-3.24,14.51,14.51,0,0,0,.57-4.22,14.82,14.82,0,0,0-.57-4.25,9.73,9.73,0,0,0-1.66-3.26,7.35,7.35,0,0,0-2.66-2.09,8.36,8.36,0,0,0-3.56-.73,8.16,8.16,0,0,0-3.58.75,7.56,7.56,0,0,0-2.64,2.12,9.73,9.73,0,0,0-1.66,3.26A14.61,14.61,0,0,0,503.24,499.11Z" transform="translate(-255.51 -459.04)"/><path class="cls-1" d="M555.18,492.77a8.06,8.06,0,0,1-1.89,5.65,10.56,10.56,0,0,1-4.95,3c.49.62,1.12,1.44,1.9,2.48s1.59,2.19,2.41,3.43,1.64,2.53,2.44,3.88a40.16,40.16,0,0,1,2,3.85h-3.36c-.64-1.22-1.34-2.45-2.09-3.67s-1.51-2.41-2.29-3.56-1.54-2.21-2.27-3.19l-1.93-2.57c-1,.09-2,.14-2.94.14h-5.15V515H534V483.82a22.2,22.2,0,0,1,3.88-.67q2.24-.21,4.11-.21,6.57,0,9.9,2.48A8.6,8.6,0,0,1,555.18,492.77Zm-12.86-7.12c-1.16,0-2.18,0-3.05.12s-1.6.14-2.19.21v13.54h4.32a40.75,40.75,0,0,0,4.09-.2,10,10,0,0,0,3.35-.92,5.5,5.5,0,0,0,2.25-2,6.81,6.81,0,0,0,.83-3.62,6.68,6.68,0,0,0-.83-3.49,6.29,6.29,0,0,0-2.16-2.19,8.86,8.86,0,0,0-3-1.1A20.77,20.77,0,0,0,542.32,485.65Z" transform="translate(-255.51 -459.04)"/><path class="cls-1" d="M562.34,515V483.22h18.37v2.71H565.46V497h13.6v2.66h-13.6v12.67H581.9V515Z" transform="translate(-255.51 -459.04)"/><path class="cls-1" d="M606.89,500H610v14.19a23.13,23.13,0,0,1-3.42.94,28.58,28.58,0,0,1-6.27.58,14.93,14.93,0,0,1-5.79-1.11,13,13,0,0,1-4.61-3.19,14.75,14.75,0,0,1-3.06-5.19,21.2,21.2,0,0,1-1.1-7.09A19.83,19.83,0,0,1,587,492a15.27,15.27,0,0,1,3.24-5.19,14,14,0,0,1,4.76-3.19,15.25,15.25,0,0,1,5.78-1.1,18.74,18.74,0,0,1,5.83.76,15.16,15.16,0,0,1,3.36,1.45l-1.06,2.66a10.64,10.64,0,0,0-3.49-1.49,18.58,18.58,0,0,0-4.78-.58,11.71,11.71,0,0,0-4.5.87,10.2,10.2,0,0,0-3.67,2.62,12.69,12.69,0,0,0-2.46,4.32,18.3,18.3,0,0,0-.89,6,20.66,20.66,0,0,0,.73,5.72,11.92,11.92,0,0,0,2.23,4.36,9.84,9.84,0,0,0,3.7,2.78,12.66,12.66,0,0,0,5.09,1,25.39,25.39,0,0,0,3.93-.25,11.57,11.57,0,0,0,2.14-.48Z" transform="translate(-255.51 -459.04)"/><path class="cls-1" d="M617.26,483.22h3.13V515h-3.13Z" transform="translate(-255.51 -459.04)"/><path class="cls-1" d="M657.22,499.11a20,20,0,0,1-1.2,7.21,14.93,14.93,0,0,1-3.24,5.21,13.43,13.43,0,0,1-4.75,3.15,16.21,16.21,0,0,1-11.48,0,13.43,13.43,0,0,1-4.75-3.15,14.93,14.93,0,0,1-3.24-5.21,22.38,22.38,0,0,1,0-14.4,15.12,15.12,0,0,1,3.24-5.19,13.27,13.27,0,0,1,4.75-3.14,16.07,16.07,0,0,1,11.48,0,13.27,13.27,0,0,1,4.75,3.14,15.12,15.12,0,0,1,3.24,5.19A19.84,19.84,0,0,1,657.22,499.11Zm-3.31,0a18.62,18.62,0,0,0-.83-5.76,12.63,12.63,0,0,0-2.34-4.34,10,10,0,0,0-3.65-2.74,12.73,12.73,0,0,0-9.6,0,10,10,0,0,0-3.65,2.74,12.63,12.63,0,0,0-2.34,4.34,20.4,20.4,0,0,0,0,11.52,12.63,12.63,0,0,0,2.34,4.34,10.3,10.3,0,0,0,3.65,2.76,12.48,12.48,0,0,0,9.6,0,10.3,10.3,0,0,0,3.65-2.76,12.63,12.63,0,0,0,2.34-4.34A18.67,18.67,0,0,0,653.91,499.11Z" transform="translate(-255.51 -459.04)"/><path class="cls-1" d="M685.87,515c-.59-1.06-1.33-2.32-2.22-3.76s-1.89-3-3-4.61-2.22-3.31-3.41-5-2.37-3.43-3.54-5.07-2.33-3.17-3.45-4.61-2.13-2.67-3-3.71V515h-3.08V483.22h2.48c1.57,1.74,3.24,3.76,5,6s3.53,4.62,5.25,7,3.32,4.69,4.8,6.95,2.71,4.24,3.66,5.92v-25.9h3.08V515Z" transform="translate(-255.51 -459.04)"/><path class="cls-1" d="M718.2,515q-.91-2.34-1.68-4.5c-.51-1.45-1-2.85-1.46-4.22H699.51q-.79,2.06-1.56,4.23T696.34,515h-3.26q1.81-5,3.42-9.26c1.08-2.86,2.13-5.57,3.17-8.12s2.06-5,3.08-7.36,2.09-4.71,3.21-7.08h2.75c1.12,2.36,2.19,4.71,3.2,7.07s2,4.82,3.06,7.37,2.09,5.26,3.16,8.12,2.24,6,3.51,9.26Zm-11-28.24q-1.74,4-3.37,8.05t-3.39,8.81h13.59q-1.77-4.74-3.44-8.82T707.25,486.8Z" transform="translate(-255.51 -459.04)"/><path class="cls-1" d="M744.28,512.33V515H726.19V483.22h3.12v29.11Z" transform="translate(-255.51 -459.04)"/></svg>