<svg id="Camada_1" data-name="Camada 1" xmlns="http://www.w3.org/2000/svg" viewBox="0 0 64.47 45.79"><title>aquario</title><path d="M319.41,407.81h0l0,0Z" transform="translate(-265.77 -397.57)"/><path d="M268.4,410c.39-.82.72-1.34.73-1.22a16.64,16.64,0,0,1,1.52-2.51c-.21.34-.34.52-.47.74s-.29.45-.48.79c.42-.58.75-1.14,1.15-1.72l.11.09c.4-.59.81-1.13,1.23-1.64a14.71,14.71,0,0,1,1.35-1.38c.17-.15.2-.21.3-.3.29-.21.58-.4.83-.55.11,0,0,.16,0,.23s.13,0,.78-.26c-.07.08-.22.2-.14.18a1.09,1.09,0,0,0,.24-.09l.39-.14a6.37,6.37,0,0,0-1.09.61c-.41.31-.85.61-1.22.94l-.25.07c-.29.27-.44.43-.57.56a12.29,12.29,0,0,0-1.28,1.65,9.67,9.67,0,0,0-.63,1.11c0,.09.06,0,.13-.07s.22-.17.17-.05-.21.39-.47.83c.07-.1.14-.17.21-.28.25-.38.61-.87.52-.69s-.31.51-.5.83-.37.61-.58,1c.33-.4.67-.81.59-.53,0,.11.24-.26-.11.39,0,.1,0,.14,0,.06.33-.42,0,.23,0,.33a1.31,1.31,0,0,1,0,.15l.14-.22c.1-.25.2-.49.35-.8.49-.65.95-1.2,1.66-2,.35-.42.59-.73.87-1a7.24,7.24,0,0,1,1-.95l.28-.09a6.12,6.12,0,0,1,.5-.39l.39-.19.43-.18a2.07,2.07,0,0,1,.61-.26,2.93,2.93,0,0,1,.38-.11c.1,0,.16-.06.15-.07a4,4,0,0,1,.63,0,2.24,2.24,0,0,1,1.29.24h-.1a3.92,3.92,0,0,1,1.11,1.05,3.72,3.72,0,0,0-.75-.61c0,.06,0,.07-.12.06l-.18-.07c-.09,0-.19-.07-.33-.09l.1.06.18.1c.1.09.13.09-.19,0l-.25-.12-.25-.1s0,0-.09,0h-.28c-.12,0-.24,0-.37,0s-.24,0-.34.08a3.37,3.37,0,0,1,1.19,0h.13l.11,0a.92.92,0,0,1,.23.09,2.33,2.33,0,0,1,.53.38,2.47,2.47,0,0,0-1-.47,2.38,2.38,0,0,0-1-.05h.2l.17,0a1.26,1.26,0,0,1,.26.06c.14,0,.21.1.21.14l.24.08-.06-.08a1.39,1.39,0,0,1,.39.15,1.63,1.63,0,0,0,.29.14l.19.15.2.19a2.12,2.12,0,0,0-.36-.21,2.8,2.8,0,0,1,.85,1,1.53,1.53,0,0,0-.17-.14,5.59,5.59,0,0,1,.59,1.36,5.32,5.32,0,0,0,.21.53,4.51,4.51,0,0,1,.22,1c-.09-.37-.17-.67-.28-1a11.18,11.18,0,0,1,.17,1.26l.11.21a10.27,10.27,0,0,1,0,1.44c0,.29-.06.37-.11.31,0,.62,0,1,0,1.24s0,.54,0,1.05a20.23,20.23,0,0,0,.3,2.26,10.4,10.4,0,0,0,.59,1.94,7.27,7.27,0,0,0,1.35,2.12,5.16,5.16,0,0,0,1.54,1.16,5.87,5.87,0,0,0,1.23.45,6.47,6.47,0,0,0,2.28.25v.1a6.7,6.7,0,0,1-3-.36,5,5,0,0,0,1.47.43,6.12,6.12,0,0,0,2,0,10.73,10.73,0,0,0,1.27-.31,4.53,4.53,0,0,1,.61-.19,1.7,1.7,0,0,0,.57-.21c.32-.16.66-.37.9-.52-.2.15-.37.25-.51.34l-.35.21-.31.19a2.43,2.43,0,0,1-.71.37,6.92,6.92,0,0,0,1.73-.89,5.72,5.72,0,0,0,.72-.61,10,10,0,0,0,1.36-1.36c.29-.35.46-.59.59-.76.24-.33.3-.35.41-.4a9.53,9.53,0,0,0,1.07-2.26c0-.12.16-.46.24-.65a4.2,4.2,0,0,1,.21-.49,8.58,8.58,0,0,0,.37-.78c.28-.73.56-1.57.87-2.34,0-.14-.15,0,.05-.68l.08,0c.13-.3.24-.53.36-.78a3.85,3.85,0,0,1,.59-1.37,13.75,13.75,0,0,0-1,1.86c.22-.54.34-.77.5-1.09-.14.19-.24.34-.41.61a15.22,15.22,0,0,1,1.66-2.62l-.16.27c.65-.85.66-1,1.11-1.55l-.09.21a10.73,10.73,0,0,1,.81-.79l.28-.24.1-.09.06.19.13.51a2.55,2.55,0,0,1-.09-.79l0,0,.06.18c0,.09.05.23.07.34a7.61,7.61,0,0,1,.17.93c-.08-.78,0-.57.1-.13,0,.19.05.24.06.18a2.78,2.78,0,0,0-.06-.5c0-.22-.08-.52-.06-.5a2,2,0,0,1,.15.49,4.52,4.52,0,0,1,.1.59l0,.33,0,.36c-.05-.2-.09-.4-.15-.59a12.45,12.45,0,0,0,.2,1.57c0,.34,0,.73,0,1a11,11,0,0,0-.06,1.38c0,.84.06-.06.09.16,0,.91,0,1.81,0,2.82l.11.41c.07,1.35.27,2.4.27,2.7L303,415l-.11-.48c.05.42.13.8.2,1.16a8.39,8.39,0,0,0,.3,1.09,4.4,4.4,0,0,0,.45.84l.31.48a8,8,0,0,0,.71,1,8.24,8.24,0,0,1-1.3-2.43v0a8.7,8.7,0,0,0,.79,1.63,6.63,6.63,0,0,0,1.34,1.55,5.63,5.63,0,0,1-.76-1.1,6,6,0,0,0,.74.83,5.73,5.73,0,0,0,.8.6,6.12,6.12,0,0,1-1.39-1.34,6.51,6.51,0,0,0,.64.65,5.79,5.79,0,0,0,1,.74,5.85,5.85,0,0,1-1.44-1.2,7.2,7.2,0,0,1-.86-1.25,7.47,7.47,0,0,1-.73-2c.09.22.25.64.44,1.05s.42.84.55,1.09l-.11-.09a5.9,5.9,0,0,0,2.4,2.41,5.48,5.48,0,0,0,2,.59,5.3,5.3,0,0,1-2.11-.53,4.71,4.71,0,0,0,2.76.6,7.07,7.07,0,0,0,2.87-.89,8.81,8.81,0,0,0,3-3.12c-.21.39-.41.71-.55.92a15.7,15.7,0,0,0,1.73-3.07,9.63,9.63,0,0,0,.8-2.05c.09-.3.2-.63.27-.85.34-.81.63-1.51,1-2.24l-.12-.05c.31-.74.26-.49.33-.6l.17-.32c0-.16.08-.28.1-.38-.22.31-.5,1-.51.85a11.56,11.56,0,0,1,.59-1.17,2.46,2.46,0,0,1,.53-.91h0v0h0v0a7.43,7.43,0,0,1,1.42-1.61,5.67,5.67,0,0,0-.84.73l0-.14a6.76,6.76,0,0,1,.63-.58,5.81,5.81,0,0,1,.42-.49,8.29,8.29,0,0,0-1.23,1.18,7.26,7.26,0,0,1,.95-1.12,7.21,7.21,0,0,0-1,.87,2.29,2.29,0,0,1,.37-.45,4.9,4.9,0,0,1,1-.73,1,1,0,0,1,.4-.27,4.47,4.47,0,0,1,.7-.24,2.65,2.65,0,0,1,1-.05,1.89,1.89,0,0,0-1.17,0,2.58,2.58,0,0,1,.62-.19l.21,0a1.79,1.79,0,0,1,.46,0,.79.79,0,0,1,.21.22,1.69,1.69,0,0,1,.47.7s0-.11,0-.16.07-.05.22.29h0c.09.17.18.36.11,0s-.09-.42-.06-.44.12.12.27.53a3.78,3.78,0,0,0-.44-1l0-.06a3.85,3.85,0,0,1,.55,1.15c.14.46.25,1,.37,1.55a6.91,6.91,0,0,1,0-.77c0-.09.11.12.16.21a4.38,4.38,0,0,0-.2-.86c-.07-.18-.12-.36-.24-.74.08.12.16.24.23.36,0-.09-.05-.19-.08-.28a3,3,0,0,0-.49-.79,1,1,0,0,0-.24-.45,1.48,1.48,0,0,0-.42-.31,2,2,0,0,0-.66-.2,2.41,2.41,0,0,1,.4,0,1.45,1.45,0,0,1,.61.27,3.22,3.22,0,0,1,.48.42,1.94,1.94,0,0,1,.41.67c-.19-.5.14.21.16.19a3.7,3.7,0,0,0-.34-.73,2.25,2.25,0,0,0-.63-.7,2.45,2.45,0,0,1,.61.58,3.06,3.06,0,0,1,.26.42c0-.15-.05-.37,0-.37a2.69,2.69,0,0,1,.42.8,14.42,14.42,0,0,1,.52,2.45c.22.86.47,2,.7,2.83-.1-.83-.2-1.65-.29-2.41l.14,0c.07.31.14.66.22,1l0-.42c.14.59.27,1.18.4,1.76h.08a16.28,16.28,0,0,0,.34,1.86l-.05-.4c-.14-1.05-.14-1.05.07-.23,0,.19.09.38.14.56.1.43.1.32,0-.4l-.12-.84c.16.8.28,1.39.38,1.92a3,3,0,0,0-.11-.9,3,3,0,0,1-.14-.71c0-.29,0-.45,0-.68,0,.19.08.51.09.53a3,3,0,0,0,.16.36l-.24-1.29,0,.31-.23-1.44c.11.51.18.8.24,1.09h0v0h0v0l.12,0c.11.57.21,1.13.31,1.7h0c-.1-.65-.21-1.36-.29-1.91s-.12-1.06-.18-1.61l.14.73a3.62,3.62,0,0,0-.12-1.2l-.18-1.07c0-.34-.11-.7-.19-1.06,0-.21,0-.36-.06-.52a6.12,6.12,0,0,0-1-2.12,4.39,4.39,0,0,0-1.23-1.13,6.61,6.61,0,0,0-.82-.41,4.85,4.85,0,0,0-1.85-.2,6.32,6.32,0,0,0-1.58.33,8.25,8.25,0,0,0-2.49,1.36c-.72.68-.08.17.32-.07a10.69,10.69,0,0,0-2.3,2.25,10.33,10.33,0,0,1,1-1.32,9,9,0,0,1,1.7-1.54,5.9,5.9,0,0,0-1.21.87c-.43.38-.78.76-.91.85a10.23,10.23,0,0,1,1-1,8.69,8.69,0,0,1,3.08-1.65,3.93,3.93,0,0,1,1.55-.33,5.22,5.22,0,0,1,1.46.12c.22,0,.23,0,.25,0a5.93,5.93,0,0,0-.78-.15,5.6,5.6,0,0,0-.91,0,2,2,0,0,0-.78,0,5,5,0,0,0-.73.15,8.5,8.5,0,0,0-1.07.4,9.68,9.68,0,0,0-1.79,1.09,8.81,8.81,0,0,0-1.82,1.84l-.51.64c-.09.1-.12.12-.13.11s0-.15-.2.13-.14.35-.2.47c-.39.61-.79,1.44-1,1.82a2.77,2.77,0,0,1-.36.54A14.42,14.42,0,0,0,314,409c-.13.47-.27,1-.55,1.81a6.74,6.74,0,0,1,.33-1.23c.2-.6.25-.83.15-.72-.23.91-.59,1.76-.88,2.6a10.34,10.34,0,0,1,.47-1.79c.28-.88.29-1,.09-.61l-.31.88c-.09.22-.16.35-.23.55-.39,1.12-.81,2.15-1,2.72-.21.39-.42.74-.56,1a2.41,2.41,0,0,1-.37.56s0,0,0-.08-.09.06-.19.12a2.43,2.43,0,0,1-.16.3,5.47,5.47,0,0,1-.55.54l-.13.1-.12.06a.87.87,0,0,1-.25.1l-.2.05a.48.48,0,0,1-.38,0,.89.89,0,0,1-.19-.25,4.27,4.27,0,0,1-.26-.74c0-.13-.07-.28-.11-.44s-.07-.41-.12-.62a11.35,11.35,0,0,1-.14-1.43,3.32,3.32,0,0,0,0-.37c0-.14,0-.29,0-.34s0,0-.07,0c0-.23,0-.46,0-.7s0-.49,0-.74,0-.65,0-.94,0-.36,0-.29c0,.24,0,.56,0,.87s0,.46,0,.7l-.06-.14c0,.38,0,.66,0,.9s0,.39,0,.55a5.19,5.19,0,0,0,.18.89l0,.41c0,.13,0,.27,0,.41,0-.22-.1-.41-.13-.6s-.07-.34-.09-.5c0,.41,0,.74.06,1.05-.1-.72-.16-1.35-.22-2,0,.32,0,.57,0,.81v0c0-.18-.06-.35-.08-.53,0-.87.07-1.36.07-1.77s0-.77,0-1.48c0-.28.06-.67.06-.86,0-1.07,0-1.44,0-2a22.24,22.24,0,0,0-.47-2.83l-.09-.37,0-.18-.06-.2a7.1,7.1,0,0,0-.3-.81,6.46,6.46,0,0,0-.94-1.58c.11.05-.15-.4-.58-.83s-1-.79-.78-.74a5.25,5.25,0,0,0-2.33-.66,5.39,5.39,0,0,0-2,.29,7.13,7.13,0,0,0-2.77,1.79l-.26.36a17.35,17.35,0,0,0-1.21,1.26c.24-.24.59-.61.95-.94a11.06,11.06,0,0,1,1-.83,11.61,11.61,0,0,1,1.05-.79,5.91,5.91,0,0,1,2.62-1,4.89,4.89,0,0,1,2.48.43l-.18-.05a4.92,4.92,0,0,0-3.08-.18,6.49,6.49,0,0,0-1.13.52,6.56,6.56,0,0,0-1,.57c-.25.17-.48.36-.64.49a5.25,5.25,0,0,0-.37.51c-.44.42-.76.75-1,1a11.42,11.42,0,0,0-.71.9s-.08,0,0-.11.43-.53.64-.78c.44-.51.68-.81.43-.6a9.71,9.71,0,0,0-1.22,1.35,6.64,6.64,0,0,0-.54.8A20.08,20.08,0,0,0,294,405l.21-.23c-.25.46-.45.86-.64,1.27a11.79,11.79,0,0,0-.63,1.29c-.22.57,0,.15.05,0-.11.26-.26.66-.28.7a1.82,1.82,0,0,1-.23.27,14.53,14.53,0,0,1-.68,1.64c-.18.3-.44,1.12-.69,1.71l-.07.23c.2-.38.39-.8.57-1.2a9.37,9.37,0,0,1-.35.93c0,.09-.19.43-.27.63a5.59,5.59,0,0,1-1,1.61,4.88,4.88,0,0,1-.55.57l-.14.14a2.78,2.78,0,0,0,.34-.26,3.11,3.11,0,0,1-.38.47l-.15,0L289,415a.38.38,0,0,0-.09.1c0,.05,0,.07.07.06a2,2,0,0,1-.39.16l-.05-.16a1.74,1.74,0,0,1-.87,0s.08.07.21.09h.4l-.32.11a1,1,0,0,1-.27-.13.63.63,0,0,0-.2,0s-.1,0-.19-.05-.3-.21-.47-.8a2.75,2.75,0,0,0,.15.24,5.19,5.19,0,0,1-.11-.54,8.26,8.26,0,0,1-.26-1.45c0-.09,0,.05-.06.1s-.05,0-.08-.47a19,19,0,0,0,0-2c-.06-.86-.08-1.92-.25-3.07a14.15,14.15,0,0,0-.35-1.65c0,.24,0,.4,0,.61l-.1-.44c0-.14-.07-.27-.1-.39s-.14-.43-.2-.58a2.16,2.16,0,0,0-.26-.54l-.17-.37a7.45,7.45,0,0,0-.34-.81,8.45,8.45,0,0,0-1-1.43s.9,1.23-.05.09a7.24,7.24,0,0,0-3-2.18,1.58,1.58,0,0,0-.36-.09,3.66,3.66,0,0,1,.46.18l.51.24a7.3,7.3,0,0,1,1.52,1v0a6.73,6.73,0,0,0-1.86-1.12,6.52,6.52,0,0,1,.82.62,7.64,7.64,0,0,0-2.16-.86,6.77,6.77,0,0,0-2.62,0c.12,0,.13,0-.08.1l-.5.15-.4.12-.48.18-.35.05a11.83,11.83,0,0,0-2.4,1.49,15.43,15.43,0,0,0-1.74,1.64c-.17.22-.22.31-.35.46-.59.73-.76.9-1,1.18a10.45,10.45,0,0,0-1.41,2,24.06,24.06,0,0,0-1.1,2.16c-.18.5-.37,1.11-.53,1.73.13-.34.31-.75.53-1.21a17.73,17.73,0,0,0-.93,3.12,17.29,17.29,0,0,1,.86-2.61c0,.29.09-.14.82-1.58-.1.26-.19.48-.27.7a8,8,0,0,0-.25.81c0,.11.08-.07.16-.18s.16-.34.32-.69l-.19.22c.21-.5.42-.95.61-1.31.08-.06.09,0,.21-.16.31-.42.37-.35.36-.19a2.71,2.71,0,0,0-.15.29,7.41,7.41,0,0,0-.8,1.83s-.08.22-.17.49-.21.59-.28.82l-.07.19c.08-.31.17-.61.27-.91l-.05.09a15.81,15.81,0,0,0-.95,4c0,.17.07.25.12.14a8.38,8.38,0,0,0,.27-1,14.06,14.06,0,0,0-.15,2.85l.09.17a15.8,15.8,0,0,1,.25-2.4c0-.26.08-.66.15-1,.14-.57.23-.85.32-1.15.05-.15.09-.31.16-.5s.13-.44.26-.76S268.23,410.39,268.4,410Zm4-3.32c-.42.48-.73.87-1,1.26l.11-.2c.2-.27.4-.54.61-.79s.21-.32.49-.68C272.52,406.48,272.47,406.57,272.41,406.72Zm6.79-3c.43.19.43.26.43.28A2.67,2.67,0,0,0,279.2,403.73Zm45.63,1.15h0Zm3.24,4.1.09.59-.06-.2-.06-.51Zm-.06.08c0,.1,0,.2.05.29l-.09-.06Zm-1.07-1.22a3.14,3.14,0,0,1,0,.33s0-.11-.07-.23l0-.42C326.89,407.63,326.92,407.74,326.94,407.84Zm-2.77-5.16a2.38,2.38,0,0,0-.71-.13,3.49,3.49,0,0,0-.76.05A2.14,2.14,0,0,1,324.17,402.68ZM322,404.29c-.32.19-.49.32-.65.43l-.23.13a1.92,1.92,0,0,1-.29.15A5.27,5.27,0,0,1,322,404.29Zm-3,3.57,0-.23c.14-.16.14-.16-.05.25l0,.15-.15.27Zm-2.19-4,.17-.2c-.14.21-.29.42-.42.63l-.24.31C316.51,404.32,316.66,404.07,316.84,403.83Zm-2.13,3.82c-.13.27-.25.54-.37.8C314.64,407.68,314.66,407.66,314.71,407.65Zm0,0a6.76,6.76,0,0,1,.72-1.3,16.72,16.72,0,0,0-.69,1.59c.16-.61-.18.13-.5.93C314.39,408.46,314.55,408.05,314.71,407.64Zm-2.27,5.54c.1-.26.21-.52.35-.92l.13-.13a17.45,17.45,0,0,1-.77,1.76l0,0C312.23,413.68,312.34,413.43,312.44,413.18Zm-2.26,2.76a2.84,2.84,0,0,0,.72-.5,2.25,2.25,0,0,1-.34.36l-.22.17c-.08,0-.15.09-.25.13S310.15,416,310.18,415.94Zm-.39.17-.15,0C309.93,416,310,416,309.79,416.11Zm-.67-.11c.06,0,.1.07.39.06a.61.61,0,0,1-.3,0,.19.19,0,0,1-.1-.06Zm-.66-1.64c0,.11,0,.18,0,.31-.06-.17-.09-.36-.13-.52a3.58,3.58,0,0,1-.09-.45h0C308.3,413.91,308.38,414.11,308.46,414.36Zm-.29-.23a4.09,4.09,0,0,1-.12-.59,5.09,5.09,0,0,1,0-.54,4.68,4.68,0,0,1,0-.53C308.06,413.21,308.15,413.79,308.17,414.13Zm-2.29,5a4.68,4.68,0,0,0,.47.39,5.52,5.52,0,0,0,1.14.63c.2.11,0,.06-.38-.1a5,5,0,0,1-1.21-.82C305.77,419.07,305.71,419,305.88,419.13Zm-6.62-20.51a8,8,0,0,0-.88.62l.1-.11a9.77,9.77,0,0,1,.95-.64Zm2.51,4.82s0,0,0,0,0,.09,0,.15h0Zm.59.09a.34.34,0,0,1-.07.15.51.51,0,0,1-.17,0l.17-.15s.18-.06.2-.05S302.37,403.5,302.36,403.53Zm1,1.32-.1-.53v0l.11.52Zm.23,3.38v-.05c0-.16,0-.32,0-.48l0,.13Zm0-1.27c-.05-.36-.08-.72-.14-1.06v-.19c.05.28.1.56.14.85Zm-.78-9.13a4.74,4.74,0,0,1,.65.23,4.74,4.74,0,0,0-1.44-.16c-.27,0-.35,0-.32,0A3.68,3.68,0,0,1,302.78,397.83Zm-1,5.65-.09-.09S301.67,403.4,301.73,403.48Zm-1.16,1.4c.5-.53.41-.38.26-.17C300.29,405.3,300.41,405.13,300.57,404.88Zm-1.89,2.62a1.56,1.56,0,0,1,.13-.19s0,.06,0,.1l-.13.19S298.67,407.54,298.68,407.5Zm-1.29,3.89.08-.22s0,0,0,0-.1.28-.1.28A.77.77,0,0,0,297.39,411.39Zm-1.55.73.07-.15-.18.61-.09.19Zm-.66,1.86.12-.26c0,.12-.09.29-.18.54s-.19.33-.18.3ZM294,405.61q.12-.23.24-.42a2.19,2.19,0,0,0-.12.33l-.16.29Zm-.21.2c-.25.52-.39.81-.59,1.32l-.15.12C293.24,406.82,293.45,406.39,293.78,405.81Zm-2.3,12.64c.12-.12.43-.36.74-.66a6.32,6.32,0,0,0,.81-.91c.07-.08.39-.47.57-.73a.6.6,0,0,1-.1.22,10,10,0,0,1-.87,1.08c-.22.25-.22.3-.35.46a7.39,7.39,0,0,1-1,.72Zm-15.84-16.6-.36.13a7.93,7.93,0,0,1,.83-.4l.2-.06C276.12,401.62,275.91,401.69,275.64,401.85Zm-.41-.06a6,6,0,0,1,.58-.26,7.28,7.28,0,0,1,1.25-.33,6,6,0,0,0-1.55.59,14.52,14.52,0,0,0-1.62,1l-.06.11c-.48.32-.51.31.08-.17.41-.32.78-.56.92-.68A3,3,0,0,1,275.23,401.79Zm-1.58.75a9.92,9.92,0,0,1,1.26-.79c-.34.22-.62.44-.89.65l-.33.24c.1-.12-.21,0-.92.68A10.8,10.8,0,0,1,273.65,402.54Zm-.34.56-.62.45C273.43,402.88,273.53,402.87,273.31,403.1Zm-1-1.16.1-.06a11.21,11.21,0,0,0-.93.89l-.14.1C271.64,402.55,272,402.24,272.3,401.94ZM269,406.85l.34-.36-.19.29-.27.27Z" transform="translate(-265.77 -397.57)"/><path d="M293.16,406.57v0h0v0h0l-.37.76.31-.9c-.28.61-.47,1.08-.68,1.64.1-.14-.15.71.1.17a22.93,22.93,0,0,1,1-2.22Z" transform="translate(-265.77 -397.57)"/><path d="M292.51,408.25h0v0h0v0Z" transform="translate(-265.77 -397.57)"/><path d="M326.39,407.33c-.26-1.07,0,.49,0,.73-.05-.15-.09-.28-.15-.49.12.66.2,1.09.29,1.57A15.19,15.19,0,0,0,326.39,407.33Z" transform="translate(-265.77 -397.57)"/><path d="M286.62,412.44c0,.47,0,.4.05.27s0-.61,0-.93v-1c0-.68,0-1.38-.06-2.13l0,0a27.74,27.74,0,0,1,.05,3C286.6,411.79,286.61,412.17,286.62,412.44Z" transform="translate(-265.77 -397.57)"/><path d="M325,406c0,.13.06.1.09,0a9.66,9.66,0,0,0-.28-1.07l-.06.24C324.92,405.57,325,405.86,325,406Z" transform="translate(-265.77 -397.57)"/><path d="M325.05,405.52c.15.54.23,1,.31,1.34a5.14,5.14,0,0,0-.15-1.19C325,404.72,325.14,405.68,325.05,405.52Z" transform="translate(-265.77 -397.57)"/><path d="M269.5,410.53c-.07.18-.08.25-.06.25s.29-.55.75-1.41c-.23.37-.35.59-.47.78l.18-.53A6.31,6.31,0,0,0,269.5,410.53Z" transform="translate(-265.77 -397.57)"/><path d="M266,413.05c-.09.27-.15.59-.2.69,0,.36,0,.54,0,.4l.1-.45.1-.44c0-.17.09-.36.15-.58S266.07,412.79,266,413.05Z" transform="translate(-265.77 -397.57)"/><path d="M302.59,406.12c0,1,0,2,0,2.23,0-.12,0-.27,0-.32C302.66,407.18,302.63,406.64,302.59,406.12Z" transform="translate(-265.77 -397.57)"/><path d="M302.87,415.06a12.74,12.74,0,0,1-.17-1.38c0-.36,0-.6-.11-1.32,0,.5,0,.92.07,1.47C302.67,414,302.75,414.45,302.87,415.06Z" transform="translate(-265.77 -397.57)"/><path d="M319.93,407.13v-.21a8.64,8.64,0,0,0-.52.89A3.41,3.41,0,0,0,319.93,407.13Z" transform="translate(-265.77 -397.57)"/><path d="M302.55,410.29c0,.43,0,.86.09,1.58,0-.72,0-1.36,0-1.51a1.78,1.78,0,0,0-.07-.45Z" transform="translate(-265.77 -397.57)"/><path d="M277.22,399.17l.38,0a5.33,5.33,0,0,1,.57,0c.24,0,.48,0,.73,0l.74.07-.34-.07-.51-.06h-.51A7.8,7.8,0,0,0,277.22,399.17Z" transform="translate(-265.77 -397.57)"/><path d="M329.05,412.17c-.13-.85-.2-1.37-.28-1.9l0-.17.06.84C328.88,411.34,328.94,411.64,329.05,412.17Z" transform="translate(-265.77 -397.57)"/><path d="M278.12,403.57a3.26,3.26,0,0,0-.85.16c-.07,0,0,0-.07.09a3.45,3.45,0,0,1,1-.22Z" transform="translate(-265.77 -397.57)"/><path d="M287.27,415.12l0,0,0,0V415l-.05-.05A.86.86,0,0,0,287.27,415.12Z" transform="translate(-265.77 -397.57)"/><path d="M322.53,404.24a2.37,2.37,0,0,1,.84-.14s.12,0,.09,0A1.57,1.57,0,0,0,322.53,404.24Z" transform="translate(-265.77 -397.57)"/><path d="M307.47,421.08c-.21-.1-.36-.22-.52-.31a6.32,6.32,0,0,1-.68-.33c-.14-.07-.19-.11-.17-.08A4.77,4.77,0,0,0,307.47,421.08Z" transform="translate(-265.77 -397.57)"/><path d="M325.3,400.87a5.71,5.71,0,0,1,.94.58c.2.16.29.25.29.23s0-.07-.13-.16a3.74,3.74,0,0,0-.29-.25,3.57,3.57,0,0,0-.94-.52,1.3,1.3,0,0,0-.34-.08s0,0,0,0h0A4.37,4.37,0,0,1,325.3,400.87Z" transform="translate(-265.77 -397.57)"/><path d="M297.36,412.27c-.13.46-.24.84-.36,1.22l.12-.26C297.45,412.23,297.43,412.25,297.36,412.27Z" transform="translate(-265.77 -397.57)"/><path d="M290,413.74a.85.85,0,0,0,.14-.29,4.65,4.65,0,0,1-.72.88A3.66,3.66,0,0,0,290,413.74Z" transform="translate(-265.77 -397.57)"/><path d="M329.27,416c-.16-.79-.23-1.1-.23-.83C329.18,416,329.23,416.08,329.27,416Z" transform="translate(-265.77 -397.57)"/><path d="M284.3,419.59c.21.11.11,0-.18-.23a5.84,5.84,0,0,1-1.16-1A5.7,5.7,0,0,0,284.3,419.59Z" transform="translate(-265.77 -397.57)"/><path d="M293.17,406.55c.2-.45.42-.89.65-1.33l.05-.13c-.14.25-.29.49-.41.74-.2.4-.41.89-.29.73l0,0h0l0,0Z" transform="translate(-265.77 -397.57)"/><path d="M279.63,404.38a2.46,2.46,0,0,1,.43.42C279.91,404.56,279.75,404.39,279.63,404.38Z" transform="translate(-265.77 -397.57)"/><path d="M306.8,400.38a7.47,7.47,0,0,1,.56,1.11,6.89,6.89,0,0,0-.46-1,5.92,5.92,0,0,0-1.09-1.38,6.36,6.36,0,0,1,.66.78A5.26,5.26,0,0,1,306.8,400.38Z" transform="translate(-265.77 -397.57)"/><path d="M328.05,404a7.22,7.22,0,0,0-.48-1.21,5.34,5.34,0,0,0-.92-1.25,5.55,5.55,0,0,1,.83,1.14A7.14,7.14,0,0,1,328.05,404Z" transform="translate(-265.77 -397.57)"/><path d="M324.54,404.92c0,.12.06.24.1.38l.09.14c0-.1-.05-.2-.07-.29Z" transform="translate(-265.77 -397.57)"/><path d="M328.61,413.34c0,.23.06.45.08.67l.07.29c0-.18,0-.36-.05-.55Z" transform="translate(-265.77 -397.57)"/><path d="M271.51,408.23c-.23.32-.36.54-.51.75S271.09,409,271.51,408.23Z" transform="translate(-265.77 -397.57)"/><path d="M327.29,413.42l-.17-.82A2,2,0,0,0,327.29,413.42Z" transform="translate(-265.77 -397.57)"/><path d="M325.86,405.51c0,.11.07.21.08.2s0-.25,0-.29a2.06,2.06,0,0,0-.1-.32S325.83,405.29,325.86,405.51Z" transform="translate(-265.77 -397.57)"/><path d="M305.58,419.75a6.89,6.89,0,0,1-1-1.19,5.66,5.66,0,0,0,.74,1,5.58,5.58,0,0,0,1.16.91C306.25,420.28,305.93,420.07,305.58,419.75Z" transform="translate(-265.77 -397.57)"/><path d="M294.55,403.62c.19-.26.38-.52.59-.77l.14-.22c-.2.24-.4.49-.59.74Z" transform="translate(-265.77 -397.57)"/><path d="M275.84,404.5l.13-.14-.24.14-.14.16Z" transform="translate(-265.77 -397.57)"/><path d="M321,405.77l.23-.22.24-.2h-.05a4.28,4.28,0,0,0-.45.41Z" transform="translate(-265.77 -397.57)"/><polygon points="62.68 13.58 62.68 13.58 62.68 13.57 62.68 13.56 62.68 13.56 62.68 13.56 62.68 13.56 62.68 13.57 62.68 13.58 62.68 13.58"/><path d="M328.46,411.15c.05.14.11.29.19.49C328.49,410.89,328.47,411,328.46,411.15Z" transform="translate(-265.77 -397.57)"/><path d="M279.18,403l.28,0A1.89,1.89,0,0,0,279,403S279.06,403,279.18,403Z" transform="translate(-265.77 -397.57)"/><path d="M282.6,400.58l-.15-.11.22.23a5,5,0,0,1,.44.36,2.08,2.08,0,0,0-.27-.29Z" transform="translate(-265.77 -397.57)"/><path d="M299.53,398.55a7.77,7.77,0,0,0-1,.73h0a8,8,0,0,1,1.09-.75Z" transform="translate(-265.77 -397.57)"/><path d="M270.13,407.36l-.15.24c0,.07-.05.15-.09.27C270.4,407,270.41,407,270.13,407.36Z" transform="translate(-265.77 -397.57)"/><path d="M328.57,410.85l0-.07c0-.24-.09-.48-.13-.71,0,0,0,0,0,0Z" transform="translate(-265.77 -397.57)"/><path d="M324.73,400.18a5.24,5.24,0,0,0-.63-.14,3.26,3.26,0,0,0-.51,0c.08,0,.31,0,.54.07S324.77,400.2,324.73,400.18Z" transform="translate(-265.77 -397.57)"/><path d="M326.38,406.13l0-.2v.13a1,1,0,0,0,0,.18A.66.66,0,0,0,326.38,406.13Z" transform="translate(-265.77 -397.57)"/><path d="M327.07,410a3.4,3.4,0,0,0-.05-.48s-.06-.29-.06-.27,0,.22,0,.5Z" transform="translate(-265.77 -397.57)"/><path d="M274.62,402.85l-.22.18.14-.1.19-.12Z" transform="translate(-265.77 -397.57)"/><path d="M289.6,442.92l-.13.07Z" transform="translate(-265.77 -397.57)"/><path d="M319.34,427.26h0l0,0Z" transform="translate(-265.77 -397.57)"/><path d="M329.37,434.83c-.16-.63-.35-1.33-.49-1.88s-.27-1-.41-1.58c.1.26.18.5.26.71a3.8,3.8,0,0,0-.32-1.19c-.24-.7-.5-1.4-.75-2-.05-.18-.08-.31-.12-.44-.13-.3-.25-.58-.37-.84s-.25-.51-.37-.75c-.35-.71-.62-1.22-.68-1.41a9.23,9.23,0,0,0-1.67-2.29,4.63,4.63,0,0,0-1.53-1,4.37,4.37,0,0,0-1.86-.26,1.93,1.93,0,0,0-.54.12c-.07,0,0,0,.05,0a5,5,0,0,1,.9,0,4.92,4.92,0,0,0-2,.38,7.37,7.37,0,0,0-1.52.84,7.12,7.12,0,0,1,1.52-1,5.25,5.25,0,0,1,1.32-.42,4.78,4.78,0,0,1,1.6,0,3.67,3.67,0,0,0-.89-.13,4.76,4.76,0,0,0-1.13.11,12,12,0,0,0-1.41.47,5.72,5.72,0,0,1,1.65-.6,5,5,0,0,1,1.22,0,4.3,4.3,0,0,1,1.2.29,5.09,5.09,0,0,1,1.76,1.23,4.25,4.25,0,0,1,.94,1.09c.34.51.45.72.53.84s.09.1.12.09l-.24-.41c-.11-.18-.22-.35-.35-.54a2,2,0,0,0-.3-.57,5.55,5.55,0,0,0-.45-.55,5.74,5.74,0,0,0-1-.87,4.91,4.91,0,0,0-1.35-.61,5.19,5.19,0,0,0-1.43-.16,5.35,5.35,0,0,0-1.86.41,6.23,6.23,0,0,0-1.12.62c-.41.25-.62.4-.74.48s-.15.08-.16.07.07-.14-.23.07l-.32.39a19.91,19.91,0,0,0-1.45,1.43,3.12,3.12,0,0,1-.51.42c-.24.31-.43.57-.58.8s-.27.44-.41.65c-.25.43-.53.9-1,1.69a7.21,7.21,0,0,1,.64-1.17c.35-.55.48-.76.35-.68-.48.84-1.05,1.61-1.52,2.44a7.78,7.78,0,0,1,.9-1.73c.49-.82.57-.94.24-.59s-.37.57-.54.81-.24.32-.36.51a24.77,24.77,0,0,0-1.55,2.76c-.28.43-.53.81-.72,1.12-.54.92-.49.75-.45.62s-.11.08-.23.18-.17.39-.19.42a15.65,15.65,0,0,1-1.47,1.94l-.26.29a2.57,2.57,0,0,1-.33.33A6.6,6.6,0,0,1,307,435c-.1-.19-.16-.41-.25-.61a5,5,0,0,1-.19-.63l-.1-.31c0-.13-.08-.26-.1-.3s0,0-.06,0c-.05-.21-.09-.42-.12-.64s-.08-.43-.11-.65-.1-.6-.14-.85-.08-.32-.08-.26c0,.22.06.51.09.79s.07.41.11.63l-.08-.12a7.84,7.84,0,0,0,.28,1.3,1.92,1.92,0,0,0,.14.36,4,4,0,0,0,.21.39c.07.25.14.46.23.72a8.06,8.06,0,0,1-.44-.93c.05.2.1.36.14.52l.15.42c-.26-.62-.46-1.18-.64-1.76l.07.4.07.33v0c-.06-.16-.14-.3-.19-.46-.15-.78-.19-1.24-.26-1.61s-.13-.69-.25-1.34c0-.27,0-.61-.06-.79-.14-1-.12-1.31-.18-1.85-.16-.8-.3-1.65-.52-2.57a8,8,0,0,0-1.37-3c.1.05-.12-.36-.46-.77s-.8-.8-.62-.73a5.29,5.29,0,0,0-3.2-1,5.36,5.36,0,0,0-1,.13,5.78,5.78,0,0,0-1.63.66,6,6,0,0,0-.65.42,6.86,6.86,0,0,0-.65.51,4.5,4.5,0,0,0-.34.38,12.71,12.71,0,0,0-1.37,1.4c.25-.26.64-.68,1.06-1.05a7.51,7.51,0,0,1,1.1-.85l.4-.27c.18-.13.44-.29.66-.42a6.44,6.44,0,0,1,1.22-.53,5.42,5.42,0,0,1,.79-.18,5,5,0,0,1,.86,0,4.77,4.77,0,0,1,2.35.74l-.16-.07a4.91,4.91,0,0,0-1.49-.54,4.29,4.29,0,0,0-.79-.07,3.84,3.84,0,0,0-.76,0,5,5,0,0,0-1.28.44,6,6,0,0,0-1,.5c-.24.14-.47.3-.64.42a5.81,5.81,0,0,0-.42.49,10.12,10.12,0,0,0-1.17,1.11,9.66,9.66,0,0,0-.74,1c0-.05-.08,0,0-.12a10.09,10.09,0,0,1,.68-.86c.49-.57.79-.89.51-.67a8.29,8.29,0,0,0-.65.63,9.36,9.36,0,0,0-.69.88c-.25.36-.36.59-.53.88a17.75,17.75,0,0,0-1.3,2.49l.19-.24c-.21.47-.36.87-.51,1.27s-.37.88-.49,1.26c-.17.54,0,.14,0,0l-.23.66a2,2,0,0,1-.21.27,10.1,10.1,0,0,1-.61,1.57c-.17.29-.41,1.1-.65,1.73l-.07.23c.19-.4.38-.83.55-1.23a9.16,9.16,0,0,1-.33.95c-.05.08-.18.46-.26.66a8.61,8.61,0,0,1-.92,1.88l-.25.38c-.1.14-.2.29-.3.41l-.14.22c.12-.14.24-.27.35-.42-.06.13-.12.24-.18.35l-.18.32-.16.08a1,1,0,0,0-.14.25h0v-.05h0a1.18,1.18,0,0,1-.19-.06s.07.09.13.1l.07,0v0a.16.16,0,0,1-.06.06l-.14-.14a.89.89,0,0,0-.22,0,.42.42,0,0,1-.29-.14,1.92,1.92,0,0,1-.67-1.07,1.85,1.85,0,0,0,.18.26,4.43,4.43,0,0,1-.16-.58,7.09,7.09,0,0,1-.39-1.42c-.06-.17,0,.55-.18-.34,0-.49-.06-1.28-.11-1.8-.08-.77-.1-1.72-.16-2.74,0-.55-.09-1.09-.14-1.48l-.1.54a6.84,6.84,0,0,0-.27-1.79l-.08-.35c0-.24,0-.5-.09-.78a5.92,5.92,0,0,0-.22-.75,7.22,7.22,0,0,0-.27-.77s.41,1.37-.07.07a5.3,5.3,0,0,0-1.21-1.91,4.8,4.8,0,0,0-1.13-.79,5,5,0,0,0-1.21-.39l-.44,0a5.42,5.42,0,0,1,1.27.33,4.94,4.94,0,0,1,1.08.6,3.92,3.92,0,0,1,.92.95v0a4.33,4.33,0,0,0-2.45-1.64,4.34,4.34,0,0,1,1.15.69,4.92,4.92,0,0,0-1.55-.6,5.2,5.2,0,0,0-1.16-.1,6.75,6.75,0,0,0-1.24.18,5.84,5.84,0,0,0-.64.2l-.62.24c.12,0,.13,0-.05.12s-.56.29-1.18.68a2.44,2.44,0,0,0-.32.11,14.34,14.34,0,0,0-3.47,3.62c-.13.23-.16.32-.27.49-.48.78-.63,1-.85,1.29a10.36,10.36,0,0,0-1.09,2.18,21.53,21.53,0,0,0-.76,2.27c-.09.51-.19,1.13-.26,1.75.08-.34.19-.76.34-1.24a19.8,19.8,0,0,0-.47,3.14,17.69,17.69,0,0,1,.48-2.64c0,.29.07-.15.57-1.65-.07.26-.11.5-.16.72s-.12.7-.13.82.08-.07.14-.2.09-.35.21-.71l-.16.24c.14-.52.28-1,.4-1.37.07-.06.09,0,.18-.18.24-.45.32-.4.33-.23l-.11.3a7.63,7.63,0,0,0-.5,1.9s0,.22-.09.49-.12.6-.15.84l-.05.19c0-.31.08-.62.14-.92l0,.09a20,20,0,0,0-.32,2,8.91,8.91,0,0,0,0,2.13c.08.18.13.25.16.12s0-.48.06-1.09a5.75,5.75,0,0,0,.2,1.56,3.57,3.57,0,0,0,.73,1.42l.2.1a3.34,3.34,0,0,1-.66-1.26,4.8,4.8,0,0,1-.17-1.23,8.32,8.32,0,0,1,0-1c.07-.59.13-.86.17-1.17s.1-.63.23-1.28c.11-.33.18-.51.29-.88.26-.85.51-1.4.53-1.29a15.89,15.89,0,0,1,1.12-2.66c-.17.35-.25.56-.35.79s-.22.48-.35.84c.32-.62.56-1.22.87-1.84l.12.07a17.49,17.49,0,0,1,2.1-3.29c.13-.17.16-.23.24-.34.24-.24.49-.48.71-.66.11,0,0,.16,0,.22s.13,0,.71-.37c-.06.08-.18.22-.11.2s.34-.22.58-.34a7.35,7.35,0,0,0-1,.78c-.34.37-.72.73-1,1.11l-.23.1c-.24.31-.37.48-.47.63a10.55,10.55,0,0,0-1.49,2.94c0,.1.06,0,.12-.09.27-.33.2-.11-.18.81.06-.11.11-.2.16-.31.19-.4.47-.93.42-.74s-.23.54-.38.88-.27.64-.42,1c.26-.44.54-.88.51-.6,0,.11.19-.28,0,.39,0,.11,0,.14,0,.06.26-.45.06.23.09.32a.74.74,0,0,1,0,.15,2.44,2.44,0,0,1,.1-.24c.06-.25.12-.5.22-.82.38-.69.75-1.29,1.33-2.18a12.6,12.6,0,0,1,1.6-2.23l.26-.13a3.82,3.82,0,0,1,.43-.46,5.37,5.37,0,0,1,.74-.52,2.42,2.42,0,0,1,.57-.39c.26-.15.52-.27.5-.3a3.19,3.19,0,0,1,.61-.14,3.11,3.11,0,0,1,.49-.11,1.09,1.09,0,0,1,.58.06l-.06,0h0a.53.53,0,0,1,.25.24,2.48,2.48,0,0,1,.19.49c-.15-.32-.25-.4-.32-.44s0,.07-.08.08h-.2s.08.05.1.07,0,0-.07,0a.8.8,0,0,0-.31-.1s-.11.07-.31.13l-.33.12-.16.07L278,426a4,4,0,0,1,1.07-.27.42.42,0,0,1,.22,0,0,0,0,0,1,0,0s0,0,0,.05,0,0-.06,0a.64.64,0,0,0-.2,0,2.54,2.54,0,0,0-.86.19,1.44,1.44,0,0,1,.6-.07c.13,0,.17.05.18.08s.09,0,.13,0l0-.07h.11s0,0,0,0l.05.1c-.06-.06-.11-.07-.12,0a1,1,0,0,1,.15.3,3.83,3.83,0,0,1,.18.64l-.13-.22a9.78,9.78,0,0,1,.27,1.69,10.3,10.3,0,0,1,.24,1.81c-.05-.42-.11-.77-.17-1.15,0,.51,0,.94,0,1.43l.11.23c0,1.51,0,2-.12,1.9,0,.68,0,1,.05,1.32s0,.57,0,1.1a19.16,19.16,0,0,0,.48,2.19,10.32,10.32,0,0,0,1.91,3.7,5.78,5.78,0,0,0,.7.7,4.84,4.84,0,0,0,.64.48,6.62,6.62,0,0,0,1.1.55,5.78,5.78,0,0,0,2.38.51v.1a6.23,6.23,0,0,1-3.07-.69,5.43,5.43,0,0,0,1.39.6,5.28,5.28,0,0,0,2.28.14,5.82,5.82,0,0,0,1.57-.46c.45-.2.72-.38.72-.35a2,2,0,0,0,.58-.38,10.23,10.23,0,0,0,.8-.74,7.7,7.7,0,0,1-.75.76c-.16.16-.25.23-.3.29l-.18.17a4.8,4.8,0,0,1-.48.33,5.84,5.84,0,0,0,1-.71,5.39,5.39,0,0,0,.59-.59,5.46,5.46,0,0,0,.54-.73,16,16,0,0,0,.95-1.4l.43-.74c.19-.32.24-.35.34-.4a10.63,10.63,0,0,0,.83-2.13c0-.12.13-.44.2-.63s.14-.35.19-.46a7.75,7.75,0,0,0,.34-.77c.26-.71.53-1.56.83-2.39,0-.14-.15,0,0-.72l.09,0,.31-.84a4.59,4.59,0,0,1,.46-1.43,18.5,18.5,0,0,0-.86,2c.2-.58.29-.82.42-1.16-.12.21-.21.37-.36.66a14.12,14.12,0,0,1,1.38-2.69l-.12.25c.26-.41.4-.62.51-.81l.16-.28.21-.31-.06.18a4.59,4.59,0,0,1,.67-.62L299,426l0,.06s0,0,0,0,.09.23.13.36a3.28,3.28,0,0,1,.11.45l-.06-.4c0-.09,0-.15,0-.2a1.91,1.91,0,0,1,0-.24,3.08,3.08,0,0,1,.16.54l0,.08,0,.11.05.24c0,.16.07.35.1.57-.05-.44-.06-.58,0-.57a1.59,1.59,0,0,1,.14.43c.09.4.08.2,0-.36a3.36,3.36,0,0,1-.07-.53,2.71,2.71,0,0,1,.15.53c.1.38.17.84.26,1.37-.06-.21-.13-.42-.19-.63a10.69,10.69,0,0,0,.19,1.1c0,.18.09.27.15.56s.06.78.08,1.08a11,11,0,0,0,.16,1.43c.16.87.05-.07.12.16a23.21,23.21,0,0,0,.56,2.86l.2.38c.39,1.33.89,2.3,1,2.59-.18-.3-.36-.58-.51-.87.15.39.35.74.51,1.08a8.06,8.06,0,0,0,.65,1,4.54,4.54,0,0,0,.82.76c.13.09.29.22.58.41a5.55,5.55,0,0,0,1.44.68,5,5,0,0,1-1.64-.89,6.19,6.19,0,0,1-1.07-1.12v0a6,6,0,0,0,1.59,1.45,4.8,4.8,0,0,0,2.52.7,4.53,4.53,0,0,1-1.61-.5,4.56,4.56,0,0,0,.77.23,5,5,0,0,0,.61.07,4.63,4.63,0,0,0,1.14-.11,4.46,4.46,0,0,1-2.3-.18,4.31,4.31,0,0,0,1.13.19,4.21,4.21,0,0,0,1.42-.18,4.39,4.39,0,0,1-2.16,0,4.6,4.6,0,0,1-1.72-.83,5.6,5.6,0,0,1-1.53-1.87,10.7,10.7,0,0,0,.78.94,7.62,7.62,0,0,0,1.06.94l-.16-.05a4.31,4.31,0,0,0,3.9.64,6.53,6.53,0,0,0,1.73-.87,5.67,5.67,0,0,1-1.74,1,5.33,5.33,0,0,0,2.22-1.25,12.24,12.24,0,0,0,.88-.89l.75-.87a30.1,30.1,0,0,0,2.05-2.92c-.18.34-.33.61-.44.8.59-.9,1.11-1.77,1.62-2.61a12.89,12.89,0,0,0,1-1.71c.14-.26.31-.53.42-.72a19.22,19.22,0,0,1,1.43-1.76l-.11-.09c.24-.3.33-.39.38-.41s0,0,.1,0l.24-.25a3.28,3.28,0,0,1,.21-.33c-.3.24-.75.75-.73.64.32-.34.59-.65.88-.91a2.52,2.52,0,0,1,.78-.72l0,0h0a4.55,4.55,0,0,1,.69-.48,1.71,1.71,0,0,1,.6-.22,1.55,1.55,0,0,0-.62.15l0-.13a2,2,0,0,1,.5-.15l.23-.14a.85.85,0,0,0-.39.08l-.51.23a2.61,2.61,0,0,1,.82-.43,1.71,1.71,0,0,0-.77.22.9.9,0,0,1,.38-.21.83.83,0,0,1,.58,0s.1,0,.21,0a1.86,1.86,0,0,1,.39.37,11.67,11.67,0,0,1,.87,1.28,7.22,7.22,0,0,0-.89-1.45,3.32,3.32,0,0,1,.48.5,2.9,2.9,0,0,1,.13.27c.17.2.32.43.53.71s.25.59.31.73.28.5.39.71l.3.58c.09,0-.13-.62.28.14h0c.12.19.25.38.11,0-.2-.61-.22-.79.23.07-.19-.4-.38-.8-.58-1.19l0-.09a28.55,28.55,0,0,1,1.35,2.83,7.34,7.34,0,0,1-.14-.73c0-.09.13.1.19.17-.33-.89-.39-.75-.7-1.55l.27.35-.12-.28c-.14-.26-.3-.52-.53-.91a2.92,2.92,0,0,0-.19-.6,14.58,14.58,0,0,0-.66-1.33,8.74,8.74,0,0,1,.67,1.07c.34.64.39.59.77,1.39-.21-.52.16.22.17.18-.22-.49-.43-1-.81-1.68.38.64.58,1.06.69,1.25,0-.16,0-.38,0-.37a4,4,0,0,1,.44.77c.32.68.61,1.44.92,2.28s.76,1.84,1.08,2.67c-.19-.8-.4-1.59-.61-2.32l.13,0c.12.3.25.63.38,1l-.1-.42c.22.57.42,1.13.62,1.7l.08,0c.2.62.34,1.42.52,1.81l-.08-.39c-.24-1-.24-1,0-.23l.19.54c.14.41.13.3,0-.4-.05-.23-.1-.44-.19-.82.24.78.4,1.35.55,1.87a3.5,3.5,0,0,0-.18-.89,2.18,2.18,0,0,1-.21-.68c-.06-.29-.08-.46-.11-.68.05.18.13.5.14.52s.12.22.19.34c-.14-.51-.26-.89-.37-1.26l0,.31c-.1-.37-.21-.74-.41-1.41.18.49.28.78.38,1.07v0l0,.05v0h0v0l.11,0c.17.56.34,1.11.49,1.66Zm-32.66-14.26a9.52,9.52,0,0,0-.89.53l.11-.09a7.91,7.91,0,0,1,1-.56Zm-26.66,10-.23.3.09-.21c.09-.13.18-.27.28-.4C270.14,430.36,270.09,430.47,270.05,430.57Zm3.17-.48c-.34.51-.58.93-.81,1.35l.08-.21q.22-.44.48-.84c.09-.17.16-.34.37-.72C273.29,429.84,273.26,429.94,273.22,430.09Zm-1.49-3.74-.12.12c.25-.35.51-.7.79-1l.09-.08C272.22,425.68,272,426,271.73,426.35Zm1.84.07-.52.53C273.66,426.19,273.75,426.16,273.57,426.42Zm-.48.29c.33-.43.51-.64.73-.88a9.72,9.72,0,0,1,1.08-1,10.74,10.74,0,0,0-.75.78l-.28.28C273.94,425.79,273.68,426,273.09,426.71Zm2.54-1.87-.33.19a7.64,7.64,0,0,1,.73-.54l.18-.09A6.37,6.37,0,0,0,275.63,424.84Zm-.15,0a17.39,17.39,0,0,0-1.39,1.23l0,.12c-.42.37-.44.37.05-.18.34-.38.66-.67.78-.82a4.44,4.44,0,0,1,.85-.65,7.3,7.3,0,0,1,1.12-.56A8.06,8.06,0,0,0,275.48,424.8Zm3.76,1.11Zm0,0h0Zm7.71,12,0,0a.06.06,0,0,1,0,0H287Zm4.47-10.05.19-.43-.08.34-.13.29Zm-.19.21c-.19.51-.29.8-.45,1.29l-.14.12C290.83,429.05,291,428.63,291.26,428.05Zm.43,10.25-.32.59-.32.54a2.75,2.75,0,0,0-.23.47,7.75,7.75,0,0,1-.81.91,2.64,2.64,0,0,0,.18-.23c.09-.14.33-.45.55-.78a11.21,11.21,0,0,0,.58-1c0-.08.29-.49.42-.75A.41.41,0,0,1,291.69,438.3Zm1.35-2.11-.15.3.19-.56a2,2,0,0,1,.12-.25C293.17,435.79,293.12,436,293,436.19Zm.53-1.63-.08.2.18-.64.06-.15C293.68,434.16,293.63,434.36,293.57,434.56Zm1.63-1.09s0-.06,0-.1l.08-.22s0,0,0,0Zm1.17-4.28-.1.2s0-.07,0-.1l.1-.2S296.39,429.15,296.37,429.19Zm1.7-2.58a1.83,1.83,0,0,1-.33.34s0-.1.11-.21C298.26,426.29,298.19,426.44,298.07,426.61Zm.88-.85a.06.06,0,0,1,0,0l0,0S298.93,425.75,299,425.76Zm-.19-.07c-.07-.07-.07-.07-.05-.07a.48.48,0,0,1,.09.1Zm.24.27h0l0,.08Zm.14-.1v0Zm.39-.23a.49.49,0,0,1-.17.05h0l.06,0S299.59,425.59,299.53,425.63Zm1,1.58c0-.19-.08-.37-.12-.55v0c0,.18.08.35.12.54Zm.16,1.1,0-.2c.07.28.14.58.21.87,0,.14,0,.28,0,.42C300.82,429,300.74,428.67,300.67,428.31Zm.37,2.33-.05-.49,0,.13c0,.14,0,.28,0,.41S301.05,430.65,301,430.64Zm-1.38-10.55c-.27,0-.36,0-.33,0a1.82,1.82,0,0,1,.39,0,4.24,4.24,0,0,1,.74.09,5.32,5.32,0,0,1,.61.32A5,5,0,0,0,299.66,420.09Zm8.41,15.22.12-.11s0,.07-.12.2a1.3,1.3,0,0,1-.21.12Zm-.4.35-.25.23h0v0Zm-.59.87Zm0,.05h0v0Zm0-1.11.07.24a2.36,2.36,0,0,1-.22-.38c-.07-.14-.14-.26-.19-.38h0C306.78,435.11,306.9,435.28,307,435.47Zm0,.51Zm-.54-1.12a3.11,3.11,0,0,1-.16-.49c0-.15-.08-.3-.12-.47.21.64.43,1.15.53,1.46l-.16-.28C306.51,435,306.47,434.9,306.46,434.86Zm2,5.51a4.29,4.29,0,0,1-1.59.24c-.24-.05-.35-.07-.08-.06a6.47,6.47,0,0,0,.7,0,5,5,0,0,0,1.31-.35C309,440.12,308.82,440.23,308.44,440.37Zm.05-5.31.11-.29c.34-.41.6-.71.89-1.1A9.16,9.16,0,0,1,308.49,435.06Zm2.46-3.39,0,0,.43-.79.52-1,.15-.12Zm4-5.95c-.2.23-.42.45-.6.69C314.83,425.73,314.86,425.72,314.91,425.72Zm-.05.28c.16-.27.11-.25-.05-.07s-.2.21-.32.36l-.38.5.39-.56.41-.51a4.58,4.58,0,0,1,.61-.65l.44-.39C315.6,425.1,315.28,425.43,314.86,426Zm2.49-2.72a8.73,8.73,0,0,1,.72-.59l.26-.15a6.79,6.79,0,0,0-.66.51Zm1.6,3.93-.07.13a2.08,2.08,0,0,0-.21.21c.09-.13.19-.24.29-.36l.11-.2C319.25,426.88,319.25,426.88,319,427.21Zm2.55-1.83-.3-.07a.84.84,0,0,1,.38,0,.91.91,0,0,1,.25.11A1.65,1.65,0,0,0,321.5,425.38Zm2-.25a4.39,4.39,0,0,1,.8,1.32A10.54,10.54,0,0,0,323.49,425.13Zm3.74,6.8a2.81,2.81,0,0,1,.09.31s-.05-.1-.1-.22-.07-.28-.11-.4C327.15,431.72,327.2,431.83,327.23,431.93Zm1.28,1,.16.58-.08-.19-.13-.5Zm-.05.1.09.28-.11-.06Z" transform="translate(-265.77 -397.57)"/><path d="M326.13,425.44h0v0h0Z" transform="translate(-265.77 -397.57)"/><path d="M290.73,428.81v0h0v0h0c.16-.44.33-.88.52-1.32l0-.13c-.12.25-.23.5-.33.74-.16.4-.32.87-.22.71l-.3.75c.07-.3.14-.56.22-.85-.22.58-.37,1-.54,1.55.09-.13-.11.67.1.16s.44-1.29.78-2.13Z" transform="translate(-265.77 -397.57)"/><path d="M290.21,430.41h0v0h0v0Z" transform="translate(-265.77 -397.57)"/><path d="M326.74,432.21l-.22-.44c.22.62.35,1,.5,1.47a11.55,11.55,0,0,0-.41-1.73C326.18,430.52,326.7,432,326.74,432.21Z" transform="translate(-265.77 -397.57)"/><path d="M285.13,433.81c0,.21,0,.54.07.8.06.45.07.39.07.25-.14-1.13-.16-2.34-.2-3.65l0,0C285.09,432.19,285.11,433.06,285.13,433.81Z" transform="translate(-265.77 -397.57)"/><path d="M325.13,430.45c-.17-.37-.32-.73-.49-1.08v.27C325.07,430.58,325.12,430.69,325.13,430.45Z" transform="translate(-265.77 -397.57)"/><path d="M325,430c.25.52.4.88.55,1.22a4.78,4.78,0,0,0-.36-1.1C324.73,429.19,325.08,430.16,325,430Z" transform="translate(-265.77 -397.57)"/><path d="M271.19,433.24c-.28.91-.3,1.21-.27,1.2s.2-.59.52-1.48c-.17.39-.26.62-.34.83C271.13,433.6,271.15,433.46,271.19,433.24Z" transform="translate(-265.77 -397.57)"/><path d="M267.82,437.13c0,.28-.07.63-.09.76,0,.4.09.61.09.44a13.32,13.32,0,0,1,.11-1.62C267.91,436.62,267.86,436.84,267.82,437.13Z" transform="translate(-265.77 -397.57)"/><path d="M299.85,428.6c.12,1.11.23,2.08.3,2.34v-.33C300,429.73,299.94,429.15,299.85,428.6Z" transform="translate(-265.77 -397.57)"/><path d="M301.31,436.33c-.05-.17-.1-.32-.16-.51s-.13-.43-.26-.78l.18.72c.07.23.15.47.24.73a4.71,4.71,0,0,0,.19.45c.09.19.19.44.35.72-.17-.33-.26-.6-.35-.81S301.36,436.47,301.31,436.33Z" transform="translate(-265.77 -397.57)"/><path d="M319.35,427.26a3.72,3.72,0,0,0,.67-.48l.07-.21C319.84,426.8,319.58,427,319.35,427.26Z" transform="translate(-265.77 -397.57)"/><path d="M300.35,432.56l.06.39c.1.44.2.87.42,1.58-.18-.71-.28-1.37-.32-1.52A1.87,1.87,0,0,0,300.35,432.56Z" transform="translate(-265.77 -397.57)"/><path d="M276.74,421.84l-.23.1.35-.07.54-.16a6.48,6.48,0,0,1,1.47-.3h-.37a7,7,0,0,0-1,.19l-.49.14Z" transform="translate(-265.77 -397.57)"/><path d="M329.29,434c0,.26.09.53.14.83s.21.68.36,1.2c-.19-.84-.31-1.35-.44-1.87Z" transform="translate(-265.77 -397.57)"/><path d="M278.25,426.05l-.22.1c-.15.06-.3.14-.44.21s0,.06,0,.11a4.52,4.52,0,0,1,1-.47h-.07Z" transform="translate(-265.77 -397.57)"/><path d="M286.21,437.52l.09.08a1.77,1.77,0,0,0,0-.2l-.1-.12A2,2,0,0,0,286.21,437.52Z" transform="translate(-265.77 -397.57)"/><path d="M322,425.77a4.65,4.65,0,0,1,.57.75s.13.16.1.11a2.16,2.16,0,0,0-.23-.39A2.39,2.39,0,0,0,322,425.77Z" transform="translate(-265.77 -397.57)"/><path d="M307.9,441.3a1.74,1.74,0,0,0,.46-.07,6.87,6.87,0,0,0,1-.36l-.57.12A9.64,9.64,0,0,1,307.9,441.3Z" transform="translate(-265.77 -397.57)"/><path d="M326.72,426.44a1.47,1.47,0,0,0-.14-.32,2.43,2.43,0,0,0-.44-.7s0,0,0,0l.14.26A3.54,3.54,0,0,0,326.72,426.44Z" transform="translate(-265.77 -397.57)"/><path d="M295.19,434.24c-.12.46-.21.82-.32,1.19l.11-.25C295.27,434.21,295.26,434.22,295.19,434.24Z" transform="translate(-265.77 -397.57)"/><path d="M287.9,436.13a1.11,1.11,0,0,0,.14-.34,9.9,9.9,0,0,1-.71,1.17A5.59,5.59,0,0,0,287.9,436.13Z" transform="translate(-265.77 -397.57)"/><path d="M330,439c.18.76.22.85.27.8C330,439,330,438.71,330,439Z" transform="translate(-265.77 -397.57)"/><path d="M281.77,440.57a5.89,5.89,0,0,0,1.16,1.2c.18.12.1,0-.15-.22A7.9,7.9,0,0,1,281.77,440.57Z" transform="translate(-265.77 -397.57)"/><path d="M279,426.1a.85.85,0,0,1,.15.28C279.09,426.11,279.05,426.05,279,426.1Z" transform="translate(-265.77 -397.57)"/><path d="M303.13,421.58l.33.41.23.32c.13.19.2.33.29.47a9.54,9.54,0,0,1,.52,1,7.81,7.81,0,0,0-.43-.95A6.25,6.25,0,0,0,303.13,421.58Z" transform="translate(-265.77 -397.57)"/><path d="M327.25,427.12c.11.21.24.46.47.95q-.39-.88-.84-1.74C327.07,426.71,327.14,426.9,327.25,427.12Z" transform="translate(-265.77 -397.57)"/><path d="M324.34,429.41c.05.14.11.28.17.43l.12.14a2.88,2.88,0,0,0-.13-.31Z" transform="translate(-265.77 -397.57)"/><path d="M329.44,437.18l.12.64.08.29-.09-.54Z" transform="translate(-265.77 -397.57)"/><path d="M272.57,431.67c-.18.34-.28.57-.39.8S272.26,432.42,272.57,431.67Z" transform="translate(-265.77 -397.57)"/><path d="M328.12,437.34l-.22-.78A2.26,2.26,0,0,0,328.12,437.34Z" transform="translate(-265.77 -397.57)"/><path d="M325.64,429.46a2.29,2.29,0,0,0,.12.4l.12.18s-.08-.23-.1-.28A2.34,2.34,0,0,0,325.64,429.46Z" transform="translate(-265.77 -397.57)"/><path d="M307,441.21a4.71,4.71,0,0,1-2-.49,4.45,4.45,0,0,0,3.22.4A8.15,8.15,0,0,1,307,441.21Z" transform="translate(-265.77 -397.57)"/><path d="M291.81,425.83c.17-.28.34-.56.53-.83l.13-.24q-.29.4-.54.81A2.06,2.06,0,0,0,291.81,425.83Z" transform="translate(-265.77 -397.57)"/><path d="M276.19,427.43l-.12.18.22-.2c0-.06.09-.12.11-.16l-.08.06Z" transform="translate(-265.77 -397.57)"/><path d="M321.12,426h0a1.29,1.29,0,0,1,.26-.06l0,0A1,1,0,0,0,321.12,426Z" transform="translate(-265.77 -397.57)"/><path d="M329.12,435l.23.46C329.13,434.75,329.12,434.88,329.12,435Z" transform="translate(-265.77 -397.57)"/><polygon points="63.35 37.45 63.35 37.44 63.34 37.43 63.34 37.43 63.34 37.43 63.34 37.43 63.34 37.43 63.34 37.44 63.35 37.44 63.35 37.45"/><path d="M279.11,425.18s0,0,.12.05l.2,0A.85.85,0,0,0,279.11,425.18Z" transform="translate(-265.77 -397.57)"/><path d="M282.54,422.82s.15.2.26.36a7,7,0,0,1,.42.6,3.62,3.62,0,0,0-.24-.44l-.26-.33A1.85,1.85,0,0,0,282.54,422.82Z" transform="translate(-265.77 -397.57)"/><path d="M297,420.51a7.8,7.8,0,0,0-1.05.64h0a7.6,7.6,0,0,1,1.11-.65Z" transform="translate(-265.77 -397.57)"/><path d="M271.07,431l-.11.25,0,.27C271.29,430.64,271.29,430.62,271.07,431Z" transform="translate(-265.77 -397.57)"/><path d="M329,434l.19.72v-.07l-.2-.69S329,434,329,434Z" transform="translate(-265.77 -397.57)"/><path d="M326.09,424.47l.16.32c.1.14.21.32.2.29s-.1-.2-.17-.34A2,2,0,0,0,326.09,424.47Z" transform="translate(-265.77 -397.57)"/><path d="M326.32,430.17l0,.12a.78.78,0,0,0,.07.17s0-.07,0-.11Z" transform="translate(-265.77 -397.57)"/><path d="M327.44,433.29c0,.08,0,.21.09.48s.11.27.1.23-.05-.28-.1-.45A1.91,1.91,0,0,0,327.44,433.29Z" transform="translate(-265.77 -397.57)"/><path d="M274.82,426l-.2.2.14-.11.15-.16Z" transform="translate(-265.77 -397.57)"/></svg>