<svg id="Camada_1" data-name="Camada 1" xmlns="http://www.w3.org/2000/svg" viewBox="0 0 62.66 56.75"><title>Sem título-1</title><path d="M217.39,202.51a22.26,22.26,0,0,0-.71-2.63,16.55,16.55,0,0,0-.84-2.17l.27.52.22.46a5.28,5.28,0,0,0-.74-1.63,14.3,14.3,0,0,0-1.85-2.51c-.16-.22-.29-.36-.42-.52a11.77,11.77,0,0,0-2-1.58,19.64,19.64,0,0,0-2.09-1.08,9.48,9.48,0,0,0-3.76-.5,10.94,10.94,0,0,0-3.41.83c-.55.28-.58.32-.41.27s.53-.2.81-.28a14.18,14.18,0,0,0-3.53,1.93,13.65,13.65,0,0,1,1.66-1.22,12.33,12.33,0,0,1,2.55-1.25,9.26,9.26,0,0,0-1.72.65c-.63.31-1.19.64-1.37.71a14.56,14.56,0,0,1,1.56-.89,11.12,11.12,0,0,1,4.17-1,5.81,5.81,0,0,1,1.81.05A11.12,11.12,0,0,1,209,191c.2,0,.21,0,.23,0-.24-.08-.49-.14-.72-.2s-.61-.12-.91-.18a3.06,3.06,0,0,0-.85-.18,8.67,8.67,0,0,0-2.25.11,12.33,12.33,0,0,0-2.45.72,12,12,0,0,0-2.79,1.56c-.9.62-1,.71-1,.68s.1-.16-.28.11l-.43.48c-.17.14-.34.31-.53.48l-.51.51c-.32.33-.63.63-.81.83a3.7,3.7,0,0,1-.63.56c-.34.39-.56.74-.78,1s-.39.56-.55.85l-.58.95-.79,1.35a12.82,12.82,0,0,1,.87-1.59c.49-.75.64-1,.49-.9-.32.56-.7,1.09-1,1.66l-.52.84-.46.88a3.47,3.47,0,0,1,.35-.87c.24-.45.55-1,.85-1.53.7-1.09.77-1.26.37-.77-.24.36-.52.76-.72,1.1s-.31.46-.47.73a21.7,21.7,0,0,0-1.9,4.09c-.31.69-.54,1.33-.74,1.85-.47,1.55-.43,1.3-.41,1.09s-.1.18-.21.39c-.08.42-.12.66-.13.72-.39,1.3-.6,2.59-.89,3.92,0,.17-.11.65-.13.8l-.14,1.16c-.06.42-.12.86-.18,1.34-.13.92-.22,1.84-.32,2.43s-.2,1.54-.28,2.29c-.15,1.15-.22,3.16-.29,4.65,0,.23,0,.95,0,1.11s0,0,.07,0c0,.71-.05,1.37-.08,2.07,0,.4,0,.89,0,1.27a1.26,1.26,0,0,0,0,.38c0-.31,0-.73.06-1.15l0-1,.05.2a22.81,22.81,0,0,0,0-3.55c0-.46.06-.89.1-1.4,0,.78,0,1.4,0,1.87,0-.65.08-1.19.12-1.74-.06,1.25-.06,2.26,0,3.24,0-.47.06-.85.08-1.23v0c0,.27,0,.54,0,.8a38.72,38.72,0,0,0-.11,4.49c0,.36-.07.83-.07,1.06,0,1.31-.09,1.7-.13,2.38,0,1,0,2-.13,3.05-.05.5-.08,1-.14,1.48s-.07.78-.11,1.14l-.1-.25c0,.1.06.2.1.3l0,.15s0,0-.07.06l-.07-.13c0-.05-.05-.1-.07-.16s0-.23,0-.35.05-.48.09-.95c0,.29-.08.55-.12.86l0,.38c-.06-.15-.11-.3-.17-.44-.11-.31-.19-.53-.28-.83s-.19-.94-.29-1.41l-.15-.74-.12-.78c0,.13,0,.23,0,.33-.1-.56-.19-1-.26-1.52s-.08-1.11-.14-1.57c-.08-.67-.06-.16-.06,0,0-.31-.06-.8-.06-.84a1.86,1.86,0,0,1,.09-.4,12.41,12.41,0,0,1,0-2.16c0-.42,0-1.57,0-2.54l0-.35c0,.65,0,1.31-.05,1.9,0-.28-.07-1,0-1.41,0-.13,0-.7,0-1-.05-1.44,0-2.4,0-3.3,0-.44,0-1.11,0-1.69a4.34,4.34,0,0,0,0-.48c0,.34,0,.66-.05,1,0-.49-.06-.91-.09-1.39,0-.13,0-.24.07-.37q-.09-1.65-.18-1c0-.61,0-1,0-1.29h.17c0-1.15,0-2.18,0-3.32-.07.09,0,1.84-.05,2.39,0-.29-.06-.61-.1-1.05l.07-1.12c-.08-1.2-.14-.62-.22-2.43-.06-.43-.1-1-.14-1.54s-.08-1.26-.13-2l.12.69c0-.56-.05-1-.08-1.34-.13-.93-.24-1.77-.42-2.71-.08-.29,0,.92-.22-.57a17.61,17.61,0,0,0-.57-2.82,28.63,28.63,0,0,0-1.39-3.86,14.85,14.85,0,0,0-1-1.84l.24.71a8.28,8.28,0,0,0-1.4-2.07l-.32-.39c-.18-.28-.41-.55-.65-.85s-.5-.48-.75-.72-.51-.43-.79-.64c0,0,1.32,1.17,0,.1a13.37,13.37,0,0,0-3.58-2,2.85,2.85,0,0,0-.39-.11c.36.12.6.26,1.06.44l.86.42c.29.17.61.33.88.52v0a12.91,12.91,0,0,0-2.13-1c.34.19.63.4.93.6a15.33,15.33,0,0,0-2.39-.91,10.23,10.23,0,0,0-3-.3c.15,0,.16.06-.12.09l-.64.09c-.15,0-.32,0-.51.08l-.65.16a3.58,3.58,0,0,0-.45,0,10.66,10.66,0,0,0-3.3,1.81,14.28,14.28,0,0,0-2.23,2.25c-.21.29-.27.4-.43.62l-1.19,1.67a15.82,15.82,0,0,0-1.54,2.78,29.85,29.85,0,0,0-1.12,2.9c-.17.65-.36,1.43-.5,2.23.12-.44.3-1,.5-1.59a28.88,28.88,0,0,0-.86,4,26.5,26.5,0,0,1,.81-3.38c0,.36.09-.2.82-2.13-.1.34-.2.64-.27.92s-.24.9-.25,1.06.09-.1.17-.26l.31-.92-.19.32c.21-.67.43-1.28.62-1.77a.65.65,0,0,0,.21-.24c.33-.58.4-.52.38-.31s-.13.32-.16.38a11.32,11.32,0,0,0-.8,2.46l-.05.19-.12.45c-.1.36-.2.79-.26,1.09l-.08.25c.08-.4.16-.8.26-1.2l-.05.13a27.06,27.06,0,0,0-.88,5.2c0,.22.07.32.13.17a12.93,12.93,0,0,0,.25-1.28,25.58,25.58,0,0,0-.13,3.65l.09.23a28.74,28.74,0,0,1,.24-3.1c0-.34.07-.85.13-1.33s.13-.65.18-.89.08-.43.13-.63.09-.4.15-.67.14-.58.25-1,.25-.68.42-1.16a5.21,5.21,0,0,1,.75-1.69,21.89,21.89,0,0,1,1.65-3.47c-.25.45-.37.72-.52,1s-.31.63-.53,1.1c.46-.82.81-1.61,1.28-2.4l.12.07a15.67,15.67,0,0,1,3.17-4.13c.22-.19.27-.27.4-.38a9.22,9.22,0,0,1,1.11-.71c.14,0-.05.18-.06.25s0,0,.18,0l.83-.32c-.1.08-.31.22-.21.2l.33-.11.52-.15a7.18,7.18,0,0,0-1.49.69,12.37,12.37,0,0,0-1.61,1.22l-.3.13a9.76,9.76,0,0,0-.72.76,14,14,0,0,0-1.55,2.27,13.45,13.45,0,0,0-.72,1.51c0,.13.07,0,.14-.12.36-.45.24-.17-.34,1.05l.23-.41.43-.78c.13-.21.21-.32.16-.2l-.57,1.15c-.18.38-.41.85-.64,1.37.35-.59.73-1.18.65-.82,0,.15.26-.37-.13.52-.06.15-.05.18,0,.07.35-.62,0,.29,0,.41s0,.13,0,.2l.15-.32c.11-.34.23-.67.39-1.09s.53-.9.84-1.37.63-1,1-1.53a17.81,17.81,0,0,1,1.09-1.41,7.56,7.56,0,0,1,1.34-1.25,1.81,1.81,0,0,1,.34-.13,4.79,4.79,0,0,1,.68-.46,5.63,5.63,0,0,1,1.1-.4,1.34,1.34,0,0,1,.31-.11l.26-.07.3-.05a4.35,4.35,0,0,1,.55-.07c.14,0,.24,0,.23-.06a6.72,6.72,0,0,1,.93.13,5.41,5.41,0,0,1,2,.49h-.18a9.25,9.25,0,0,1,2,1.35,8.87,8.87,0,0,0-1.3-.79c0,.13-.09.06-1-.24,0,0,1.35.63.18.16l-.45-.21-.44-.16s-.25,0-.64,0l-.61,0a4.7,4.7,0,0,0-.56,0,8.07,8.07,0,0,1,2,.26,5.56,5.56,0,0,1,1.87.84,8.51,8.51,0,0,0-1.83-.78,5.94,5.94,0,0,0-1.75-.26l.33,0,.29.05a3.37,3.37,0,0,1,.46.12c.25.08.39.15.41.2s.22.06.45.16a.58.58,0,0,0-.13-.11c.37.08,1.2.5,1.33.53s.5.31.77.49c-.23-.11-.39-.21-.66-.32a6.51,6.51,0,0,1,1.74,1.33,2.8,2.8,0,0,0-.28-.19l.39.41.36.41c.22.29.42.57.65.93s.35.48.51.71a7.22,7.22,0,0,1,.68,1.26c-.13-.23-.24-.45-.36-.65s-.25-.4-.39-.6a12.8,12.8,0,0,1,.75,1.61c.08.08.13.15.2.23a11.72,11.72,0,0,1,.54,1.8c.08.35.06.47,0,.4.2.75.27,1.14.33,1.48s.1.63.16,1.22c.16.77.31,1.47.42,2.37a34.94,34.94,0,0,1,.39,4c.05,1.23.1,1.89.12,2.5,0,.78,0,1.36,0,1.94h-.1c0-.83-.07-1.64-.12-2.47,0,.75,0,1.48,0,2.89a9.78,9.78,0,0,1,0,1.67,13.5,13.5,0,0,0-.07,1.42,12.83,12.83,0,0,0-.14-1.86,24.18,24.18,0,0,0,.11,2.48c0,3.15,0,3.16-.12,3.37a22.34,22.34,0,0,0,.13,2.71c0,.15,0,.57,0,.82a6.31,6.31,0,0,1,0,.64c0,.38,0,.54,0,1.09,0,1,.07,2.23.17,3.52.08.18.11-.12.3,1h-.1c.06.53.11.94.16,1.39a3.46,3.46,0,0,1,.17.69c.08.4.19,1,.31,1.71-.07-.57-.14-1.08-.22-1.62s-.11-1.11-.19-1.8c.13.94.16,1.35.26,1.92,0-.39,0-.68-.06-1.18,0,.25,0,.48.07.71l.09.67c.06.44.12.86.17,1.26.13.82.27,1.57.41,2.34l-.13-.49a11.1,11.1,0,0,0,.46,1.83,12.92,12.92,0,0,0,.69,1.58,3.75,3.75,0,0,1-.26-.41,7.08,7.08,0,0,0,.71,1.37,7.84,7.84,0,0,0,.73,1,5.49,5.49,0,0,0,1.61,1.21,6.22,6.22,0,0,0,1.63.51,3.59,3.59,0,0,0,.76.12,5.29,5.29,0,0,0,1.47-.13,5,5,0,0,0,1.43-.59c.38-.23.57-.41.61-.4a2.16,2.16,0,0,0,.48-.26,5.84,5.84,0,0,0,1.14-1.88,7.72,7.72,0,0,0,.4-1.55c.14-.94.15-1.53.22-2.22,0-.11,0-.05,0-.07.05-.63.1-1.26.14-1.89a8.38,8.38,0,0,1-.3,1.81c.09-.93.15-1.6.25-3-.14,1.35-.15,1-.13.18,0-.63,0-.33-.1.54a8.32,8.32,0,0,1-.1.87c0-.05,0-.5,0-.89q0-.91.09-2.1c0,.32,0,.64,0,1a14.81,14.81,0,0,0,0-2.44c0-.5.07-1.06.09-1.47s.08-.9.08-1.87-.06.07-.09-.22c0-1.17.06-2.29.09-3.48l-.07-.48a20.84,20.84,0,0,1,.21-3l0,1.06c.05-.9.1-1.63.16-2.33a16.89,16.89,0,0,1,0-2.41c-.07.8-.13,1.62-.18,2.43l0,0c0-1.11.09-2.21.18-3.32-.08.31-.19.66-.29,1,.08-.8.11-1.06.14-1.67-.06.51-.12,1-.19,1.53,0-.52.05-.91.11-1.75-.23,2.07-.3,3.83-.43,5a17.06,17.06,0,0,1,0-2.37l.05.13a37.74,37.74,0,0,1,.49-4.58c-.07.55-.11,1.08-.16,1.69.06-.36.11-.72.16-1.08s.1-.74.14-1.12a22,22,0,0,1,.45-2.52,34.94,34.94,0,0,1,1.12-4c-.12.45-.22.8-.28,1a32.92,32.92,0,0,1,1.29-3.49c.34-.56.69-1.43,1.1-2.25.16-.34.38-.69.51-.94a23.49,23.49,0,0,1,1.86-2.41l-.1-.08c.68-.8.51-.52.64-.64a4.81,4.81,0,0,0,.34-.36c.14-.17.24-.32.33-.44-.43.35-1,1.08-1,.94.23-.25.42-.5.64-.7l.61-.6a4,4,0,0,1,1.08-1c.37-.3.74-.57,1.16-.85a10.85,10.85,0,0,1,1.45-.78,10.57,10.57,0,0,0-1.46.71l0-.16a11.4,11.4,0,0,1,1.1-.56,6.72,6.72,0,0,1,.8-.46,7.06,7.06,0,0,0-1.21.55l-1,.57a10.48,10.48,0,0,1,1.78-1.1,10.68,10.68,0,0,0-1.66.82,3.91,3.91,0,0,1,.69-.45,7.57,7.57,0,0,1,1.67-.64,2,2,0,0,1,.67-.2,4.41,4.41,0,0,1,.54-.07,4.79,4.79,0,0,1,.52,0,7.91,7.91,0,0,1,1.95.31,5.62,5.62,0,0,0-2.18-.4c.17,0,.34,0,.5,0l.51,0c.19,0,.28.08.37.1a3.85,3.85,0,0,1,.49.07l.26.05.28.07a5.47,5.47,0,0,1,.5.26l.31.19a7.76,7.76,0,0,1,1.48,1c.11,0-.49-.61.35,0h0l0,0h0c.23.16.45.33.1,0a2.78,2.78,0,0,1-.44-.49s.23.11.7.5a8.9,8.9,0,0,0-1.3-1l-.09-.08a9,9,0,0,1,1.55,1.16,10.25,10.25,0,0,1,1.36,1.49c-.08-.14-.17-.31-.27-.47a2.12,2.12,0,0,1-.2-.34c0-.12.17.08.28.14a5.54,5.54,0,0,0-.78-.83c-.2-.16-.37-.34-.78-.71.16.11.33.19.49.3a3.71,3.71,0,0,0-.29-.27c-.16-.11-.31-.23-.5-.35s-.39-.25-.65-.39a3.35,3.35,0,0,0-.62-.49,6.82,6.82,0,0,0-1.75-.73,4.72,4.72,0,0,1,1.54.49c.21.09.36.18.5.24s.24.11.36.18a5.52,5.52,0,0,1,.93.62c-.57-.47.31.17.29.14a9.09,9.09,0,0,0-2-1.35c.23.09.42.2.6.29s.32.18.46.26a6.07,6.07,0,0,1,.57.38c-.1-.17-.31-.39-.24-.41a1.86,1.86,0,0,1,.36.21l.31.22.31.25a11.42,11.42,0,0,1,2.16,2.49,15.26,15.26,0,0,1,1.82,3.41,14.85,14.85,0,0,0-1.21-3l.13-.07a11.14,11.14,0,0,1,.69,1.25,5.17,5.17,0,0,0-.21-.54,16.25,16.25,0,0,1,1,2.26l.09,0c.29.85.47,1.95.66,2.49,0-.21-.07-.36-.1-.53-.14-.71-.23-1.06-.23-1.1a3.78,3.78,0,0,1,.27.78c.08.26.14.52.21.77.14.57.14.42,0-.55-.07-.32-.12-.61-.26-1.14.32,1.09.49,1.89.63,2.61a4.82,4.82,0,0,0-.19-1.22,6.4,6.4,0,0,1-.24-1c-.09-.39-.12-.62-.19-.92.08.25.19.68.21.72l.22.48c-.19-.72-.35-1.24-.53-1.76,0,.14,0,.29.07.43-.16-.51-.33-1-.7-1.93a15,15,0,0,1,.62,1.46v0l0,.06v-.06l.12,0a23.15,23.15,0,0,1,.66,2.32Zm-58.7-4-.29.39.13-.27c.12-.17.23-.35.36-.52Zm3.5-.9c-.24.33-.44.66-.63.95l-.53.86a2.39,2.39,0,0,0,.13-.28l.34-.57.35-.56c.13-.22.25-.44.56-.94C162.32,197.27,162.26,197.4,162.19,197.59Zm1.84-5.12a5.86,5.86,0,0,1,.64-.43,7.52,7.52,0,0,1,1.06-.56,9,9,0,0,0-1.23.78c-.15.09-.29.21-.44.31.15-.15-.28.05-1.18.93A8.87,8.87,0,0,1,164,192.47Zm-2.6.66-.17.15a16.6,16.6,0,0,1,1.25-1.27l.12-.09A13.68,13.68,0,0,0,161.43,193.13Zm2.11,0c-.29.23-.49.38-.78.64a7,7,0,0,1,.86-.77C163.73,192.93,163.68,193,163.54,193.14Zm3.1-1.57a3.89,3.89,0,0,0-.49.14,5.48,5.48,0,0,1,.56-.23c.19-.07.39-.13.58-.18l.27,0A7.11,7.11,0,0,0,166.64,191.57Zm1.36-.49a4.13,4.13,0,0,0-.53.11l-.51.14-.49.17a10.46,10.46,0,0,0-2.19,1.2l-.09.13a2.81,2.81,0,0,1-.47.3,4.93,4.93,0,0,1,.59-.5c.55-.42,1.06-.71,1.27-.85a5.52,5.52,0,0,1,1.34-.54c.27-.06.52-.12.79-.16s.54-.07.87-.07A3.54,3.54,0,0,0,168,191.08Zm3.63,2.86c.81.33.83.41.84.44a3.1,3.1,0,0,0-.36-.21C172,194.1,171.81,194,171.63,193.94Zm7.06,36.12c0-.19,0-.4,0-.4s0,.07,0,.12,0,.32,0,.33S178.7,230.08,178.69,230.06Zm1,6.15,0-.35s0,.1,0,.16l0,.36A1.37,1.37,0,0,1,179.68,236.21Zm0-10.18-.06-.68c0-.21,0-.46,0-.42l0,.75C179.74,225.74,179.73,226.05,179.73,226Zm.13,2.33-.07-.81v-.27l.06.86Zm.12-6.1c0-.46,0-1.21,0-1.57a4.43,4.43,0,0,0-.09-.63c0-.49,0-.88,0-1.34,0,.14,0,.26,0,.31.06.35.09,1.71.14,2.44,0,.11,0,.69,0,1.06A.52.52,0,0,1,180,222.26ZM181.1,242a6.42,6.42,0,0,1-.35-.85,1.87,1.87,0,0,1-.08-.26,4,4,0,0,1,.24.49c.28.7.47,1,.47,1S181.24,242.27,181.1,242Zm3.35-9.59c0,.52.08,1,.13,1.77-.08-.62-.12-1-.2-1.58Zm.05,2.24-.05-.36.09.21.07.52Zm2.05,6.27Zm-.55-.48h0Zm.08.05h0Zm-.05,0h0Zm.45.19h0v0Zm0-.65h0Zm0,.13h0v0Zm0-.16h0v0Zm-.11-.09h0S186.37,239.93,186.39,239.91Zm0,.85,0,0h0l0,0Zm.05,0v0l0,0Zm.1.13a.08.08,0,0,0,0,0h0l0,.05Zm-.61-1.29c0,.06.08.12.11.16v0a1,1,0,0,1-.1-.17h0v0Zm-.28-.65c.07.17.17.42.25.59v0a5.82,5.82,0,0,1-.33-.69S185.61,238.86,185.65,239Zm.5,1.58h0l.06,0h0l0,0,.07.05h0l0,0,0,0h0a.48.48,0,0,0-.11-.09l0,0Zm.32.27h0l0,0,0,0h0l0,0h0l0,0Zm.08.11Zm0,0h0s0,0,0,0h0Zm.24-19.27c0-.18.05-.33.1-.6,0,.79-.07,1.31-.08,1.83h0C186.8,222.54,186.79,222.17,186.79,221.69Zm.18,1.55c0,.63-.08,1.16-.12,1.73a25.15,25.15,0,0,1,.15-2.76C187,222.59,187,223.07,187,223.24Zm.57-8.09c0,.44-.1.8-.16,1.16v-.08c0-.38.1-.77.15-1.21s.14-.93.23-1.54C187.66,214.18,187.6,214.71,187.54,215.15Zm.48-2.62c0,.13-.09.26-.15.46C188.06,211.93,188.09,211.9,188,212.53Zm.26-.87c0-.2,0-.33,0-.51.1-.42.19-.79.29-1.14s.18-.69.29-1.06C188.72,209.6,188.52,210.43,188.28,211.66Zm2.71,25,0,0,0-.82,0-.08C191,236.09,191,236.37,191,236.65Zm.13-2.16c0-.42,0-.84,0-1.26l0-.58,0,1.56Zm0-2.87v-.18l0-.55a.35.35,0,0,1,0,.07Zm-.48-27.6c-.19.47-.38.93-.54,1.39l0,.07.21-.62.24-.63c.16-.42.31-.84.59-1.44l.17-.21C191.07,203.07,190.85,203.55,190.67,204Zm1.29,34.7c-.1.92-.1.92-.14.82C191.87,239.26,191.91,239,192,238.72Zm-.17-20.92c-.08.33-.11.32.06-1.52C192,215.93,191.84,217,191.79,217.8ZM195,196.87l-.77.91C195,196.87,195,196.88,195,196.87Zm1-1-.33.39c-.22.27-.48.55-.77.93.45-.7-.24.12-1,1.05.35-.48.71-1,1.09-1.42a9.2,9.2,0,0,1,1.33-1.32Zm2.54-2.45-.39.29c.27-.24.56-.48.85-.71l.29-.18C199.07,193,198.82,193.25,198.58,193.45Zm.86,4.56-.12.17-.3.29.44-.49.16-.27C199.86,197.54,199.86,197.54,199.44,198Zm4.41-3.27c-.26.09-.47.14-.81.24a7.91,7.91,0,0,1,1.87-.57C204.4,194.54,204.1,194.66,203.85,194.74Zm4.12-1.56a2.78,2.78,0,0,0-.46-.11,8,8,0,0,0-1-.16,4.89,4.89,0,0,1,2,.43C208.3,193.27,208.13,193.23,208,193.18Zm6.75,5.32a2.85,2.85,0,0,1,.18.4s-.07-.13-.16-.27-.16-.37-.23-.51A3.59,3.59,0,0,1,214.72,198.5Zm1.56,1.71c0-.15,0-.23,0-.3l.14.39Zm0-.42c.08.26.18.53.25.79l-.11-.26c-.07-.23-.14-.46-.22-.69Z" transform="translate(-155.3 -189.01)"/><path d="M186.28,240.67h0a.71.71,0,0,1,.09.07l-.05,0,0,0-.06,0,0,0-.05,0,.1.07Z" transform="translate(-155.3 -189.01)"/><path d="M209.21,191.38h0Z" transform="translate(-155.3 -189.01)"/><path d="M201,197h0Z" transform="translate(-155.3 -189.01)"/><path d="M186.47,240.84h0l.05.06v0Z" transform="translate(-155.3 -189.01)"/><path d="M184.47,231.17h0v0h0v0Z" transform="translate(-155.3 -189.01)"/><path d="M184.71,233.84l0-.68h0v0h0c.06.54.13,1.07.22,1.59l0,.14-.11-.9c-.06-.48-.14-1.05-.15-.83,0-.33-.05-.65-.07-.95l.2,1-.11-1c0-.31-.05-.62-.08-1,0,.21-.17-.81-.16-.12,0,.4.05.8.09,1.23Z" transform="translate(-155.3 -189.01)"/><path d="M214,198c-.4-.59-.34-.43-.15-.12l.3.56.2.43c-.12-.16-.2-.31-.37-.54a12.87,12.87,0,0,1,.88,1.84,2.7,2.7,0,0,0-.28-.9C214.35,198.82,214.08,198.3,214,198Z" transform="translate(-155.3 -189.01)"/><path d="M183.24,204.31c.12.77.13.67.11.43a31.06,31.06,0,0,0-1.31-5.67l0,0a22.89,22.89,0,0,1,1,4C183.08,203.33,183.17,203.89,183.24,204.31Z" transform="translate(-155.3 -189.01)"/><path d="M211.64,196.8c.14.13.23.23.29.29s.12.07.07-.06-.36-.38-.52-.57-.34-.32-.52-.47a2.55,2.55,0,0,1,.13.29A5.89,5.89,0,0,1,211.64,196.8Z" transform="translate(-155.3 -189.01)"/><path d="M211.63,196.58a10.49,10.49,0,0,1,1.1,1.27,5.79,5.79,0,0,0-.33-.56,5.21,5.21,0,0,0-.52-.63C211,195.74,211.82,196.71,211.63,196.58Z" transform="translate(-155.3 -189.01)"/><path d="M159.24,202.57c.07-.24.12-.44.19-.72a10.48,10.48,0,0,0-.41,1.25c-.07.25-.08.35-.06.34s.29-.78.78-2C159.49,202,159.37,202.29,159.24,202.57Z" transform="translate(-155.3 -189.01)"/><path d="M155.31,207.79c0,.44,0,.67,0,.49s.1-.74.31-1.86C155.61,206.18,155.38,207.52,155.31,207.79Z" transform="translate(-155.3 -189.01)"/><path d="M192,234c.1-1.63.13-2.92.1-3.26,0,.17,0,.38,0,.44C192.05,232.37,192,233.19,192,234Z" transform="translate(-155.3 -189.01)"/><path d="M192.35,222.69c0,.75-.07,1.18-.08,1.5a9.74,9.74,0,0,0,0,1.48c0-.56.06-1,.1-1.64C192.34,223.81,192.34,223.35,192.35,222.69Z" transform="translate(-155.3 -189.01)"/><path d="M201,197a13.4,13.4,0,0,0-1.05,1,6.73,6.73,0,0,0,.92-.72Z" transform="translate(-155.3 -189.01)"/><path d="M201,197h0l0,0Z" transform="translate(-155.3 -189.01)"/><path d="M199.88,198l0,0h0v0Z" transform="translate(-155.3 -189.01)"/><path d="M192.19,228.18c0-.54,0-1.08,0-1.93,0,.84-.05,1.65-.05,1.84a4.44,4.44,0,0,0,.07.58Z" transform="translate(-155.3 -189.01)"/><path d="M170.22,189.13c.28,0,.55,0,.82.08l.8.13-.36-.1-.55-.1-.57-.07a9.49,9.49,0,0,0-1.22-.06l.44.07C169.79,189.1,170,189.1,170.22,189.13Z" transform="translate(-155.3 -189.01)"/><path d="M217.83,204.15c-.17-1.18-.33-1.9-.5-2.63l-.08-.24c.08.38.14.75.21,1.16C217.59,203,217.69,203.41,217.83,204.15Z" transform="translate(-155.3 -189.01)"/><path d="M169.76,193.54l-.11,0a5.45,5.45,0,0,0-1.35.06c-.1,0-.06,0-.11.08A5.57,5.57,0,0,1,169.76,193.54Z" transform="translate(-155.3 -189.01)"/><polygon points="28.75 21.97 28.71 21.43 28.63 22.17 28.67 22.74 28.75 21.97"/><path d="M207.28,194.56a3,3,0,0,0-.57-.1,2.85,2.85,0,0,0-.44,0H206l-.32,0a5.92,5.92,0,0,1,1.41.1S207.33,194.58,207.28,194.56Z" transform="translate(-155.3 -189.01)"/><path d="M192.76,216.16c-.06.15-.11.27-.15.39C192.57,217.48,192.58,217.48,192.76,216.16Z" transform="translate(-155.3 -189.01)"/><path d="M210.53,191.93c.2.1.3.15.3.13a.55.55,0,0,0-.15-.1,2.14,2.14,0,0,0-.3-.17,6,6,0,0,0-.86-.36l-.32-.08s0,0,0,0l.42.16C210,191.69,210.32,191.84,210.53,191.93Z" transform="translate(-155.3 -189.01)"/><path d="M178.4,228.67c-.06-.62-.1-1.1-.14-1.59v.35C178.33,228.73,178.33,228.73,178.4,228.67Z" transform="translate(-155.3 -189.01)"/><path d="M184.39,220.6a11.14,11.14,0,0,0,0,2.38Z" transform="translate(-155.3 -189.01)"/><path d="M217.78,208.21c.09,1,.13,1.16.18,1.11C217.85,208.26,217.79,207.85,217.78,208.21Z" transform="translate(-155.3 -189.01)"/><path d="M178.68,212c-.05-.45-.09-.75-.14-1.17C178.61,212.33,178.65,212.53,178.68,212Z" transform="translate(-155.3 -189.01)"/><path d="M173.08,195a1.94,1.94,0,0,0-.39-.21c.37.23.63.42.89.61A5.14,5.14,0,0,0,173.08,195Z" transform="translate(-155.3 -189.01)"/><path d="M213.25,193.55a12.1,12.1,0,0,0-2.12-1.54c.4.24.62.41.88.57S212.64,193,213.25,193.55Z" transform="translate(-155.3 -189.01)"/><path d="M211.13,192l-.23-.14Z" transform="translate(-155.3 -189.01)"/><path d="M211.08,196.52l.2.12-.29-.3-.31-.21C210.82,196.25,211,196.39,211.08,196.52Z" transform="translate(-155.3 -189.01)"/><path d="M217.41,205.69c0,.3.05.59.07.89l.06.4c0-.24,0-.49,0-.74Z" transform="translate(-155.3 -189.01)"/><path d="M161.16,199.69c-.25.46-.41.76-.56,1.07,0,.15,0,.13.08,0S160.93,200.19,161.16,199.69Z" transform="translate(-155.3 -189.01)"/><path d="M216.08,205.67q-.08-.54-.18-1.08A5,5,0,0,0,216.08,205.67Z" transform="translate(-155.3 -189.01)"/><path d="M212,195.77l.34.42.21.18a2.4,2.4,0,0,0-.24-.3C212.19,195.94,212,195.76,212,195.77Z" transform="translate(-155.3 -189.01)"/><path d="M192.51,217a17.09,17.09,0,0,0-.23,2C192.37,218.31,192.44,217.78,192.51,217Z" transform="translate(-155.3 -189.01)"/><path d="M185.62,237.85c-.05-.32-.09-.65-.14-1l-.07-.29.14,1Z" transform="translate(-155.3 -189.01)"/><path d="M166.21,194.37l-.19.19.32-.2a1.54,1.54,0,0,0,.18-.16l-.11.06Z" transform="translate(-155.3 -189.01)"/><path d="M203.57,195.43l-.41.19-.4.21h.05a9,9,0,0,1,.83-.4Z" transform="translate(-155.3 -189.01)"/><path d="M217.14,202.73h0v0h0v0Z" transform="translate(-155.3 -189.01)"/><path d="M217.14,202.73c.08.19.16.39.25.66C217.15,202.37,217.14,202.54,217.14,202.73Z" transform="translate(-155.3 -189.01)"/><path d="M171.41,193.18l.45.1a4.31,4.31,0,0,0-.7-.22C171.1,193.05,171.2,193.09,171.41,193.18Z" transform="translate(-155.3 -189.01)"/><path d="M175.73,191.08l-.35-.26-.29-.17-.18-.09s.16.1.28.2Z" transform="translate(-155.3 -189.01)"/><path d="M159.7,199s-.1.19-.17.33l-.1.35C160,198.48,160,198.46,159.7,199Z" transform="translate(-155.3 -189.01)"/><path d="M217,201.31c.1.33.18.67.26,1v-.09c-.08-.33-.16-.66-.26-1A.14.14,0,0,0,217,201.31Z" transform="translate(-155.3 -189.01)"/><path d="M209.14,190.87l-.57-.18a4.16,4.16,0,0,0-.48-.1c.07,0,.29.07.51.15Z" transform="translate(-155.3 -189.01)"/><path d="M213.25,196.63l-.17-.2.09.14c.06.06.14.19.16.19Z" transform="translate(-155.3 -189.01)"/><path d="M215.39,200.61s-.14-.37-.13-.34l.16.63a1.76,1.76,0,0,0,.13.31C215.52,201.07,215.46,200.83,215.39,200.61Z" transform="translate(-155.3 -189.01)"/><path d="M165.16,192.68l-.31.22a1.51,1.51,0,0,0,.2-.12l.24-.16Z" transform="translate(-155.3 -189.01)"/></svg>