<svg id="Camada_1" data-name="Camada 1" xmlns="http://www.w3.org/2000/svg" viewBox="0 0 58.86 47.62"><title>cancer</title><path d="M292.91,405.76h0Z" transform="translate(-268.57 -396.69)"/><polygon points="23.24 12.76 23.24 12.76 23.24 12.76 23.25 12.77 23.25 12.78 23.25 12.77 23.25 12.78 23.25 12.77 23.25 12.76 23.24 12.76 23.24 12.76"/><path d="M269.37,419.25a11.62,11.62,0,0,0,.64,1.45,4,4,0,0,1-.47-1.45,10,10,0,0,0,.42,1,10.77,10.77,0,0,0,.67,1.21c-.28-.49-.37-.68-.34-.67a5.1,5.1,0,0,1,.36.48c.31.42.18.2-.19-.42a3.51,3.51,0,0,1-.3-.66l.38.63.45.68a8.32,8.32,0,0,0,.56.72c-.19-.18-.38-.37-.56-.57a5.21,5.21,0,0,0,.87,1c.17.15.27.21.52.44s.64.59.89.81a6,6,0,0,0,1.24.86c.78.42,0-.08.19,0a12.71,12.71,0,0,0,2.52,1.09l.38,0c.57.16,1.07.29,1.46.36a6.2,6.2,0,0,1,.77.2c-.29,0-.55,0-.83-.06l.5.11.46.06a6.74,6.74,0,0,0,.85.1c.8,0,.43-.09,1.88-.17a14.9,14.9,0,0,1-1.89,0l0,0a15.79,15.79,0,0,0,2.57-.1l-.83-.13a8.18,8.18,0,0,0,1.28-.14,11.37,11.37,0,0,1-1.18.06,12.39,12.39,0,0,0,1.32-.18,12.68,12.68,0,0,1-3.77,0l.38,0,.5,0h.89l-.1.05a15.74,15.74,0,0,0,2.2-.18c.56-.08.94-.15,1.23-.2-.4.11-.78.2-1.23.28a7.37,7.37,0,0,0,1.64-.3c.61-.19,1.18-.36,1.84-.6a14.86,14.86,0,0,0,2.92-1.4c-.3.22-.54.37-.71.48a14.68,14.68,0,0,0,2.46-1.65,6.18,6.18,0,0,0,1.47-1.44l.3-.37.25-.34a13.1,13.1,0,0,0,1.48-2.14l-.12-.06c.37-.82.3-.55.38-.68s.08-.19.17-.4.06-.34.08-.47c-.17.44-.5,1.19-.51,1.06a13,13,0,0,0,.54-1.44,4.21,4.21,0,0,1,.09-.55c.05-.19.1-.4.18-.72a11.6,11.6,0,0,0,.12-2.86,9.93,9.93,0,0,1,0,1.54l-.1-.13a10.65,10.65,0,0,0,0-1.13c-.07-.29-.11-.54-.21-.86,0,.26.06.49.08.69s0,.38.05.55a5.62,5.62,0,0,1,0,1,11.07,11.07,0,0,0-.18-1.87,7.56,7.56,0,0,1,0,.91,5.77,5.77,0,0,1,0,.73c0-.18,0-.38,0-.72,0-.17,0-.38,0-.64s0-.58-.09-1c-.08-.1-.25-1-.45-1.63l-.32-.84a9,9,0,0,0-.48-.9c.16.34.31.65.44,1s.23.65.33,1c-.12-.3-.25-.57-.39-.87a2.49,2.49,0,0,0-.11-.35c-.17-.26-.31-.5-.52-.8l-.38-.74a12.52,12.52,0,0,0-1-1.15c-.1,0,.31.55-.32-.05h0c-.18-.14-.35-.27-.1.05.38.51.43.65-.23,0,.28.31.59.6.85.95l0,.08a12.38,12.38,0,0,0-2.18-2,5.7,5.7,0,0,1,.44.53c0,.08-.15,0-.24,0a5.69,5.69,0,0,0,.62.52l.23.19a4.59,4.59,0,0,1,.3.35l-.34-.23.18.21c.2.19.41.37.7.69a4,4,0,0,0,.25.52c.14.29.44.74.63,1.21-.18-.3-.22-.34-.62-1a2.73,2.73,0,0,0-.41-.52c-.13-.13-.24-.29-.51-.58.31.39-.2-.14-.2-.1a6.93,6.93,0,0,1,.47.56,7.25,7.25,0,0,1,.52.75,6.13,6.13,0,0,0-.49-.63,3.35,3.35,0,0,0-.3-.35c0,.14.09.33,0,.34s-.32-.29-.54-.52a12.62,12.62,0,0,0-1.54-1.4,15.73,15.73,0,0,0-2.14-1.15,17.81,17.81,0,0,1,1.62,1.17l-.09.12c-.21-.15-.46-.3-.72-.45l.27.22-.64-.36-.65-.32-.05.07a7.66,7.66,0,0,0-1.36-.67l.28.15c.75.42.74.43.12.17l-.44-.15c-.33-.12-.26-.07.25.19.18.08.32.18.59.33-.29-.14-.54-.26-.78-.36l-.64-.27a2.4,2.4,0,0,0,.64.35,1.34,1.34,0,0,1,.52.23c.19.12.3.21.44.31l-.38-.2c-.12,0-.19,0-.3-.05.37.19.65.32.92.47l-.18-.18c.26.16.53.3,1,.59-.35-.2-.57-.29-.77-.4h0l-.06.1-.6-.31-.6-.29h0c.46.24.95.5,1.31.74a10.14,10.14,0,0,1,1,.72l-.48-.29a.51.51,0,0,0,.17.18l.53.4.33.23.29.26.29.24c.09.09.18.17.26.26l.18.26a7.23,7.23,0,0,1,.76.89,3.78,3.78,0,0,1,.37.55,2,2,0,0,1,.14.32,6.83,6.83,0,0,1,.84,2.87c.1.52.1.08.12-.18a7.54,7.54,0,0,1-.11,1.83v-.48l0-.47a9.51,9.51,0,0,0-.19-1.19c0,.15,0,.46,0,.76V413a.45.45,0,0,1-.05.24,2.74,2.74,0,0,0,0-.41,2.86,2.86,0,0,0,0-.34,6.21,6.21,0,0,0-.24-1.66,2.08,2.08,0,0,1-.3-.63c-.28-.57-.28-.57-.35-.54l.13.25c.05.11.11.2.16.31a.81.81,0,0,0,0,.33l.11.29c0,.12.09.28.14.48a5.43,5.43,0,0,1,.17.95c0,.54,0,1,0,1.31s-.11.52-.14.51,0-.08-.11.1a1.89,1.89,0,0,1,0,.29,6.53,6.53,0,0,1-.35,1.1c-.11.23-.16.21-.25.3s-.15.39-.21.54l-.18.42a4.41,4.41,0,0,1-.64,1c0-.07.07-.17.14-.28l.28-.44c.21-.34.24-.48.15-.43a5,5,0,0,1-1,1.43,8,8,0,0,1,.63-1c.29-.48.27-.58.1-.37l-.31.47a3.08,3.08,0,0,0-.25.27c-.48.59-1.09,1.11-1.4,1.46s-.56.35-.77.5c-.64.42-.58.31-.51.23s-.1,0-.22,0a2.59,2.59,0,0,1-.27.21,10.06,10.06,0,0,1-1.79.74l-.38.12a5.19,5.19,0,0,1-1.21.31,5.8,5.8,0,0,1-1.19.07,3.62,3.62,0,0,1-.55-.05,3.43,3.43,0,0,1-.56-.07,12,12,0,0,1-2.18-.44c-.1,0-.42-.12-.5-.13s0,0,0,.06c-.16-.05-.29-.13-.44-.19s-.28-.13-.42-.2l-.26-.13-.24-.13c-.08-.05-.19-.07-.16-.05s.26.19.43.28l.39.19h-.11a3.85,3.85,0,0,0,.91.36,2.29,2.29,0,0,0,.69.08c.2.07.4.12.64.18a8.92,8.92,0,0,1-.89-.11l.44.15.38.1c-.61-.12-1.07-.25-1.54-.34l.55.23h0l-.39-.07c-.58-.25-.85-.41-1.08-.53a2.81,2.81,0,0,1-.35-.17,3.61,3.61,0,0,1-.45-.22l-.36-.32a3.59,3.59,0,0,1-.7-.74,2.68,2.68,0,0,1-.4-.48l-.18-.27c-.05-.09-.11-.19-.15-.28a7.57,7.57,0,0,1-.42-1.21c.11,0,.07-.67.19-.59a4.51,4.51,0,0,1,0-1c0-.34.07-.71.12-1.23a1.57,1.57,0,0,1,0-.24,8.43,8.43,0,0,1,.25-.91,5.23,5.23,0,0,0-.25.69c-.08.25-.13.5-.19.63s-.05.36-.07.55a8.29,8.29,0,0,0,0,.86c0,.21,0,.41,0,.61l0-.05a4.9,4.9,0,0,1-.06-.77,3.91,3.91,0,0,1-.07-.39c0-.17,0-.29.06-.43s0-.26.05-.35-.05-.22-.08-.32.07-.32.1-.45.06-.24.09-.34.05-.36.12-.65c0,0,.07,0,0,.07a3.52,3.52,0,0,0-.14.56c-.09.38-.07.59,0,.43l.14-.43.07-.29.08-.27c.06-.22.06-.36.11-.54a12,12,0,0,1,.69-1.47l-.16.12c.16-.27.26-.51.41-.74s.37-.48.52-.69,0-.09,0,0c.11-.14.27-.35.29-.36a.57.57,0,0,1,.23-.09,4.13,4.13,0,0,1,.87-.81,3.54,3.54,0,0,0,.46-.36l.3-.26.31-.26.14-.14c-.3.2-.6.4-.86.6a4,4,0,0,1,.59-.51l.44-.35a7.56,7.56,0,0,1,.82-.6,6.21,6.21,0,0,1,.69-.39l.38-.2.43-.22.22-.14-.49.22c.22-.16.4-.3.62-.44l.21,0c.5-.32.66-.43.4-.39l.65-.29.06.16c.59-.23,1.12-.43,1.72-.61a7.68,7.68,0,0,0-1.27.35c.14-.08.29-.17.51-.28s.44-.09.62-.11l.13-.05.28.09-.24-.11A3.61,3.61,0,0,1,286,403a10.49,10.49,0,0,1,1.91-.48l-.37.15.74-.1c.51-.13,1-.23,1.49-.33.16-.06-.52,0,.31-.18a13.86,13.86,0,0,0,1.58-.16c.64-.1,1.4-.14,2.18-.18l1.09-.06-.38-.14a5.13,5.13,0,0,0,1.3-.07h.26l.54.09h1s-.9-.09,0-.09c.69,0,1.38.08,2.07.13h.2c-.18,0-.32-.06-.56-.08l-1-.07h0l1.2,0-.55-.2a10.3,10.3,0,0,1,1.3.1c.43,0,.91.06,1.49.12-.13-.07,0-.12,1,0l.21.11c1.29.11,2.51.28,3.54.42.19,0,.26,0,.41,0a4.72,4.72,0,0,1,1.13.25,14.26,14.26,0,0,0,1.77.39c.54.09,1.13.22,1.75.35.39,0,.84.11,1.31.17l-.92-.29c.73.16,1.38.3,2.33.53-.83-.25-1.38-.41-1.94-.56.21,0-.1-.12-1.28-.41l.57.06c.23,0,.54.08.64.07s-.06-.07-.15-.12a5.22,5.22,0,0,0-.56-.15l.19.13-1.08-.22c-.06-.05,0-.08-.16-.13-.37-.16-.34-.23-.21-.28l.25,0a7.22,7.22,0,0,0,1.54.26l.39.07.66.14.15,0-.73-.13.08,0c1,.24,2.08.52,3.08.8.27,0,.28-.12-.6-.46l2.17.59.15,0c-.67-.26-1.19-.47-1.79-.69l-.8-.21a18.75,18.75,0,0,0-2-.56c-.27-.1-.42-.17-.73-.26-.71-.19-1.19-.34-1.1-.39-.82-.17-1.38-.23-2.37-.44l.72.1.75.13a10.6,10.6,0,0,0-1.68-.32l0-.14c-1.17-.16-2.23-.27-3.27-.36H305l-.8-.11c-.13-.14.66-.19-.51-.42.09,0,.25,0,.19-.07s-.34-.08-.57-.14c.47.05,1,.11,1.08.11a10.91,10.91,0,0,1,1.31.16l.18.13.68.09a27.41,27.41,0,0,0,2.85.24c.09,0,0-.05-.1-.08-.35-.16-.14-.18.74,0l-.3-.08c-.39-.08-.91-.17-.73-.18a5.79,5.79,0,0,1,.84.11c.27,0,.61.11,1,.19-.43-.18-.87-.34-.62-.38s-.28-.13.37,0c.1,0,.13,0,.05,0-.46-.17.19-.1.28-.15l.14,0-.24-.06-.8,0a18.4,18.4,0,0,0-2.33-.55c-.51-.08-.88-.11-1.26-.14l-1.35-.13-.26-.12c-.22,0-.42,0-.63,0s-.57-.08-.91-.13c-.13,0-1.36-.09-1.35,0l-.72-.11a15.56,15.56,0,0,1-1.59,0l.11-.05h0c-.58-.08-1.16-.17-1.8-.24.45,0,.81,0,1.16,0,0-.11,0-.13.81-.17,0,0-1.17-.09-.17-.09l.77.11c-.09-.1,1-.07,1.52-.07a15.68,15.68,0,0,0-1.72-.09,13,13,0,0,1-1.65-.08c1.15,0,2.08,0,3.11.09a4.11,4.11,0,0,1-1.32-.25h-.12l-.29,0,.13.07c-.32,0-1.09-.06-1.18,0l-.74,0,.6-.05c-.75,0-1.35,0-1.78-.08l.27-.05-1.83-.12c-.65,0-.59.11-1.8.12l1.13-.12h-1.39l-.22.11c-1.38,0-1.82,0-1.71-.08-1.15.09-1.15.1-2,.13-.56.1-1.07.22-1.69.36l-2.75.66a13.17,13.17,0,0,0-1.69.51c-.54.14-.92.28-1.32.4l0-.1c.55-.22,1.09-.43,1.65-.62a8.76,8.76,0,0,0-2,.65c-.23.11-.51.22-.73.31a1.09,1.09,0,0,1-.38.12,4.81,4.81,0,0,0-1,.37,12.2,12.2,0,0,0,1.17-.68,8.24,8.24,0,0,0-1.59.85c-1,.54-1.48.86-1.75,1s-.31.14-.41.12a9.41,9.41,0,0,0-1.54,1.23c-.07.07-.29.29-.43.4a4.12,4.12,0,0,1-.37.27,6.65,6.65,0,0,0-.63.48,19.44,19.44,0,0,0-1.76,1.82c0,.15.14,0-.29.72l-.07-.05a9.79,9.79,0,0,0-.59.82,1.52,1.52,0,0,1-.2.47c-.13.27-.34.63-.57,1.12.19-.37.4-.68.6-1s.45-.67.74-1.07c-.38.56-.54.81-.75,1.17.16-.23.31-.38.53-.66a16.35,16.35,0,0,0-1.76,3.15l.11-.35a7,7,0,0,0-.43,1.2c-.07.28-.12.53-.2,1v-.26c-.17.55-.3,1.05-.37,1.31a5.83,5.83,0,0,0-.18,1.56,3.92,3.92,0,0,0-.1.84,6.15,6.15,0,0,1,0,.78c-.05,0-.1.11-.15.18a12.43,12.43,0,0,0,.76,3.34C269.36,419.3,269.36,419.24,269.37,419.25Zm26.71-6.89c0-.37,0-.68-.07-1l0-.4-.08-.39A3.77,3.77,0,0,1,296.08,412.36Zm-.23,3.94V416c.11-.21.12-.2,0,.29v.18l-.12.32C295.77,416.65,295.81,416.47,295.85,416.3Zm-1.66-6.58c-.13-.33-.24-.58-.34-.78a2.81,2.81,0,0,1-.2-.49A8.5,8.5,0,0,1,294.19,409.72ZM289.66,405l-.22-.16a1.57,1.57,0,0,1,.18.08l.27.22Zm-1.51,0,.11.15-.2-.11Zm.12.25-.4-.25.15.06.34.23Zm4,8.51,0-.14V414l-.05.21C292.29,414,292.31,413.87,292.31,413.71Zm-.68,2.4a3.7,3.7,0,0,1-.29.47C291.59,416.13,291.59,416.11,291.63,416.11Zm-.17.36c.06-.12.13-.23.18-.36h0c.12-.25.19-.38.24-.47a3.54,3.54,0,0,0,.19-.31c-.1.32-.2.57-.37,1,.08-.38-.13.07-.44.53A3.35,3.35,0,0,0,291.46,416.47ZM289,419.14c.16-.15.33-.29.54-.52l.14,0a9.7,9.7,0,0,1-1.13.94h-.05C288.69,419.42,288.85,419.27,289,419.14Zm-3.19,1.56a10,10,0,0,0,1.06-.38,6.51,6.51,0,0,1-1.26.57Zm-.66.24h-.25C285.43,420.8,285.45,420.81,285.16,420.94Zm-1.86.3a11.33,11.33,0,0,0,1.35-.27,5.32,5.32,0,0,1-1.39.29Zm1,4.36c.28,0-.49.16-1.1.23C282.91,425.78,282.91,425.83,284.27,425.6Zm-3.66-4.5.29.11c-.38,0-.64-.07-.89-.12h.6Zm-.27.2a3.47,3.47,0,0,1-.51-.07A6.07,6.07,0,0,1,279,421C279.56,421.11,280.05,421.2,280.34,421.3Zm-5.7-7.15v.07c0,.15,0,.29-.05.44l0-.08C274.6,414.44,274.61,414.3,274.64,414.15Zm34.9-12.51.26.14-.18,0-.35-.15Zm-1.1-2.87,1.43.37-.21,0-.88-.21-.75-.09Zm-2.65,1.63c-.88-.08-.88-.07-2.06-.25l.86,0,.32,0C304.79,400.25,305.05,400.3,305.79,400.4Zm.35,1.38-.94-.1-.08,0,.91.1Zm-.76-1.62.6.15C305.19,400.19,305.13,400.17,305.38,400.16Zm-2.08-.48.31.08-.74-.05-.17,0Zm.07.12a14,14,0,0,1,1.51.18l.1,0c.45.11.46.13-.14.07a6,6,0,0,0-.92-.05,4.45,4.45,0,0,1-.86-.08l-1-.15Zm-3.6-2.68c-.72,0-.76,0-.78-.07Zm-21.33,4.69a5.2,5.2,0,0,1,.46-.31l.43-.27a2.09,2.09,0,0,0,.33-.29l.83-.38a1.36,1.36,0,0,0-.18.12,6.84,6.84,0,0,1-.62.39c-.27.17-.57.36-.77.5l-.61.38S278.31,401.9,278.44,401.81Zm-1.93.92.25-.15-.39.34-.2.13Zm-.22,6.3.14,0c-.2.21-.36.45-.62.76C276,409.48,276.1,409.31,276.29,409Zm-.63.7,0,.14-.15.25.06-.21Zm-.27-6,.15-.11c-.14.14-.28.28-.41.43l-.12.09Zm-.94,11.91-.1.17C274.34,415.1,274.4,415.39,274.45,415.65Zm-.81,7.52.32.26,0,0-.4-.31Zm-.33-19.08.21-.2a.56.56,0,0,0,0,.08l-.17.17S273.31,404.11,273.31,404.09Zm-1,17.85.37.31.29.33-.44-.39-.22-.2-.21-.22-.13-.18Zm-.9-1.19a4.62,4.62,0,0,1-.35-.55v-.05a4.86,4.86,0,0,0,.33.54ZM271,407.87l.14-.21s0,.07,0,.11l-.15.21Zm-1.54,3.64a2.28,2.28,0,0,1,.21-.63,1.58,1.58,0,0,1,0,.31C269.36,412,269.38,411.8,269.42,411.51Zm-.22,7c0,.23.1.44.15.66C269.11,418.49,269.14,418.48,269.2,418.54Z" transform="translate(-268.57 -396.69)"/><path d="M296.5,414.86v0h0Z" transform="translate(-268.57 -396.69)"/><path d="M276.32,409.43h0c-.16.25-.34.49-.47.74l0,.08.27-.41c.15-.22.31-.48.22-.41a4.24,4.24,0,0,1,.33-.39c-.1.17-.18.32-.26.49a3.7,3.7,0,0,1,.32-.43,5.15,5.15,0,0,1,.32-.41c-.11.05.21-.4-.07-.15s-.57.69-.9,1.16Z" transform="translate(-268.57 -396.69)"/><path d="M277,408.54h0Z" transform="translate(-268.57 -396.69)"/><path d="M289.66,404.25c-.19-.12-.36-.23-.54-.32,0,0,.22.2.49.4l.41.3.31.27c.8.5-.29-.31-.45-.44a3.42,3.42,0,0,1,.4.19C290.05,404.48,289.84,404.36,289.66,404.25Z" transform="translate(-268.57 -396.69)"/><path d="M292.92,402l-2.2.15-.72.08c-.42.06-.37.08-.23.08,1.06-.14,2.09-.23,3.12-.28Z" transform="translate(-268.57 -396.69)"/><path d="M292.05,405c.3.28.59.52.86.8l-.08-.26C292.06,404.8,292,404.76,292.05,405Z" transform="translate(-268.57 -396.69)"/><path d="M292.37,405.29c-.43-.38-.74-.58-1-.8a6,6,0,0,0,.8.77C292.9,405.93,292.21,405.21,292.37,405.29Z" transform="translate(-268.57 -396.69)"/><path d="M311.66,400a3.75,3.75,0,0,0,1.1.19,5.61,5.61,0,0,0-1.37-.4l.77.25Z" transform="translate(-268.57 -396.69)"/><path d="M314.31,403.25c-.14,0,.61.27.74.37C315.57,403.7,315.57,403.69,314.31,403.25Z" transform="translate(-268.57 -396.69)"/><path d="M272.27,423.22c-.26-.27-.51-.5-.73-.76a9.76,9.76,0,0,0,1.23,1.25,4.69,4.69,0,0,0,.76.56l-.27-.24C272.87,423.74,272.55,423.47,272.27,423.22Z" transform="translate(-268.57 -396.69)"/><path d="M278.3,426.35l-.44-.13-.7-.17c.43.16.79.26,1.25.39.17.05.53.09,1,.17C278.87,426.49,278.54,426.43,278.3,426.35Z" transform="translate(-268.57 -396.69)"/><path d="M296.5,414.89h0v0Z" transform="translate(-268.57 -396.69)"/><path d="M296.23,416.16h0v0a2.46,2.46,0,0,0,.34-1l-.07-.24c-.07.42-.16.83-.27,1.24h0Z" transform="translate(-268.57 -396.69)"/><path d="M275.41,425.29a2.66,2.66,0,0,0-.45-.13l.35.18a11.88,11.88,0,0,0,1.44.51C276.12,425.62,275.54,425.35,275.41,425.29Z" transform="translate(-268.57 -396.69)"/><path d="M301.57,401.67l-.2-.07-.31,0-.79,0,.18,0Z" transform="translate(-268.57 -396.69)"/><path d="M287.09,405.09l.13.05a6.57,6.57,0,0,0-.55-.36c-.29-.12-.5-.22-.91-.36.31.13.55.26.76.36Z" transform="translate(-268.57 -396.69)"/><path d="M302.7,397.27c.1,0,.06,0,.12-.06l-1.43-.07.09,0Z" transform="translate(-268.57 -396.69)"/><path d="M286.38,403.06l.28-.08-.42,0-.3.1Z" transform="translate(-268.57 -396.69)"/><path d="M295.29,408.38c.06.13.12.3.21.53s.24.53.37,1c-.08-.33-.18-.56-.25-.78s-.14-.39-.22-.56C295.39,408.51,295.27,408.32,295.29,408.38Z" transform="translate(-268.57 -396.69)"/><path d="M284.59,426.44l-.33-.05C283.54,426.56,283.54,426.57,284.59,426.44Z" transform="translate(-268.57 -396.69)"/><path d="M291.38,408.84s.06.13.1.21c.2.33.28.39.32.41s0,0,0,0l-.09-.16C291.53,409,291.41,408.82,291.38,408.84Z" transform="translate(-268.57 -396.69)"/><path d="M273.86,403.22c.31-.34.54-.6.8-.84l-.2.15C273.78,403.19,273.79,403.2,273.86,403.22Z" transform="translate(-268.57 -396.69)"/><path d="M280.45,405.75c.31-.19.61-.4,1.1-.66a8.77,8.77,0,0,0-.85.44A.93.93,0,0,0,280.45,405.75Z" transform="translate(-268.57 -396.69)"/><path d="M284.55,398l.79-.29C284.27,397.92,284.13,398,284.55,398Z" transform="translate(-268.57 -396.69)"/><path d="M298.66,396.74h-.9A3,3,0,0,0,298.66,396.74Z" transform="translate(-268.57 -396.69)"/><path d="M274.8,416.89c0,.11.06.2.13.39a7.78,7.78,0,0,0-.22-.86C274.75,416.66,274.77,416.78,274.8,416.89Z" transform="translate(-268.57 -396.69)"/><path d="M291.23,409a4.3,4.3,0,0,0-.78-1l.41.47Z" transform="translate(-268.57 -396.69)"/><path d="M293.18,405.63a2.66,2.66,0,0,0-.32-.35l-.17-.09.25.24Z" transform="translate(-268.57 -396.69)"/><path d="M310,398.93l.81.22C311.06,399.14,310.8,399.07,310,398.93Z" transform="translate(-268.57 -396.69)"/><path d="M291.73,405.86l.23.19a2.77,2.77,0,0,0-.24-.28c-.09-.06-.16-.12-.16-.1Z" transform="translate(-268.57 -396.69)"/><path d="M283.3,426.42c-.27,0-.6.05-1,.06a7.64,7.64,0,0,0,1.61-.1Z" transform="translate(-268.57 -396.69)"/><path d="M275.49,411.31l.06-.16c-.1.16-.18.32-.27.48l0,.14Z" transform="translate(-268.57 -396.69)"/><path d="M305,397.45l-.33-.05-.21,0,.3.05Z" transform="translate(-268.57 -396.69)"/><path d="M296.7,412l0,.07a8.64,8.64,0,0,1,0,.88l0,0C296.74,412.59,296.73,412.28,296.7,412Z" transform="translate(-268.57 -396.69)"/><polygon points="18.15 7.71 18.15 7.71 18.16 7.71 18.16 7.71 18.16 7.71 18.16 7.71 18.16 7.71 18.16 7.71 18.15 7.71 18.15 7.71"/><path d="M286.72,404.4l-.41-.08C286.87,404.55,286.8,404.47,286.72,404.4Z" transform="translate(-268.57 -396.69)"/><path d="M300.1,397.77l-.35.05C300.43,397.84,300.42,397.84,300.1,397.77Z" transform="translate(-268.57 -396.69)"/><path d="M298.64,401.56l-.17,0a1.8,1.8,0,0,0-.32,0l.22,0Z" transform="translate(-268.57 -396.69)"/><path d="M274.47,414.7l0,0c0-.17,0-.34,0-.51h0A4.55,4.55,0,0,0,274.47,414.7Z" transform="translate(-268.57 -396.69)"/><path d="M309.73,400.54l.23,0,.24,0C309.4,400.41,309.38,400.43,309.73,400.54Z" transform="translate(-268.57 -396.69)"/><path d="M287.37,404.91c-.17-.09-.34-.19-.52-.27l0,.05.51.25S287.39,404.92,287.37,404.91Z" transform="translate(-268.57 -396.69)"/><path d="M291.63,410.11s0-.11-.06-.19a1.14,1.14,0,0,1-.11-.17l.07.21Z" transform="translate(-268.57 -396.69)"/><path d="M291,405.67l.13.1-.07-.08-.13-.09Z" transform="translate(-268.57 -396.69)"/><path d="M288.26,403.86l.33.23.21.1-.34-.25Z" transform="translate(-268.57 -396.69)"/><path d="M304.48,399.44l.24,0-.14,0-.19,0Z" transform="translate(-268.57 -396.69)"/><path d="M321.3,416.2a12.71,12.71,0,0,0-2.52-1.09l-.38,0c-.57-.16-1.07-.29-1.46-.36a6.2,6.2,0,0,1-.77-.2c.29,0,.55,0,.83.06l-.5-.11-.46-.06a6.74,6.74,0,0,0-.85-.1c-.8,0-.43.09-1.88.17a14.9,14.9,0,0,1,1.89,0l0,0a15.79,15.79,0,0,0-2.57.1l.83.14a7.23,7.23,0,0,0-1.28.13,11.37,11.37,0,0,1,1.18-.06,12.39,12.39,0,0,0-1.32.18,12.68,12.68,0,0,1,3.77,0l-.38,0-.5,0h-.89l.1-.05a15.74,15.74,0,0,0-2.2.18c-.56.08-.94.15-1.23.2.4-.11.78-.2,1.23-.28a7.37,7.37,0,0,0-1.64.3c-.61.19-1.18.36-1.84.6a14.86,14.86,0,0,0-2.92,1.4c.3-.22.54-.37.71-.48a14.68,14.68,0,0,0-2.46,1.65,6.18,6.18,0,0,0-1.47,1.44l-.3.37-.25.34a13.1,13.1,0,0,0-1.48,2.14l.12.06c-.37.82-.3.55-.38.68s-.08.19-.17.4-.06.34-.08.47c.17-.44.5-1.19.51-1.06a13,13,0,0,0-.54,1.44,4.21,4.21,0,0,1-.09.55c-.05.19-.1.4-.18.72a11.6,11.6,0,0,0-.12,2.86,9.93,9.93,0,0,1,0-1.54l.1.13a10.65,10.65,0,0,0,0,1.13c.07.29.11.54.21.86,0-.26-.06-.49-.08-.69s0-.38-.05-.55a5.62,5.62,0,0,1,0-1,11.07,11.07,0,0,0,.18,1.87,7.56,7.56,0,0,1,0-.91,5.77,5.77,0,0,1,0-.73c0,.18,0,.38,0,.72,0,.17,0,.38,0,.64s0,.58.09,1c.08.1.25,1,.45,1.63l.32.84a9,9,0,0,0,.48.9c-.16-.34-.31-.65-.44-1s-.23-.65-.33-1c.12.3.25.57.39.87a2.49,2.49,0,0,0,.11.35c.17.26.31.5.52.8s.31.59.38.74a12.52,12.52,0,0,0,1,1.15c.1,0-.31-.55.32.05h0c.18.14.35.27.1-.05-.38-.51-.43-.65.23,0-.28-.31-.59-.6-.85-.95l0-.08a12.38,12.38,0,0,0,2.18,2,5.7,5.7,0,0,1-.44-.53c0-.08.15,0,.24,0a7.22,7.22,0,0,0-.62-.52l-.23-.19a4.59,4.59,0,0,1-.3-.35l.34.23-.18-.21c-.2-.19-.41-.37-.7-.69a4,4,0,0,0-.25-.52c-.14-.28-.44-.74-.63-1.21.18.3.22.34.62,1a2.73,2.73,0,0,0,.41.52c.13.13.24.29.51.58-.31-.39.2.14.2.1a6.93,6.93,0,0,1-.47-.56,7.25,7.25,0,0,1-.52-.75,6.13,6.13,0,0,0,.49.63,3.35,3.35,0,0,0,.3.35c0-.14-.09-.33,0-.34s.32.29.54.52a12.62,12.62,0,0,0,1.54,1.4,15.73,15.73,0,0,0,2.14,1.15,17.81,17.81,0,0,1-1.62-1.17l.09-.12c.21.15.46.3.72.45l-.27-.22.64.36.65.32.05-.07a7.66,7.66,0,0,0,1.36.67l-.28-.15c-.75-.42-.74-.43-.12-.17l.44.15c.33.12.26.07-.25-.19-.18-.08-.32-.18-.59-.33.29.14.54.26.78.36l.64.27a2.4,2.4,0,0,0-.64-.35,1.34,1.34,0,0,1-.52-.23c-.19-.12-.3-.21-.44-.31l.38.2c.12,0,.19,0,.3.05-.37-.19-.65-.32-.92-.47l.18.18c-.26-.16-.53-.3-1-.59.35.2.57.29.77.4h0l.06-.1.6.31.6.29h0c-.46-.24-.95-.5-1.31-.74a10.14,10.14,0,0,1-1-.72l.48.29a.51.51,0,0,0-.17-.18l-.53-.4-.33-.23-.29-.26-.29-.24-.26-.26-.18-.26a7.23,7.23,0,0,1-.76-.89,3.78,3.78,0,0,1-.37-.55,2,2,0,0,1-.14-.32,6.83,6.83,0,0,1-.84-2.87c-.1-.52-.1-.08-.12.18a7.54,7.54,0,0,1,.11-1.83v.48l0,.47a9.51,9.51,0,0,0,.19,1.19c0-.15,0-.46,0-.76V428a.45.45,0,0,1,.05-.24,2.74,2.74,0,0,0,0,.41,2.86,2.86,0,0,0,0,.34,6.21,6.21,0,0,0,.24,1.66,2.08,2.08,0,0,1,.3.63c.28.57.28.57.35.54l-.13-.25c-.05-.11-.11-.2-.16-.31a.81.81,0,0,0,0-.33l-.11-.29c0-.12-.09-.28-.14-.48a5.43,5.43,0,0,1-.17-.95c0-.54,0-1,0-1.31s.11-.52.14-.51,0,.08.11-.1a1.89,1.89,0,0,1,0-.29,6.53,6.53,0,0,1,.35-1.1c.11-.23.16-.21.25-.3s.15-.39.21-.54l.18-.42a4.41,4.41,0,0,1,.64-1c0,.07-.07.17-.14.28l-.28.44c-.21.34-.24.48-.15.43a5,5,0,0,1,1-1.43,8,8,0,0,1-.63,1c-.29.48-.27.58-.1.37l.31-.47a3.08,3.08,0,0,0,.25-.27c.48-.59,1.09-1.11,1.4-1.46s.56-.35.77-.5c.64-.42.58-.31.51-.23s.1,0,.22,0a2.59,2.59,0,0,1,.27-.21,10.06,10.06,0,0,1,1.79-.74l.38-.12a5.19,5.19,0,0,1,1.21-.31,5.8,5.8,0,0,1,1.19-.07,3.62,3.62,0,0,1,.55.05,3.43,3.43,0,0,1,.56.07,12,12,0,0,1,2.18.44c.1,0,.42.12.5.13s0,0,0-.06c.16.05.29.13.44.19s.28.13.42.2l.26.13.24.13c.08.05.19.07.16.05s-.26-.19-.43-.28l-.39-.19h.11a3.85,3.85,0,0,0-.91-.36,2.29,2.29,0,0,0-.69-.08c-.2-.07-.4-.12-.64-.18a8.92,8.92,0,0,1,.89.11l-.44-.15-.38-.1c.61.12,1.07.25,1.54.34L317,420h0l.39.07c.58.25.85.41,1.08.53a2.81,2.81,0,0,1,.35.17,3.61,3.61,0,0,1,.45.22l.36.32a3.59,3.59,0,0,1,.7.74,2.68,2.68,0,0,1,.4.48l.18.27c.05.09.11.19.15.28a7.57,7.57,0,0,1,.42,1.21c-.11,0-.07.67-.19.59a4.51,4.51,0,0,1,0,1c0,.34-.07.71-.12,1.23,0,.07,0,.15,0,.24-.07.34-.18.63-.26.91a5.23,5.23,0,0,0,.25-.69c.08-.25.13-.5.19-.63s.05-.36.07-.55a8.29,8.29,0,0,0,0-.86c0-.21,0-.41,0-.61l0,.05a4.9,4.9,0,0,1,.06.77,3.91,3.91,0,0,1,.07.39c0,.17,0,.29-.06.43s0,.26-.05.35.05.22.08.32-.07.32-.1.45-.06.24-.09.34-.05.36-.12.65c0,0-.07,0,0-.07a3.52,3.52,0,0,0,.14-.56c.09-.38.07-.59,0-.43l-.14.43-.07.29-.08.27c-.06.22-.06.36-.11.54a12,12,0,0,1-.69,1.47l.16-.12c-.16.27-.26.51-.41.74s-.37.48-.52.69,0,.09,0,0c-.11.14-.27.35-.29.36a.57.57,0,0,1-.23.09,4.13,4.13,0,0,1-.87.81,3.54,3.54,0,0,0-.46.36l-.3.26-.31.26-.14.14c.3-.2.6-.4.86-.6a4,4,0,0,1-.59.51l-.44.35a7.56,7.56,0,0,1-.82.6,6.21,6.21,0,0,1-.69.39l-.38.2-.43.22-.22.14.49-.22c-.22.16-.4.3-.62.44l-.21,0c-.5.32-.66.43-.4.39l-.65.29-.06-.16c-.59.23-1.12.43-1.72.61a7.68,7.68,0,0,0,1.27-.35c-.14.08-.29.17-.51.28s-.44.09-.62.11l-.13.05-.28-.09.24.11a3.61,3.61,0,0,1-1.08.45,10.49,10.49,0,0,1-1.91.48l.37-.15-.74.1c-.51.13-1,.23-1.49.33-.16.06.52,0-.31.18a13.86,13.86,0,0,0-1.58.16c-.64.1-1.4.14-2.18.18l-1.09.06.38.14a5.13,5.13,0,0,0-1.3.07h-.26l-.54-.09h-1s.9.09,0,.09c-.69,0-1.38-.08-2.07-.13H296c.18,0,.32.06.56.08l1,.07h0l-1.2,0,.55.2a10.3,10.3,0,0,1-1.3-.1c-.43,0-.91-.06-1.49-.12.13.07,0,.12-1,0l-.21-.11c-1.29-.11-2.51-.28-3.54-.42-.19,0-.26,0-.41,0a4.72,4.72,0,0,1-1.13-.25,14.26,14.26,0,0,0-1.77-.39c-.54-.09-1.13-.22-1.75-.35-.39,0-.84-.11-1.31-.17l.92.29c-.73-.16-1.38-.3-2.33-.53.83.25,1.38.41,1.94.56-.21,0,.1.12,1.28.41l-.57-.06c-.23,0-.54-.08-.64-.07s.06.07.15.12a5.22,5.22,0,0,0,.56.15l-.19-.13,1.08.22c.06.05,0,.08.16.13.37.16.34.23.21.28l-.25,0a7.22,7.22,0,0,0-1.54-.26l-.39-.07-.66-.14-.15,0,.73.13-.08,0c-1-.24-2.08-.52-3.08-.8-.27,0-.28.12.6.46l-2.17-.59-.15,0c.67.26,1.19.48,1.79.69l.8.21a18.75,18.75,0,0,0,2,.56c.27.1.42.17.73.26.71.19,1.19.34,1.1.39.82.17,1.38.23,2.37.44l-.72-.1-.75-.13a10.6,10.6,0,0,0,1.68.32l0,.14c1.17.16,2.23.27,3.27.36H291l.8.11c.13.14-.66.19.51.42-.09,0-.25,0-.19.07s.34.08.57.14c-.47-.05-1-.11-1.08-.11a10.91,10.91,0,0,1-1.31-.16l-.18-.13-.68-.09a27.41,27.41,0,0,0-2.85-.24c-.09,0,0,.05.1.08.35.16.14.18-.74,0l.3.08c.39.08.91.17.73.18a5.79,5.79,0,0,1-.84-.11c-.27,0-.61-.11-1-.19.43.18.87.34.62.38s.28.13-.37,0c-.1,0-.13,0-.05,0,.46.17-.19.1-.28.15l-.14,0,.24.06.8,0a18.4,18.4,0,0,0,2.33.55c.51.08.88.11,1.26.14l1.35.13a1.51,1.51,0,0,0,.26.12c.22,0,.42,0,.63,0s.57.08.91.13c.13,0,1.36.09,1.35,0l.72.11a15.56,15.56,0,0,1,1.59,0l-.11.05h0c.58.08,1.16.17,1.8.24-.45,0-.81,0-1.16,0,0,.11,0,.13-.81.17,0,0,1.17.09.17.09l-.77-.11c.09.1-1,.07-1.52.07a15.68,15.68,0,0,0,1.72.09,13,13,0,0,1,1.65.08c-1.15,0-2.08,0-3.11-.09a4.11,4.11,0,0,1,1.32.25h.12l.29,0-.13-.07c.32,0,1.09.06,1.18,0l.74,0-.6.05c.75,0,1.35,0,1.78.08l-.27.05,1.83.12c.65,0,.59-.11,1.8-.12l-1.13.12h1.39l.22-.1c1.38,0,1.82,0,1.71.07,1.15-.09,1.15-.1,2-.13.56-.1,1.07-.22,1.69-.36l2.75-.65a14.6,14.6,0,0,0,1.69-.52c.54-.14.92-.28,1.32-.4l0,.1c-.55.22-1.09.43-1.65.62a8.76,8.76,0,0,0,2-.65c.23-.11.51-.22.73-.31a1.09,1.09,0,0,1,.38-.12,4.81,4.81,0,0,0,1-.37,12.2,12.2,0,0,0-1.17.68,8.24,8.24,0,0,0,1.59-.85c1-.54,1.48-.86,1.75-1s.31-.14.41-.12a9.41,9.41,0,0,0,1.54-1.23c.07-.07.29-.29.43-.4a4.12,4.12,0,0,1,.37-.27,6.65,6.65,0,0,0,.63-.48,19.44,19.44,0,0,0,1.76-1.82c0-.15-.14,0,.29-.72l.07.05a9.79,9.79,0,0,0,.59-.82,1.52,1.52,0,0,1,.2-.47c.13-.27.34-.63.57-1.12-.19.37-.4.68-.6,1s-.45.67-.74,1.07c.38-.56.54-.81.75-1.17-.16.23-.31.38-.53.66a16.35,16.35,0,0,0,1.76-3.15l-.11.35a7,7,0,0,0,.43-1.2c.07-.28.12-.53.2-1v.26c.17-.55.3-1.05.37-1.31a5.83,5.83,0,0,0,.18-1.56,3.92,3.92,0,0,0,.1-.84,6.15,6.15,0,0,1,0-.78c.05,0,.1-.11.15-.18a12.43,12.43,0,0,0-.76-3.34c0-.08,0,0,0,0a11.62,11.62,0,0,0-.64-1.45,4,4,0,0,1,.47,1.45,10,10,0,0,0-.42-1,10.77,10.77,0,0,0-.67-1.21c.28.49.37.68.34.67a5.1,5.1,0,0,1-.36-.48c-.31-.42-.18-.2.19.42a3.51,3.51,0,0,1,.3.66l-.38-.63-.45-.68a8.32,8.32,0,0,0-.56-.72c.19.18.38.37.56.57a5.21,5.21,0,0,0-.87-1c-.17-.15-.27-.21-.52-.44s-.64-.59-.89-.81a6,6,0,0,0-1.24-.86C320.71,415.78,321.51,416.28,321.3,416.2Zm-21.38,12.44c0,.37,0,.68.07,1l0,.4.08.39A3.77,3.77,0,0,1,299.92,428.64Zm.23-3.94V425c-.11.21-.12.2,0-.29v-.18l.12-.32C300.23,424.35,300.19,424.53,300.15,424.7Zm1.66,6.58c.13.33.24.58.34.78a2.81,2.81,0,0,1,.2.49A8.5,8.5,0,0,1,301.81,431.28Zm4.53,4.74.22.16a1.57,1.57,0,0,1-.18-.08l-.27-.22Zm1.51,0-.11-.15.2.11Zm-.12-.25.4.25L308,436l-.34-.23Zm-4-8.51,0,.14V427l.05-.21C303.71,427,303.69,427.13,303.69,427.29Zm.68-2.4a3.7,3.7,0,0,1,.29-.47C304.41,424.87,304.41,424.89,304.37,424.89Zm.17-.36c-.06.12-.13.23-.18.36h0c-.12.25-.19.38-.24.47a3.54,3.54,0,0,0-.19.31c.1-.32.2-.57.37-1-.08.38.13-.07.44-.53A3.35,3.35,0,0,0,304.54,424.53Zm2.45-2.67c-.16.15-.33.29-.54.52l-.14,0a9.7,9.7,0,0,1,1.13-.94h.05C307.31,421.58,307.15,421.73,307,421.86Zm3.19-1.56a10,10,0,0,0-1.06.38,6.51,6.51,0,0,1,1.26-.57Zm.66-.24h.25C310.57,420.2,310.55,420.19,310.84,420.06Zm1.86-.3a11.33,11.33,0,0,0-1.35.27,5.32,5.32,0,0,1,1.39-.29Zm-1-4.36c-.28,0,.49-.16,1.1-.23C313.09,415.22,313.09,415.17,311.73,415.4Zm3.66,4.5-.29-.11c.38,0,.64.07.89.12h-.6Zm.27-.2a3.47,3.47,0,0,1,.51.07,6.07,6.07,0,0,1,.82.26C316.44,419.89,316,419.8,315.66,419.7Zm5.7,7.15v-.07c0-.15,0-.29.05-.44l0,.08C321.4,426.56,321.39,426.7,321.36,426.85Zm-34.9,12.51-.26-.14.18,0,.35.15Zm1.1,2.87-1.43-.37.21,0,.88.21.75.09Zm2.65-1.63c.88.08.88.07,2.06.25-.31,0-.59,0-.86,0l-.32,0C291.21,440.75,291,440.7,290.21,440.6Zm-.35-1.38.94.1.08,0-.91-.1Zm.76,1.62-.6-.15C290.81,440.81,290.87,440.83,290.62,440.84Zm2.08.48-.31-.08.74.05.17,0Zm-.07-.12a14,14,0,0,1-1.51-.18l-.1,0c-.45-.11-.46-.13.14-.07a6,6,0,0,0,.92.05,4.45,4.45,0,0,1,.86.08l1,.15Zm3.6,2.68c.72,0,.76,0,.78.07Zm21.33-4.69a5.2,5.2,0,0,1-.46.31l-.43.27a2.09,2.09,0,0,0-.33.29l-.83.38a1.36,1.36,0,0,0,.18-.12,6.84,6.84,0,0,1,.62-.39c.27-.17.57-.36.77-.5l.61-.38S317.69,439.1,317.56,439.19Zm1.93-.92-.25.15.39-.34.2-.13Zm.22-6.3-.14,0c.2-.21.36-.45.62-.76C320,431.52,319.9,431.69,319.71,432Zm.63-.7,0-.14.15-.25-.06.21Zm.27,6-.15.11c.14-.14.28-.28.41-.43l.12-.09Zm6.19-14.8c0-.23-.1-.45-.15-.66C326.89,422.51,326.86,422.52,326.8,422.46Zm-.39,7.35c.23-.81.21-.61.17-.32a2.28,2.28,0,0,1-.21.63A1.58,1.58,0,0,1,326.41,429.81ZM325.09,433l0,.11-.14.21s0-.07,0-.11ZM325,420.8v.05a4.86,4.86,0,0,0-.33-.54l0-.06A4.62,4.62,0,0,1,325,420.8Zm-1.47-2,.22.2.21.22.13.18-.34-.35-.37-.31-.29-.33Zm-1,18.22.17-.17s0,0,0,.05l-.21.2A.56.56,0,0,0,322.52,437Zm-.44-19.44.4.31-.12-.07-.32-.26Zm-.43,7.59c0,.72,0,.43-.1.17Z" transform="translate(-268.57 -396.69)"/><polygon points="35.61 34.87 35.61 34.87 35.61 34.86 35.61 34.85 35.61 34.85 35.61 34.85 35.61 34.85 35.61 34.85 35.61 34.86 35.61 34.87 35.61 34.87"/><path d="M303.09,435.24h0Z" transform="translate(-268.57 -396.69)"/><path d="M299.5,426.14v0h0Z" transform="translate(-268.57 -396.69)"/><path d="M319.68,431.57h0c.16-.25.34-.49.47-.74l0-.08-.27.41c-.15.22-.31.48-.22.41a4.24,4.24,0,0,1-.33.39c.1-.17.18-.32.26-.49a3.7,3.7,0,0,1-.32.43,5.15,5.15,0,0,1-.32.41c.11-.05-.21.4.07.15s.57-.69.9-1.16Z" transform="translate(-268.57 -396.69)"/><path d="M319,432.46h0Z" transform="translate(-268.57 -396.69)"/><path d="M306.34,436.75c.19.12.36.23.54.32,0,0-.22-.2-.49-.4l-.41-.3-.31-.27c-.8-.5.29.32.45.44a3.42,3.42,0,0,1-.4-.19C306,436.52,306.16,436.64,306.34,436.75Z" transform="translate(-268.57 -396.69)"/><path d="M303.08,439l2.2-.15.72-.08c.42-.06.37-.08.23-.08-1.06.14-2.09.23-3.12.28Z" transform="translate(-268.57 -396.69)"/><path d="M304,436c-.3-.28-.59-.52-.86-.8l.08.26C303.94,436.2,304.05,436.24,304,436Z" transform="translate(-268.57 -396.69)"/><path d="M303.63,435.71c.43.38.74.58,1,.8a6,6,0,0,0-.8-.77C303.1,435.07,303.79,435.79,303.63,435.71Z" transform="translate(-268.57 -396.69)"/><path d="M283.24,440.8a5.61,5.61,0,0,0,1.37.4l-.77-.25.5,0A3.75,3.75,0,0,0,283.24,440.8Z" transform="translate(-268.57 -396.69)"/><path d="M281,437.38c-.52-.08-.52-.07.74.37C281.83,437.73,281.08,437.48,281,437.38Z" transform="translate(-268.57 -396.69)"/><path d="M323.73,417.78c.26.27.51.5.73.76a9.76,9.76,0,0,0-1.23-1.25,4.69,4.69,0,0,0-.76-.56l.27.24C323.13,417.26,323.45,417.53,323.73,417.78Z" transform="translate(-268.57 -396.69)"/><path d="M317.7,414.65l.44.13.7.17c-.43-.16-.79-.26-1.25-.39-.17-.05-.53-.09-1-.17C317.13,414.52,317.46,414.57,317.7,414.65Z" transform="translate(-268.57 -396.69)"/><path d="M299.77,424.84h0v0a2.46,2.46,0,0,0-.34,1l.07.24c.07-.42.16-.83.27-1.24h0Z" transform="translate(-268.57 -396.69)"/><path d="M299.5,426.11h0v0Z" transform="translate(-268.57 -396.69)"/><path d="M321,415.84l-.35-.18a11.88,11.88,0,0,0-1.44-.51c.63.23,1.21.5,1.34.56A2.66,2.66,0,0,0,321,415.84Z" transform="translate(-268.57 -396.69)"/><path d="M295.73,439.4l-.18,0-1.12-.05.2.07.31,0Z" transform="translate(-268.57 -396.69)"/><path d="M308.91,435.91l-.13-.05a6.57,6.57,0,0,0,.55.36c.29.12.5.22.91.36-.31-.13-.55-.26-.76-.36Z" transform="translate(-268.57 -396.69)"/><path d="M293.18,443.79l1.43.07-.09,0-1.22-.09C293.2,443.72,293.24,443.76,293.18,443.79Z" transform="translate(-268.57 -396.69)"/><path d="M309.62,437.94l-.28.08.42,0,.3-.1Z" transform="translate(-268.57 -396.69)"/><path d="M300.71,432.62c-.06-.13-.12-.3-.21-.53s-.24-.53-.37-1c.08.33.18.56.25.78s.14.39.22.56C300.61,432.49,300.73,432.68,300.71,432.62Z" transform="translate(-268.57 -396.69)"/><path d="M311.41,414.56l.33.05C312.46,414.44,312.46,414.43,311.41,414.56Z" transform="translate(-268.57 -396.69)"/><path d="M304.62,432.16s-.06-.13-.1-.21c-.2-.33-.28-.39-.32-.41s0,0,0,0l.09.16C304.47,432,304.59,432.18,304.62,432.16Z" transform="translate(-268.57 -396.69)"/><path d="M322.14,437.78c-.31.34-.54.6-.8.84l.2-.15C322.22,437.81,322.21,437.8,322.14,437.78Z" transform="translate(-268.57 -396.69)"/><path d="M315.55,435.25c-.31.19-.61.4-1.1.66a8.77,8.77,0,0,0,.85-.44A.93.93,0,0,0,315.55,435.25Z" transform="translate(-268.57 -396.69)"/><path d="M311.45,443.05l-.79.29C311.73,443.08,311.87,443,311.45,443.05Z" transform="translate(-268.57 -396.69)"/><path d="M298.24,444.27a3,3,0,0,0-.9,0Z" transform="translate(-268.57 -396.69)"/><path d="M321.2,424.11c0-.11-.06-.2-.13-.39a7.78,7.78,0,0,0,.22.86C321.25,424.34,321.23,424.22,321.2,424.11Z" transform="translate(-268.57 -396.69)"/><path d="M304.77,432a4.3,4.3,0,0,0,.78,1l-.41-.47Z" transform="translate(-268.57 -396.69)"/><path d="M302.82,435.37a2.66,2.66,0,0,0,.32.35l.17.09-.25-.24Z" transform="translate(-268.57 -396.69)"/><path d="M286,442.07l-.81-.22C284.94,441.86,285.2,441.93,286,442.07Z" transform="translate(-268.57 -396.69)"/><path d="M304.27,435.14,304,435a2.77,2.77,0,0,0,.24.28c.09.06.16.12.16.1Z" transform="translate(-268.57 -396.69)"/><path d="M312.7,414.58c.27,0,.6-.05,1-.06a7.64,7.64,0,0,0-1.61.1A6,6,0,0,0,312.7,414.58Z" transform="translate(-268.57 -396.69)"/><path d="M320.51,429.69l-.06.16c.1-.16.18-.32.27-.48l0-.14Z" transform="translate(-268.57 -396.69)"/><path d="M291.38,443.6l.21,0-.3-.05-.24,0Z" transform="translate(-268.57 -396.69)"/><path d="M299.28,428.07l0,0c0,.3,0,.61,0,.91l0-.07A8.64,8.64,0,0,1,299.28,428.07Z" transform="translate(-268.57 -396.69)"/><polygon points="40.71 39.92 40.7 39.91 40.7 39.91 40.69 39.91 40.69 39.91 40.69 39.91 40.69 39.91 40.7 39.92 40.71 39.92 40.71 39.92"/><path d="M309.28,436.6l.41.08C309.13,436.45,309.2,436.53,309.28,436.6Z" transform="translate(-268.57 -396.69)"/><path d="M295.9,443.23l.35-.05C295.57,443.16,295.58,443.16,295.9,443.23Z" transform="translate(-268.57 -396.69)"/><path d="M297.63,439.44h-.27l.17.05a2.52,2.52,0,0,0,.32,0Z" transform="translate(-268.57 -396.69)"/><path d="M321.53,426.3l0,0c0,.17,0,.34,0,.51h0A4.55,4.55,0,0,0,321.53,426.3Z" transform="translate(-268.57 -396.69)"/><path d="M286.27,440.46l-.23,0-.24,0C286.6,440.59,286.62,440.57,286.27,440.46Z" transform="translate(-268.57 -396.69)"/><path d="M308.63,436.09c.17.09.34.19.52.27l0-.05-.51-.25S308.61,436.08,308.63,436.09Z" transform="translate(-268.57 -396.69)"/><path d="M304.37,430.89s0,.11.06.19a1.14,1.14,0,0,1,.11.17l-.07-.21Z" transform="translate(-268.57 -396.69)"/><path d="M305,435.33l-.13-.1.07.08.13.09Z" transform="translate(-268.57 -396.69)"/><path d="M307.74,437.14l-.33-.23-.21-.1.34.25Z" transform="translate(-268.57 -396.69)"/><path d="M291.52,441.56l-.24,0,.14,0,.19,0Z" transform="translate(-268.57 -396.69)"/></svg>