<svg id="Camada_1" data-name="Camada 1" xmlns="http://www.w3.org/2000/svg" viewBox="0 0 60.92 54.86"><title>capricornio</title><path d="M306.24,420.71l0,0h0Z" transform="translate(-267.53 -393.1)"/><path d="M308.12,418.9l0,0,0,0h0l-.06,0Z" transform="translate(-267.53 -393.1)"/><path d="M327.69,422a12.54,12.54,0,0,0-.83-1.84,12,12,0,0,1,.87,1.78,11.06,11.06,0,0,0-4.15-5.48,7.39,7.39,0,0,0-2-1.08,9.46,9.46,0,0,0-2.59-.52,11.87,11.87,0,0,0-2,0,12.39,12.39,0,0,0-1.41.16c-.47.08-.9.2-1.34.31l-.34.08-.32.11-.66.22c-.44.15-.86.36-1.31.55l.06.12c-1.65.9-1.16.61-1.45.74l-.76.48-.72.64a11.76,11.76,0,0,1,2.05-1.28,19.08,19.08,0,0,0-2.6,1.83l-.81.79c-.25.24-.55.51-.95.9v0l.3-.32.48-.47.49-.46.45-.4a8.24,8.24,0,0,0-1.59,1.35l-.12.2c0-.19.07-.37.11-.56l-.14.62-.08.15.07-.08h0l-.09.09-.14.15c.11-.6.23-1.29.3-1.79.09-.67.13-1.06.18-1.58.21-1.47.4-3,.52-4.68,0,.22-.07.36-.11.52.06-.91.09-1.68.1-2.46s0-1.78,0-2.53c-.09-1.1-.06-.25-.06,0,0-.51-.1-1.31-.1-1.38,0-.33,0-.45,0-.64-.24-1.95-.55-3.08-.62-3.55a15.29,15.29,0,0,0-1.64-4.05c-.11-.18-.21-.35-.34-.53a17.07,17.07,0,0,1,1.37,3c-.16-.45-.68-1.5-1-2.2l-.38-.67c-.19-.31-.41-.64-.6-.89a12,12,0,0,0-2.49-2.53,8.85,8.85,0,0,0-2.79-1.41,7.1,7.1,0,0,0-1.77-.29,8.55,8.55,0,0,0-2,.15,6.13,6.13,0,0,0-.95.25,8.79,8.79,0,0,1,2-.34,8.93,8.93,0,0,0-2.78.75c-.25.08-.44.14-.67.23a9.09,9.09,0,0,0-1.67,1.09c-.22.2-.15.18.2,0a15.33,15.33,0,0,0-1.73,1.43l-.12-.12a20,20,0,0,0-3.31,4.28c.07,0,.44-.65.91-1.33a16.52,16.52,0,0,1,1.38-1.76,17,17,0,0,0-1,1.41c-.47.6-.76,1-1.05,1.42a9.34,9.34,0,0,0-.67,1.37c-.08.19-.19.41-.37.8-.19-.23-.41-.47-.65-.71a23.86,23.86,0,0,0-3.49-2.77c-.75-.47-1.66-1.05-2.66-1.6.54.35,1.18.8,1.88,1.31-.72-.49-1.42-.94-2.23-1.41a19.27,19.27,0,0,0-2.9-1.4,18,18,0,0,1,2.53,1.26c.68.4,1.26.79,1.82,1.17-.22-.11-.17-.06.22.23s1.1.77,2.26,1.63c-.41-.28-.78-.51-1.11-.72s-1.06-.66-1.26-.76.11.14.29.3l1.07.76-.35-.35c.78.53,1.52,1,2.11,1.52a1.49,1.49,0,0,0,.28.36c.68.69.58.73.33.59l-.46-.39a19.59,19.59,0,0,0-3-2.08l-.06,0-.16-.11-.54-.35c-.43-.27-.95-.6-1.33-.82l-.3-.2q.75.42,1.47.87l-.14-.12a23.1,23.1,0,0,0-3.32-1.83,11.41,11.41,0,0,0-3.76-1c-.32,0-.47.07-.25.12s.81.11,1.9.42a8.67,8.67,0,0,0-5.4.31l-.27.21a7,7,0,0,1,2.33-.56,9,9,0,0,1,2.2.11,10,10,0,0,1,1.89.42,16.16,16.16,0,0,1,2,.9c.51.28,1.06.57,2.1,1.24.52.38.8.61,1.38,1a9.51,9.51,0,0,1,2,1.62,14.77,14.77,0,0,1,1.92,1.73,9.58,9.58,0,0,1,.63.75l0,0a11.24,11.24,0,0,0-1-1.12c.34.39.64.77.94,1.17l0,0,0,.06-.19-.29c0-.06-.19-.24-.33-.41l-.4-.33a12.65,12.65,0,0,1,.91,1.06c-.09.21-.17.43-.26.64l.31-.57,0,0c0,.05,0,0,0,0l.06-.09.08.12-.07.16-.21.54s0,0,0,0l-.08.21c-.18-.25-.44-.61-.81-1.05l.37.5c.14.19.28.41.41.62l0,.09c-.17-.26-.37-.56-.57-.81a11.44,11.44,0,0,0-1.4-1.49c.65.69,1.16,1.46.8,1.14-.08-.06,0,.07,0,.09s-.09-.07-.55-.52c-.15-.15-.21-.15-.09,0,.61.73-.33-.14-.49-.18l-.23-.14.35.33a5.48,5.48,0,0,1,1.89,2.35l-.27.76c-.15.45-.34.92-.48,1.42.09-.41.18-.73.25-1-.15.38-.27.74-.37,1.05s-.19.59-.26.8c-.18.65-.3,1.29-.45,1.92s-.24,1.27-.36,1.93c0,.21.06-.11.11-.21s0,0-.12,1.07l-.17.93c-.06.34-.09.7-.14,1.06s-.08.71-.1,1.05,0,.65,0,.92c0,.82,0,1.7-.05,2.62s0,1.89.13,2.85c0,.26,0,.51.05.76l.09.72c.07.46.11.88.17,1.22,0-.35,0-.61,0-.95a14.54,14.54,0,0,0,.57,3.15s.07.34.13.6.06.42.1.64.08.44.13.67l.3,1.08a2.37,2.37,0,0,0,2.53,1.74h.07a3.68,3.68,0,0,0,1.84-.77,4.66,4.66,0,0,0,1-1.16,4.54,4.54,0,0,0-.33.43,4.23,4.23,0,0,1-.9.83c-.32.21-.55.29-.32.17l.23-.14a3.27,3.27,0,0,0,.35-.28,3.81,3.81,0,0,0,.83-1,6.1,6.1,0,0,0,.74-1.72l.05-.19,0-.16.08-.3.14-.62c.1-.41.18-.82.27-1.24l.22-1.25c0-.16,0-.32,0-.48-.07.45-.15.77-.26,1.35s-.31,1.59-.51,2.39h0c.18-.82.36-1.64.54-2.85-.14.45-.27.86-.42,1.28.26-1.4.38-2.1.52-3.09s.22-2.17.27-3.58c-.09.34-.08,0-.12-2.28l.06-.52a39.07,39.07,0,0,0-.47-4.5c-.23-1.42-.53-2.74-.85-4-.12-.37-.19-.55-.27-.8a23.46,23.46,0,0,1,.86-2.24c.7-1.51,1.07-2.31,1.46-3a17.27,17.27,0,0,1,1.39-2l.08.07a18.39,18.39,0,0,0-1.62,2.64c.26-.42.51-.83.82-1.3s.68-1,1.19-1.68a8,8,0,0,1,.88-.94,1.91,1.91,0,0,1,.49-.38s.2-.12.45-.29a7,7,0,0,1,.77-.44,4.93,4.93,0,0,0-.73.47,1.22,1.22,0,0,0-.23.22,3.28,3.28,0,0,1-.5.51l.43-.37.35-.28.54-.37c.3-.18.49-.29.68-.38a3.1,3.1,0,0,1,1.31-.23,1.8,1.8,0,0,1,.57.14c.25.12.27.18.3.27a5,5,0,0,1,1,.82c.29.29.51.55.71.79a5.24,5.24,0,0,1,.48.72,5.6,5.6,0,0,1,.3.64c.15.39.19.57.4,1.15a17.48,17.48,0,0,1,.83,3.95c.09.22.14-.15.31,1.2h-.09c0,.63,0,1.13,0,1.69a13.61,13.61,0,0,1,0,3,34.92,34.92,0,0,0,.21-4.25c.05,1.14,0,1.67,0,2.38,0-.48.09-.84.13-1.45,0,1.2-.1,2.29-.22,3.31s-.25,2-.41,3c0-.24.05-.44.07-.65-.35,2.21-.33,2.45-.54,4v-.47c-.2,1-.37,1.95-.47,2.42a26.52,26.52,0,0,0-.45,2.83,14.55,14.55,0,0,0-.27,1.52,12.76,12.76,0,0,1-.24,1.4,1.49,1.49,0,0,0-.18.31,29.82,29.82,0,0,0-.1,4.73c0,.07-.07.13-.1.2l.1-.18,0,.31-.11.23-.86,1.29c-.62,1.07-1,1.71-1.49,2.41,0,.15.79-.9-.1.48h0v0l0,0h0c-.22.37-.44.74.05.12a8.83,8.83,0,0,1,.63-.76,5.08,5.08,0,0,1-.67,1.11c.48-.68.95-1.37,1.4-2.09l.11-.14a31,31,0,0,1-3.46,4.78c.33-.31.85-.81,1-.93s-.1.25-.18.4a10.17,10.17,0,0,0,1-1.3l.35-.5c.14-.2.31-.44.56-.76l-.4.73.34-.46c.16-.24.3-.48.47-.76l.57-1a11.39,11.39,0,0,0,.71-.94c.09-.13.19-.29.29-.46,0,.06,0,0,0,0a.43.43,0,0,1,0,.11v0c-.37.58-.52.89-.71,1.21s-.39.69-.86,1.39c.62-.88-.23.44-.19.41.56-.81,1.08-1.58,1.81-2.79h0c-.64,1.11-1.06,1.79-1.27,2.12.2-.17.47-.49.48-.4a11,11,0,0,1-.87,1.42,25.33,25.33,0,0,1-3,3.56,19.91,19.91,0,0,1-2,1.85,21.17,21.17,0,0,1-2.24,1.56,22.07,22.07,0,0,0,2-1.18c.32-.22.62-.44.92-.67.14-.12.3-.23.44-.34l.41-.36.1.11c-.43.42-1,.87-1.51,1.3.31-.2.48-.35.65-.47a17.82,17.82,0,0,1-2.83,2l0,.08a35.28,35.28,0,0,1-3.31,1.47l.73-.25c.95-.35,1.41-.56,1.47-.57a8.62,8.62,0,0,1-1.05.52l-1,.43c-.39.16-.53.21-.42.19s.5-.15,1.16-.39c.43-.17.82-.31,1.52-.62a23.6,23.6,0,0,1-3.53,1.38,7.43,7.43,0,0,0,1.69-.51c.21-.11.75-.33,1.29-.54s.83-.33,1.22-.5c-.32.17-.89.44-.94.46l-.64.38a24.07,24.07,0,0,0,2.32-1.14l-.57.22a21,21,0,0,0,2.46-1.48,19.62,19.62,0,0,1-1.83,1.22h0l-.08.05h0l0,0,0,0,.06.11a21.92,21.92,0,0,1-3.07,1.45v0a23.59,23.59,0,0,0,3.46-1.6,21.3,21.3,0,0,0,2.69-1.79c-.43.36-.81.68-1.17.94a9.14,9.14,0,0,0,1.93-1.47,26.26,26.26,0,0,0,2.83-3l.57-.65c.6-.81,1.09-1.53,1.54-2.24,0,.07.06.15.1.23a2.44,2.44,0,0,1-.1-.24l.09-.14.14.32c-.29.44-.55.85-1.24,1.86.44-.6.85-1.22,1.25-1.84a11.76,11.76,0,0,0,1,1.77,5.57,5.57,0,0,1-.72-1.38s.27.48.64,1.05.41.55.31.4a13.16,13.16,0,0,1-.72-1.25,6.71,6.71,0,0,1-.35-.77l0-.06c.12.25.26.55.4.81a13.62,13.62,0,0,0,2.1,2.88,13.81,13.81,0,0,1-1.11-1.18,10.92,10.92,0,0,0,1.86,2c.35.28.54.41,1.1.81a16.75,16.75,0,0,0,2,1.34,11.07,11.07,0,0,0,1.14.59,9.85,9.85,0,0,0,1.75.64c1.83.45-.12-.08.37,0a12.25,12.25,0,0,0,3,.44,11.21,11.21,0,0,0,3.14-.42c.33-.12.56-.23.79-.33a15.07,15.07,0,0,0,3-1.5c.74-.47,1.21-.84,1.43-1a16.48,16.48,0,0,1-1.4,1.13,17.94,17.94,0,0,0,3.06-2.5,9.8,9.8,0,0,0,.9-1.15c.22-.34.6-.78,1.43-2.08a21,21,0,0,1-2.52,3.14h0a21.07,21.07,0,0,0,3.19-4.42c-.3.42-.66.9-1.07,1.39a16.82,16.82,0,0,0,1.36-2.37,20.6,20.6,0,0,1-1.29,2.14,21.25,21.25,0,0,0,1.34-2.49A21.33,21.33,0,0,1,324.1,439a17.3,17.3,0,0,1-2.42,2.51c.28-.3.8-.83,1.27-1.39s.94-1.15,1.2-1.48l-.08.2a21.13,21.13,0,0,0,2.43-4c.5-1.08.78-1.88,1-2.49a22,22,0,0,1-.95,2.57,15.29,15.29,0,0,0,1.25-3.38,22.44,22.44,0,0,0,.63-4.19,15.3,15.3,0,0,0-.25-3.46A12.62,12.62,0,0,0,327.69,422Zm-20.63-13.61c0,.84,0,1.7-.05,2.85,0-1,0-1.57,0-2.55Zm-.2,3,0,.36c0,.27,0,.55,0,.83l0-.61C306.85,411.78,306.85,411.58,306.86,411.39Zm-18.14.51c.08.38.16.75.23,1.12l0,.19c-.13-.71-.29-1.42-.47-2.13l0-.28C288.55,411.16,288.64,411.53,288.72,411.9Zm-2.59,6.73c0,.13.06.84.07,1.51a9.18,9.18,0,0,0,0,1.3c-.05.63-.1,1-.15,1.52,0,.29,0,.55,0,.82,0-.3,0-.6-.05-.9s-.08-.29-.12-.44c0-.69,0-1.25,0-1.72s.05-.81.07-1.08c0-.52.1-.67.13-.55,0-.26,0-.49.05-.7Zm-.24,4.76c0,.33.07.63.12.93,0,.06,0,.12,0,.18C286,424.2,285.93,423.84,285.89,423.39Zm-1,5.51,0,0v0l0,0Zm-.46-25.54.14.21,0,.06h0c-.13-.2-.26-.41-.4-.61Zm-.42,1.22,0,0,.07.1v.05Zm-1.26.85a3.92,3.92,0,0,1,.25.32,8,8,0,0,1,.41.7l0,0A9.93,9.93,0,0,0,282.79,405.43Zm1.37,23.68Zm.75-.15,0,0a1.59,1.59,0,0,1-.18.37A2,2,0,0,0,284.91,429Zm2.11,1.35v0l.05,0,0,0Zm.42-14.41c-.07,0-.09.18,0,1.48,0-.18-.11-.52-.12-.38s0,.76,0,1.27c0-1-.15-2.11-.19-2.36-.1-.69-.2-1.41-.31-2.11a1.7,1.7,0,0,1,0-.22c.05-.37.13-.74.21-1.13q.14.57.24,1.14c.08.39.12.51.17.74l.12.93q0,.47.09.87C287.61,416.3,287.5,416,287.44,415.9Zm-.19-3.93c.19.88.26,1.37.28,1.55s0,.09-.08-.19C287.39,412.84,287.33,412.5,287.25,412Zm.61,7.45c0-.38,0-.77-.1-1.33,0-.3,0-.5,0-.69,0,.55.08,1.1.1,1.65Zm.11,1.42c0-.56,0-1,0-1.53s-.05-.93-.09-1.4c-.07-1-.16-2-.34-3.39l-.08-.21c0-.51-.08-.78-.06-.75a9.7,9.7,0,0,1,.19,1c.08.47.14.9.18,1.26s.09.63.12.79.06.46.09.82,0,.77.05,1.12C288,419.32,288,420,288,420.84Zm-.13-5.77-.11-.73c.08.27,0-.34-.28-2,.12.49.18.86.24,1.18s.11.58.15.87c.09.58.18,1.25.27,2.6C288,416.29,287.93,415.68,287.84,415.07Zm9.51-17.45a4.2,4.2,0,0,0-.84-.1,5,5,0,0,0-.79.09,2.38,2.38,0,0,0-.64.26,6.19,6.19,0,0,0-1.41.63l.3-.21a4.71,4.71,0,0,1,1.12-.56,5.1,5.1,0,0,1,1.45-.28,3.79,3.79,0,0,1,.46,0,5.26,5.26,0,0,1,.63.16A.66.66,0,0,1,297.35,397.62Zm2.5,2.22c-.14-.2-.32-.43-.29-.39a7,7,0,0,1,.57.66c.05.06.24.37.22.34S300.09,400.11,299.85,399.84Zm1.2,5.4c0-.1-.05-.22-.07-.3s0-.15,0-.15a.54.54,0,0,1,.06.13c0,.13.09.36.09.37S301.06,405.27,301.05,405.24Zm.21-3.16c-.05-.1-.08-.21-.13-.31.16.32.32.64.46,1l.09.26C301.55,402.7,301.41,402.38,301.26,402.08Zm-7.91,40.73-.49.38.33-.31c.27-.2.46-.32.63-.47C293.67,442.56,293.5,442.68,293.35,442.81Zm-2.08,2.37.4-.15-.5.3Zm.56-.15c-.34.2-.68.39-1,.56l.34-.2.89-.5Zm30.51-23.63a.25.25,0,0,0,0,.07,6.85,6.85,0,0,0-.91-.88,5.07,5.07,0,0,0-1.2-.7l-.18-.15A5.56,5.56,0,0,1,322.34,421.4Zm-8.68-1.19c-.76.51.27-.1,1.48-.47-.3.12-.61.21-.9.35l-.45.21-.22.1-.17.1-.69.37-.43.25-.33.18-.4.25A13.1,13.1,0,0,1,313.66,420.21Zm.93-.2c-.57.22-.85.37-1,.43s-.16.07-.18.06a5.62,5.62,0,0,1,.56-.25A5.27,5.27,0,0,1,314.59,420ZM309,418.52l.57-.42-.85.68,0,0Zm.44,5-.42.47-.4.49-.25.28.67-.85Zm-.74-4.72-.35.39C308,419.45,308,419.45,308.73,418.8Zm0,5c-.52.64-1,1.24-1.45,1.93-.6.85-1.19,1.79-1.73,2.72.24-.33.7-1.05,1.16-1.7a10.93,10.93,0,0,1,.65-.89,5.36,5.36,0,0,1,.42-.5l-.65.9-.51.76c-.56.8-1.06,1.57-1.54,2.34l.06-.55c.34-.55.68-1.08,1-1.58.75-1.19.05-.26-.35.28A33.11,33.11,0,0,1,308.72,423.82Zm-6.79,10.56,0,0v0Zm0,0,0,0h0v0Zm3-5.27c0,.19,0,.37-.05.55v-.13c0-.12,0-.24,0-.36ZM306.24,419c0,.06.07-.09,0,.17s-.18,1.11-.26,1.62l0,.24,0,0,0-.21C306.08,420.24,306.13,419.82,306.24,419Zm-4.47-6.22.05-.44a1.2,1.2,0,0,1,0,.21,4.39,4.39,0,0,1-.05.45A1.25,1.25,0,0,1,301.77,412.74Zm-1,7c.3-1.7.26-1.24.19-.61C300.63,420.67,300.66,420.31,300.72,419.77Zm-.25,17.45c-.05-.12-.1-.24-.13-.33l0,0,.14.3Zm.8-.16,0-.09c.09.2.2.4.3.6s.21.39.33.59l.05.11A11.85,11.85,0,0,1,301.27,437.06Zm2.2,3.27-.3-.34a14.42,14.42,0,0,0,1.49,1.34c.23.2.46.4.7.58A13.42,13.42,0,0,1,303.47,440.33Zm4.16,3c-.31-.16-.61-.33-.91-.51l.25.13c.25.14.5.29.76.41Zm15.14-11.53c-.18.49-.36.86-.54,1.24v-.09a15.44,15.44,0,0,0,1.07-3A13.07,13.07,0,0,1,322.77,431.79Zm.51-2.32a11.83,11.83,0,0,1-.82,2.74,13,13,0,0,1-1.35,2.47,17.51,17.51,0,0,1-1.7,2,16.8,16.8,0,0,1-1.85,1.62,8.69,8.69,0,0,1-2.22,1.2c-.1,0-.31.12-.52.17s-.4.11-.47.14,0,0,0,.06a5.82,5.82,0,0,1-1.91,0,9.17,9.17,0,0,1-1.24-.27c-.21-.07-.48-.13-.39-.09a7.76,7.76,0,0,0,1.14.35,6.51,6.51,0,0,0,.93.13l-.19,0a5.42,5.42,0,0,0,2-.14,5.57,5.57,0,0,0,1.28-.59,8.72,8.72,0,0,0,1.29-.7,8.21,8.21,0,0,1-1.67,1,8,8,0,0,0,1.61-.78,8.94,8.94,0,0,1-3,1.3,6.54,6.54,0,0,0,1.19-.26,13,13,0,0,0,2.66-1.47,8.5,8.5,0,0,1-.93.68,8.35,8.35,0,0,1-1.69.78c-.27.11-.53.21-.78.29a6.55,6.55,0,0,1-1.48.11c-.39,0-.7-.07-1-.11a11.12,11.12,0,0,1-2-.55c-.37-.17-.83-.46-1.06-.58a8.46,8.46,0,0,1-1.33-.92c-.29-.26-.51-.47-.76-.73a6.8,6.8,0,0,1-1.8-2.65,10.43,10.43,0,0,1-.53-3.24c.06.09.1-.35.16-.79s.13-.88.18-.74c0-.06,0-.12,0-.19.43-.74.89-1.51,1.33-2.15.85-1.25,1.54-2.16,2.1-2.88.41-.46.64-.72.78-.85s.18-.15.18-.13-.08.18.29-.17a5.77,5.77,0,0,1,.44-.55c.36-.36.8-.73,1.2-1.06a11.56,11.56,0,0,1,1.05-.74,2.45,2.45,0,0,1,.82-.37c.47-.3.87-.47,1.21-.65s.66-.3,1-.41a7.22,7.22,0,0,1,2.68-.5,14.79,14.79,0,0,0-1.81.28c-.89.24-1.19.38-1,.37a7.12,7.12,0,0,1,3.81-.41,7.26,7.26,0,0,1-.87,0,8.79,8.79,0,0,0-1.67.2,4.47,4.47,0,0,0-.75.21l-.36.12c-.12.06,0,0,.31,0a7.06,7.06,0,0,1,1.27-.27,7.68,7.68,0,0,1,.81,0,5.74,5.74,0,0,1,2.13.34,6.35,6.35,0,0,1,1.42.8,6.52,6.52,0,0,1,1.12,1.41,4.38,4.38,0,0,1,.53,1.06c0,.1,0,0-.09-.07s0,.19.07.41.24.59.26.65a10.57,10.57,0,0,1,.14,4.18C323.4,428.77,323.31,429.31,323.28,429.47Zm-4.38,8a11.55,11.55,0,0,1-1.58,1.29h0a11.66,11.66,0,0,0,1-.88Zm4.74-8.63a5.18,5.18,0,0,1-.17.53c.13-.6.18-.91.2-1S323.68,428.5,323.64,428.85Zm.23-1c0-.21,0-.36-.07-.55a10.12,10.12,0,0,0-.09-2.44A9.12,9.12,0,0,1,323.87,427.85Zm1.69,8.55c-.16.22-.24.33-.1.06a22,22,0,0,0,1.1-2.25C326.85,433.7,326.22,435.26,325.56,436.4Z" transform="translate(-267.53 -393.1)"/><path d="M307,406.36h0v-.05h0v.06Z" transform="translate(-267.53 -393.1)"/><path d="M307.2,410.7c0-.51.05-.8.06-1.08,0,.87,0,1.74-.05,2.59v.23c.05-.48.08-1,.09-1.45,0-.78,0-1.71,0-1.37v-.05h0v0c0-.51,0-1,0-1.49.07.59.11,1.09.14,1.67a27.75,27.75,0,0,0-.19-3.19c0,.33-.28-1.34-.18-.2A29.12,29.12,0,0,1,307.2,410.7Z" transform="translate(-267.53 -393.1)"/><path d="M293.5,441.88a17.84,17.84,0,0,1-2.31,1.74,4.67,4.67,0,0,0,1.15-.67c.59-.41,1.23-.93,1.56-1.2s.31-.3.38-.39.11-.12.11-.13-.14.12-.35.29-.45.4-.68.6l-.53.4C293,442.32,293.22,442.17,293.5,441.88Z" transform="translate(-267.53 -393.1)"/><path d="M281.32,413.93c.18-1.08.16-.95.07-.63a39.77,39.77,0,0,0-.73,8l0,.08a33.73,33.73,0,0,1,.35-5.59C281.09,415.3,281.23,414.52,281.32,413.93Z" transform="translate(-267.53 -393.1)"/><path d="M295,439c-.15.21-.1.19.07.06.49-.6.92-1.18,1.34-1.78l-.36.3C295.52,438.33,295.18,438.75,295,439Z" transform="translate(-267.53 -393.1)"/><path d="M294.08,440.27a6.92,6.92,0,0,0,.7-.66,11.57,11.57,0,0,0,.78-.91c1.16-1.56-.05-.05.11-.35A22.78,22.78,0,0,1,294.08,440.27Z" transform="translate(-267.53 -393.1)"/><path d="M278.74,401.32c-.32-.2-.44-.26-.44-.24a4.71,4.71,0,0,0,.68.53c.43.31,1,.75,1.75,1.3-.61-.51-1-.8-1.34-1.07l.91.56C279.56,401.86,279.05,401.53,278.74,401.32Z" transform="translate(-267.53 -393.1)"/><path d="M274.31,396c-.49-.19-1.1-.36-1.31-.43-.69-.1-1-.11-.77-.06a13.29,13.29,0,0,1,2.79.83C275.18,396.34,274.81,396.15,274.31,396Z" transform="translate(-267.53 -393.1)"/><path d="M304.75,442.6a14,14,0,0,1-1.61-1.39,13.84,13.84,0,0,0,4.44,3.1c-.25-.12-.56-.3-.65-.35A16,16,0,0,1,304.75,442.6Z" transform="translate(-267.53 -393.1)"/><path d="M317.88,444.7c-.36.14-.81.34-1.53.56a13.14,13.14,0,0,0,2.75-1.06,15.3,15.3,0,0,0,1.94-1.29,12.76,12.76,0,0,1-2.21,1.36C318.52,444.43,318.24,444.54,317.88,444.7Z" transform="translate(-267.53 -393.1)"/><polygon points="38.76 27.57 38.76 27.56 38.72 27.61 38.76 27.57"/><path d="M312,445.54c-.67-.07-.72-.05-1-.08.28.06.57.1.85.14a10.84,10.84,0,0,0,1.54.07,10.67,10.67,0,0,0,2-.24,10.57,10.57,0,0,1-2.14.18C312.56,445.6,312.12,445.55,312,445.54Z" transform="translate(-267.53 -393.1)"/><path d="M289.78,422.92c0,.64-.06,1.27-.1,1.91,0-.15,0-.29.06-.44.09-.87.15-1.74.17-2.72,0,.2-.05.35-.07.5Z" transform="translate(-267.53 -393.1)"/><path d="M286,448a24,24,0,0,0,3.58-1.23l.32-.16c-.5.2-1,.39-1.56.57A23.55,23.55,0,0,1,286,448Z" transform="translate(-267.53 -393.1)"/><path d="M326.75,435.8a15.7,15.7,0,0,0,.76-1.59c-.13.23-.24.41-.36.59C326.87,435.52,326.69,435.87,326.75,435.8Z" transform="translate(-267.53 -393.1)"/><path d="M300.29,403.68c.07.15.08.13.1.09a12.27,12.27,0,0,0-.75-1.57l.15.34c.15.32.27.56.34.75S300.26,403.59,300.29,403.68Z" transform="translate(-267.53 -393.1)"/><path d="M294.81,393.25a8.26,8.26,0,0,1,2.55-.06,7.49,7.49,0,0,1,1.41.31,12.81,12.81,0,0,1,1.3.47,8.1,8.1,0,0,0-5.26-.72Z" transform="translate(-267.53 -393.1)"/><path d="M279.81,447.52a5.9,5.9,0,0,1-1-.42l-.52-.3c-.22-.14-.26-.15-.24-.1a5.38,5.38,0,0,0,1.66.85C280.05,447.65,280.08,447.64,279.81,447.52Z" transform="translate(-267.53 -393.1)"/><path d="M288.73,407.38c.18-.49.37-.86.49-1.14l.25-.58c.08-.22,0-.12-.18.23C289.07,406.46,288.9,406.83,288.73,407.38Z" transform="translate(-267.53 -393.1)"/><path d="M304.94,430.92a12.12,12.12,0,0,0,0,1.32,8.81,8.81,0,0,0,.13,1.09c0-.33-.07-.62-.09-1S305,431.55,304.94,430.92Z" transform="translate(-267.53 -393.1)"/><path d="M295.79,437.62l-.16.3.39-.5.29-.5C296.14,437.16,296,437.4,295.79,437.62Z" transform="translate(-267.53 -393.1)"/><path d="M281.78,447.8a10.87,10.87,0,0,0,1.14.05c.28,0,.56-.05.83-.09a10,10,0,0,1-1.35,0C282.2,447.82,282,447.8,281.78,447.8Z" transform="translate(-267.53 -393.1)"/><path d="M282.45,405.37a10.64,10.64,0,0,0-1-1.19c-.16-.11-.15-.07,0,.11A11.55,11.55,0,0,1,282.45,405.37Z" transform="translate(-267.53 -393.1)"/><path d="M283.85,446.42a12,12,0,0,0,1.47-.33c-.6.14-.91.19-1.1.23Z" transform="translate(-267.53 -393.1)"/><path d="M296.62,438.48s-.24.29-.51.6l-.22.32s.31-.34.37-.41S296.63,438.47,296.62,438.48Z" transform="translate(-267.53 -393.1)"/><path d="M326.81,435.41a30.4,30.4,0,0,1-1.76,2.9A16.5,16.5,0,0,0,326.81,435.41Z" transform="translate(-267.53 -393.1)"/><path d="M306.83,417.21c.1-.5.18-1,.27-1.53,0-.16,0-.32,0-.48-.08.53-.17,1.05-.26,1.58Z" transform="translate(-267.53 -393.1)"/><path d="M288.13,446.89c.07-.05-.05,0-.17,0l-.91.43A8.6,8.6,0,0,0,288.13,446.89Z" transform="translate(-267.53 -393.1)"/><path d="M288,446.9h0Z" transform="translate(-267.53 -393.1)"/><path d="M288.92,429.17l-.06.29,0,.13,0,.14c0,.19-.08.31-.07.29s.15-.46.19-.61.13-.64.13-.64S289,429,288.92,429.17Z" transform="translate(-267.53 -393.1)"/><path d="M289.87,446.28c-.44.21-.89.4-1.34.58l.12,0c.44-.18.88-.37,1.3-.58Z" transform="translate(-267.53 -393.1)"/><path d="M295.65,440.21c-.08.09-.22.25-.22.26s.09-.09.15-.14l.24-.28Z" transform="translate(-267.53 -393.1)"/><path d="M290.69,444.39a5,5,0,0,0,.44-.27l-.82.41a3.3,3.3,0,0,0-.41.25C290.08,444.7,290.39,444.55,290.69,444.39Z" transform="translate(-267.53 -393.1)"/><path d="M287.1,415.06l0,.33.06.41v-.21C287.15,415.42,287.13,415.24,287.1,415.06Z" transform="translate(-267.53 -393.1)"/></svg>