<svg id="Camada_1" data-name="Camada 1" xmlns="http://www.w3.org/2000/svg" viewBox="0 0 69.95 54.65"><title>Sem título-1</title><path d="M293.68,401.12a30.83,30.83,0,0,1,1.09,4.93c-.06-.58-.09-.92-.14-1.24.19,1,.32,2,.43,3,0,.08,0,.17,0,.26-.05-.56-.09-1.13-.17-1.68s-.15-1-.21-1.29-.11-.47-.09-.27c-.1-.6-.21-1.2-.34-1.75.2.66.32,1.22.48,1.87-.13-.67-.24-1.25-.38-1.83-.08-.28-.14-.57-.22-.86l-.26-.9c0,.2-.11-.18-.22-.43s-.17-.38,0,.18h0v0Zm.95,3.69h0v0Z" transform="translate(-263.01 -393.2)"/><path d="M309.56,410.1v0Z" transform="translate(-263.01 -393.2)"/><path d="M312.8,426h0v-.06h0v0h0v0Z" transform="translate(-263.01 -393.2)"/><path d="M276.88,441.53h0Z" transform="translate(-263.01 -393.2)"/><path d="M273.24,401.44c-.09-.35-.17-.61-.24-.8-.14-.39-.21-.51-.22-.5s.09.34.24.91.32,1.44.57,2.47c-.19-.93-.29-1.47-.39-2,.12.39.21.71.35,1.18C273.43,402.22,273.32,401.79,273.24,401.44Z" transform="translate(-263.01 -393.2)"/><path d="M266.34,396.1a7.28,7.28,0,0,1,2.5-.88c.23-.06-.37,0-1,.18a9.79,9.79,0,0,0-1.67.71,6.07,6.07,0,0,0-.74.6c-.13.12-.14.14,0,0A9,9,0,0,1,266.34,396.1Z" transform="translate(-263.01 -393.2)"/><path d="M298.49,442.44a6.57,6.57,0,0,0,.41-1,7.93,7.93,0,0,1-.47,1,6,6,0,0,1-.78,1.12,4.2,4.2,0,0,1-1.33,1,3.93,3.93,0,0,1-1.63.38,4.06,4.06,0,0,1-1.59-.29,4.72,4.72,0,0,1-1.85-1.4,6.47,6.47,0,0,1-.87-1.37,6.5,6.5,0,0,0,.81,1.33,5,5,0,0,0,1.44,1.24,4,4,0,0,0,2.24.53,4.24,4.24,0,0,0,3.08-1.68A4.42,4.42,0,0,0,298.49,442.44Z" transform="translate(-263.01 -393.2)"/><path d="M300.85,429.84c0-.38,0-1.18,0-2.31,0,1.3-.06,2-.1,2.58,0,.34,0,.62-.07,1s0,.86-.09,1.57c.05-.49.1-.94.13-1.4S300.82,430.35,300.85,429.84Z" transform="translate(-263.01 -393.2)"/><path d="M309.56,410h0v0Z" transform="translate(-263.01 -393.2)"/><path d="M309.41,409.57l.15.45c-.07-.86-.14-1.7-.25-2.53C309.32,407.89,309.28,407.68,309.41,409.57Z" transform="translate(-263.01 -393.2)"/><path d="M309.3,407.42s0,.05,0,.07v0h0v0Z" transform="translate(-263.01 -393.2)"/><path d="M300.46,433.67c-.07.73-.18,1.45-.26,2l-.2,1.16c-.09.65-.08.71-.11,1,.06-.28.12-.56.17-.84C300.2,436.08,300.35,435.15,300.46,433.67Z" transform="translate(-263.01 -393.2)"/><path d="M273.18,428.81c0-1,.07-2.09.1-3.05,0-.24,0-.15-.06-.28l-.07,3.58Z" transform="translate(-263.01 -393.2)"/><path d="M275.84,417.47l-.12,1.26,0,.86c0-.39.06-.79.1-1.19Z" transform="translate(-263.01 -393.2)"/><path d="M309.48,423.81a32.68,32.68,0,0,0,.36-3.32c-.14,1.37-.24,2.14-.34,2.94A2,2,0,0,0,309.48,423.81Z" transform="translate(-263.01 -393.2)"/><path d="M300.69,418.26c0-.09,0-.65.05-1.76-.05.26-.08.47-.11.67A7,7,0,0,0,300.69,418.26Z" transform="translate(-263.01 -393.2)"/><path d="M312.49,428.32s0-.11.05-.24l.08-.46a10.14,10.14,0,0,0,.2-1.67s0,0,0,0c0,.19-.06.39-.1.59A10.7,10.7,0,0,0,312.49,428.32Z" transform="translate(-263.01 -393.2)"/><path d="M277.65,402.44l.37-1.1c.13-.33.24-.62.35-.87.21-.49.38-.84.5-1.11.27-.54.36-.74.54-1.13a18.85,18.85,0,0,0-.94,1.91q-.21.51-.42,1.08C277.91,401.6,277.79,402,277.65,402.44Z" transform="translate(-263.01 -393.2)"/><path d="M323.74,438.66c.17-.18.17-.21.13-.2-.59.56-1,.92-1.25,1.11s-.23.22,0,.07A11.09,11.09,0,0,0,323.74,438.66Z" transform="translate(-263.01 -393.2)"/><path d="M281.23,419.5c0-2.54,0-2.87-.09-1.93C281.16,418.32,281.18,418.8,281.23,419.5Z" transform="translate(-263.01 -393.2)"/><path d="M272.94,438.31a17.94,17.94,0,0,0-.1-2.3C272.87,436.94,272.91,437.63,272.94,438.31Z" transform="translate(-263.01 -393.2)"/><path d="M294.46,430.12a31.06,31.06,0,0,0,0,3.25C294.49,432.42,294.48,431.7,294.46,430.12Z" transform="translate(-263.01 -393.2)"/><path d="M319.38,441.73c.41-.18.82-.38,1.22-.59l.53-.33-1,.53C319.88,441.48,319.63,441.6,319.38,441.73Z" transform="translate(-263.01 -393.2)"/><path d="M273.63,407.25c-.05-.44-.08-.81-.12-1.13s-.1-.61-.14-.89-.08-.19,0,.14q0,.25.12.72C273.52,406.4,273.56,406.79,273.63,407.25Z" transform="translate(-263.01 -393.2)"/><path d="M300.55,421.3c0-1.17,0-2.06,0-3.43C300.51,418.45,300.53,419.69,300.55,421.3Z" transform="translate(-263.01 -393.2)"/><path d="M273.41,421.48l0-.75,0-.57,0,.81C273.39,421.15,273.4,421.36,273.41,421.48Z" transform="translate(-263.01 -393.2)"/><path d="M309.64,414.13c0,.61,0,1.22,0,1.82l0-.14c0-.58,0-1.17,0-1.75Z" transform="translate(-263.01 -393.2)"/><path d="M273.79,432.23c0,.34,0,.61,0,.88C273.85,431.38,273.85,431.39,273.79,432.23Z" transform="translate(-263.01 -393.2)"/><path d="M294.64,424l0-.08c0-.58.09-1.16.13-1.73v0C294.75,422.84,294.7,423.43,294.64,424Z" transform="translate(-263.01 -393.2)"/><path d="M275.24,407l-.07-.6c0-.16-.07-.32-.14-.57C275.31,407.93,275.33,408,275.24,407Z" transform="translate(-263.01 -393.2)"/><path d="M313.5,424.35c0,.1-.07.39-.13.68s-.09.76-.08.72.09-.45.13-.77C313.44,424.89,313.51,424.32,313.5,424.35Z" transform="translate(-263.01 -393.2)"/><path d="M275.43,420.77v-.62c0,.12,0,.22,0,.38V421Z" transform="translate(-263.01 -393.2)"/><polygon points="62.22 53.04 62.22 53.04 62.22 53.04 62.22 53.04 62.23 53.03 62.23 53.03 62.23 53.03 62.23 53.03 62.22 53.04 62.22 53.04 62.22 53.04"/><polygon points="60.37 49.23 60.37 49.23 60.37 49.22 60.37 49.23"/><path d="M332.93,437.66a3.77,3.77,0,0,0,0-1.26,4.33,4.33,0,0,1,0,1,2.41,2.41,0,0,1-.18.78c0,.05-.11.37-.18.53a3.89,3.89,0,0,1-.29.64,3.2,3.2,0,0,1-.22.31v0c.07-.13.16-.28.24-.45l.06-.3a3.59,3.59,0,0,0,.17-.34,2.67,2.67,0,0,0,.11-.34c0-.12,0-.23-.05-.35a3.45,3.45,0,0,0,0-.94,3.35,3.35,0,0,0-.21-.75s0-.06.08.05a3.7,3.7,0,0,1,.15.67c.06.47.07.72.12.51a2.5,2.5,0,0,0,0-.56,3,3,0,0,0-.16-.71,2.65,2.65,0,0,0-.33-.61,3.93,3.93,0,0,0-1.09-1.27l.07.16a3.22,3.22,0,0,0-.56-.36,1.31,1.31,0,0,0-.24-.17,1.47,1.47,0,0,0-.24-.13c-.21-.08-.06,0,0,.05l-.24-.12a.51.51,0,0,1-.07-.15,1.74,1.74,0,0,1-.55-.3,1.7,1.7,0,0,0-.61-.22h-.08l.42.22a2.1,2.1,0,0,1-.33-.09l-.1,0-.09,0a1.46,1.46,0,0,1-.51-.16l-.25-.09h-.07l.14.08-.23.05,0-.08c-.18,0-.23.07-.17.15l-.2,0,0-.17-.48-.11c0,.08.26.1.33.16l-.17.06-.14-.13c-.18,0-.11.11-.38.07a.91.91,0,0,1-.5-.05l.11,0-.18-.08-.39,0c-.05,0,.11.12-.11.12a.68.68,0,0,0-.37-.07,1.86,1.86,0,0,1-.52,0l-.26,0,.06.17c-.19-.06-.28-.06-.31,0h-.06l-.1-.1-.24,0s.19.11,0,.09l-.45-.16H323a1.06,1.06,0,0,0,.11.09l.22.07v0l-.27,0,.08.2a.61.61,0,0,1-.28-.09c-.09,0-.2-.06-.32-.1s0,.12-.24.05l0-.09-.76-.2s-.07,0-.1,0a.27.27,0,0,1-.22-.13.56.56,0,0,0-.35-.18l-.36-.11-.32,0,.17.14-.5-.15.37.23c-.06,0,0,.09.23.21h-.14a.57.57,0,0,0-.16,0s0,.05,0,.09l.11.06v-.1l.24.07s0,.07,0,.11a.19.19,0,0,1,0,.23h-.06c-.13,0-.32-.13-.35-.05s-.16,0-.25-.05l0,0,.17,0v0c-.22-.09-.45-.17-.66-.27-.1.06-.13.14,0,.31l-.48-.18-.07.06.33.33.18.06a1.27,1.27,0,0,0,.41.24.58.58,0,0,0,.13.14c.15.09.24.17.2.23a3.66,3.66,0,0,1,.54.17l-.17,0-.17-.05a.73.73,0,0,0,.38.14l-.05.13c.28,0,.54.07.79.1,0,0,.06,0,.09,0l.17.07c0,.13-.21.2,0,.38,0,0-.07.05-.06.07s.06.07.11.12l-.25-.07a.62.62,0,0,1-.31-.07l0-.12-.16-.05a1.54,1.54,0,0,0-.73,0s0,0,0,.07,0,.15-.23.11l.06.05c.09,0,.21.08.16.1a.45.45,0,0,1-.22,0,2.16,2.16,0,0,1-.23-.08c.07.12.16.23.07.29s0,.09-.12.06,0,0,0,0-.09.11-.13.16a.1.1,0,0,1,0,0l.06,0,.23,0a2,2,0,0,0,.53.33c.25.06.38,0,.66.09l0,.11c.06,0,.11,0,.16,0a.79.79,0,0,1,.22.09s.33.06.35,0l.16.1a.94.94,0,0,1,.39,0l0,0h0l.4.28-.29,0c0,.11,0,.13-.24.15,0,0,.28.11,0,.1l-.18-.11c0,.09-.26.06-.41.08a1.08,1.08,0,0,0,.43.07.79.79,0,0,1,.4.09l-.78-.09c.19.08.29.16.29.23l.09,0V437c.08,0,.26.07.29,0l.18.06-.16,0a1.61,1.61,0,0,1,.43.12l-.08,0,.42.2c.16,0,.17-.07.45,0l-.29,0,.32.11.07-.08c.33.09.42.17.37.25a1,1,0,0,1,.46.16c.14,0,.26,0,.41,0a2,2,0,0,1,.65,0,1.35,1.35,0,0,0,.39.05l.29.11,0,.1h-.38a.62.62,0,0,0,.43.11l-.05.12.1-.11h.12l-.19.23,0,.1c-.15.17-.28.28-.36.27l0-.16-.27.23c-.05.15.07.15-.09.38l.26-.26h0l-.27.41h.25a.91.91,0,0,0-.15.21l.19-.15-.12.24a2.46,2.46,0,0,1,.52-.54.47.47,0,0,1-.12.34l0,0a2.7,2.7,0,0,1-.46.52l.12-.23a.56.56,0,0,0-.23.25,1.36,1.36,0,0,1-.24.31l-.45.46.07-.16-.41.41c-.14,0-.2.16-.27.29l-.09.14-.45.25.1.09c-.12.13-.12.06-.16.06l-.07.05v.11c.09,0,.2-.14.23-.09l-.22.2c0,.1,0,.14-.15.2l-.34.4.23-.17.07.09-.17.14,0,.22c.14-.16.14-.27.26-.35l-.13.37.23-.22c0,.09-.06.15-.3.34,0,.07-.11.18-.2.26a1.17,1.17,0,0,0-.25.28l.35-.24-.08.18-.08,0-.07.2-.17.07-.18.24c0,.06.18,0,.1.18h0c0,.06,0,.11.07.08s.2,0,.1.15l.18-.21h0c-.13.18-.25.35-.37.54a.42.42,0,0,1,.19,0s0,.07.05.12c.16-.12.06-.19.22-.28V445l.05,0,.08-.23c.07,0,.11,0,.17,0a1.88,1.88,0,0,0,.27-.17c-.05.07,0,.11-.15.23s0,.16-.18.28c.1-.06,0,.07,0,.09l.29-.26-.17.25a.61.61,0,0,1,.18.08.33.33,0,0,1-.08.18c-.1.11-.23.22-.36.35s-.2.38-.28.56l.44-.26.1.11-.12.18.08,0c-.06.11-.13.22-.2.33l.06.06c-.09.1-.26.16-.27.27l.08,0c.18-.11.18-.11.1.05l-.06.11c0,.09,0,.08.11,0l.14-.1-.25.31s.1,0,.16-.1a.12.12,0,0,1,.09-.11,1.42,1.42,0,0,1,.16-.05l-.08.08a.48.48,0,0,0,0,.12l.19-.2h-.1l.23-.2-.13.2h0l.08.09-.25.25,0,0c.1-.08.21-.18.31-.25a3,3,0,0,1,.3-.16l-.09.12c.05,0,.1,0,.23-.12l.32-.29.11,0,.25-.24c.11-.11.2-.18.27-.17l.67-.67c.07-.16,0-.08-.13-.05l.44-.36-.13.28-.18.35c.11,0,.27-.3.36-.28l-.13.2c-.15.14-.29.25-.43.37,0,0,0,.12-.12.2s-.14.15-.09.2l.06-.07.08-.09c.11,0,.14,0,.33-.21s.14-.18.21-.25a1.29,1.29,0,0,0,.28-.33c.22-.21.12,0,.25,0v-.13a3.12,3.12,0,0,1,.27-.26c.07,0,.11,0,.16,0,.18-.24.12-.36.37-.65a.44.44,0,0,1-.12.26c-.07.1-.08.16,0,.17.05-.2.24-.29.36-.45,0,.07-.06.24-.15.39s-.09.21,0,.18a.86.86,0,0,1,.13-.14s.07,0,.11-.07a1.61,1.61,0,0,0,.39-.55,2.33,2.33,0,0,0,.23-.19c.14-.19.14-.14.16-.09s.05,0,.11,0a.46.46,0,0,1,0-.13c.15-.14.22-.33.39-.47a.31.31,0,0,0,.07-.09.92.92,0,0,1,.22-.32,1.25,1.25,0,0,1,.29-.25l.33-.2a4.26,4.26,0,0,0,.55-.51.65.65,0,0,0,.1-.15s0,0-.06,0l.24-.24a1,1,0,0,0,.12-.17s0-.08,0-.07a.83.83,0,0,0-.14.13l-.1.12,0-.06c-.23.26-.24.28-.26.51l-.18.15.12-.28-.23.18a1.35,1.35,0,0,0,.28-.44l-.16.12h0l0-.13c.33-.27.34-.28.45-.56a1,1,0,0,0,.14-.11c.11-.18.2-.2.28-.28a6.72,6.72,0,0,1,.53-.84s.11,0,.2,0,.17-.09.19,0c.13-.19.27-.36.42-.6A3,3,0,0,0,333,438,1.78,1.78,0,0,0,332.93,437.66Zm-12.27-4.61,0-.1h0l.05.11Zm-.53,2.58-.31-.22h.05l.2.12.19,0Zm1.68-3v0l-.2,0,0,0Zm0,1.39-.21,0-.08,0c.05,0,0-.08-.17-.13A1.08,1.08,0,0,1,321.78,434Zm-.54,0c.18.06.19.08.12.11Zm.53.46,0-.06.17,0,0,0Zm-.33-.21,0,.05c-.09-.09-.09-.1,0-.08s.18,0,.23,0,.13,0,.2,0a2,2,0,0,0,.21.12A1.92,1.92,0,0,1,321.44,434.25Zm.64,2.65c.18,0,.18.05.18.08Zm1.14,6.5c.09-.18.11-.2.27-.22Zm0,2.6a.07.07,0,0,1-.05,0s0,0,0,0l.08,0Zm.3.78.09,0,0,0Zm.16.08-.1.07v0l.1-.06Zm.14-4.51,0,0,0,.1,0,.09c-.07,0-.07,0,0-.1Zm0,2.41.26-.2C323.9,444.69,323.84,444.76,323.75,444.76Zm2.14-4.69c-.09,0,0-.13.08-.23S326,439.83,325.89,440.07Zm2-1.28,0,0h0a0,0,0,0,1,0,0Zm-.08-1.27,0,0-.11,0s-.06,0-.05-.05Zm-.08.16h0l-.06.11h0Zm-.28.5Zm.09-.25,0,.2-.05,0h0l.06-.2Zm-.14-.84s0,0,0,.05h-.21v-.06h.1A.5.5,0,0,1,327.38,437.09Zm-.5.09s.05,0,.05,0Zm0-.05a.09.09,0,0,1,.07,0l-.05.07-.07,0Zm-.39,8.34,0,0,.06-.13.06,0Zm.54-.59.15-.09C327,444.9,327,444.9,327,444.88Zm0,0c-.13.12-.17.08-.27.12l.21-.25c0,.14.1.05.23-.06Zm1-.83-.13.2-.07,0,.29-.35h0Zm0-6.48,0,0h.1v0Zm.55,6a1.06,1.06,0,0,1,.23-.34l0,.12Zm.4-.39h.1C328.94,443.28,328.92,443.27,329,443.17Zm.17-.05a1.16,1.16,0,0,1,.28-.34v0Zm1-.86-.11,0,.18-.22h0Zm-.13-.21.09-.13c.08-.07.16-.11.23-.17A.74.74,0,0,1,330,442.05Zm.24-8.17v-.11l.23.15.3.22A3.59,3.59,0,0,0,330.21,433.88Zm.58.49-.12-.08h.1l.18.14Zm1.36,4.85a.63.63,0,0,1,0,.19l-.15,0C332.08,439.27,332.14,439.2,332.15,439.22Zm.58-.82c-.05.15-.1.28-.15.41v-.08a3,3,0,0,0,.16-.4Z" transform="translate(-263.01 -393.2)"/><polygon points="66.87 40.29 66.86 40.29 66.86 40.29 66.86 40.29 66.86 40.29 66.86 40.29 66.86 40.29 66.87 40.29 66.87 40.29"/><path d="M330.5,433.74h0l.27.14.29.19.07,0a1.67,1.67,0,0,0-.32-.24c-.18-.11-.36-.19-.31-.12l-.28-.19a2.8,2.8,0,0,1,.36.1l-.32-.17-.29-.12c0,.07-.27,0-.09.12a6.75,6.75,0,0,1,.81.43Z" transform="translate(-263.01 -393.2)"/><path d="M322.61,445.74c.06.06.25-.12.36-.15.1-.21-.12,0-.18,0l0-.12Z" transform="translate(-263.01 -393.2)"/><path d="M325.39,432.63c.11,0,.1,0,.07,0l-.75-.14v0a2.08,2.08,0,0,1,.52.12A.71.71,0,0,0,325.39,432.63Z" transform="translate(-263.01 -393.2)"/><path d="M322.48,444.64l.15-.19-.12-.05C322.39,444.58,322.38,444.61,322.48,444.64Z" transform="translate(-263.01 -393.2)"/><path d="M322.56,444.59l-.15.24a.26.26,0,0,0,.21-.12C322.75,444.53,322.57,444.65,322.56,444.59Z" transform="translate(-263.01 -393.2)"/><path d="M319.26,434.75s.1.11.3.2l-.16-.14.14,0C319.34,434.71,319.27,434.71,319.26,434.75Z" transform="translate(-263.01 -393.2)"/><path d="M319.83,432.19c.06-.05-.08-.14-.08-.21S319.61,432,319.83,432.19Z" transform="translate(-263.01 -393.2)"/><path d="M326,438.43a1.39,1.39,0,0,0-.19.15.68.68,0,0,0-.11.16,1.17,1.17,0,0,1,.17-.14A.31.31,0,0,0,326,438.43Z" transform="translate(-263.01 -393.2)"/><polygon points="60.52 49.03 60.52 49.03 60.52 49.03 60.52 49.03 60.52 49.03 60.52 49.03 60.52 49.03 60.52 49.03 60.52 49.03 60.52 49.03"/><polygon points="60.37 49.22 60.37 49.22 60.37 49.23 60.37 49.22"/><path d="M323.33,442.31l.05.11.15-.19S323.46,442.2,323.33,442.31Z" transform="translate(-263.01 -393.2)"/><path d="M322.71,432.56l.06,0,.19,0,0,0-.25,0Z" transform="translate(-263.01 -393.2)"/><path d="M323.44,447.64l.32-.24a.05.05,0,0,1,0,0l-.18.06Z" transform="translate(-263.01 -393.2)"/><path d="M321.35,436.78s0,0-.05.05l.37,0,0,0Z" transform="translate(-263.01 -393.2)"/><polygon points="63.26 39.43 63.34 39.56 63.43 39.56 63.34 39.43 63.26 39.43"/><path d="M322.79,443.61a.55.55,0,0,0,.21-.22l-.21.17S322.78,443.61,322.79,443.61Z" transform="translate(-263.01 -393.2)"/><path d="M325.18,439.54l.12,0C325.33,439.41,325.33,439.41,325.18,439.54Z" transform="translate(-263.01 -393.2)"/><path d="M325.1,446.43a.13.13,0,0,0,.07,0c.09-.08.09-.12.08-.15h0l0,0C325.11,446.35,325.08,446.41,325.1,446.43Z" transform="translate(-263.01 -393.2)"/><path d="M328.15,432.81l-.36-.07C328.07,432.86,328.08,432.86,328.15,432.81Z" transform="translate(-263.01 -393.2)"/><path d="M322.57,447.85c.11-.13.14-.19.07-.18S322.53,447.82,322.57,447.85Z" transform="translate(-263.01 -393.2)"/><path d="M325.59,438l-.2.05C325.64,438.08,325.67,438.07,325.59,438Z" transform="translate(-263.01 -393.2)"/><path d="M322.28,437.28l.22,0C322.41,437.27,322.33,437.23,322.28,437.28Z" transform="translate(-263.01 -393.2)"/><path d="M332,439.88a1.36,1.36,0,0,0-.21.29A.6.6,0,0,0,332,439.88Z" transform="translate(-263.01 -393.2)"/><path d="M325,446.83l.27-.27A.86.86,0,0,0,325,446.83Z" transform="translate(-263.01 -393.2)"/><polygon points="59.43 51.02 59.35 51.09 59.36 51.15 59.42 51.1 59.43 51.02"/><polygon points="59.68 54.25 59.79 54.2 59.84 54.12 59.72 54.19 59.68 54.25"/><path d="M319.52,435.5c-.07,0,0,.08.18.13Z" transform="translate(-263.01 -393.2)"/><path d="M322,446.33l.1-.13C322,446.27,322,446.3,322,446.33Z" transform="translate(-263.01 -393.2)"/><path d="M323.18,445.14l-.09,0s0,.05,0,.06l.05,0Z" transform="translate(-263.01 -393.2)"/><path d="M325.61,439.34a.65.65,0,0,0-.23.21C325.46,439.54,325.51,439.44,325.61,439.34Z" transform="translate(-263.01 -393.2)"/><path d="M332.37,435.29a5.24,5.24,0,0,0-.32-.57l-.13-.13a4.26,4.26,0,0,1,.34.55Z" transform="translate(-263.01 -393.2)"/><path d="M320.84,436.65l-.07,0,.08,0,.07,0Z" transform="translate(-263.01 -393.2)"/><polygon points="60.07 49.46 59.96 49.58 59.99 49.59 60.09 49.47 60.07 49.46"/><path d="M323.32,447.18v.15C323.41,447.19,323.37,447.18,323.32,447.18Z" transform="translate(-263.01 -393.2)"/><polygon points="60.31 53.98 60.31 53.98 60.31 53.97 60.31 53.97 60.31 53.97 60.31 53.97 60.31 53.97 60.31 53.97 60.31 53.97 60.31 53.98"/><path d="M322.14,436.26l.1,0C322.07,436.2,322.07,436.2,322.14,436.26Z" transform="translate(-263.01 -393.2)"/><path d="M323.33,432.59s0,0,0,0h.08l-.05,0Z" transform="translate(-263.01 -393.2)"/><path d="M332.44,438.8h0a4.09,4.09,0,0,0,.16-.46h0A3.61,3.61,0,0,1,332.44,438.8Z" transform="translate(-263.01 -393.2)"/><path d="M320.28,434.1l-.06,0-.07.05C320.34,434.18,320.35,434.16,320.28,434.1Z" transform="translate(-263.01 -393.2)"/><polygon points="60.58 53.95 60.47 54.06 60.5 54.07 60.6 53.96 60.58 53.95"/><path d="M325.58,446.54l.07,0s0-.05,0-.05l-.07,0S325.57,446.54,325.58,446.54Z" transform="translate(-263.01 -393.2)"/><path d="M323.27,445.54l0,0h0l0,0Z" transform="translate(-263.01 -393.2)"/><path d="M322.73,446.13l.09,0s0,0,0,0l-.11,0S322.72,446.14,322.73,446.13Z" transform="translate(-263.01 -393.2)"/><path d="M321.41,434.74h-.06l0,0h.05Z" transform="translate(-263.01 -393.2)"/><polygon points="54.82 48.87 54.82 48.87 54.82 48.87 54.82 48.87 54.81 48.87 54.82 48.87 54.81 48.87 54.82 48.87 54.82 48.87 54.82 48.87 54.82 48.87"/><polygon points="54.11 53.02 54.1 53.01 54.1 53.02 54.11 53.02"/><polygon points="50.86 44.52 50.86 44.52 50.86 44.51 50.86 44.51 50.86 44.51 50.86 44.51 50.86 44.51 50.86 44.52 50.86 44.52"/><path d="M313.94,438h0c0,.07,0,.14.05.21h0a.48.48,0,0,0,0-.12c0-.06,0-.13-.07-.1l0-.13.1.12c0-.1,0-.17,0-.26s-.12-.08-.15,0,0,.21,0,.35Zm0,0Z" transform="translate(-263.01 -393.2)"/><path d="M319.38,443.73c-.17.15.11,0,.17,0l-.07.1.27-.14C319.72,443.66,319.48,443.75,319.38,443.73Z" transform="translate(-263.01 -393.2)"/><path d="M313.51,434.43c0-.23,0-.44,0-.66h0a1.24,1.24,0,0,1,0,.47.75.75,0,0,0,0,.15C313.47,434.47,313.49,434.46,313.51,434.43Z" transform="translate(-263.01 -393.2)"/><path d="M319.19,444.91c0-.05.07-.1,0-.11s-.2-.05,0-.17l-.27.1h0c.2-.1.39-.21.59-.33-.06,0-.15,0-.18-.06s0-.09,0-.14c-.19,0-.13.14-.32.16l.06-.13-.06,0-.18.15c-.07,0-.09-.07-.16-.07s-.19,0-.31,0a.52.52,0,0,1,.23-.12c.15,0,.12-.11.29-.15-.11,0,0-.07,0-.1l-.35.09.25-.13c-.05-.06-.11-.1-.12-.16s.08-.09.14-.12l.44-.15a5.22,5.22,0,0,0,.43-.39h-.08l.1-.05-.14.06-.34,0-.05-.14.16-.11h-.08l.26-.2,0-.08c.1-.05.26-.05.3-.15h-.07c-.19,0-.19,0-.08-.08a.3.3,0,0,0,.08-.08q.09-.09-.09,0l-.15,0,.3-.18s-.1,0-.17,0-.05.07-.1.07l-.14,0,.08,0a.45.45,0,0,0,0-.11l-.2.1.07,0-.23.07.15-.11h0l0-.12.27-.13v0a1.49,1.49,0,0,1-.31.09,1.46,1.46,0,0,1-.29,0l.11-.06s-.08-.06-.21,0l-.32.1-.09,0-.25.08c-.11,0-.19,0-.23,0a6.31,6.31,0,0,1-.65.11c-.11.08,0,.1.05.13l-.39,0,.18-.12.24-.15c-.08,0-.26.06-.3,0l.08,0,.09,0-.07,0,0,0h.37c0-.06.06-.07.14-.09s.14,0,.12-.1h-.06l-.07,0c-.07-.08-.09-.09-.27,0a1.94,1.94,0,0,1-.2.05.47.47,0,0,0-.26.07c-.18,0-.06-.1-.14-.15l0,.09a.69.69,0,0,1-.21,0s0-.07-.06-.11c-.17,0-.2.15-.41.14a.21.21,0,0,1,.16-.08c.07,0,.09,0,.08-.09s-.2,0-.3,0,.12-.1.21-.12.11-.07.07-.12h-.09s0,0-.05,0-.23-.06-.31,0-.08-.07-.11-.08-.08,0-.05-.08,0,0,0-.09l-.06.05c-.06,0-.15,0-.19-.08s0,0,0,0a.12.12,0,0,1-.12,0,.15.15,0,0,1,0-.12.78.78,0,0,1,0-.16c0-.09,0-.13,0-.22l0,0s0,0-.05,0a.84.84,0,0,0,0-.12s0,0,0-.06h0a.19.19,0,0,0,0,.08l0,0-.06,0c.05.11.06.12.19.08v.08l-.11,0v.12a.2.2,0,0,0-.14-.11v.09h-.07c0-.19,0-.19-.14-.26s0-.07,0-.09,0-.14,0-.2-.16-.33-.26-.49c.11,0,.13-.2.24-.22-.06-.17,0-.3-.09-.52l-.08,0,0-.23c0,.1,0,.28-.06.35a1.11,1.11,0,0,0,0,.13l.06.19c0,.05,0,.09,0,.14h0c0-.06-.05-.11-.07-.17l-.1-.06v-.1a.25.25,0,0,0,0-.09l-.14,0a.78.78,0,0,0,0-.19l-.09-.14s0,0,.06,0,0,.09.05.13.11.12.13.07a.47.47,0,0,0,0-.24,1.27,1.27,0,0,0-.1-.12l-.1-.38-.06.05-.08-.19a.37.37,0,0,0,0-.21c0-.09,0,0-.05,0a1,1,0,0,0,0-.11.76.76,0,0,1,.11-.08.4.4,0,0,1,.06-.29c.06-.07,0-.22,0-.34l0,0-.09.26s0-.12,0-.18a.33.33,0,0,0,0-.14.74.74,0,0,1,0-.42,1.3,1.3,0,0,0,0-.22l0-.06,0,.13-.11-.16.06-.05c-.06-.13-.12-.17-.18-.1v-.16l.17,0c0-.14,0-.27,0-.41-.09,0,0,.23-.08.3l-.09-.12.08-.15c0-.14-.13-.06-.15-.28a.63.63,0,0,1-.07-.43l.07.08,0-.16-.11-.32c-.05,0-.09.11-.15-.07a.5.5,0,0,0,0-.34,1.31,1.31,0,0,1-.07-.46c0-.08,0-.17,0-.22l-.15.08c0-.18,0-.26-.06-.28a.2.2,0,0,1,0-.05L313,433v-.22s-.07.19-.1,0,0-.29.07-.43l0,0s-.05.06-.06.11a1.33,1.33,0,0,0,0,.21h0c0-.08,0-.15,0-.26l-.18.11a.57.57,0,0,1,0-.27c0-.09,0-.19,0-.31s-.12,0-.1-.21l.09,0c0-.27,0-.53,0-.75,0,0,0-.06,0-.09a.32.32,0,0,1,.08-.24.5.5,0,0,0,.1-.37,1.67,1.67,0,0,1,0-.38c0-.08-.07-.19-.1-.29l-.09.19v-.51c-.05.18-.08.29-.12.41,0,0-.08,0-.13.21l.21-1.52c-.12.73-.19,1.13-.24,1.54l0-.09a1.16,1.16,0,0,0-.06-.15s-.06,0-.09,0,0,.06,0,.12l.09,0V430s-.07,0-.1,0l-.07,0,.12-.93c.22-1.58.43-2.74.53-3.15a74.3,74.3,0,0,0,.89-10c0-1.75-.08-.29-.15.54.08-2,.07-3.94,0-5.94.09,1.05.16,2,.2,3.06.06,1.32.08,2.7.06,4.05,0-.52.08-1.58.09-2.59s0-1.95,0-2.22c0,1,.05,1.92.06,2.57,0,2.1-.17,4-.36,5.88a16.79,16.79,0,0,1-.2,2.38c-.29,2.19-.3,2.17-.23,2.2.05-.32.09-.65.14-1l.15-1.2a6.32,6.32,0,0,0,.21-1.1c.07-.55.17-1.4.27-2.94.07-1.15.11-2.39.14-3.45.05-1.91,0-3.39-.07-4.57-.14-3.19.06-.87,0-2.23l-.16-.94c-.1-1.37-.37-3.18-.53-4a13.22,13.22,0,0,1-.19-1.34,17.21,17.21,0,0,0-1.36-3.62c-.12-.26-.27-.52-.41-.79l-.53-.89a9.41,9.41,0,0,0-.82-1.12,6.11,6.11,0,0,0-1.55-1.33,5.32,5.32,0,0,1,1.3,1,9.15,9.15,0,0,1,1.35,1.82c.75,1.34.94,1.83.87,1.51l-.38-.73c-.13-.25-.27-.49-.41-.74a10.67,10.67,0,0,0-1.05-1.56,6,6,0,0,0-1.84-1.54,5.26,5.26,0,0,0-2.59-.62,2.78,2.78,0,0,1,.78,0,5.15,5.15,0,0,1,1.71.47,6,6,0,0,1,1.74,1.27,9.07,9.07,0,0,1,1.13,1.47c.6,1,.87,1.55,1,1.75s.06,0-.16-.5a15.09,15.09,0,0,0-1.23-2.08,6.81,6.81,0,0,0-1.38-1.48,5.68,5.68,0,0,0-3.39-1.2,6.46,6.46,0,0,0-3,.68,6.68,6.68,0,0,0-1.18.73,8.55,8.55,0,0,0-.88.78,8.77,8.77,0,0,0-1.11,1.44,15.67,15.67,0,0,0-1,1.7c-.26.51-.46,1-.66,1.4-.26.64-.42,1.1-.55,1.41s-.17.5-.21.59,0,0,0-.18-.15.31-.32.67c-.17.68-.24,1.08-.28,1.18a41,41,0,0,0-1.15,6.53,6.57,6.57,0,0,0-.07.68l0-.54c0,.45,0,.89,0,1.33-.05,1.14-.1,2.45-.13,3.91,0,.61,0,1.23,0,1.81-.12,1.23-.26,2.65-.36,3.27,0,.14-.12,1.25-.17,1.9-.08,1-.16,2-.22,3,0,.73-.1,1.41-.14,2.1v-.16c0-.9.09-1.81.14-2.68,0-.44,0-.84,0-1.33s.11-1,.15-1.47.09-.88.12-1.19,0-.71,0-1.05c.1-1.14.18-2,.22-2.71s.05-1.19.06-2.21c0,.07.06-.12.06.19,0,.48-.06,1.32-.09,1.94-.07,1.29-.08,2,0,1.42s.22-2.38.24-3.49c0-.78,0-1.25,0-1.86a52,52,0,0,0-.16-5.49c0,.24,0,.41,0,.61-.09-1.06-.19-1.95-.33-2.85a24.75,24.75,0,0,0-.51-2.88c-.31-1.24-.1-.28,0,0-.06-.27-.14-.61-.22-.9s-.16-.59-.17-.64a5.73,5.73,0,0,1-.09-.72c-.17-.53-.34-1-.48-1.41s-.32-.81-.44-1.13c-.25-.64-.46-1.06-.55-1.32a6.68,6.68,0,0,0-.39-.81,7.16,7.16,0,0,0-.94-1.36,6,6,0,0,0-.89-.82,5.15,5.15,0,0,0-1.27-.7,5.43,5.43,0,0,0-2.72-.29,6.21,6.21,0,0,0-1.05.25,6.18,6.18,0,0,1,1.5-.25,5.49,5.49,0,0,1,1.76.19,5.29,5.29,0,0,1,1.63.81,5.9,5.9,0,0,1,1.07,1,6.4,6.4,0,0,0-.6-.62,5.57,5.57,0,0,0-1.09-.75,5,5,0,0,0-1.47-.5,5.93,5.93,0,0,0-2.64.14,6.44,6.44,0,0,0-.81.29c-.24.1-.46.21-.65.3a9.13,9.13,0,0,0-2,1.44,11.76,11.76,0,0,0-1.3,1.45,15.74,15.74,0,0,0-1.55,2.56c-.19.38-.4.87-.6,1.39-.11.26-.2.52-.28.77s-.17.52-.26.77-.12.41-.24.81l.58-1.66c-.24.86-.46,1.58-.65,2.39-.08.23-.14.41-.22.62l-.16.73s0-.07,0-.1c-.15-.74-.28-1.52-.44-2.33s-.4-1.65-.61-2.49a13.7,13.7,0,0,0-.68-1.82,7.17,7.17,0,0,0-1.4-2.06,7.55,7.55,0,0,1,1.58,2.93,9.81,9.81,0,0,0-.73-1.65,6.12,6.12,0,0,0-1.33-1.61,5,5,0,0,0-2.17-1.08,5.88,5.88,0,0,0-2.54,0,6.19,6.19,0,0,1,2.23,0,5.1,5.1,0,0,1,1.92.77,5.37,5.37,0,0,1,1.3,1.25,6.67,6.67,0,0,1,.77,1.31c-.18-.3-.13-.19.12.42a13.53,13.53,0,0,1,.42,1.3c.08.27.15.57.23.9s.16.7.25,1.1l-.42-1.48a11.34,11.34,0,0,0-.66-1.75c-.12-.23,0,.22.11.53a15.71,15.71,0,0,1,.45,1.56c0-.23,0-.38-.07-.58.29,1.1.54,2.09.72,2.91a1.48,1.48,0,0,0,0,.51c.11,1.05,0,1-.1.72l-.13-.66a24.45,24.45,0,0,0-1.06-4.05.41.41,0,0,1,0-.09l-.08-.22a7.59,7.59,0,0,0-.32-.76,5.91,5.91,0,0,0-1.22-1.75,4.21,4.21,0,0,0-.37-.36,5.51,5.51,0,0,1,1.5,1.83l-.1-.22a5,5,0,0,0-1.8-1.94,4.65,4.65,0,0,0-2.6-.65,6.32,6.32,0,0,0-2.42.62,7,7,0,0,0-1,.63,9.28,9.28,0,0,0-.89.75c-.23.31-.31.46-.1.31l.58-.47c.15-.12.33-.25.55-.4a6.86,6.86,0,0,1,.8-.46,5.89,5.89,0,0,0-.77.48c-.23.18-.44.36-.65.55a9.58,9.58,0,0,0-1.06,1.17,21.45,21.45,0,0,0-1.57,2.45l-.11.35a14.79,14.79,0,0,1,3.2-4,6.47,6.47,0,0,1,2-1.15,5.45,5.45,0,0,1,1.59-.23,4.08,4.08,0,0,1,1.14.15,3.67,3.67,0,0,1,1.15.51,4.29,4.29,0,0,1,1.28,1.35,9,9,0,0,1,.77,1.95c.14.47.23.9.31,1.28s.14.71.2,1c.1.53.14.8.08.71.12.53.2,1,.29,1.5s.19.93.26,1.41.13,1,.2,1.51c0,.27.07.54.1.84s0,.6.07.92c0-.42-.08-.75-.11-1s-.07-.54-.11-.81c-.09-.53-.14-1.14-.28-2,.16,1.51.38,2.9.49,4.39h-.14c.13,1.4.21,2.75.27,4.06,0,0,0,0,0,.06v0c.06,1.49.08,2.94.08,4.35,0,.46,0,.6,0,.87,0,.74,0,1.49-.08,2.09-.14.38-.2-1.62-.41,1.41,0-.21,0-.61-.07-.45s-.08.88-.13,1.47c0-1.19.09-2.47.09-2.77,0-1.11.06-2.3.06-3.37,0-.19.08-.34.11-.51,0-.86,0-1.35,0-1.74,0-.93,0-1.77-.09-2.52s-.11-1.41-.15-2c-.14-1.17-.24-2.05-.38-2.73,0-.22,0,.09,0,.3,0,.94-.08.44-.41-1.76,0,.27,0,.49.08.76a8.42,8.42,0,0,1,.15,1.89c0-.11-.06-.44-.1-.84s-.12-.87-.18-1.27-.09-.73-.15-1.15-.15-.86-.24-1.32c0,.56.13,1.12.13,1.48s0,.51-.09.21c0-.12,0,.08,0,.1s0,0-.05-.16-.06-.38-.14-.77-.09-.31-.07-.1c.14,1.18-.2-.4-.3-.56a2.88,2.88,0,0,1-.1-.31l.09.59c.07.29.14.57.21.88l.19,1c0,.45.08.89.13,1.33s0,.9.07,1.37c.07.93.09,2,.14,3.19.08,2.57.17,3.64.1,6.52l-.1.68c0,.55,0,1,0,1.58,0,.7-.07,1.44-.12,2.32.05.29-.1,3.43,0,3.37-.06.77-.09,1.27-.12,1.85s0,1,0,1.62,0,1.31,0,2.41l-.05-.28v0c0,1.48-.1,3-.08,4.61,0-.58-.06-1.09-.09-1.58s0-.93,0-1.37c-.09.11-.14-.07-.2-2.06,0-.07,0,3-.09.46,0-.68,0-1.33.08-2a34.08,34.08,0,0,1-.07-3.83c0,.92-.06,1.77-.07,2.52s0,1.37,0,1.85c0,.65,0,1.23,0,1.87s0,1.37,0,2.32c-.1-2.95-.06-5.3,0-7.88a32.25,32.25,0,0,1-.24,3.36s0,.49,0,1c0-.15,0-.25.06-.34,0,.41,0,1.11,0,1.74a12.24,12.24,0,0,0,.05,1.27c0,.61,0,1.21,0,1.88,0-.53-.08-.93-.12-1.52.05,1.91.14,3.44.2,4.57,0-.27-.09-.55-.11-.7q0,.61.06,1.2c0,.19,0,.38,0,.58v.29l0,.36a5,5,0,0,0,.59,1.91,3.53,3.53,0,0,0,1.05,1.16,3.37,3.37,0,0,0,1.69.62,3.82,3.82,0,0,0,2.3-.59,3.92,3.92,0,0,0,1.21-1.19,5.26,5.26,0,0,0,.71-1.66,7.86,7.86,0,0,0,.18-1c.05-.35.07-.66.11-1,0,.26,0,.5,0,.75s-.05.55-.1.86a5.37,5.37,0,0,1-.87,2.24,5.42,5.42,0,0,0,.76-1.53,9.11,9.11,0,0,0,.26-1.2c.05-.35.07-.62.1-.9s0-.57.08-.86l-.05-.58c.24-3.51.24-4.59.34-4.29,0-1.45,0-2.17,0-2.79s0-1.15,0-2.2c-.09-1.39-.17-2.63-.26-4.17-.13-2-.26-4.35-.27-6.64,0-1,0-1.77,0-2.41s0-1.15,0-1.65.09-1.16.13-1.66.08-1,.14-1.41h.1c-.09,1.29-.18,2.58-.19,3.92.09-1.21.16-2.37.37-4.58,0-.28.06-.59.09-.88s0-.3.05-.44l.08-.4a4.23,4.23,0,0,1,.19-.83,4.31,4.31,0,0,0,.18-.76c.1-.44.25-1,.35-1.33-.15.65-.26,1.05-.29,1.31a3.16,3.16,0,0,0,0,.47,6.47,6.47,0,0,1-.11,1l.25-1.46c.07-.4.16-.72.21-1,.11-.55.18-.9.24-1.26.18-.56.33-1,.47-1.48.07-.21.13-.41.19-.6l.18-.48a10.66,10.66,0,0,1,.54-1.18c.26-.48.33-.5.45-.57a6.52,6.52,0,0,1,1.06-1.36,4,4,0,0,1,.61-.48l0,0c.07.09.08.07.1,0l0-.05-.07,0,0,0,0,.06.07,0,.09,0c.2.36.51,1,.76,1.58a20.56,20.56,0,0,1,.85,2.41c.07.12.09.07.16.19a2.63,2.63,0,0,1,.15.32l.26.82-.09,0c.09.36.14.69.2,1l.09.46.08.48a15,15,0,0,1,.49,3.46,31.73,31.73,0,0,0-.56-4.91l.17.87c.05.25.08.48.12.68s.06.4.09.59.05.39.07.59c0-.56-.06-1-.13-1.68a41,41,0,0,1,.38,7.3c0-.28,0-.51,0-.75,0,1.29,0,2,0,2.61s0,1.11,0,2l0-.53c-.09,1.18-.19,2.24-.25,2.8-.17,1.41-.2,2.18-.26,3.24-.09.28-.3,3.28-.36,3.34a1.35,1.35,0,0,0-.17.36,64.65,64.65,0,0,0,0,7c0,.17,0,.08,0,.1,0,.52.05,1,.11,1.56l.08.82.11.82a13.38,13.38,0,0,1-.13-3.09,35.59,35.59,0,0,0,.58,5.05,9.66,9.66,0,0,1-.2-1.53s.12.54.26,1.2c.23,1.06.14.55-.1-.94-.09-.63-.18-1.55-.16-1.49s.14.85.24,1.5.18,1.08.32,1.67c.07.3.14.6.21.92,0,.06.05.19.07.29s.06.2.1.31.14.41.22.62a7.35,7.35,0,0,1-.38-1l0-.13,0-.1-.06-.2-.11-.41c.09.41.14.71.27,1.15a8.58,8.58,0,0,0,.37,1,6.88,6.88,0,0,0,.71,1.2,5.82,5.82,0,0,0,.71.78,6.09,6.09,0,0,0,.54.42l.39.24a4.54,4.54,0,0,0,.53.24l.39.13a3.15,3.15,0,0,0,.42.09,3.71,3.71,0,0,0,.88,0,4,4,0,0,0,1.62-.47,4.3,4.3,0,0,0,1.13-.9,5.27,5.27,0,0,0,.62-.85,6.32,6.32,0,0,0,.43-.87,5.79,5.79,0,0,0,.29-.78c.14-.47.34-1,.52-1.87.42-1.88-.09.12,0-.39a39.47,39.47,0,0,0,.94-6c0-.33,0-.58,0-.83.18-2.66.19-4.57.27-5.09,0,.63,0,1.21.05,1.82.05-1.55.07-2.81.07-4-.07-1.71-.15-.92-.23-4.05l0,4.12v0c-.05-1.85-.09-3.71-.14-5.59-.05.52-.11,1.13-.17,1.78,0-1.36,0-1.78,0-2.8,0,.85,0,1.67,0,2.57,0-.87-.05-1.52-.07-2.91,0,3.45.1,6.41,0,8.39-.07-.84-.17-3.09-.17-4l.06.22c-.1-4.18-.05-6.34,0-7.65,0,.9,0,1.79,0,2.8,0-1.19.08-2.39.13-3.67a34,34,0,0,1,.38-4.17,28.84,28.84,0,0,1,1.74-6.5c-.13.35-.25.66-.33.94s-.16.51-.21.7l.24-.71c.08-.24.18-.47.27-.7.17-.47.39-.91.59-1.36a8,8,0,0,1,1.35-2.13,5.37,5.37,0,0,1,.45-.35,2.49,2.49,0,0,1,.46-.25,2.16,2.16,0,0,1,.5-.15,1.5,1.5,0,0,1,.37,0,.64.64,0,0,1,.23.1,2.21,2.21,0,0,1,.3.26,6.26,6.26,0,0,1,.51.8l.26.51.24.52a15.1,15.1,0,0,1,.76,2.27l.13,0c.43,1.65.24,1.17.29,1.45,0,.07.07.4.13.82s.17.65.23.89c-.08-.93-.42-2.46-.32-2.25a24.32,24.32,0,0,1,.49,3,12.64,12.64,0,0,1,.26,2.62c.11,1.73.19,3.46.16,5.84,0-1.43,0-2.31,0-3.13l.12.25c0,.84,0,1.52,0,2.33,0,.6.07,1.12.09,1.81.07-2.2,0-3.14,0-4.66.08,1.2.14,2.39.16,3.92,0-1.48,0-2.49,0-3.47a11.36,11.36,0,0,1,.07,1.52c0,.73,0,1.77-.1,3.41a25.77,25.77,0,0,1-.22,3.53c-.13,1.27-.29,2.38-.49,4,.26-1.57.47-2.91.63-4.47,0,.68-.09,1.32-.15,2-.07.38-.1.57-.14.76-.05.66-.11,1.25-.19,2.07l-.35,1.8c-.19,1.47-.31,2.41-.4,3.44.05.17.29-1.45.15.58h0v.06h0a5.43,5.43,0,0,0,0,.58l0,0s0,0,0,.08c0-.2,0-.41,0-.61l-.1.34a2.8,2.8,0,0,1-.09-.31,1,1,0,0,0,0,.4s0,.06,0,.09l0,0v.26c0-.27-.05-.49-.07-.73l0,.1c0-.14,0-.28,0-.42,0,.17,0,.35-.05.53s-.06.09-.1.09,0,.05,0,.1l.06,0c0,.07,0,.21,0,.26s0,.1,0,.15v0l-.07-.13a.92.92,0,0,1,0,.42l-.06-.07c0,.15-.07.28-.1.43s.1.14.08.42l-.1-.26,0,.32.09.05c0,.32-.08.43-.17.4a1,1,0,0,1-.05.47c0,.13.09.25.13.39a2.51,2.51,0,0,1,.12.63,1.63,1.63,0,0,0,.05.4c0,.12,0,.21,0,.31h-.1l-.09-.39a.66.66,0,0,0,0,.46c0,.12,0,.27,0,.27s0,.15-.05.23c0-.27-.1-.11-.16-.27a.68.68,0,0,0,.13.38c.07.49.07.49-.07.54a.81.81,0,0,0,.14.41s0,.08.05.12a.36.36,0,0,1,0,.1.63.63,0,0,0-.06.18c0,.16,0,.35,0,.54.07,0,.13,0,.23.12h-.09l0,.21q.1,0,.21.33c0-.17,0-.31,0-.52,0,.14,0,.2.08.28l.06-.19c0,.3.05.52.07.76l-.05-.07c0,.26.12.27.21.43l-.08,0c0,.12,0,.23,0,.29a.4.4,0,0,0,.11.32c-.06.05,0,.35,0,.37l-.13.09c.12.24.23.46.36.68h0c.05.1.09.21.14.32a.43.43,0,0,1,0-.37l.19.52c-.05-.26,0-.2.09-.08s.07,0,0-.12a.52.52,0,0,1,0-.17.47.47,0,0,1,.11.14l.18.34-.16-.12c.14.34.19.25.3.38l.1.28a.85.85,0,0,0,.16.35c.16.17.05-.05.11,0,.13.21.26.41.42.62l.13,0c.2.28.37.48.37.58l-.22-.13c.12.17.24.31.35.44s.19,0,.56.24a5.49,5.49,0,0,1-.43-.4h0a7.33,7.33,0,0,0,.64.45,2.33,2.33,0,0,1-.08-.31,1.21,1.21,0,0,0,.31.21l-.25-.24.35.18a2.78,2.78,0,0,1-.82-.75,1.36,1.36,0,0,1,.46.25l-.05,0c.43.33.68.47.81.59l-.34-.15a.88.88,0,0,0,.41.26,3.27,3.27,0,0,1,.5.24,7.34,7.34,0,0,0,.84.34l-.24,0a5.68,5.68,0,0,0,.77.24.7.7,0,0,0,.53.1h.23c.21.07.41.14.64.2v-.14c.22,0,.15.05.19.08l.11,0,.11-.08c-.11,0-.32,0-.29-.1l.38,0a.32.32,0,0,1,.32,0l.67-.11h-.36l0-.11h.26l.18-.16c-.24,0-.33.13-.51.12l.41-.22-.38,0c.08-.08.17-.09.53-.11,0-.08.23-.09.37-.11a1.2,1.2,0,0,0,.41-.11l-.48,0,.19-.1.09,0,.18-.14.2,0,.31-.14c0-.07-.17-.09,0-.21Zm.06-2.53,0,0,0,.08Zm-.05-.07.11,0,0,0h-.09Zm-4.8-3.08v-.1h0l0,.1ZM312.7,431v.21h0l0-.19ZM314,411.23v.49c0-.47-.07-.94-.11-1.4l0-.73C313.87,410.14,313.91,410.68,314,411.23Zm-40.83,23.91c0-.59,0-1.18,0-2A10.91,10.91,0,0,1,273.12,435.14Zm1-24c-.07-1.42-.11-2.53-.24-3.62l.09.51.06.56,0,.55c0,.37,0,.74.07,1.11l.07.71c0,.29,0,.65.07,1.16C274.23,411.74,274.19,411.5,274.14,411.16Zm2.26,30Zm.45.32h0l0,0h0l0,0Zm-.46-35,.05,1c0-.23-.07-.47-.1-.71s0-.51,0-.77Zm-.7,18.74c0-.44,0-.89,0-1.53l.07-.8c0,.64,0,1.27,0,1.91C275.72,425,275.7,425.12,275.69,425.26Zm.05,1.63c.08-2.55.07-4,.2-7.29l0-.24c0-.25,0-.44.05-.59,0,.39,0,.8,0,1.24,0,.95,0,1.73,0,2.07a3.59,3.59,0,0,1,0,.47v-.14c0,.15,0,.3,0,.44,0,.46,0,1-.07,1.46C275.85,425.16,275.8,425.88,275.74,426.89Zm.65,14.29h0l.36.25h0Zm6.32-39.74c-.13.32-.3.74-.45,1.16s-.26.85-.34,1.11a9.4,9.4,0,0,0-.21,1,7.81,7.81,0,0,0-.29,1l-.26,1c0-.22.08-.4.09-.48s.06-.37.12-.66a6.41,6.41,0,0,1,.24-1c.21-.71.43-1.51.6-2a12.62,12.62,0,0,1,.63-1.48A1.39,1.39,0,0,1,282.71,401.44Zm2.76-3c-.2.12-.45.3-.41.27a3.5,3.5,0,0,1,.72-.51l.35-.15A7.37,7.37,0,0,0,285.47,398.4Zm1,.82.05,0,0,0a1,1,0,0,1,.09.15Zm.34-.16h0Zm.72,1.75c-.05-.12-.1-.25-.15-.34l-.08-.16s.06.08.1.13.18.41.18.42S287.52,400.83,287.5,400.81Zm-.36-2.9-.09-.05a.81.81,0,0,1,.42.28l.13.17A1.46,1.46,0,0,0,287.14,397.91Zm1.46,34.25c0,.48,0,.91,0,1.36C288.54,432,288.55,432,288.6,432.16Zm1.17-15.43c-.13,1.75-.14,1.33-.13.72C289.78,415.48,289.77,416,289.77,416.73Zm0-7.44,0-.52s0,.16,0,.25,0,.39,0,.52S289.79,409.4,289.78,409.29Zm.26,27.48v-.09l.1.69.12.68v.13C290.18,437.71,290.1,437.24,290,436.77Zm4.89-14.65v.22c0,.51-.09,1-.13,1.54v-.27Zm-.4,6.81c.05-1.44.16-2.53.27-3.7s.24-2.46.37-4.34c0-.24,0-.49,0-.8s.07-.88.11-1.29c0,.61,0,1.17,0,1.61,0,1.08-.05,2.45-.07,3.63,0,1.83,0,5-.23,7.22,0,.35-.1,1.44-.12,1.69s0,0,.06,0c-.1,1-.25,1.88-.41,2.81l0-.28c-.17-1.57-.22-3.15-.24-4.58C294.29,431.11,294.43,428.58,294.53,428.93Zm.78,2.49c0,.41,0,.81-.05,1.21-.24,2-.46,3-.62,3.79a1.84,1.84,0,0,1-.05.25v0l-.09-.65c0-.21.07-.43.11-.64v.31a29.14,29.14,0,0,0,.41-3.17c0-.35,0-.66.05-1v-1.19c.05-.72.09-1.37.12-2.17,0,1.21,0,2.16,0,2.89.09-1,.13-1.86.17-2.71-.06,1.94-.13,3.5-.24,5C295.19,432.58,295.24,432,295.31,431.42Zm0-3.28v0c0-.59,0-1.17-.06-1.92,0-.29,0-.53.07-.95C295.36,426.53,295.35,427.34,295.34,428.14Zm-.94-.88c0,.17-.09.33-.15.58a9.36,9.36,0,0,1,.15-1.55C294.41,426.35,294.4,426.83,294.4,427.26Zm.36-19c0-.24-.08-.47-.12-.7s-.05-.45-.08-.67l.11.4C294.7,407.62,294.74,407.94,294.76,408.27Zm-.06-1.55c-.08-.57-.16-1-.23-1.47s-.18-.88-.3-1.44c0-.12,0-.23,0-.34A32.79,32.79,0,0,1,294.7,406.72Zm-2.17,36.52a4.89,4.89,0,0,1-.72-.72,6.26,6.26,0,0,1-.87-1.5c-.07-.18-.13-.37-.19-.56a6.44,6.44,0,0,0,1.42,2.39,3.71,3.71,0,0,0,1.44,1A3.49,3.49,0,0,1,292.53,443.24Zm1.16-3.28Zm1.81-11.31c0,1-.11,1.79-.19,2.66.11-1.76.14-3.33.21-4.27C295.52,427.63,295.52,428.38,295.5,428.65Zm-.1-11v-.43l0-.43,0,.29c0-1.1,0-2.26.15-4C295.45,415.35,295.43,416.51,295.4,417.66Zm.37-6.18c0,.22-.08.45-.14.77C295.79,410.5,295.85,410.45,295.77,411.48ZM296,410v-.82a35,35,0,0,1,.77-3.68A44.61,44.61,0,0,0,296,410Zm1.82,31.59a4.52,4.52,0,0,1-.92,1.41,3.52,3.52,0,0,0,.31-.39,4.93,4.93,0,0,0,.66-1.15A.45.45,0,0,1,297.84,441.61Zm2-24.75c.08-.6.06,1.13.08,2.51C299.89,419.93,299.86,419.92,299.85,416.86Zm2.54-21.26a7.24,7.24,0,0,0-.73.53,8.78,8.78,0,0,0-1.13,1.16,13,13,0,0,0-1.47,2.37l-.08.12a13.58,13.58,0,0,1,1.21-2.12,9.57,9.57,0,0,1,.92-1.1c.2-.19.4-.39.65-.59a7.44,7.44,0,0,1,.88-.61l.56-.21A7,7,0,0,0,302.39,395.6Zm7.15,11.25-.08-.33c0-.23-.07-.47-.11-.69.08.35.15.71.2,1.07,0,.14.09.28.14.52C309.7,407.91,309.71,407.9,309.54,406.85Zm-1.27,31.76a.18.18,0,0,1,0-.06l0,0v.05Zm2.25-11.47c-.18,1.34-.29,2.25-.35,2.81v0l0,.06c0,.08,0,.18-.06.17C310.19,429.3,310.33,428.38,310.52,427.14Zm-.19,3c-.06,0-.1,0-.13,0,.09-.27.18-.56.21-.49a3.61,3.61,0,0,1,0,.5S310.35,430.09,310.33,430.11Zm6.52,11.79h0l-.08.06,0,0Zm-.46,0-.1-.06C316.38,441.89,316.38,441.89,316.39,441.93Zm0,0h0c.1,0,.1.07.16.12l-.19,0c.07-.08,0-.11-.12-.14Zm-.66-.26h.12v.07l-.22,0v0Zm-.3-.22a.27.27,0,0,1-.17,0l.07-.09A.58.58,0,0,0,315.43,441.45Zm-.18-.14a.28.28,0,0,1,0-.08S315.3,441.29,315.25,441.31Zm-.11-.2.11.08a.13.13,0,0,1-.13-.07Zm-.06-.31,0,.07-.05-.06h.08Zm-.17.15-.05,0v-.12C314.9,440.85,314.93,440.88,314.91,441Zm-.55-1.45-.1.07C314.25,439.4,314.3,439.46,314.36,439.5Zm-.59-1.59,0,.24-.06-.2Zm-.11.31v.07l-.07,0v-.05Zm-1.52-8.08v0h0v0Zm.62-27.76c.05.23.05.26,0,.3-.16-.64-.35-1.27-.56-1.9C312.57,401.68,312.69,402.14,312.76,402.38Zm.05.34a15.19,15.19,0,0,1,.38,1.81c0,.38.07.65.13,1.2a26.53,26.53,0,0,0-.8-3.54c.22.64.22.54.1,0a18.06,18.06,0,0,0-.8-2.32A19.56,19.56,0,0,1,312.81,402.72Zm-1.59,19.44a28.22,28.22,0,0,1-.48,3.42C310.94,424.29,311.06,423.52,311.22,422.16Zm-.92-6.9c-.05,1.6-.11,2.63-.19,3.73C310.17,416.9,310.17,416.55,310.3,415.26Zm-1.52,24.23,0,0a.13.13,0,0,1,0-.06v.08Zm.09.8c0-.2,0-.15.06-.09S308.92,440.35,308.87,440.29Zm.21-7.9c-.09,0-.12,0-.16-.11a3.21,3.21,0,0,0,.09-.52c0-.38.09-.68.13-.88s.06-.32.08-.32a14.82,14.82,0,0,1-.07,1.58c.06-.83.15-1.65.25-2.47h0l.06-.56.05-.2-.09.75v0h0c0,.18,0,.35-.05.52a1.08,1.08,0,0,0-.05.21.81.81,0,0,0,0,.16c0,.17,0,.33-.05.5h0v0c0,.46-.07.93-.1,1.41l-.07.16Zm.06,9.44V442C309.09,441.84,309.1,441.84,309.14,441.83Zm.22-4-.06-.09s0-.07,0-.07,0,.07,0,.11Zm.1.34,0-.12v0l0,.12Zm.13-.94c0-.07,0-.18-.08-.23s-.06-.05-.09-.08v-.2l0,0c.06,0,.11.24.16.34a.37.37,0,0,1,0,.16S309.6,437.23,309.59,437.2Zm.22-7.35s0,0-.05,0c0-.25.05-.53.08-.84.13-.55.18-.66.31-1.36s.35-2,.54-3.25c-.09.83-.07,1-.34,2.77-.16,1.09-.18,1.42-.26,2.15,0,0,0,0,0,0s-.08.11-.12.31a1.3,1.3,0,0,1,.1-.18l0,.09a2.29,2.29,0,0,1,0,.25C310,429.83,309.88,429.91,309.81,429.85ZM310.4,442l-.07-.13h0l.07.12Zm.09.26v0l.18.15,0,.1Zm.34.49a1.17,1.17,0,0,0-.05-.11l0,0,0,.09Zm1.66,2c0-.09,0-.08.32.1C312.83,445,312.64,444.89,312.49,444.8Zm4.23,1.15,0,0h-.09l.13,0,.06-.07C316.84,445.92,316.84,445.92,316.72,446Zm2.64-2.65h-.09l.06,0h.06Zm-1.73,2.26.4,0C317.82,445.64,317.78,445.64,317.63,445.56Zm.41-1.43c.15-.05.24-.08.31,0Z" transform="translate(-263.01 -393.2)"/><path d="M319.19,444.91l.09.1c.21-.11.23-.14.15-.21Z" transform="translate(-263.01 -393.2)"/><path d="M319.33,444.68c-.2.1,0,.07,0,.13l.25-.16A.28.28,0,0,0,319.33,444.68Z" transform="translate(-263.01 -393.2)"/><path d="M312.67,429.2c.06,0,.12-.12.19-.14S312.81,428.93,312.67,429.2Z" transform="translate(-263.01 -393.2)"/><path d="M309.76,442.69a1.54,1.54,0,0,0,.31.58l0-.09C309.92,443,309.83,442.83,309.76,442.69Z" transform="translate(-263.01 -393.2)"/><path d="M311.1,444.74c-.11-.15-.18-.22-.22-.29a.57.57,0,0,0-.22-.26l.21.33A2.7,2.7,0,0,0,311.1,444.74Z" transform="translate(-263.01 -393.2)"/><polygon points="54.1 53.02 54.1 53.02 54.1 53.02 54.1 53.02"/><polygon points="53.78 53.06 53.78 53.06 53.78 53.06 53.78 53.06 53.79 53.05 53.79 53.05 53.79 53.05 53.78 53.05 53.78 53.06 53.78 53.06"/><path d="M317.11,446.22l-.31,0c.05,0,0,.07.26.07Z" transform="translate(-263.01 -393.2)"/><path d="M310.41,443.71a.22.22,0,0,0-.14,0l.06.09c.08.08.17.17.31.29C310.53,443.89,310.44,443.74,310.41,443.71Z" transform="translate(-263.01 -393.2)"/><path d="M313,432l-.06,0v.06l.07.17,0,0Z" transform="translate(-263.01 -393.2)"/><path d="M319.22,441.82h.16l.18-.13-.31.09Z" transform="translate(-263.01 -393.2)"/><path d="M308.54,431.84l0,0v-.29s0,0-.07,0Z" transform="translate(-263.01 -393.2)"/><polygon points="50.55 42.08 50.66 41.98 50.64 41.91 50.54 42.01 50.55 42.08"/><path d="M318.22,445.66l.32,0,0,0A.72.72,0,0,0,318.22,445.66Z" transform="translate(-263.01 -393.2)"/><path d="M312.39,445.68l0-.14C312.13,445.48,312.13,445.48,312.39,445.68Z" transform="translate(-263.01 -393.2)"/><path d="M318,442s0,0-.06,0-.09,0-.1.07v0h0C318,442.05,318,442,318,442Z" transform="translate(-263.01 -393.2)"/><path d="M308,438.44l-.11-.23v.06C308,438.46,308,438.46,308,438.44Z" transform="translate(-263.01 -393.2)"/><path d="M314,436.64l0-.3C313.89,436.59,313.89,436.59,314,436.64Z" transform="translate(-263.01 -393.2)"/><path d="M320.25,442c.13-.06.13-.1.1-.14S320.19,441.93,320.25,442Z" transform="translate(-263.01 -393.2)"/><path d="M308.29,435.76l-.1-.18C308.21,435.83,308.24,435.86,308.29,435.76Z" transform="translate(-263.01 -393.2)"/><path d="M308.26,432.47v.22C308.31,432.6,308.32,432.52,308.26,432.47Z" transform="translate(-263.01 -393.2)"/><path d="M314.63,439.81a.2.2,0,0,0-.06-.19A.47.47,0,0,0,314.63,439.81Z" transform="translate(-263.01 -393.2)"/><path d="M318.18,441.72l-.26.08A.36.36,0,0,0,318.18,441.72Z" transform="translate(-263.01 -393.2)"/><polygon points="56.25 51.99 56.36 51.97 56.38 51.91 56.3 51.92 56.25 51.99"/><polygon points="56.98 49 57.1 48.97 57.14 48.94 57.04 48.94 56.98 49"/><path d="M320.51,443.41l-.13.09C320.51,443.47,320.5,443.44,320.51,443.41Z" transform="translate(-263.01 -393.2)"/><path d="M319,444h.09s0,0,0-.05h-.07Z" transform="translate(-263.01 -393.2)"/><path d="M311.93,445.12a1.48,1.48,0,0,0,.37.33C312.26,445.35,312.11,445.27,311.93,445.12Z" transform="translate(-263.01 -393.2)"/><path d="M314.23,438.56l0-.15,0,0,0,.14Z" transform="translate(-263.01 -393.2)"/><path d="M308.59,431.06l0-.06v.08l0,.05A.41.41,0,0,1,308.59,431.06Z" transform="translate(-263.01 -393.2)"/><polygon points="54.57 53 54.58 53.02 54.79 52.99 54.77 52.96 54.57 53"/><path d="M319.55,442.16l0-.14C319.48,442.11,319.52,442.13,319.55,442.16Z" transform="translate(-263.01 -393.2)"/><polygon points="56.54 48.96 56.54 48.96 56.54 48.96 56.54 48.96 56.54 48.96 56.54 48.96 56.54 48.96 56.54 48.96 56.54 48.96 56.54 48.96"/><path d="M313.09,432.63a.35.35,0,0,0,0-.06l0,0,0,.06S313.08,432.64,313.09,432.63Z" transform="translate(-263.01 -393.2)"/><polygon points="51.33 46.07 51.28 45.96 51.27 45.97 51.3 46.09 51.33 46.07"/><polygon points="56.3 48.86 56.31 48.87 56.43 48.82 56.41 48.8 56.3 48.86"/><path d="M317.66,441.67l0,0h-.06s0,0,0,0Z" transform="translate(-263.01 -393.2)"/><path d="M319.13,443.63h0l0,0h0Z" transform="translate(-263.01 -393.2)"/><path d="M319.64,443.37h.1l0-.05h-.1Z" transform="translate(-263.01 -393.2)"/></svg>