<svg id="Camada_1" data-name="Camada 1" xmlns="http://www.w3.org/2000/svg" viewBox="0 0 56.74 43.7"><title>libra</title><path d="M273.16,437.9c1.14.44,1.14.46,2.47.9a8.63,8.63,0,0,0,.91.36c.89.28,1.51.45,1.39.49,1.05.23,1.78.29,3.05.47-.42,0-.65-.05-.91-.08s-.57-.07-1-.14a6.83,6.83,0,0,0,1.08.2c.35,0,.71.07,1.08.1v.14a29.08,29.08,0,0,0,4.2,0,3.39,3.39,0,0,0,.43-.08c.37,0,.73,0,1-.06s-.78.34.75.27c-.1.05-.3.11-.22.12a7.4,7.4,0,0,0,.75,0c-.59.09-1.24.15-1.39.17a12.4,12.4,0,0,1-1.7.13l-.26-.1-.88,0c-1.88,0-3,0-3.7,0-.12,0,0,.05.14.09.47.14.2.18-.94.05l.39.07c.51.09,1.2.16,1,.17a7.23,7.23,0,0,1-1.11-.09c-.36,0-.8-.12-1.29-.21.56.2,1.16.37.83.4-.14,0,.38.14-.47,0-.14,0-.18,0-.07,0,.62.18-.24.09-.35.14h-.19l.32.07,1.05.06a18.61,18.61,0,0,0,3.14.43,32.28,32.28,0,0,0,3.46-.16l.37.07a8.11,8.11,0,0,1,.82-.12l1.22-.13a9,9,0,0,1,.93-.19,2.47,2.47,0,0,0,.78-.22l.95-.14.83-.27c.31-.1.68-.21,1.28-.45l-.13.1h-.05l.05,0A5.9,5.9,0,0,0,295.7,439a5.75,5.75,0,0,1-1.51,1.25c.05,0,.06.07-.08.17a6.16,6.16,0,0,1-1,.54,5,5,0,0,0,.66-.24c.26-.12.34-.12-.37.22a10.28,10.28,0,0,1-1.12.32c.08,0-.25.15-.67.28l-1.29.37c.48-.1.91-.2,1.3-.3a8.74,8.74,0,0,0,1-.31c.35-.13.68-.26,1.05-.42a8,8,0,0,0,1.35-.74,8.39,8.39,0,0,1-2.32,1.19c-.72.24-1.36.39-2,.55a13.32,13.32,0,0,1,1.83-.28l.18,0,.41-.13h-.21c.22-.09.63-.23,1-.41a3.72,3.72,0,0,0,.74-.43,5.77,5.77,0,0,0,1.08-.8,6.58,6.58,0,0,1-.82.75,6.16,6.16,0,0,0,1.42-1.3,6.69,6.69,0,0,0,.82-1.31c-.06.21-.15.41-.19.52a6.19,6.19,0,0,0,.66-1.64,7.54,7.54,0,0,0,.23-1.65,5.49,5.49,0,0,0-.14-1.17c0-.18-.09-.39-.16-.67s-.18-.65-.33-1.09a8.57,8.57,0,0,1,.55,1.78,9.15,9.15,0,0,0-.23-1.18c-.1-.36-.2-.69-.32-1l-.22-.28c-.41-.95-.71-1.49-.85-1.81s-.17-.43-.1-.39c-.38-.64-.55-.92-.7-1.19s-.25-.47-.45-.9-.64-1-1-1.64a14.51,14.51,0,0,1-1.15-2.8c-.24-.88-.36-1.34-.45-1.78,0-.27-.06-.52-.09-.74l0-.63h.1a13.19,13.19,0,0,0,.3,1.72c0-.27-.06-.53-.1-.85s-.05-.69-.13-1.17a4.13,4.13,0,0,1,0-1.15,6.85,6.85,0,0,0,.15-1,3.78,3.78,0,0,0,.06,1.27c0-.13,0-.25,0-.36v-.3c0-.18,0-.33,0-.45s0-.42,0-.58a12.39,12.39,0,0,1,.38-1.87c.09-.27.15-.3.23-.34.26-.88.46-1.35.55-1.76,0-.09.15-.36.22-.51a2.86,2.86,0,0,1,.21-.37c.13-.22.24-.29.43-.6l.28-.45.33-.46c.12-.16.23-.33.36-.49l.39-.47c0-.07,0-.08,0-.15a1.44,1.44,0,0,1,.29-.5l.07.06c.24-.25.41-.45.62-.66a1.25,1.25,0,0,1,.28-.37l.33-.36c.13-.13.3-.26.48-.42l-.42.33c-.14.1-.26.23-.4.34l-.41.37c-.15.14-.29.29-.45.46a11.79,11.79,0,0,1,.89-.92l-.63.46a16,16,0,0,1,2.61-2l-.26.21.32-.2.25-.15a4.41,4.41,0,0,0,.38-.24,5.84,5.84,0,0,1,.73-.47l-.17.16a10.17,10.17,0,0,1,1.09-.41c.55-.14.82-.26,1.2-.37a5.52,5.52,0,0,0,.63-.05,1.36,1.36,0,0,1,.55,0c0,.05.08.09.12.15a5.89,5.89,0,0,1,2.18.27c.05,0,0,0,0,0l.47.19.49.25a4.31,4.31,0,0,1-.87-.58,7.39,7.39,0,0,1,1.51.83c-.31-.25-.43-.33-.41-.34a1.36,1.36,0,0,1,.39.18c.33.19.19.07-.25-.23a3.32,3.32,0,0,1-.43-.29,2.5,2.5,0,0,1,.48.23,6.65,6.65,0,0,1,1.06.74,5.39,5.39,0,0,0-.52-.3l.79.62a2.58,2.58,0,0,1,.42.31c.11.12.22.25.31.37a3.16,3.16,0,0,1,.26.36,4.28,4.28,0,0,1,.26.42c.1.14.21.33.38.59.38.61,0-.08.16.07a11.86,11.86,0,0,1,.91,2.16c.08.12.12.21.18.29a6.88,6.88,0,0,1,.33,2.09c-.06-.26-.13-.49-.2-.74.1.64.14,1.17.17,1.67a4.5,4.5,0,0,0,.13.64,5,5,0,0,1,.1,1.13c0-.6,0-1.21,0-1.81v0a18.65,18.65,0,0,1,.1,2.49c.07-.24.15-.52.22-.81,0,.61,0,.82,0,1.29,0-.39.09-.78.1-1.18,0,.39,0,.7,0,1.34a27.45,27.45,0,0,0,0-3.8A6.88,6.88,0,0,1,313,415l-.06-.09a18.71,18.71,0,0,1-.06,2.26,13,13,0,0,1-.16,1.3c0-.22,0-.43.05-.65s0-.44,0-.68c-.09.56-.16,1.12-.22,1.73a14.06,14.06,0,0,1-.37,2,34.2,34.2,0,0,1-1,3.29l.23-.87c-.32,1-.68,2-1,2.93a16.45,16.45,0,0,0-.81,2c-.11.31-.25.65-.34.87-.41.83-.79,1.52-1.25,2.49l.12.05c-.4,1-.31.69-.4.85a4.75,4.75,0,0,0-.2.51c0,.24-.07.44-.09.61a6,6,0,0,1,.55-1.38,13.24,13.24,0,0,0-.58,1.89c0,.58-.11.9-.15,1.86a7,7,0,0,0,.32,1.94A5.73,5.73,0,0,0,309,440.1a5.62,5.62,0,0,1-.84-1.23,5.17,5.17,0,0,1-.39-1l.17.15a5.55,5.55,0,0,0,.87,1.62,5.06,5.06,0,0,0,1.1.88,5.79,5.79,0,0,1-1.39-1.45,4.62,4.62,0,0,1-.64-1.45,5.29,5.29,0,0,0,.6,1.25,5.44,5.44,0,0,0,1.07,1.21,5.36,5.36,0,0,1-.93-1.14,5.08,5.08,0,0,1-.48-1.05,10.14,10.14,0,0,0,.52,1,5.64,5.64,0,0,0,1.76,1.81,8.26,8.26,0,0,1,.83.39,10.52,10.52,0,0,0,1.25.48c.36.11.69.2,1,.28a11.65,11.65,0,0,0,1.15.23c-.41-.09-.8-.21-1.19-.31s-.78-.22-1.22-.38c.39.1.75.19,1.13.26l.39.13c.36.05.68.1,1.11.14s.76.2.95.23c.77.11,1.26.14,1.78.18.09-.06-.73-.21.3-.18h0c.27,0,.53,0,0-.1a1.72,1.72,0,0,1-.61-.15,3.43,3.43,0,0,1,.81,0c-.51,0-1-.09-1.54-.13l-.11,0a33.57,33.57,0,0,0,3.64.14,4.66,4.66,0,0,1-.83-.15c-.1,0,.16-.07.26-.11-1.07-.07-1,0-1.94-.08.17,0,.34,0,.5-.06l-.34,0-1.21,0a4.38,4.38,0,0,0-.69-.21l-.74-.17c-.28-.06-.6-.12-.91-.21.43.08.5,0,1.41.21s.81.06,1.8.17c-.63-.1.3,0,.27,0l-.92-.11-1.15-.17,1,.11.57,0c-.14-.09-.37-.17-.32-.22a5.84,5.84,0,0,1,1,0c.82.06,1.71.12,2.69.13s2.17-.14,3.13-.28c-.9,0-1.79,0-2.6,0v-.15l1.11-.05-.45,0c.64,0,1.28-.09,1.92-.16v-.09a15.21,15.21,0,0,0,2-.15l-.42,0c-1.13,0-1.13,0-.24-.09l.61-.09c.45-.08.34-.08-.43,0l-.9,0,2.07-.21a4.2,4.2,0,0,0-1,0,2.64,2.64,0,0,1-.75.08c-.31,0-.49,0-.72,0l.56,0,.4-.12-1.39.1.33.05c-.41,0-.82,0-1.54,0l1.18-.1h0v-.12l1.81-.13v0c-.69,0-1.44.08-2,.08s-1.11,0-1.68,0l.77,0a4.23,4.23,0,0,0-1.25-.06l-1.11,0-1-.05-.44-.1c-.63,0-1.16-.11-1.69-.18a6.77,6.77,0,0,1-1.47-.31,17.68,17.68,0,0,1-2.18-.56,3.18,3.18,0,0,1-1.29-.75c-.3-.27-.14,0,0,.18a1.7,1.7,0,0,1-.4-.61,3.11,3.11,0,0,1-.18-.86,2.7,2.7,0,0,0,.31.82,1.71,1.71,0,0,0,.68.62,3.93,3.93,0,0,1-.4-.41.85.85,0,0,1-.18-.45,1.28,1.28,0,0,0,.29.45,2.9,2.9,0,0,0,1.4.86,5,5,0,0,1,1,.21c1,.23,1,.21,1,.14l-.43-.08-.53-.12a1.61,1.61,0,0,0-.45-.2c-.21-.07-.57-.16-1-.35a2.2,2.2,0,0,1-.73-.44,1.27,1.27,0,0,1-.25-.37,3.12,3.12,0,0,1-.18-.42c-.06-.42,0-.51,0-.5s.07.07.1-.12-.06-.2-.08-.27a5.29,5.29,0,0,1,.32-1.33,1.57,1.57,0,0,1,.28-.44c.25-.68.39-1.08.55-1.52s.37-1,.74-1.91a9.2,9.2,0,0,1-.46,1.32c-.26.63-.33.85-.22.74.3-.92.77-1.81,1.15-2.78a9.85,9.85,0,0,1-.67,2c-.36.91-.38,1.05-.14.64l.4-.92c.11-.24.2-.37.29-.59a26.14,26.14,0,0,0,1.24-3.3c.22-.55.43-1.06.56-1.48.39-1.26.36-1.06.35-.88s.09-.15.19-.32c.06-.34.09-.53.11-.58.32-1.07.52-2.14.77-3.26a6.1,6.1,0,0,0,.12-.68c.07-.61.16-1.33.25-2.14s.14-1.61.19-2.14a19.78,19.78,0,0,0,.08-2.08,15.11,15.11,0,0,0-.16-2c-.12-.78-.3-1.6-.48-2.3a9.3,9.3,0,0,0-.35-1c-.07-.17,0,0-.05,0a15.08,15.08,0,0,0-.77-1.92,11.2,11.2,0,0,0-.62-1.13c-.11-.18-.28-.38-.24-.31l.28.48.29.55c.13.25.29.56.43.87l-.14-.16c.44,1,.61,1.51.77,1.93l.49,1.29c.1.44.16.84.23,1.31-.16-.71-.33-1.28-.47-1.71.14.62.24,1.14.31,1.65a13.31,13.31,0,0,0-.86-3c.13.44.24.79.32,1.14v0c-.08-.24-.18-.49-.28-.72a14,14,0,0,0-.88-2.3,11,11,0,0,0-1.06-1.65,10.14,10.14,0,0,0-.61-.91l-.56-.64-.42-.46c-.25-.27-.44-.47-.7-.71a16.6,16.6,0,0,0-2.7-1.78,11.15,11.15,0,0,0-3-1.07c.09,0-.28-.18-.67-.29s-.76-.19-.63-.23a14.1,14.1,0,0,0-2.59,0,10.79,10.79,0,0,0-2.76.61l-.44.23a17.77,17.77,0,0,0-1.8.76c.34-.14.86-.36,1.38-.55a9,9,0,0,1,1.33-.39c.09,0,.75-.21,1.17-.29a12.79,12.79,0,0,1,2-.26,10.14,10.14,0,0,1,1.46,0H305a11.16,11.16,0,0,0-1.84,0c-.29.06-.55.11-.86.19s-.65.1-.93.16a6.5,6.5,0,0,0-.73.18l-.58.31a14.29,14.29,0,0,0-1.49.58,9.32,9.32,0,0,0-1.1.63s-.09,0,.06-.11.66-.36,1-.52c.68-.32,1.07-.51.73-.42a10.21,10.21,0,0,0-1.84.86c-.38.23-.6.39-.89.58s-.82.55-1.23.84-.8.63-1.23,1l.31-.15-.32.27-.29.27-.53.52a11.42,11.42,0,0,0-1.1,1.1c-.43.5-.1.16,0,0-.22.23-.51.6-.54.63a1.68,1.68,0,0,1-.33.22l-.48.6-.37.5c-.22.28-.37.47-.47.57a12.35,12.35,0,0,0-1.26,2.16l-.13.32a18.28,18.28,0,0,1,.95-1.6l-.31.55a6.75,6.75,0,0,1-.34.66,8.83,8.83,0,0,0-.43.9c-.25.66-.48,1.19-.63,1.69s-.34.9-.45,1.33-.29,1-.38,1.59c0,.06,0,.23-.06.45.07-.32.14-.62.2-.93,0,.48-.08.88-.12,1.34,0,.13-.07.22-.1.34,0,1.07,0,1.37.1.94a9.27,9.27,0,0,0,0,1.23h-.17v.81c0,.27,0,.53.07.79l.06.78c0,.26.07.52.12.78a6.31,6.31,0,0,0-.08-1c0-.49-.08-1-.08-1.31.05.27.1.58.17,1a10.29,10.29,0,0,0,0,1.06,4,4,0,0,0,.25.89c.07.21.15.49.37,1.28s.59,1.79,1.07,3l-.3-.55c.16.47.32.86.41,1.11.36.73.72,1.38,1.12,2.06.16.2-.28-.71.36.38.14.3.35.68.56,1s.42.68.58.91a10.27,10.27,0,0,1,1.17,2.17c0,.09.07.18.1.27s.05.15.07.23.07.28.09.39a3.37,3.37,0,0,0,.09-.34c.12.71.08,1,.13,1a.55.55,0,0,1,0,.17,1.79,1.79,0,0,1-.16.31,1.29,1.29,0,0,1-.21.44s.28-.29.08.05a2.8,2.8,0,0,1-1.26.7l-.18.08a3.23,3.23,0,0,0,.53-.14,3,3,0,0,0,.67-.35h0a3.09,3.09,0,0,1-.83.47l.53,0a2.66,2.66,0,0,1-.62.26l-.6.16c-.46.12-1.07.26-1.77.39.09,0,.1,0-.06.09a8,8,0,0,1-1.08.22l-.28-.05a29.62,29.62,0,0,1-4.39.31c-.24,0-.32,0-.51,0a6,6,0,0,1-1.41-.15c-.64-.13-1.14-.18-2.2-.34a19.42,19.42,0,0,1-2.13-.45c-.47-.09-1-.19-1.59-.33.31.12.68.27,1.12.41-.89-.23-1.67-.5-2.93-.9,1.1.41,1.78.67,2.46.9-.26,0,.11.14,1.55.53l-.69-.11c-.28-.05-.66-.13-.78-.14s.07.08.19.15.33.11.68.2a2.3,2.3,0,0,1-.23-.15c.5.12.95.23,1.33.3.07.05,0,.08.2.14.47.18.43.25.28.29l-.31-.05a17.72,17.72,0,0,0-1.91-.38l-.15,0-.34-.09-.82-.24-.18-.08c.3.09.6.18.9.25l-.09-.05c-1.3-.4-2.62-.91-4-1.29-.37,0-.34.07.82.53a17.92,17.92,0,0,0-3-.68l-.2.06a15.36,15.36,0,0,1,2.49.71Zm8.48,4c-.76-.1-1.34-.2-1.92-.32l.28,0c.39.08.78.12,1.17.18.23,0,.46,0,1,0Zm11.79-.71a10.82,10.82,0,0,0,1-.47c.15-.07.18-.07.2-.07A8.23,8.23,0,0,1,293.43,441.14Zm14.42-7.32v.36c-.11.3-.12.29,0-.39l0-.22c0-.15.09-.29.13-.43C308,433.36,307.89,433.59,307.85,433.82Zm1.95,6.42a3.82,3.82,0,0,1-.75-.89,5.2,5.2,0,0,0,1.06,1,6.57,6.57,0,0,0,1,.6A5,5,0,0,1,309.8,440.24Zm11.91.56h.35s-.12,0-.25,0l-.45,0Zm1.68-.82-.23-.07.31,0Zm-.31-.15h.63l-.21,0H323Zm-8.85.72c.27.08.48.13.65.19-.33-.06-.58-.13-.84-.2s-.53-.13-.86-.23ZM311.59,436a1.48,1.48,0,0,1,0-.21,3.17,3.17,0,0,0,.07.46l0,.13A1.91,1.91,0,0,1,311.59,436Zm.61-2.58.37-.74C312.25,433.39,312.26,433.39,312.2,433.41Zm0,0h0c-.3.74-.33.71-.5,1.09a10.84,10.84,0,0,1,.46-1.35c-.13.54.14-.09.53-.89C312.51,432.67,312.35,433.05,312.2,433.41ZM317,420.59c.05-.12.09-.23.14-.39C317,421.09,316.94,421.11,317,420.59Zm.25-.81c.14-1.2.21-1.82.28-2.43v.07C317.49,418.08,317.43,418.74,317.26,419.78Zm.38-7.28c0,.17,0,.31,0,.56-.07-.72-.15-1.19-.23-1.67h0C317.48,411.72,317.55,412.06,317.64,412.5Zm-.3-.43c0-.35-.15-.78-.17-.94-.1-.58-.19-1.07-.31-1.59A11.08,11.08,0,0,1,317.34,412.07Zm-.57,9.24c0,.17,0,.28,0,.43-.18.71-.33,1.21-.52,1.82C316.38,423,316.56,422.34,316.77,421.31Zm-1.57,5.11,0-.06c-.11.34-.23.68-.34,1s-.23.67-.41,1.17l-.14.16C314.67,427.91,314.94,427.17,315.2,426.42Zm-2.13-10.19c0-.13.05-.19.05-.05s0,.51,0,1.24C313,417.69,313.06,416.88,313.07,416.23Zm-2.49-9.5.22.32,0,0c-.1-.12-.19-.25-.28-.37Zm-1.18-1.17.34.26a3.85,3.85,0,0,1,.27.3c-.13-.12-.26-.24-.4-.35s-.28-.22-.43-.32l-.14-.13Zm-1.1-.81,0,0a4.85,4.85,0,0,0-.49-.29l0,0C308,404.56,308.14,404.64,308.3,404.75Zm-2.44.07.41.19C305.8,404.84,305.8,404.86,305.86,404.82Zm-4.13-5.8-.94.2.13-.05c.32-.08.64-.15,1-.21Zm2.44-.13.4.11a6.67,6.67,0,0,1-1.05,0A4.47,4.47,0,0,1,304.17,398.89Zm-3.8,6.42c.7-.31.54-.19.32-.06a4,4,0,0,1-.54.23S300.24,405.39,300.37,405.31Zm-2.85,1.85.2-.14-.08.09-.2.13ZM295,410.52l.13-.18s0,0,0,0l-.15.22S295,410.55,295,410.52Zm-3.49,4.28c-.05.34-.19.89-.2,1.17a2.11,2.11,0,0,0,0,.47c0,.19-.07.35-.09.51s0,.32-.05.49a1.42,1.42,0,0,0,0-.24c0-.06,0-.17,0-.32s0-.31.05-.49c0-.35.07-.75.12-1,0-.09.12-.52.18-.79A.37.37,0,0,1,291.5,414.8Zm1.06-2.08c-.08.14-.16.3-.15.27l.18-.52a2.17,2.17,0,0,1,.12-.23C292.67,412.34,292.63,412.5,292.56,412.72Zm1.17-8.9.38-.36-.24.3-.27.25Zm-.55,7.41-.1.17c.08-.2.19-.38.28-.58l.09-.13Zm.26-7.27c-.22.21-.41.38-.57.55l-.51.59-.19.07A14,14,0,0,1,293.44,404ZM284.54,440c1,0,1.09,0,.77.05Zm3.5,0h-.4l.93-.16h.21Zm.24-.26c.42-.05.78-.08,1.28-.15a20.22,20.22,0,0,1-3.57.51l-.12.06c-.6,0-.6,0,.16-.1a9.05,9.05,0,0,0,1.17-.16A8.9,8.9,0,0,1,288.28,439.79Zm-.91-.08c-.38.08-.72.13-1.07.19l-.41,0c.15-.06-.18,0-1.13,0l1.16-.09C286.24,439.8,286.62,439.78,287.37,439.71Zm-2.15-1.16h.1l-1.12.06-.15,0C284.44,438.6,284.83,438.57,285.22,438.55Zm-5.45.36.45.15-.33,0-.34-.14Z" transform="translate(-269.63 -398.66)"/></svg>