<svg id="Camada_1" data-name="Camada 1" xmlns="http://www.w3.org/2000/svg" viewBox="0 0 40.87 56.19"><title>peixes</title><polygon points="10.41 50.1 10.41 50.1 10.41 50.1 10.42 50.1 10.42 50.09 10.42 50.1 10.42 50.09 10.42 50.1 10.41 50.1 10.41 50.1 10.41 50.1"/><polygon points="8.45 45.11 8.45 45.11 8.45 45.1 8.45 45.11"/><path d="M295.33,414.5h0v0h0Z" transform="translate(-277.56 -392.44)"/><path d="M284.29,444.77c.08,0,.4-.53.56-.71.18-.51-.19.18-.27.26l.06-.25Z" transform="translate(-277.56 -392.44)"/><path d="M290.6,402.51a10.68,10.68,0,0,1,.75,1.26c0,.1.16.28.24.42s.15.21.13.12c-.37-.64-.73-1.23-1.09-1.8Z" transform="translate(-277.56 -392.44)"/><path d="M284.3,442.9l.27-.56-.17.06C284.19,442.89,284.17,443,284.3,442.9Z" transform="translate(-277.56 -392.44)"/><path d="M284.5,442.84c.22-.49-.06,0-.07-.14l-.26.64A1.4,1.4,0,0,0,284.5,442.84Z" transform="translate(-277.56 -392.44)"/><path d="M280.21,395.8c0,.05.22.22.57.53l-.3-.33.26.11C280.37,395.82,280.23,395.77,280.21,395.8Z" transform="translate(-277.56 -392.44)"/><path d="M280.05,392.49c-.36-.1-.34-.12.41.41C280.57,392.88,280.12,392.58,280.05,392.49Z" transform="translate(-277.56 -392.44)"/><path d="M289.8,424.58l.05-.15c.06-.4.08-.68.12-.95A7,7,0,0,0,289.8,424.58Z" transform="translate(-277.56 -392.44)"/><path d="M289.15,427.32c.08-.25.12-.4.16-.51a1.29,1.29,0,0,0,.12-.51c-.06.19-.12.36-.19.55S289.19,427.09,289.15,427.32Z" transform="translate(-277.56 -392.44)"/><polygon points="8.69 44.54 8.69 44.55 8.69 44.55 8.69 44.55 8.69 44.55 8.69 44.55 8.69 44.55 8.69 44.54 8.69 44.54 8.69 44.54"/><polygon points="8.45 45.1 8.45 45.1 8.45 45.11 8.45 45.1"/><path d="M286,437.39l.06.14.24-.54C286.18,437.06,286.16,437,286,437.39Z" transform="translate(-277.56 -392.44)"/><path d="M289.54,426.12c.07-.29.14-.56.15-.63a.34.34,0,0,0-.05-.21l0,.16Z" transform="translate(-277.56 -392.44)"/><path d="M287.6,398.9l-.06-.1-.46-.55,0,.14.11.16Z" transform="translate(-277.56 -392.44)"/><path d="M285.2,447.18l.49-.8,0-.08-.27.32Z" transform="translate(-277.56 -392.44)"/><path d="M283.68,401.15l-.41-.52s0,0-.09,0c.21.25.36.41.51.58Z" transform="translate(-277.56 -392.44)"/><polygon points="15.33 14.1 15.43 14.3 15.4 13.98 15.3 13.79 15.33 14.1"/><path d="M285,440.46s0,.12,0,.1a3,3,0,0,0,.34-.69C285.15,440.15,285.06,440.3,285,440.46Z" transform="translate(-277.56 -392.44)"/><path d="M288.57,429.62l.14-.11C288.75,429.16,288.75,429.16,288.57,429.62Z" transform="translate(-277.56 -392.44)"/><path d="M287.75,443s.07-.07.1-.13c.14-.25.15-.32.14-.37s0,0,0,0l-.07.12C287.78,442.89,287.72,443,287.75,443Z" transform="translate(-277.56 -392.44)"/><path d="M289.35,414.46l-.17-.49v.11C289.28,414.49,289.28,414.49,289.35,414.46Z" transform="translate(-277.56 -392.44)"/><path d="M294.57,410.05c.17.82.17.81.28,1Z" transform="translate(-277.56 -392.44)"/><path d="M284,448.22c-.19.34-.18.4-.13.41C284.08,448.27,284.13,448.12,284,448.22Z" transform="translate(-277.56 -392.44)"/><path d="M288.21,409l-.25-.34C288.19,409.16,288.24,409.22,288.21,409Z" transform="translate(-277.56 -392.44)"/><path d="M284.36,402.57l.29.4A.79.79,0,0,0,284.36,402.57Z" transform="translate(-277.56 -392.44)"/><path d="M295.75,422.41a2.93,2.93,0,0,0,.07-.86C295.77,422,295.78,422,295.75,422.41Z" transform="translate(-277.56 -392.44)"/><path d="M287.93,443.13a4.15,4.15,0,0,0-.42.8Z" transform="translate(-277.56 -392.44)"/><polygon points="6.65 50.05 6.74 49.9 6.77 49.73 6.65 49.94 6.65 50.05"/><polygon points="6.58 55.32 6.75 55.1 6.83 54.91 6.64 55.18 6.58 55.32"/><path d="M280.72,397c-.12,0,0,.07.3.33Z" transform="translate(-277.56 -392.44)"/><path d="M283.44,446.27c-.18.28-.16.31-.17.38Z" transform="translate(-277.56 -392.44)"/><path d="M285.23,443a.89.89,0,0,0-.13.17c0,.06,0,.12,0,.11a.62.62,0,0,0,.09-.12A1.27,1.27,0,0,0,285.23,443Z" transform="translate(-277.56 -392.44)"/><path d="M288.81,429.38a3.21,3.21,0,0,0,.26-.71A3.65,3.65,0,0,0,288.81,429.38Z" transform="translate(-277.56 -392.44)"/><path d="M282.57,399.81l-.11-.06.1.13a.34.34,0,0,0,.11.05Z" transform="translate(-277.56 -392.44)"/><polygon points="8 45.93 7.81 46.3 7.85 46.29 8.02 45.92 8 45.93"/><path d="M285.1,446.51l0,.27C285.22,446.44,285.16,446.47,285.1,446.51Z" transform="translate(-277.56 -392.44)"/><polygon points="7.54 54.07 7.54 54.07 7.54 54.07 7.54 54.07 7.54 54.07 7.54 54.07 7.54 54.07 7.54 54.07 7.54 54.07 7.54 54.07"/><path d="M284.67,401.34l.16.12C284.6,401.16,284.6,401.16,284.67,401.34Z" transform="translate(-277.56 -392.44)"/><path d="M288.41,400l-.06-.13s-.1-.13-.11-.12,0,0,0,.11Z" transform="translate(-277.56 -392.44)"/><path d="M282.11,396.07,282,396l-.15,0C282.23,396.25,282.25,396.24,282.11,396.07Z" transform="translate(-277.56 -392.44)"/><path d="M285.49,446.15l-.18.32,0,0,.16-.31Z" transform="translate(-277.56 -392.44)"/><path d="M288.41,442.69l.1-.15a.79.79,0,0,0,.05-.13l-.1.12C288.44,442.61,288.4,442.7,288.41,442.69Z" transform="translate(-277.56 -392.44)"/><path d="M285.33,443.55l0,.05,0,.08,0,0Z" transform="translate(-277.56 -392.44)"/><path d="M284.4,445.35a1.89,1.89,0,0,0,.14-.19,1.12,1.12,0,0,0,0-.13l-.16.19C284.41,445.29,284.39,445.36,284.4,445.35Z" transform="translate(-277.56 -392.44)"/><path d="M284.12,398.58l0-.05-.1-.1,0,.07Z" transform="translate(-277.56 -392.44)"/><polygon points="28.47 46.19 28.46 46.18 28.46 46.17 28.47 46.19"/><polygon points="33.75 46.31 33.75 46.31 33.76 46.31 33.75 46.3 33.75 46.3 33.75 46.3 33.75 46.3 33.75 46.3 33.75 46.3 33.75 46.31 33.75 46.31"/><path d="M305,415.6h0v0Z" transform="translate(-277.56 -392.44)"/><path d="M312,442.34l-.23-.11.61.47c0-.06-.44-.48-.57-.67C311.33,441.74,311.9,442.25,312,442.34Z" transform="translate(-277.56 -392.44)"/><path d="M307.78,407.38c-.1.22-.07.2,0,.15.12-.27.28-.51.42-.76s.27-.49.42-.73l0,0a9.67,9.67,0,0,1-.61,1A3.45,3.45,0,0,0,307.78,407.38Z" transform="translate(-277.56 -392.44)"/><path d="M310.53,442.28l-.48-.4v.17C310.49,442.4,310.55,442.43,310.53,442.28Z" transform="translate(-277.56 -392.44)"/><path d="M310.92,442.52a1.45,1.45,0,0,0-.4-.45c-.42-.33,0,.06-.16,0Z" transform="translate(-277.56 -392.44)"/><path d="M312.36,395c-.05,0-.27.2-.6.56l.36-.3-.13.26C312.31,395.15,312.39,395,312.36,395Z" transform="translate(-277.56 -392.44)"/><path d="M315.51,395.62c.15-.23.14-.25-.42.2C315.09,395.91,315.41,395.64,315.51,395.62Z" transform="translate(-277.56 -392.44)"/><path d="M299.72,425.33v-.17c-.08-.46-.13-.77-.19-1.08A6.35,6.35,0,0,0,299.72,425.33Z" transform="translate(-277.56 -392.44)"/><path d="M300.09,427.29c0,.23.06.42.1.65s.08.27.15.52c0-.3-.09-.47-.11-.59A1.84,1.84,0,0,0,300.09,427.29Z" transform="translate(-277.56 -392.44)"/><path d="M306,438.61l-.4-.5c0,.1,0,.08.24.47Z" transform="translate(-277.56 -392.44)"/><polygon points="28.46 46.17 28.46 46.17 28.47 46.19 28.46 46.17"/><polygon points="28.06 45.66 28.06 45.66 28.06 45.66 28.06 45.66 28.07 45.68 28.07 45.67 28.07 45.67 28.06 45.67 28.06 45.66 28.06 45.66"/><path d="M300,426.34a.43.43,0,0,0-.12-.2l0,.18c.07.21.13.41.23.73C300,426.73,300,426.41,300,426.34Z" transform="translate(-277.56 -392.44)"/><path d="M310.54,402.42l.07-.07.36-.53-.12.06-.11.14Z" transform="translate(-277.56 -392.44)"/><path d="M314.06,441.55l.25.29.48.3-.65-.55Z" transform="translate(-277.56 -392.44)"/><path d="M307.28,399.29l.41-.55c0-.05,0-.05,0-.09-.2.28-.33.47-.45.67Z" transform="translate(-277.56 -392.44)"/><polygon points="29.46 16.89 29.52 16.74 29.33 16.9 29.26 17.07 29.46 16.89"/><path d="M307.91,440.33l.45.54s.1.08.08.05A3,3,0,0,0,307.91,440.33Z" transform="translate(-277.56 -392.44)"/><path d="M301.24,431l0-.19C301.08,430.45,301.08,430.45,301.24,431Z" transform="translate(-277.56 -392.44)"/><path d="M311.68,439.06s0-.08-.08-.12-.24-.21-.28-.22,0,0,0,0l.09.09C311.56,439,311.66,439.09,311.68,439.06Z" transform="translate(-277.56 -392.44)"/><path d="M299.44,413.54c0-.24,0-.42.05-.61l0,.12C299.36,413.55,299.37,413.55,299.44,413.54Z" transform="translate(-277.56 -392.44)"/><path d="M305.87,413c.07-.21.13-.42.23-.74C305.86,412.84,305.85,412.84,305.87,413Z" transform="translate(-277.56 -392.44)"/><path d="M315.6,443.33c.31.2.36.2.37.15C315.65,443.29,315.52,443.23,315.6,443.33Z" transform="translate(-277.56 -392.44)"/><path d="M301.94,407.45c.05-.18.07-.29.12-.46C301.8,407.56,301.79,407.64,301.94,407.45Z" transform="translate(-277.56 -392.44)"/><path d="M306.09,400.41l-.3.42A.94.94,0,0,0,306.09,400.41Z" transform="translate(-277.56 -392.44)"/><path d="M304.94,421.21a4.94,4.94,0,0,0,0,.69A2.43,2.43,0,0,0,304.94,421.21Z" transform="translate(-277.56 -392.44)"/><path d="M312.39,439.49l-.57-.57A3,3,0,0,0,312.39,439.49Z" transform="translate(-277.56 -392.44)"/><path d="M309.81,442.06l.18.18.1,0-.12-.12Z" transform="translate(-277.56 -392.44)"/><polygon points="37.26 50.5 37.5 50.7 37.62 50.76 37.43 50.59 37.26 50.5"/><path d="M310.77,395.84l.35-.34C311.15,395.38,311,395.49,310.77,395.84Z" transform="translate(-277.56 -392.44)"/><path d="M314,444l-.34-.21C313.91,444,313.94,444,314,444Z" transform="translate(-277.56 -392.44)"/><path d="M310.84,441.41s.06.08.12.17l.11,0a.5.5,0,0,0-.1-.11A.88.88,0,0,0,310.84,441.41Z" transform="translate(-277.56 -392.44)"/><path d="M301,429.8a3,3,0,0,0,.23.8A6.24,6.24,0,0,0,301,429.8Z" transform="translate(-277.56 -392.44)"/><path d="M308.3,397.85a.84.84,0,0,0,0,.12l.12-.13,0-.13Z" transform="translate(-277.56 -392.44)"/><polygon points="29.03 46.97 29.02 47 29.31 47.34 29.31 47.3 29.03 46.97"/><polygon points="36.59 49.74 36.59 49.73 36.58 49.73 36.58 49.73 36.58 49.73 36.58 49.73 36.58 49.73 36.59 49.74 36.59 49.74 36.59 49.74"/><path d="M314.15,442.17l.25.05C314.1,442,314.12,442.1,314.15,442.17Z" transform="translate(-277.56 -392.44)"/><path d="M307.36,400.31l-.06.19C307.52,400.18,307.51,400.18,307.36,400.31Z" transform="translate(-277.56 -392.44)"/><path d="M310,403.31s.08-.12.07-.13l-.08.06a.72.72,0,0,0-.09.16Z" transform="translate(-277.56 -392.44)"/><path d="M312,396.87a.55.55,0,0,0,.08-.1l0-.14C311.87,397,311.88,397,312,396.87Z" transform="translate(-277.56 -392.44)"/><path d="M313.88,441.76l.27.2v0l-.26-.19S313.87,441.75,313.88,441.76Z" transform="translate(-277.56 -392.44)"/><path d="M311.42,438.17l.07.12.11.1a.63.63,0,0,0-.09-.14Z" transform="translate(-277.56 -392.44)"/><path d="M311.41,441.45l0,.05.07.06,0-.05Z" transform="translate(-277.56 -392.44)"/><path d="M312.66,442.46l.14.18.12.06a1.07,1.07,0,0,0-.15-.17Z" transform="translate(-277.56 -392.44)"/><path d="M309.89,399.11l.05,0L310,399,310,399Z" transform="translate(-277.56 -392.44)"/><path d="M316.83,416a.3.3,0,0,1-.23.06l-.23,0,.17,0a.63.63,0,0,0,.11-.12l-.42.11.11.05-.47.07.35-.12h0l0-.12.55-.13v0l-.63.09a3.13,3.13,0,0,1-.53,0l.24-.06s-.13-.06-.41,0l-.67.09-.15,0-.54.09a1.33,1.33,0,0,1-.49,0c-.5.07-1,.11-1.47.17-.25.09,0,.09.1.12l-.88,0,.43-.16.58-.19c-.16,0-.62.1-.71,0l.37-.09.86-.06c0-.05.17-.07.34-.09s.32-.06.31-.13l-.14,0-.17,0c-.11-.08-.16-.08-.6,0l-.5.08a3.1,3.1,0,0,0-.66.11c-.46,0-.14-.08-.34-.11l-.12.1a3.32,3.32,0,0,1-.58.05c-.13,0-.13-.06-.19-.1-.46.07-.52.2-1.1.26a.94.94,0,0,1,.4-.12c.2,0,.26-.07.22-.12a3.22,3.22,0,0,1-.88.11c0-.09.33-.15.59-.2s.32-.1.17-.14l-.29,0a1.21,1.21,0,0,0-.19,0,3,3,0,0,0-1,.15,3.78,3.78,0,0,0-.45,0c-.37,0-.32,0-.27,0s-.05-.05-.11-.08l-.16.07c-.3,0-.6.07-.91.05H306a1.75,1.75,0,0,1-.58.06h-.26v0c-.06.06-.05-.28-.14-.07,0,0,0,.06,0,.08h-.09l.1-.08a2.12,2.12,0,0,1,.25-.69,4.44,4.44,0,0,0,.26-.82V414c-.09.2-.19.4-.27.59a2.09,2.09,0,0,1,.12-.46,1.91,1.91,0,0,0,.1-.33,3.86,3.86,0,0,1,.34-1c.06-.13.13-.34.2-.52a.74.74,0,0,1,0-.15l-.14.29c0-.16,0-.3.05-.46l.1-.09c.06-.35.05-.47-.06-.35l.13-.39.16.05c.12-.35.26-.64.4-1-.09,0-.26.53-.37.68l0-.35.23-.29c.1-.37-.06-.24.16-.77a4.73,4.73,0,0,1,.42-1l0,.23.22-.36c.1-.27.2-.52.3-.8,0-.1-.21.21,0-.22a3.37,3.37,0,0,0,.43-.76,6.37,6.37,0,0,1,.56-1.05l.3-.52-.24.09c.27-.38.37-.55.35-.63l.08-.11.23-.2.32-.48s-.34.37-.08-.05l.74-.9,0-.11c-.07.08-.14.12-.23.23s-.23.29-.35.44h0l.38-.56-.33.15a3.4,3.4,0,0,1,.46-.57l.53-.67c-.1,0-.1-.06.25-.5l.14,0,1.26-1.63a1.5,1.5,0,0,1,.11-.22,2.09,2.09,0,0,1,.46-.48,3.85,3.85,0,0,0,.69-.76c.18-.25.4-.5.62-.77l.37-.63-.4.35.83-1-.79.76c0-.12-.1,0-.56.49l.16-.28c.06-.11.15-.26.17-.32s-.07,0-.13,0a2.74,2.74,0,0,0-.22.23l.14,0-.38.48c-.05,0-.07,0-.14,0s-.26.06-.27,0l.08-.11c.21-.28.56-.65.5-.72s.24-.31.37-.47l.07-.05-.25.33.05,0c.39-.45.79-.89,1.19-1.28,0-.17,0-.23-.46.07.31-.33.58-.6.86-.88v-.11c-.33.22-.59.4-.87.61l-.31.34a5.46,5.46,0,0,0-.82.79,2.63,2.63,0,0,0-.35.26c-.29.29-.5.48-.53.41-.3.36-.46.64-.84,1.07a3.84,3.84,0,0,1,.23-.34l.26-.34a3.59,3.59,0,0,0-.61.74l-.11-.09-1,1.55a1.26,1.26,0,0,0-.08.18l-.3.35c-.15,0,0-.44-.47,0,0-.06,0-.15,0-.13a1.82,1.82,0,0,0-.26.2c.16-.2.34-.42.37-.48a3.82,3.82,0,0,1,.45-.59l.16,0,.23-.31a6.08,6.08,0,0,0,.82-1.41c0-.05,0,0-.09,0s-.17,0,.12-.42a.74.74,0,0,0-.13.12c-.14.16-.33.4-.3.3a2.09,2.09,0,0,1,.26-.41c.09-.12.22-.27.36-.44-.23.14-.46.3-.43.14s-.17.08,0-.22c0-.05,0-.08,0-.05-.23.17,0-.16-.06-.23s0-.06,0-.09l-.09.1c-.06.13-.13.25-.2.42a7.2,7.2,0,0,0-.95,1c-.35.47-.43.7-.83,1.21l-.16.06a2.32,2.32,0,0,1-.19.31c-.09.12-.21.24-.34.39s-.45.62-.38.66l-.3.29a4.09,4.09,0,0,1-.49.75v-.07h0l-.76.73c.14-.22.26-.39.37-.55-.11-.05-.1-.09.11-.49,0,0-.43.51-.13,0l.32-.31c-.11,0,.23-.52.37-.8a5.49,5.49,0,0,0-.56.81,4.12,4.12,0,0,1-.56.75c.36-.55.66-1,1-1.47-.31.34-.51.53-.59.51l0,0-.11.12.09,0c-.08.16-.37.49-.36.56l-.26.33.14-.32a7.43,7.43,0,0,1-.62.82l0-.16-.69.81a9.09,9.09,0,0,1-.5.92l.28-.6-.48.65V403c-.45.67-.61.87-.66.76a5.32,5.32,0,0,1-.64,1c-.11.31-.21.6-.35.94s-.35,1-.6,1.48a6.16,6.16,0,0,0-.37.93l-.33.7-.09,0,.3-.93a4.3,4.3,0,0,0-.45,1.06c-.07.28-.2.64-.25.61s-.16.33-.25.51c.21-.66,0-.33.12-.74a3.94,3.94,0,0,0-.23,1c-.35,1.19-.34,1.19-.5,1.23a3.57,3.57,0,0,0-.18,1.05,2.43,2.43,0,0,1-.05.31,1,1,0,0,1-.09.23,1.81,1.81,0,0,0-.17.39c-.1.38-.2.84-.31,1.32.05.08.13,0,.15.41h-.09l0,.24s0,0,0-.06a8.15,8.15,0,0,0-1.22-.13l-.12.07-.48-.07c.18.08.56.13.69.2l.28,0,.46,0,.32,0,0,0h-.42l-.2.07-.22,0-.18,0-.16.12-.4,0-.33,0s0,0,0,0a2.6,2.6,0,0,1,.28,0c.19,0,.29-.05.21-.09a1.75,1.75,0,0,0-.5-.05l-.28,0-.77-.05.08.08h-.4a1.4,1.4,0,0,0-.4-.07s0,0,0-.07l.39.06-.16-.08h0l.41,0h0l-.23-.05c-.13,0-.27,0-.22,0l-.16,0v0l.19,0-.2,0c0-.25-.06-.46-.09-.71,0,.1-.15-.33-.15,0s.05.46.07.71h0l0-.19c-.05-.29,0-.07-.05,0a2.47,2.47,0,0,1,0-.36.5.5,0,0,1,.09-.18,5,5,0,0,1,0-.94,4.16,4.16,0,0,0-.13-1.08l0-.14c0,.28,0,.56,0,.81a4.86,4.86,0,0,1-.11-.59,4.2,4.2,0,0,0-.08-.43c-.15-.59-.22-1-.29-1.37,0-.18-.1-.46-.16-.7l-.06-.19.06.42a5.23,5.23,0,0,0-.26-.53v-.17c-.2-.42-.29-.53-.29-.33-.08-.24-.14-.39-.18-.5l.16-.06c-.16-.45-.32-.85-.49-1.28-.06.07.25.71.28.95l-.23-.37-.09-.46c-.24-.43-.22-.19-.53-.84a9.33,9.33,0,0,1-.66-1.23l.19.21-.21-.48c-.2-.3-.39-.58-.6-.87-.09-.08.1.35-.23-.12a4.52,4.52,0,0,0-.53-.91c-.27-.33-.54-.76-.82-1.17-.15-.22-.3-.42-.41-.56v.28c-.28-.46-.43-.63-.5-.65l-.09-.13-.13-.32-.38-.53s.27.5-.07.07l-.71-1.1-.09-.09a2.38,2.38,0,0,0,.16.32c.1.16.24.35.35.53h0l-.46-.59.06.38a7.53,7.53,0,0,1-.46-.67c-.15-.23-.33-.47-.56-.77,0,.11-.08.08-.46-.41l0-.16c-.52-.65-1.06-1.24-1.53-1.74a1,1,0,0,1-.22-.16,3.8,3.8,0,0,1-.5-.58,4,4,0,0,0-.86-.87c-.3-.22-.61-.49-1-.74s-.52-.27-.82-.4c.14.11.32.25.51.42-.21-.15-.42-.27-.64-.4a8.53,8.53,0,0,0-.77-.43c.51.31.81.56,1.13.79-.15,0,0,.11.65.62l-.34-.18-.38-.19c-.06,0,0,.08,0,.14a3.42,3.42,0,0,0,.29.24l-.06-.15c.23.15.43.3.59.42s0,.08,0,.16.08.27,0,.28l-.13-.1c-.31-.24-.77-.6-.84-.54l-.22-.13-.37-.22-.07-.07.41.22,0,0a13.17,13.17,0,0,0-1.78-1c-.19,0-.21.09.27.44l-.66-.31-.64-.24-.11,0c.39.23.7.4,1,.63a4.58,4.58,0,0,1,.46.22l1,.7c.13.12.19.21.33.34.35.28.55.51.47.53a9.6,9.6,0,0,1,1.11.93c-.15-.13-.25-.19-.34-.27l-.35-.29a5.43,5.43,0,0,0,.75.69l-.1.1c.54.44,1,.89,1.45,1.31a.47.47,0,0,0,.16.12l.3.38c0,.15-.43-.12-.07.48-.06,0-.14-.07-.13,0a2,2,0,0,0,.15.31,4.69,4.69,0,0,0-.41-.48c-.2-.17-.34-.4-.51-.57v-.16l-.27-.29a5.24,5.24,0,0,0-1.34-1c-.05,0,0,.05,0,.09.09.21,0,.17-.42-.13a1.27,1.27,0,0,0,.11.13c.16.15.38.36.28.32a3.65,3.65,0,0,1-.39-.29c-.12-.09-.25-.23-.42-.35.14.22.28.45.12.42s.08.17-.21,0c0,0-.07,0,0,0,.14.23-.16,0-.24.07s-.05,0-.08,0l.09.09c.13.05.24.12.39.19.26.31.47.6.84,1a11.55,11.55,0,0,1,1,1l0,.17a3,3,0,0,1,.26.24,2.91,2.91,0,0,1,.29.41c.09,0,.49.58.55.52l.2.36a3.85,3.85,0,0,1,.58.68l-.08,0h0c.15.3.29.61.44.94l-.4-.52c-.07.09-.11.06-.42-.25,0,0,.35.56,0,.14-.07-.14-.14-.26-.2-.39-.05.1-.42-.36-.65-.55a7.58,7.58,0,0,0,.6.73,3,3,0,0,1,.53.74c-.39-.5-.72-.9-1.08-1.33.24.38.35.62.31.68s.05.09.11.19v-.1c.12.13.34.5.42.51l.22.34-.25-.23a5.62,5.62,0,0,1,.54.83l-.13-.09c.17.31.31.58.49.9s.27.21.61.77l-.42-.46.37.65.15,0c.38.64.44.87.33.87a3.8,3.8,0,0,1,.48.94c.18.23.35.44.54.71a7.52,7.52,0,0,1,.72,1.23c.16.39.29.59.38.78s.15.44.21.64l-.1,0c-.12-.25-.24-.5-.38-.75a3.42,3.42,0,0,0,.35.92c.12.22.21.53.16.54s.06.3.09.47c-.21-.55-.17-.22-.32-.54a2.91,2.91,0,0,0,.35.75c.31,1,.3,1,.19,1.09a3.19,3.19,0,0,0,.28.84,1.2,1.2,0,0,1,.09.25.52.52,0,0,1,0,.21,3.57,3.57,0,0,0,0,.37.37.37,0,0,1,0,.11l-.6,0c-.07,0,.19.13-.16.11a1.77,1.77,0,0,0-.64-.12,4.93,4.93,0,0,1-.88-.13l-.43-.06.12.18c-.33-.09-.48-.1-.53-.06l-.1,0-.19-.12-.41-.07s.34.14,0,.09-.53-.17-.8-.25h-.08a1,1,0,0,0,.21.11l.38.12v0l-.47-.09.17.23a2.56,2.56,0,0,1-.49-.16l-.58-.16c0,.08,0,.12-.39,0l-.06-.11c-.51-.1-1-.23-1.38-.34a1,1,0,0,1-.17,0,1,1,0,0,1-.43-.18,1.71,1.71,0,0,0-.68-.24l-.69-.18-.54,0,.35.18L279,413l.75.31c-.09,0,0,.09.47.26h-.5s0,.06.05.11l.21.08-.06-.11.43.11s0,.07,0,.11.1.19,0,.25l-.09,0c-.25-.05-.58-.18-.62-.1s-.27-.06-.42-.08l-.06,0,.3.05,0,0-1.21-.36c-.13.07-.15.15.18.34l-.87-.22-.08.07.68.36.32.08a3.45,3.45,0,0,0,.75.3,1.24,1.24,0,0,0,.27.17c.27.12.45.22.4.27a8.94,8.94,0,0,1,.93.23l-.29,0-.29-.07a2,2,0,0,0,.65.19l0,.13,1.29.22a.53.53,0,0,0,.14,0l.31.1c0,.13-.31.18.12.39,0,0-.11,0-.09.07s.12.08.2.14a3.16,3.16,0,0,0-.42-.1A2.11,2.11,0,0,1,282,416l0-.13-.26-.07a3.42,3.42,0,0,0-1.16-.08s0,0,0,.08,0,.16-.32.09l.11.06c.15,0,.35.1.27.12a1.77,1.77,0,0,1-.33,0l-.39-.1c.15.13.31.25.19.3s.09.11-.16.06c-.05,0-.06,0,0,0s-.11.11-.16.17l-.06,0,.09,0,.34,0a4.48,4.48,0,0,0,.87.39c.4.09.59.06,1,.18l.08.11a2.28,2.28,0,0,1,.26,0l.34.12c.06,0,.54.1.55,0l.26.13a1.9,1.9,0,0,1,.63.09l-.05,0h0l.66.35-.45-.08c0,.11,0,.12-.36.12,0,0,.45.15.05.1l-.28-.14c0,.1-.41,0-.63,0a2.83,2.83,0,0,0,.67.13,2.05,2.05,0,0,1,.64.16l-1.22-.21c.3.11.47.21.47.28l.16.06,0-.07c.13,0,.42.11.47.07l.28.08-.25,0a3.78,3.78,0,0,1,.68.18l-.12,0,.69.26a3.29,3.29,0,0,1,.71.07h-.45l.52.17.11-.08c.52.15.67.25.61.32a2.42,2.42,0,0,1,.75.21h.68a5.11,5.11,0,0,1,1.06.13,3,3,0,0,0,.61.08c0,.06,0,.13,0,.2H290l.1,0c0,.15,0,.29-.07.3a.34.34,0,0,0-.15.07c0,.49,0,.94,0,1.39,0,0,0,0,0,0l-.06.62A1.14,1.14,0,0,1,290,422l-.13,1c.1-.44.12-.31.13-.05s0,.12.08-.17a1,1,0,0,1,.07-.29,1.18,1.18,0,0,1,0,.3,7.05,7.05,0,0,1-.07.71c0-.11,0-.22,0-.33a2.06,2.06,0,0,0,0,.83c0,.17-.08.36-.12.5a2.23,2.23,0,0,0-.16.63c0,.38.07,0,.09.09-.08.4-.18.78-.27,1.19,0,.07,0,.13,0,.18a3.25,3.25,0,0,1-.36,1l0-.38-.26.8c-.06.36.08.22-.07.88l.26-.85h0c-.09.39-.18.78-.28,1.18l.3-.32a5.72,5.72,0,0,0-.17.59c.08-.17.15-.34.22-.53,0,.19-.07.33-.14.63.25-.73.39-1.35.57-1.74a2.48,2.48,0,0,1-.11.86l0-.06a12.39,12.39,0,0,1-.51,1.62c0-.2.09-.39.14-.61a2.88,2.88,0,0,0-.27.78,6.82,6.82,0,0,1-.29.91c-.19.47-.37,1-.59,1.48.05-.17.08-.31.1-.4-.19.44-.37.88-.55,1.32a2.68,2.68,0,0,0-.39.9c0,.14-.1.29-.14.39-.21.36-.4.69-.63,1l.12.06c-.18.38-.17.25-.22.3l-.1.17,0,.23c.13-.18.3-.52.32-.45-.11.24-.22.44-.32.65a1.08,1.08,0,0,1-.24.56c-.16.36-.33.73-.56,1.22l.37-.62.07.1-.26.47c0,.14,0,.27-.06.43.22-.46.25-.68.43-1l-.25.88.35-.72a3,3,0,0,1-.47,1c.05.09-.19.48-.34.75a7.22,7.22,0,0,0-.4.83l.54-.88c-.05.15-.1.29-.16.44l-.11.14c0,.15-.08.28-.14.46l-.25.34c-.14.3-.23.49-.32.7s.27-.22.12.2h0c0,.12-.05.24.09.07s.29-.31.11.15l.3-.61,0,0-.64,1.48a1.68,1.68,0,0,1,.28-.27c.06,0,0,.1.06.16.24-.41.12-.42.36-.79v.24l.08-.13.16-.52a1.07,1.07,0,0,0,.25-.23c.1-.14.25-.39.4-.63a2.59,2.59,0,0,1-.24.59c-.17.32-.09.35-.31.75.16-.24,0,.14,0,.14l.45-.83-.28.66c.1,0,.2-.09.24-.05a1.27,1.27,0,0,1-.14.42c-.17.34-.36.69-.58,1.09s-.36.93-.5,1.36l.67-1,.13.07q-.09.22-.21.48l.14-.17-.35.83.08,0a4.85,4.85,0,0,0-.44.82l.12-.16c.28-.44.28-.44.14,0l-.1.27c-.07.2,0,.16.15-.14l.23-.35c-.18.36-.31.62-.42.87.05,0,.15-.17.25-.37a.68.68,0,0,1,.16-.32,2.11,2.11,0,0,1,.22-.26c0,.08-.12.22-.12.23a.74.74,0,0,0,0,.21l.29-.58-.13.1c.09-.17.19-.33.36-.62l-.22.51h0v0h0l.11.06-.39.75,0,0c.16-.28.33-.59.48-.82s.31-.43.46-.66l-.15.34c.06,0,.15-.12.35-.49l.5-.91.16-.16.39-.74a3.14,3.14,0,0,1,.4-.63c.37-.69.74-1.39,1-2,.12-.39,0-.1-.17.05l.65-1.19c-.08.23-.14.45-.21.67l-.3.88c.15-.18.41-.88.54-.95-.09.21-.17.4-.22.54l-.64,1.18s-.08.26-.2.5c-.23.45-.23.45-.16.48l.1-.19.11-.25c.16-.08.2-.15.5-.78.11-.24.22-.5.33-.71a6.21,6.21,0,0,0,.42-.95c.33-.65.18-.14.36-.39v-.23c.14-.28.3-.65.39-.81s.15-.15.23-.22c.27-.67.2-.84.55-1.67a2,2,0,0,1-.17.62c-.11.29-.13.41-.05.37a10.58,10.58,0,0,1,.51-1.3c.07.07-.09.54-.23.94s-.14.5,0,.32.13-.3.19-.42.11-.17.15-.27a7.73,7.73,0,0,0,.55-1.51c.12-.25.23-.47.3-.66.2-.55.2-.46.22-.37s.06-.06.13-.12,0-.25,0-.27c.19-.46.3-.94.49-1.4a2,2,0,0,0,.09-.3,7.63,7.63,0,0,1,.26-.9,7.78,7.78,0,0,1,.33-.87c.12-.24.25-.56.37-.82.2-.42.37-1.19.56-1.75a4,4,0,0,0,.07-.44c0-.08,0,0-.06,0,.07-.28.13-.54.2-.81a5,5,0,0,0,.09-.51c0-.08,0-.19,0-.16s-.07.29-.11.45,0,.25-.08.39l0-.09a3.77,3.77,0,0,0-.2,1.4c-.06.17-.11.33-.18.52,0-.3.07-.54.1-.73l-.23.66a6.58,6.58,0,0,0,.24-1.26l-.16.46h0l0-.32a4.77,4.77,0,0,0,.36-1.76,4.09,4.09,0,0,0,.12-.41,5.83,5.83,0,0,1,.2-1c0-.41.05-.84.1-1.26a10.75,10.75,0,0,0,.1-1.21c.1.07.23-.58.33-.49,0-.07,0-.13,0-.2h0s0-.08,0-.12l.63.1-.13,0a2.06,2.06,0,0,0,.77,0l-.09.06a3.37,3.37,0,0,1,.46.09,1.15,1.15,0,0,0,.52,0c0,.06.52.07.52.14l0,.15.29,0c0,.31.08.6.12.89,0,0,0,0,0,0,0,.24.05.48.08.72,0-.52,0-.55.09-.7,0,.35,0,.61.08,1.13,0-.52,0-.37.11-.08s.06.12,0-.21a1.69,1.69,0,0,1,0-.34,1.28,1.28,0,0,1,.08.33c0,.24.07.5.11.8l-.13-.36a2.14,2.14,0,0,0,.22.92c0,.19,0,.41,0,.57a2.44,2.44,0,0,0,.08.73c.11.41.06-.05.12.06.08.45.15.89.25,1.34l.13.17a4,4,0,0,1,.18,1.17l-.18-.39c.07.36.14.65.21.92s.2.17.45.88l-.27-.95h0c.15.42.28.84.46,1.26,0-.14,0-.3,0-.47a5.29,5.29,0,0,0,.24.63c0-.2-.1-.39-.16-.6l.29.64a10.54,10.54,0,0,1-.55-1.91,3.4,3.4,0,0,1,.38.85l-.06,0c.31.94.51,1.42.58,1.74l-.28-.62a3.22,3.22,0,0,0,.29.84,9.34,9.34,0,0,1,.42.95c.18.5.43,1,.68,1.56l-.24-.37c.21.47.44.93.67,1.38a2.51,2.51,0,0,0,.51.92l.25.37.27.6.3.59.11-.08c.25.38.13.29.15.37l.11.19.19.15c-.1-.22-.31-.56-.24-.55.15.24.28.45.42.65a1.15,1.15,0,0,1,.4.51l.4.52.5.58-.44-.62.13,0,.33.45.38.25a10.73,10.73,0,0,1-.74-.83l.71.62-.51-.64c.16.1.3.26.76.9.09,0,.38.37.58.6a5.91,5.91,0,0,0,.66.71l-.65-.85.36.31.09.17.4.29c.12.17.2.28.24.35l.59.53c.07,0-.13-.33.23-.06h0c.11.05.22.11.09-.07s-.22-.37.18-.07l-.5-.46,0,0c.39.35.81.68,1.25,1a2.58,2.58,0,0,1-.19-.34c0-.06.11,0,.17,0-.33-.34-.38-.21-.66-.55l.23.08-.11-.11-.44-.31a.89.89,0,0,0-.14-.3c-.09-.14-.3-.35-.46-.58a4.26,4.26,0,0,1,.47.41c.25.26.3.2.61.52-.18-.22.12.05.14,0l-.64-.66.53.46c0-.1,0-.22,0-.25a1.26,1.26,0,0,1,.34.26c.27.24.56.5.87.8s.81.51,1.19.72l-.8-.81.09-.11.4.28-.12-.16.7.47.06-.07a2.89,2.89,0,0,0,.69.52l-.13-.12c-.37-.33-.37-.33,0-.15l.24.13c.18.09.15.05-.1-.16l-.3-.26.75.5c0-.06-.13-.17-.31-.29a.52.52,0,0,1-.27-.18,2.19,2.19,0,0,1-.2-.25l.19.16.2,0-.48-.36.07.14c-.14-.11-.27-.23-.5-.43l.42.28h0l.07-.1a6.74,6.74,0,0,0,.63.46h0a7.75,7.75,0,0,1-.66-.57c-.19-.19-.32-.34-.49-.53l.27.2c0-.07-.08-.16-.37-.4l-.67-.65-.1-.18c-.21-.19-.37-.36-.53-.52a1.8,1.8,0,0,1-.42-.52c-.46-.53-.94-1.05-1.32-1.54-.27-.24-.11,0,0,.16-.24-.32-.48-.64-.7-1l.46.43.6.55c-.08-.19-.55-.65-.55-.78l.36.37c.25.33.46.64.72.93,0,0,.19.14.35.32s.3.32.35.27a.86.86,0,0,1-.13-.14l-.17-.17c0-.16-.05-.22-.47-.66-.16-.17-.32-.35-.45-.52a6.69,6.69,0,0,0-.59-.68c-.36-.52,0-.2-.14-.45l-.18-.09a4.48,4.48,0,0,1-.43-.65c-.08-.15,0-.18-.05-.27a11,11,0,0,1-.95-1.18,1.51,1.51,0,0,1,.36.42c.15.23.24.28.25.21a5.73,5.73,0,0,1-.65-1c.09,0,.34.33.55.62s.29.33.23.15l-.2-.34c0-.09-.06-.15-.1-.23a7.53,7.53,0,0,0-.73-1.15c-.09-.21-.16-.4-.24-.55-.23-.44-.17-.39-.1-.35s0-.08,0-.16l-.15-.17a9.33,9.33,0,0,1-.5-1.12,1.23,1.23,0,0,0-.11-.23,2.69,2.69,0,0,1-.31-.72,7.1,7.1,0,0,1-.2-.74c0-.22-.05-.49-.08-.73s-.08-.42-.13-.68-.11-.53-.15-.77a1.42,1.42,0,0,0-.11-.33c0-.06,0,0-.06,0,0-.23-.06-.44-.09-.66a4,4,0,0,0-.09-.4c0-.07-.06-.14-.06-.12s0,.24,0,.37l.06.31-.07-.05a1.85,1.85,0,0,0,.36,1.08l0,.45-.22-.56.07.56a5.66,5.66,0,0,0-.3-1,4,4,0,0,0,.05.4h0l-.12-.24a3.91,3.91,0,0,0-.27-1.44c0-.12,0-.28,0-.36a3.83,3.83,0,0,1-.07-.79,15.78,15.78,0,0,1-.23-2c.09,0,.14-.24.2-.36h0s0,0,.05,0a1.74,1.74,0,0,0,.47,0,1.07,1.07,0,0,0-.45,0v0l.25,0-.25-.16v0a1.79,1.79,0,0,0,.41,0l-.41-.05h0l.46-.05H305a.66.66,0,0,1,0-.14c.47,0,.75,0,.93,0l-.45.07a1.51,1.51,0,0,0,.6,0,3.12,3.12,0,0,1,.69,0l1.15,0-.29.06h1a1.48,1.48,0,0,0,.71-.05l.3-.06.89.09,0-.13c.31,0,.22,0,.27.05H311l.15-.09c-.16,0-.44,0-.41-.07l.52,0a.6.6,0,0,1,.44-.08l.94-.14h-.51l0-.12.38,0,.27-.17a6.24,6.24,0,0,1-.75.14l.62-.23-.56.06c.11-.08.25-.1.79-.12,0-.09.35-.1.56-.11a2.39,2.39,0,0,0,.65-.11h-.74l.32-.09.13,0,.31-.15.3,0,.52-.13c0-.07-.24-.1.06-.21h0c.08,0,.15-.09,0-.1s-.3-.07,0-.18l-.45.09h0l1.07-.3a1.83,1.83,0,0,1-.27-.08s0-.09.06-.14c-.33,0-.28.14-.58.14l.13-.12h-.1l-.35.15a.63.63,0,0,0-.23-.08,5.17,5.17,0,0,0-.52,0,1.38,1.38,0,0,1,.42-.13c.25,0,.23-.11.54-.15-.2,0,.08-.07.06-.1l-.63.09.47-.13c-.06-.07-.14-.11-.14-.17a.68.68,0,0,1,.29-.12c.25-.05.52-.08.82-.13a8.94,8.94,0,0,0,.92-.38l-.82,0,0-.14.33-.1h-.14l.57-.2,0-.09c.21-.05.49,0,.61-.14h-.13c-.35,0-.35,0-.09-.09l.18-.08c.13-.06.09-.07-.14,0l-.28,0,.62-.17C317.1,416,317,416,316.83,416Zm-3.93-18.43.17-.07-.06.08-.2.11Zm-.68,2,0,0L312,400l0,0Zm-1.47-.54.27-.23C310.73,399.14,310.7,399.15,310.75,399Zm.3-.08a5.9,5.9,0,0,1-.73.93c.09-.15.17-.29.24-.43l.12-.14C310.67,399.37,310.79,399.27,311.05,398.93Zm-1.23.88.15-.11-.24.35-.07.06Zm.65-.64v-.07c.21-.17.22-.17,0,.11a2.54,2.54,0,0,0-.28.45,1.53,1.53,0,0,1-.29.39l-.4.41A12.63,12.63,0,0,1,310.47,399.17Zm-.16-2.54.6-.58-.06.1-.36.37-.24.35Zm-3.87,3.8.29-.34C306.5,400.43,306.47,400.43,306.44,400.43Zm-8,15-.22,0,0,0,.23,0Zm-15.6-20.19-.08-.19.09.07.12.23Zm-1.11,2.54c-.19-.25-.34-.44-.5-.62l.1.06.32.37.32.26Zm2.54,4.1c.25.31.24.34.22.37Zm1-5.2,0,.05-.42-.42,0-.07Zm-.35,1.64-.39-.34-.13-.15c.08,0,0-.12-.3-.45A5.53,5.53,0,0,1,285,398.32Zm-1-.94c.33.36.34.4.2.31Zm.84,1.43-.08-.17.3.33,0,.08Zm-.52-.8h-.08c-.14-.25-.13-.26.12,0a2.45,2.45,0,0,0,.4.38,1.64,1.64,0,0,1,.34.4c.11.16.2.3.32.5C285,398.83,284.74,398.62,284.29,398Zm-3.48,16.07-.09-.11.07,0,.12.12Zm-.13,2.68-.53-.26h.09l.33.14.29.05Zm2-2.93,0,0-.36-.07,0,0Zm.28,1.45h-.35l-.12,0c.06,0,0-.08-.32-.16A3.63,3.63,0,0,1,282.93,415.28Zm-.89-.1c.3.08.32.11.21.13Zm1,.56-.11-.07.29,0,.06,0Zm-.59-.26-.05,0c-.16-.1-.16-.11.08-.07a1,1,0,0,0,.37,0,.78.78,0,0,1,.33.07l.37.16A7.1,7.1,0,0,1,282.42,415.48Zm1.47,2.83c.28.05.29.08.29.11Zm6,3.58c0-.3,0-.3.07-.27A2.68,2.68,0,0,0,289.88,421.89Zm-4.27,17.74a1.38,1.38,0,0,1,.42-.75Zm-.51,4.9a.68.68,0,0,1-.09.14s0-.05,0-.12l.13-.16C285.14,444.44,285.12,444.49,285.1,444.53Zm.42,1-.06.13-.06-.07Zm.09,0-.16.25,0-.1.15-.21Zm.51-4,.4-.68A2,2,0,0,1,286.12,441.56Zm.48-4.41c-.09.08-.09.08,0-.16v-.09l.07-.15-.07.25Zm2.84-7.35c-.11.11,0-.26.08-.56C289.61,429.14,289.61,429.13,289.44,429.8Zm.34,9.88-.06.1.09-.31.09-.14Zm6.2-24.06h-.41l0-.1Zm-.52-.14h0v0h0Zm-.18,0-.06-.09h.06Zm.31,5.5h0v-.07h.06l-.07.08Zm.19-.19h0Zm-.3-5.3h0a.22.22,0,0,1,0-.08h0A.2.2,0,0,1,295.48,415.45Zm.1-.12-.08,0h.07Zm-.13-.39.1.29h-.09Zm0,.44s0,.08,0,.12h-.07v-.12Zm-.15-.33a1,1,0,0,0,0,.17l-.07,0a.43.43,0,0,1,0-.12Zm-4.49,9.43,0,.19v0l0-.23Zm0-10.46v.07l-.08-.27v-.09Zm-.3-1.08a1.47,1.47,0,0,1,.08.25,1,1,0,0,1,0,.12,1.64,1.64,0,0,1-.1-.22C290.47,413,290.46,412.93,290.47,412.94Zm-.34-2a2,2,0,0,1,.19.33c.06.16.13.33.19.45a3.12,3.12,0,0,1,.1.36s0,0-.07-.08-.15-.4-.2-.52a.57.57,0,0,0-.15-.18c-.05-.17-.08-.3-.13-.45C290.09,410.85,290.11,410.89,290.13,410.9Zm.44,27,.22-.36C290.62,437.94,290.62,437.94,290.57,437.94Zm0,0a2.47,2.47,0,0,1-.38.56l.31-.72c-.05.29.13,0,.32-.41C290.74,437.56,290.66,437.75,290.57,437.94Zm.25-13.88v-.56l0-.09,0,.45Zm.11-1.13v0l0-.29v0Zm1,12.24c-.05.16-.11.31-.18.54l-.1.06.4-1,0,0Zm.76-1.66c.05-.25.16-.54.3-1l.05.21Zm.5-1.27.12-.15C293.19,432.47,293.17,432.47,293.21,432.24Zm.22-.32a7.82,7.82,0,0,1,.31-1v0C293.66,431.21,293.58,431.49,293.43,431.92Zm1.09-3-.13.21c.07-.29.12-.49.18-.68h0C294.55,428.62,294.54,428.77,294.52,429Zm-.18-.25c0-.14.06-.32.08-.39l.24-.64A4.89,4.89,0,0,1,294.34,428.7Zm1.4-7.56V421h0A.34.34,0,0,1,295.74,421.14Zm0-.13h0v-.13h0A.49.49,0,0,0,295.76,421Zm.32-5.22H296l.06,0h.13ZM297.2,421c-.32,0-.23-.07-.11-.09C297.38,420.93,297.31,421,297.2,421Zm16.16,20.78,0-.12.11.08Zm0-.2.19.18-.08,0-.17-.17Zm-1.07.32.11.11-.11-.05-.13-.15Zm-2.51-1.71-.49-.6A2,2,0,0,1,309.78,440.17Zm-.12-3.91,0,.08-.2-.19-.07-.13Zm-1-1.36-.16-.33C308.7,434.86,308.71,434.87,308.68,434.9Zm0,0a1.84,1.84,0,0,1,.23.55l-.4-.56c.21.16,0-.12-.13-.44Zm-1.42,4.33.53.71A1.55,1.55,0,0,1,307.26,439.24Zm0-7.06.22.35.25.41,0,.11-.46-.84Zm-.6-1.76c.08.26.15.45.23.67a4.11,4.11,0,0,1-.39-.77Zm-.17-.57c.12.32.1.34,0,.17Zm-.32-1c.08.23.15.46.29.82a3.4,3.4,0,0,1-.32-.83Zm-.36-1.7v.2c-.07-.24-.12-.4-.15-.56h0C305.69,426.93,305.73,427,305.8,427.18Zm0,10.64.14.06c0,.13,0,.13-.15-.07l-.08-.05-.09-.15Zm-.27-10.73c0-.12-.08-.27-.09-.32s0-.38-.06-.56A2.81,2.81,0,0,1,305.53,427.09Zm-6.08-11.52h0l0-.12h0Zm5.2,5c0-.14,0-.16.05-.13h0s0,.08,0,.12Zm-2.95-9c0-.18.1-.45.12-.58a.61.61,0,0,0,0-.25l.19-.48a.68.68,0,0,0,0,.12,1.64,1.64,0,0,1-.06.41c0,.17-.07.37-.09.5a3.18,3.18,0,0,1-.11.39S301.69,411.67,301.7,411.59Zm-.64,1c0-.07.07-.16.07-.15s0,.18,0,.28,0,.14,0,.13S301.05,412.74,301.06,412.62Zm-.14.81,0-.09c0,.11,0,.21,0,.32l0,.08C300.9,413.64,300.91,413.54,300.92,413.43Zm-1.34.53s0,0,0,.05a.63.63,0,0,1,0,.13s0,0,0,0S299.58,414,299.58,414Zm-.12,1.47h0v0Zm-.47.15.08.12C298.69,415.64,298.85,415.61,299,415.58Zm.09,6.74c0-.35,0-.35,0-.32Zm1.24,1,0-.31v0l0,.31Zm0,.6v-.11c0,.16.1.31.15.46l0,.22C300.47,424.26,300.41,424.07,300.36,423.88Zm.25,1.2,0-.25,0,.07c0,.07,0,.14,0,.21Zm1.13,5c0-.15,0-.15.29.53C302,430.74,301.87,430.35,301.74,430.05Zm3.09-9.59v.13h-.05v-.12Zm.33-.11c-.09-.05-.09-.05.4-.09C305.66,420.33,305.38,420.34,305.16,420.35Zm.11-4.52,0,0c.18,0,.36,0,.64,0A2,2,0,0,1,305.27,415.83Zm.9.06-.12-.06C306.3,415.83,306.31,415.85,306.17,415.89Zm.21.09.11-.12.53,0A3.64,3.64,0,0,1,306.38,416Zm1.51,0,0,0,.31-.05.35-.06.06.06C308.35,416,308.12,416,307.89,416Zm2.25,0-.27,0C310.13,415.93,310.13,415.93,310.14,416Zm-.06.14c.18-.1-.06-.1-.33-.11l.4,0h0a.88.88,0,0,1,.43.08Zm1,3.81-.06,0h-.11l.18-.05.08-.08C311.26,419.88,311.26,419.88,311.09,419.93Zm0-4,.23-.07h.08l-.2.07Zm1.29,3.56.6,0A.75.75,0,0,1,312.42,419.46Zm.9-1.46a1.16,1.16,0,0,1,.54,0C313.65,418,313.53,418,313.32,418Zm2.54-.85H316l-.07,0h-.15Zm.38-.86-.08-.06.09,0Zm0-.12h-.17l0,0,.2,0Z" transform="translate(-277.56 -392.44)"/><polygon points="34.09 27.72 34.09 27.72 34.08 27.72 34.09 27.72"/><polygon points="36.01 23.46 36.01 23.46 36.01 23.46 36.01 23.46 36 23.46 36 23.46 36 23.46 36 23.46 36.01 23.46 36.01 23.46 36.01 23.46"/><path d="M315.74,417.62c-.35.14.17.05.25.07l-.15.1.52-.12C316.34,417.59,315.9,417.66,315.74,417.62Z" transform="translate(-277.56 -392.44)"/><path d="M287.61,414.15a6.43,6.43,0,0,1,.88.19,1.24,1.24,0,0,0,.29.06c.18,0,.16,0,.11,0-.44-.08-.85-.15-1.26-.25Z" transform="translate(-277.56 -392.44)"/><path d="M315.39,418.72l-.42.1.11.1C315.44,418.82,315.48,418.8,315.39,418.72Z" transform="translate(-277.56 -392.44)"/><path d="M315.68,418.58a.64.64,0,0,0-.41,0c-.36.09,0,.08,0,.14Z" transform="translate(-277.56 -392.44)"/><path d="M279.55,415.83c-.32-.11-.43-.11-.44-.07s.19.13.52.25l-.29-.17Z" transform="translate(-277.56 -392.44)"/><path d="M278.78,412.79c-.22,0-.22,0,.26.25C279.11,413,278.82,412.86,278.78,412.79Z" transform="translate(-277.56 -392.44)"/><polygon points="33.65 27.79 33.65 27.79 33.65 27.79 33.65 27.79 33.66 27.79 33.66 27.79 33.66 27.79 33.66 27.79 33.65 27.79 33.65 27.79"/><path d="M311.58,420.28l.06-.12-.42.07C311.29,420.25,311.26,420.3,311.58,420.28Z" transform="translate(-277.56 -392.44)"/><polygon points="34.08 27.72 34.08 27.72 34.09 27.72 34.08 27.72"/><path d="M284.2,413.89l.12,0h.33l-.07,0-.44-.08Z" transform="translate(-277.56 -392.44)"/><path d="M316.48,415.61l-.05,0,.28,0,.39-.13Z" transform="translate(-277.56 -392.44)"/><path d="M282.74,418.09s0,0-.06.05l.57.09,0,0A4.57,4.57,0,0,0,282.74,418.09Z" transform="translate(-277.56 -392.44)"/><path d="M313.29,419.56l.48,0s.08,0,.06,0A1.41,1.41,0,0,0,313.29,419.56Z" transform="translate(-277.56 -392.44)"/><path d="M305.65,421.14l-.11-.1C305.29,421.11,305.29,421.11,305.65,421.14Z" transform="translate(-277.56 -392.44)"/><path d="M313.91,415.8s-.06,0-.11,0-.22.06-.24.09h.1C313.83,415.86,313.92,415.83,313.91,415.8Z" transform="translate(-277.56 -392.44)"/><path d="M318.16,415.85c.26-.06.28-.09.26-.14C318.16,415.78,318.07,415.82,318.16,415.85Z" transform="translate(-277.56 -392.44)"/><path d="M289.64,419.9l-.32,0C289.73,420,289.79,420,289.64,419.9Z" transform="translate(-277.56 -392.44)"/><path d="M284.24,418.74l.35.07A.45.45,0,0,0,284.24,418.74Z" transform="translate(-277.56 -392.44)"/><path d="M314.46,415.51l-.58.1A1.68,1.68,0,0,0,314.46,415.51Z" transform="translate(-277.56 -392.44)"/><polygon points="37.43 26.68 37.6 26.66 37.65 26.59 37.53 26.61 37.43 26.68"/><polygon points="40.01 23.64 40.23 23.63 40.33 23.59 40.14 23.59 40.01 23.64"/><path d="M280,416.72l-.3-.14C279.63,416.61,279.73,416.66,280,416.72Z" transform="translate(-277.56 -392.44)"/><path d="M317.79,417.38l-.27.08C317.75,417.44,317.75,417.41,317.79,417.38Z" transform="translate(-277.56 -392.44)"/><path d="M315,417.92l.15,0s.07-.05.06-.06h-.1Z" transform="translate(-277.56 -392.44)"/><path d="M296.65,415.25l.26.08H297l-.25-.08Z" transform="translate(-277.56 -392.44)"/><path d="M281.86,417.93l.12,0,.09,0s-.07,0-.11,0Z" transform="translate(-277.56 -392.44)"/><polygon points="35.03 27.63 34.74 27.67 34.76 27.69 35.05 27.65 35.03 27.63"/><path d="M316.83,416l.14-.14C316.73,416,316.78,416,316.83,416Z" transform="translate(-277.56 -392.44)"/><polygon points="39.27 23.57 39.27 23.57 39.27 23.57 39.26 23.57 39.27 23.57 39.27 23.57 39.27 23.57"/><path d="M283.9,417.66l.14,0C283.78,417.58,283.78,417.58,283.9,417.66Z" transform="translate(-277.56 -392.44)"/><path d="M285.47,414.1l-.08-.05s-.1,0-.1,0l.06,0Z" transform="translate(-277.56 -392.44)"/><polygon points="20.93 23.07 20.67 23.07 20.67 23.08 20.94 23.1 20.93 23.07"/><path d="M280.49,415.15l-.08,0-.11,0C280.62,415.25,280.63,415.23,280.49,415.15Z" transform="translate(-277.56 -392.44)"/><path d="M316.47,415.9l.24,0,0,0-.23.06Z" transform="translate(-277.56 -392.44)"/><path d="M313.25,415.48h.1l.11,0h-.12S313.24,415.47,313.25,415.48Z" transform="translate(-277.56 -392.44)"/><path d="M315.29,417.53l.06,0s0,0,0,0l-.07,0Z" transform="translate(-277.56 -392.44)"/><path d="M316.44,417.24l-.09,0,.17,0,.08-.05Z" transform="translate(-277.56 -392.44)"/><path d="M282.47,416l-.09,0,.05,0h.08Z" transform="translate(-277.56 -392.44)"/></svg>