<svg id="Camada_1" data-name="Camada 1" xmlns="http://www.w3.org/2000/svg" viewBox="0 0 51.95 46.33"><title>sagitario</title><polygon points="38.04 16.69 38.03 16.7 38.03 16.7 38.04 16.69"/><path d="M314.26,407c-.4.26-.4.26-.14,0l.18-.19c.13-.15.08-.13-.18.05l-.32.21.66-.57s-.18.08-.35.21a.58.58,0,0,1-.24.22,2.93,2.93,0,0,1-.28.12l.19-.14.07-.18c-.18.15-.32.26-.45.38l.15,0-.53.39.37-.35h0l-.07-.1.59-.49v0c-.23.17-.49.37-.7.51s-.41.24-.63.37l.25-.22c-.06,0-.17,0-.47.27l-.75.57-.2.07-.59.46a2.18,2.18,0,0,1-.57.36l-1.64,1.24c-.24.27,0,.11.17,0l-1,.69c.14-.16.28-.3.43-.46s.38-.4.57-.6c-.2.08-.67.55-.81.55l.39-.36,1-.69c0-.06.16-.19.35-.34.36-.28.36-.28.32-.34l-.16.12-.19.16c-.16,0-.22,0-.71.44-.18.15-.36.32-.54.45a5.46,5.46,0,0,0-.71.6c-.52.38-.2,0-.45.15l-.09.19c-.23.16-.5.39-.65.47s-.18.05-.27.07c-.49.42-.5.59-1.12,1.09a1.62,1.62,0,0,1,.39-.42c.21-.18.27-.26.19-.27a7.37,7.37,0,0,1-.95.79c0-.09.3-.39.57-.64s.32-.34.13-.26l-.32.25c-.09.06-.15.08-.23.14a6.48,6.48,0,0,0-1.08.92c-.19.13-.38.24-.52.35-.4.33-.36.26-.33.18s-.08,0-.17,0a1.46,1.46,0,0,1-.14.19c-.35.25-.64.57-1,.8l-.21.17a3.85,3.85,0,0,1-.62.53,5,5,0,0,1-.67.44l-.69.37c-.34.18-.87.59-1.3.87a1.72,1.72,0,0,0-.28.25c0,.05,0,0,0,0l-.58.41-.34.27c-.05,0-.1.13-.08.12a2.85,2.85,0,0,0,.33-.23l.27-.2,0,.09a2.52,2.52,0,0,0,.88-.82l.41-.25-.45.45.51-.32a7.09,7.09,0,0,0-.84.72l.37-.22h0l-.18.21a4.36,4.36,0,0,0-1.22.93c-.11.07-.26.14-.32.19a3.86,3.86,0,0,1-.66.46l-.23-.21c0,.08-.26-.1-.14.08l.25.23-.05.05c-.08-.06-.06,0,0,0h0c-.07-.06-.15-.13-.15-.15a.46.46,0,0,1,0-.16,2.12,2.12,0,0,1-.44-.53,2.17,2.17,0,0,0-.55-.57l-.1-.05a5.13,5.13,0,0,1,.38.46,3.31,3.31,0,0,1-.33-.28,1.07,1.07,0,0,0-.24-.21,4.61,4.61,0,0,1-.77-.66,2.78,2.78,0,0,0-.39-.33s-.06,0-.12-.07l.22.2-.4-.15-.06-.12c-.3-.13-.41-.14-.33,0l-.32-.21.09-.14c-.29-.2-.54-.37-.83-.54,0,.08.45.31.56.45l-.31-.1-.23-.24c-.33-.14-.23,0-.69-.23a4.78,4.78,0,0,1-.92-.43l.21,0-.33-.2-.75-.24c-.09,0,.2.19-.2.06a2,2,0,0,0-.73-.31,7.05,7.05,0,0,1-1-.32,4.07,4.07,0,0,0-.51-.14l.13.2c-.39-.15-.56-.16-.62-.13l-.12,0-.22-.15-.49-.12s.4.18,0,.09a9.7,9.7,0,0,0-1-.28h-.09l.25.11c.13,0,.31.07.46.12v0c-.16,0-.33-.06-.56-.1l.21.23a3.14,3.14,0,0,1-.59-.15l-.69-.16c.05.09,0,.1-.46,0l-.08-.09c-.62-.07-1.19-.16-1.68-.18a.74.74,0,0,1-.19,0,1.36,1.36,0,0,1-.54-.08,2.3,2.3,0,0,0-.86-.09l-.84,0-.62.16.45.05a10.91,10.91,0,0,0-1.11.12,9.45,9.45,0,0,1,.95,0c-.1.05.06.08.62.09l-.26.07a1.44,1.44,0,0,0-.29.09s0,.06.08.08h.26l-.1-.08.51,0s0,.07.08.1.17.15.12.22l-.12,0c-.27,0-.68,0-.69.1a3.45,3.45,0,0,1-.48.06l-.07,0,.33-.05,0,0c-.48,0-1,.09-1.42.14-.1.11-.08.2.34.24l-1,.16-.05.09.84.05.36-.06c.4,0,.4,0,.87,0a1.86,1.86,0,0,0,.34.07c.31,0,.52.06.49.12.18,0,.33,0,.49,0a3.64,3.64,0,0,1,.54,0h-.63a2.88,2.88,0,0,0,.72,0v.13a13.42,13.42,0,0,1,1.4,0,.57.57,0,0,0,.15,0l.33.06c.05.13-.29.22.18.39,0,0-.1.05-.08.08a1.72,1.72,0,0,0,.22.1,4.4,4.4,0,0,0-.44-.05,2.41,2.41,0,0,1-.54-.05l-.07-.13-.28,0a3.13,3.13,0,0,0-1.19.18s0,0,0,.06.07.15-.29.17l.12,0c.16,0,.37,0,.3.06a1.35,1.35,0,0,1-.34,0,2.8,2.8,0,0,0-.4,0c.18.07.36.16.26.24s.12.07-.13.1c-.05,0-.05,0,0,0s-.07.14-.1.21l-.05.05h.09l.31-.11a4.18,4.18,0,0,0,.91.18,5.67,5.67,0,0,1,1,0l.09.1a1.07,1.07,0,0,1,.25,0,1.73,1.73,0,0,1,.35.08s.16,0,.28,0,.24,0,.24,0l.27.11a1.85,1.85,0,0,1,.61.06l-.05,0h0a5.61,5.61,0,0,1,.63.34l-.43-.09c0,.11,0,.12-.35.13,0,0,.43.13,0,.1l-.27-.12c0,.1-.38,0-.59.06a2.64,2.64,0,0,0,.63.1,1.52,1.52,0,0,1,.61.12l-1.15-.15c.28.1.44.19.44.26l.15.05,0-.07c.12,0,.39.09.44.05l.26.08a.93.93,0,0,0-.23,0,2,2,0,0,1,.62.2l-.11,0,.61.29c.23.07.25-.05.65.13l-.42-.05.46.21.1-.06c.46.2.58.32.51.38a1.55,1.55,0,0,1,.63.34c.2.05.38.08.59.15a4.75,4.75,0,0,1,.46.14,2.73,2.73,0,0,1,.45.23,3.54,3.54,0,0,0,.55.28c.15.11.27.18.38.28l-.05.09a5.45,5.45,0,0,0-.55-.25,1.81,1.81,0,0,0,.59.38c.15.08.34.21.31.25s.16.15.24.24c-.35-.21-.21,0-.43-.13a1.35,1.35,0,0,0,.53.24,2.54,2.54,0,0,1,.53.39.16.16,0,0,1,0,.18,1.56,1.56,0,0,0,.54.31,1,1,0,0,1,.17.09.47.47,0,0,1,.09.12s0,0,0,.05l-.11.06-.08.09.21-.12a.29.29,0,0,0,.08.14l0,0-.09.08-.27-.15.05.06.17.12-.45.37h.14c-.16.13-.29.25-.42.37a3.88,3.88,0,0,0-.47.32c-.18.15,0,.06,0,0a2.82,2.82,0,0,1-.25.17.54.54,0,0,1-.18,0,2.47,2.47,0,0,1-.67.39,3.41,3.41,0,0,0-.75.49L288,425l.6-.32a2.8,2.8,0,0,1-.39.3,1.68,1.68,0,0,0-.3.21,5.92,5.92,0,0,1-.94.66l-.48.32-.12.11.29-.17-.31.37-.14,0c-.27.27-.32.38-.16.33l-.34.27-.1-.13-.89.68c.07.05.51-.35.69-.42l-.23.28-.35.16c-.29.28-.09.23-.56.61a4.8,4.8,0,0,1-.88.76l.14-.19-.38.24-.63.63c-.05.09.29-.11-.06.23a3.62,3.62,0,0,0-.71.57c-.25.27-.59.54-.92.83s-.34.31-.46.41l.26,0c-.38.29-.52.43-.53.51l-.11.09-.28.13-.44.38s.43-.27.07.06l-.93.69-.07.09a2.14,2.14,0,0,0,.28-.16c.13-.09.29-.22.44-.34h0l-.5.45.35-.06a5,5,0,0,1-.57.44l-.65.51c.1,0,.08.09-.34.42h-.14l-1.51,1.28a.7.7,0,0,1-.14.18,1.64,1.64,0,0,1-.53.36,3.45,3.45,0,0,0-.8.61l-.75.65-.46.58.44-.3-1,.9.89-.67c-.05.12.11,0,.63-.39l-.2.25a2.47,2.47,0,0,0-.21.29c0,.05.06,0,.13,0l.25-.19h-.15c.17-.15.33-.29.45-.41s.07,0,.14,0,.26,0,.26.08l-.1.1c-.25.22-.65.53-.6.61s-.27.26-.42.41l-.07,0,.28-.29h0l-1.31,1.14c-.05.16,0,.22.46,0l-.9.83v.11l.89-.56.33-.3a8.7,8.7,0,0,0,.87-.66,3.47,3.47,0,0,0,.37-.21c.32-.23.56-.37.57-.29.34-.29.54-.53,1-.86-.13.13-.19.2-.28.28l-.3.27a3.92,3.92,0,0,0,.71-.58l.08.11,1.27-1.25c.07-.06.07-.1.11-.15l.35-.26c.14.05-.1.41.45.09,0,.05-.06.13,0,.13l.28-.14c-.19.16-.4.32-.44.37a3.24,3.24,0,0,1-.53.46h-.16l-.27.24a5.57,5.57,0,0,0-1,1.16s0,0,.09,0c.21-.06.16.05-.18.38l.14-.09c.16-.13.38-.31.34-.22a2.94,2.94,0,0,1-.32.33c-.1.1-.25.21-.4.35.24-.09.47-.19.43,0s.17,0-.08.2c0,0,0,.07,0,.05.24-.11,0,.16,0,.24s0,.05,0,.08l.1-.08.25-.35a8.66,8.66,0,0,0,1.05-.7c.41-.37.53-.57,1-1l.16,0a1.75,1.75,0,0,1,.23-.24c.11-.1.25-.18.4-.29s.53-.48.47-.53l.33-.2a3.5,3.5,0,0,1,.61-.58l0,.07h0l.85-.47-.45.41c.08.07.07.1-.2.42,0,0,.5-.36.12,0l-.35.21c.1,0-.31.41-.49.64a5.68,5.68,0,0,0,.67-.6,3,3,0,0,1,.66-.55l-1.19,1.1c.35-.24.57-.35.63-.32l.18-.12h-.09c.11-.13.44-.36.44-.43l.31-.23-.19.26a5,5,0,0,1,.73-.57l-.07.13.8-.52c.26-.21.17-.27.67-.65l-.39.44.58-.41,0-.15c.57-.42.78-.51.79-.41a3.73,3.73,0,0,1,.83-.58c.2-.22.38-.41.61-.64a10.85,10.85,0,0,1,1-.94,6.56,6.56,0,0,0,.67-.56l.56-.37.06.08-.63.57a3.05,3.05,0,0,0,.81-.59c.18-.18.44-.38.47-.34s.27-.15.43-.24c-.47.39-.17.24-.43.49a2.74,2.74,0,0,0,.61-.59c.84-.67.84-.67,1-.61a3.25,3.25,0,0,0,.67-.62,1.24,1.24,0,0,1,.2-.19l.19-.11a2.39,2.39,0,0,0,.33-.16c.28-.18.61-.42.95-.66,0-.1-.11-.09.14-.37l.06.07.36-.28c0-.08.17-.28.53-.6l-.91.66.48-.41-.36.16,1.34-.94-.11.12a2.53,2.53,0,0,0,.35-.29,2.42,2.42,0,0,1,.12.23c-.11-.29,0-.23.08-.1s.08,0,0-.14l-.06-.13,0,0a.63.63,0,0,1,.1.12c.09.11.17.24.27.39l-.19-.13c.2.37.24.28.37.42a2.73,2.73,0,0,1,.14.31.94.94,0,0,0,.17.41c.14.21,0-.05.11,0,.12.25.24.48.34.75l.12.07a1.41,1.41,0,0,1,.19.71,1.92,1.92,0,0,0-.16-.21l.16.55c.13.21.18.06.38.48-.06-.19-.14-.38-.2-.57h0c.12.25.24.49.35.75l.09-.32a2.09,2.09,0,0,0,.16.39l-.08-.38.19.39a9.61,9.61,0,0,1-.38-1.2,1.32,1.32,0,0,1,.33.51h-.06a5.85,5.85,0,0,1,.37,1.11l-.19-.39a1.61,1.61,0,0,0,.17.54,2.82,2.82,0,0,1,.21.62c.1.33.17.68.26,1.07l-.12-.26q.12.48.21,1a1.27,1.27,0,0,0,.14.66l.08.28c0,.3,0,.56,0,.86l.13,0c.05.29,0,.21,0,.27v.14l.11.13c0-.15,0-.42,0-.39l.06.5a.48.48,0,0,1,.09.41l.16.92,0-.5.12,0,0,.37.17.27a6.45,6.45,0,0,1-.15-.74c.07.19.15.37.25.6,0-.23-.06-.39-.08-.55.08.11.12.25.14.78.08,0,.09.35.11.56a3.28,3.28,0,0,0,.08.65c0-.26,0-.48,0-.73,0,.1.06.2.09.32l0,.12.13.32-.05.3.1.53c.06,0,.12-.23.21.07h0c0,.08.08.16.11,0s.09-.3.18,0l-.07-.48,0,0c.07.36.14.73.22,1.11a1,1,0,0,1,.1-.27s.09,0,.13.07c0-.34-.11-.29-.1-.6l.12.14v-.11l-.13-.37a.69.69,0,0,0,.09-.23c0-.13,0-.34,0-.54a1.5,1.5,0,0,1,.1.45c0,.26.11.24.13.56,0-.21,0,.09.08.08,0-.2,0-.38,0-.67l.1.5c.07-.05.12-.14.18-.13a.66.66,0,0,1,.09.31c0,.26.06.55.08.87s.18.7.28,1c0-.3,0-.59.06-.86h.14l.07.36,0-.15c0,.21.09.42.13.63h.09c0,.23,0,.52.06.66,0-.05,0-.09,0-.14,0-.38,0-.38.1-.08a1.46,1.46,0,0,0,.05.2c0,.15.06.11.06-.14v-.31c0,.29.07.5.09.69.05,0,0-.15,0-.32a.37.37,0,0,1,0-.25c0-.11,0-.17.06-.25a1.83,1.83,0,0,0,0,.19,1.13,1.13,0,0,0,.1.13c0-.19,0-.33-.05-.47l-.06.12c0-.14,0-.28,0-.52,0,.18.06.29.08.39h.12l.06.61h0c0-.23,0-.48,0-.69s0-.38.05-.58l0,.27c.05,0,.07-.13.05-.44s0-.52-.05-.75l.05-.16-.05-.6a1.24,1.24,0,0,1,0-.54c0-.57-.12-1.14-.17-1.65-.1-.28-.1,0-.12.11,0-.33,0-.65-.08-1l.18.48.21.65c0-.18-.12-.7-.05-.8l.11.42c0,.34,0,.65.07,1,.05,0,.08.19.1.38,0,.36,0,.36.11.36l0-.16,0-.2c.09-.11.09-.17,0-.67,0-.19-.07-.39-.09-.57a3.54,3.54,0,0,0-.15-.74c-.05-.53.08-.16.1-.39l-.11-.14c0-.23-.09-.52-.09-.65s0-.16.07-.23c-.12-.52-.27-.59-.41-1.23a1,1,0,0,1,.18.44c.06.22.11.29.15.24a4.71,4.71,0,0,1-.24-1c.09,0,.19.36.29.66s.14.35.16.19-.05-.24-.06-.34,0-.14,0-.22a3.78,3.78,0,0,0-.33-1.15,3.18,3.18,0,0,0-.08-.52c-.13-.42-.08-.37,0-.32s0-.07,0-.14l-.11-.17c-.08-.36-.25-.69-.33-1.05a1.42,1.42,0,0,0-.07-.22,4.17,4.17,0,0,1-.26-.65,5.49,5.49,0,0,1-.17-.67c0-.21-.08-.45-.12-.67a4.42,4.42,0,0,0-.18-.62l-.26-.68c0-.06-.13-.25-.16-.29s0,0-.05,0a5.79,5.79,0,0,0-.25-.57,3.65,3.65,0,0,0-.18-.34c0-.06-.1-.11-.09-.09s.09.21.14.33.09.17.13.26l-.08,0a2.09,2.09,0,0,0,.55.91l.12.4-.3-.47.16.5a4.21,4.21,0,0,0-.45-.85l.11.35h0l-.15-.2a2.75,2.75,0,0,0-.58-1.19,2,2,0,0,0-.12-.31,3.28,3.28,0,0,1-.33-.66,5.4,5.4,0,0,1-.54-.78l-.26-.39.18-.13,0,0,0,0a4.41,4.41,0,0,0,.56-.46l-.14.06-.43.37a.75.75,0,0,1-.07-.12l0,0,.41-.27a2,2,0,0,0,.53-.36c.27-.25-.06,0,0-.12l.95-.71.08-.17a3,3,0,0,1,.89-.54l-.25.28.68-.45c.25-.26.06-.23.56-.66l-.69.51h0l.89-.76-.42.07a3.21,3.21,0,0,0,.46-.37l-.46.29.45-.42a13.76,13.76,0,0,1-1.42,1,2.5,2.5,0,0,1,.57-.6v.07a15.47,15.47,0,0,1,1.29-1l-.44.41a3.19,3.19,0,0,0,.64-.47,6.13,6.13,0,0,1,.71-.58l1.21-.89-.28.28,1.1-.81a2.37,2.37,0,0,0,.74-.56l.29-.26,1-.58L309,415c.32-.24.25-.13.32-.15l.16-.1.11-.19c-.18.1-.47.31-.47.24l.55-.41a1,1,0,0,1,.44-.37l1-.79-.57.37,0-.12.41-.29.22-.34a8.17,8.17,0,0,1-.76.65l.56-.64-.59.45c.09-.15.24-.27.82-.67,0-.09.35-.33.57-.49a5.09,5.09,0,0,0,.67-.55l-.81.53.31-.32.15-.06.29-.35.35-.17.53-.48c0-.07-.32.08,0-.23h0c.06-.1.12-.19,0-.1s-.37.14-.05-.18l-.48.4h0l1.08-1a1.31,1.31,0,0,1-.34.11c-.06,0,0-.1,0-.16-.36.25-.25.31-.59.53l.09-.21-.11.08-.33.38a1.14,1.14,0,0,0-.3.09l-.59.37a2.55,2.55,0,0,1,.43-.4c.27-.21.21-.26.54-.51-.23.14.07-.11,0-.13l-.69.52.48-.45c-.09,0-.21,0-.23-.06a1.06,1.06,0,0,1,.28-.3c.26-.22.56-.44.88-.69s.64-.66.9-1l-.93.57-.09-.11.35-.32-.17.08.58-.57-.05-.07c.22-.19.55-.35.66-.53Zm-34.66,7-.13-.09h.08l.17.09Zm.55,2.65-.56-.14h.08l.35.06h.29Zm1.14-2a3.62,3.62,0,0,1,.89.11l-.38,0-.14,0C281.72,414.73,281.61,414.69,281.29,414.65Zm.33-1.31,0,0-.42,0-.06,0Zm-.17,1.52-.25-.1C281.54,414.81,281.56,414.83,281.45,414.86Zm.87.35-.12-.06h.31l.07,0Zm-.66-.2-.05,0c-.19-.08-.19-.09.07-.08a1.21,1.21,0,0,0,.4,0,1.08,1.08,0,0,1,.37,0,2.73,2.73,0,0,1,.41.13A9.9,9.9,0,0,1,281.66,415Zm1.68,2.71c.26,0,.27.07.27.1ZM275,437.83l-.18,0,.07-.07.22-.06Zm2.32,1.47-.66.42.07-.09.4-.27.28-.28ZM276,436.09l-.06,0,.39-.35,0,0Zm1.31.84-.3.16C277.38,436.81,277.42,436.81,277.35,436.93Zm-.3,0a4.9,4.9,0,0,1,.86-.72l-.31.35-.14.11C277.48,436.6,277.36,436.68,277.05,436.94Zm1.33-.56-.16.07.29-.28.08,0Zm-.74.46v.07c-.23.12-.24.11,0-.11a2.1,2.1,0,0,0,.35-.37,1.24,1.24,0,0,1,.35-.3l.45-.3A11.21,11.21,0,0,1,277.64,436.84Zm3.71,0c.28-.25.31-.24.33-.22Zm8.36-7.72c-.11.11-.31.28-.39.37a.68.68,0,0,0-.11.2l-.38.26.07-.08a4.9,4.9,0,0,1,.57-.62,2.28,2.28,0,0,1,.28-.22S289.77,429.11,289.71,429.16Zm1-5.69.15-.11-.08.13-.1.08Zm-.58.37-.11,0,.54-.34Zm.64,5-.13.06.18-.18.1-.06Zm12.76,6.84.08.26V436l-.08-.22Zm-.16-1.12v-.31C303.39,434.49,303.39,434.49,303.35,434.51Zm-.09-.44.09.45a1.22,1.22,0,0,1,0,.5l-.12-.56C303.31,434.65,303.3,434.37,303.26,434.07Zm-.29,7.17.08-.08v.1Zm.15.1,0-.07v.07Zm-.17-9.41.11.34.12.39-.05.08c-.07-.28-.13-.53-.2-.79Zm-.12-1a6.12,6.12,0,0,1-.26-.71l.14.1C302.76,430.55,302.8,430.72,302.83,430.93Zm-.24-1,0-.15C302.69,430.09,302.67,430.11,302.59,430Zm-.23-1c.07.2.15.41.25.73a3.47,3.47,0,0,1-.27-.74Zm-.22,11.68a.5.5,0,0,1,0,.12.47.47,0,0,1,0,.12s0,0,0-.09ZM302,427.4v.19l-.19-.5h0Zm-.49,11.17,0-.57A1.11,1.11,0,0,1,301.48,438.57Zm.22-11.22c0-.1-.11-.22-.12-.27s-.1-.33-.15-.49A2.05,2.05,0,0,1,301.7,427.35Zm-1.7,9.72c0,.26,0,.43,0,.61A.77.77,0,0,1,300,437.07Zm-.86-20.82.2-.06-.48.37h0Zm-.13,6h0l0,0,0,0Zm.14-5.69c-.1.08-.22.19-.27.22l-.51.3A3.58,3.58,0,0,1,299.15,416.54Zm-3.24,2.36h0Zm-3.82,2.6,0,.05-.17-.11,0-.05Zm-.5-.34.06.06-.16-.06-.06-.09Zm-.5-.75c-.1-.05-.26-.16-.35-.19a.37.37,0,0,0-.18,0l-.26-.21.08,0a3.6,3.6,0,0,1,.58.23s.14.11.21.16S291.14,420.44,291.09,420.41Zm.21,7.88-.08,0,.21-.21.06,0Zm1.41.44-.11.08s0,0,0-.05l.09-.06S292.71,428.72,292.71,428.73Zm1.39-1.51-.1,0,0,0,.1-.06S294.12,427.2,294.1,427.22Zm2-1-.11-.17v0l.12.16Zm.18.34,0-.06.24.2.05.13Zm.47.63-.08-.15,0,0s0,.09,0,.13Zm1.23,3c0-.1,0-.1.22.33C298.18,430.68,298.08,430.43,298,430.23Zm1.58,5.63c0,.08,0,.08-.09-.08l-.05,0v-.12l.07.17Zm0-13-.18.14-.05-.05c.06-.07.08-.12.14-.2Zm-.06-1.12-.18.14,0-.05.16-.11Zm1.12-6.47v0l.72-.55A4.55,4.55,0,0,1,300.68,415.31Zm1.05-.69-.17,0C301.84,414.46,301.87,414.47,301.73,414.62Zm.29-.1.06-.19.61-.4A5.89,5.89,0,0,1,302,414.52Zm1.19,4.56c-.13,0-.13,0,.36-.39C303.72,418.67,303.43,418.89,303.21,419.08Zm.54-5.76h0L304,413c.1-.1.21-.19.37-.33h.11Zm2.55-1.82-.32.19C306.26,411.48,306.26,411.48,306.3,411.5Zm0,.17c.16-.22-.12,0-.43.17l.43-.34h0a1.87,1.87,0,0,1,.54-.27Zm1.23-1.07-.13.08.24-.24.09-.05Zm1.81,3.62,0,.08-.13.09.17-.18,0-.12C309.51,414.06,309.51,414.06,309.34,414.22Zm1.25-1.35.65-.46A1.19,1.19,0,0,1,310.59,412.87Zm.32-1.94a1.83,1.83,0,0,1,.59-.41Zm2.53-2.55.13-.08s0,0-.07.09l-.17.09Zm0-1.05.1-.09,0,.09Zm.09-.13-.2.13,0-.05.22-.15Z" transform="translate(-272.04 -397.33)"/><polygon points="38.19 11.53 38.19 11.53 38.19 11.53 38.19 11.53 38.18 11.53 38.18 11.53 38.18 11.54 38.18 11.53 38.19 11.53 38.19 11.53 38.19 11.53"/><polygon points="17.52 26.66 17.52 26.66 17.51 26.66 17.51 26.66 17.51 26.66 17.51 26.66 17.51 26.66 17.52 26.65 17.52 26.66"/><path d="M290.11,423.52h0l.45-.36,0,0c-.09.07-.19.12-.27.19s-.29.24-.21.23l-.29.18.24-.29-.56.42c.09,0-.16.26.06.15l.77-.57Z" transform="translate(-272.04 -397.33)"/><path d="M313.51,408.9c-.35.37.22-.07.32-.11l-.14.19.55-.46C314.19,408.45,313.71,408.82,313.51,408.9Z" transform="translate(-272.04 -397.33)"/><path d="M281.13,430.76a10.49,10.49,0,0,1,1-.78,3.08,3.08,0,0,0,.33-.26c.19-.16.15-.16.08-.12l-1.41,1.13Z" transform="translate(-272.04 -397.33)"/><path d="M313.58,410.15l-.43.37.17,0C313.69,410.2,313.72,410.15,313.58,410.15Z" transform="translate(-272.04 -397.33)"/><path d="M313.4,410.26l.45-.44a1.13,1.13,0,0,0-.46.29C313,410.44,313.43,410.17,313.4,410.26Z" transform="translate(-272.04 -397.33)"/><path d="M275.6,440c-.34.29-.43.4-.41.42s.27-.14.63-.42l-.37.22Z" transform="translate(-272.04 -397.33)"/><path d="M272.62,439.23c0-.1-.34.15-.45.17C272,439.63,272,439.63,272.62,439.23Z" transform="translate(-272.04 -397.33)"/><path d="M301.57,421.41l.48-.3.36-.3-.43.29A1.34,1.34,0,0,0,301.57,421.41Z" transform="translate(-272.04 -397.33)"/><polygon points="37.59 17.07 37.59 17.07 37.59 17.07 37.59 17.07 37.6 17.06 37.6 17.06 37.6 17.06 37.59 17.07 37.59 17.07 37.59 17.07"/><polygon points="38.03 16.7 38.03 16.7 38.04 16.69 38.03 16.7"/><path d="M310.07,414l-.43.36c.09,0,.08,0,.42-.21Z" transform="translate(-272.04 -397.33)"/><path d="M300.9,422l.47-.47c-.23.17-.46.33-.5.38s-.07.13-.1.18Z" transform="translate(-272.04 -397.33)"/><path d="M277.93,434.06l.28-.35-.08.06-.46.42.12,0Z" transform="translate(-272.04 -397.33)"/><path d="M313.54,406.53l-.05.06.34-.17.42-.38Z" transform="translate(-272.04 -397.33)"/><path d="M280.21,437.9s0,.05,0,.09l.54-.51h-.05Z" transform="translate(-272.04 -397.33)"/><polygon points="12.29 30.82 12.02 30.89 11.88 31.01 12.14 30.95 12.29 30.82"/><path d="M311.6,412.34l.52-.37s.07-.08,0-.07A2.61,2.61,0,0,0,311.6,412.34Z" transform="translate(-272.04 -397.33)"/><path d="M304.18,419.33H304C303.79,419.6,303.79,419.6,304.18,419.33Z" transform="translate(-272.04 -397.33)"/><path d="M310.6,408.52s-.09,0-.14.07c-.21.15-.24.21-.25.25s0,0,0,0l.1-.07C310.52,408.64,310.62,408.54,310.6,408.52Z" transform="translate(-272.04 -397.33)"/><path d="M292.48,429.18l-.37.39.1-.06C292.54,429.22,292.54,429.22,292.48,429.18Z" transform="translate(-272.04 -397.33)"/><path d="M287.15,425.58l-.65.5C287.07,425.71,287.07,425.71,287.15,425.58Z" transform="translate(-272.04 -397.33)"/><path d="M315.87,405.32c-.27.24-.37.34-.24.3C315.91,405.4,315.92,405.35,315.87,405.32Z" transform="translate(-272.04 -397.33)"/><path d="M287.65,432.26l-.27.33C287.81,432.25,287.85,432.19,287.65,432.26Z" transform="translate(-272.04 -397.33)"/><path d="M282,436.77l.35-.3C282.18,436.57,282,436.67,282,436.77Z" transform="translate(-272.04 -397.33)"/><path d="M310.47,408.37a3.16,3.16,0,0,0,.65-.51Z" transform="translate(-272.04 -397.33)"/><polygon points="41.26 13.45 41.44 13.32 41.48 13.22 41.34 13.32 41.26 13.45"/><polygon points="42.98 8.91 43.23 8.75 43.33 8.65 43.11 8.77 42.98 8.91"/><path d="M276.8,439.94l-.37.25C276.38,440.3,276.5,440.22,276.8,439.94Z" transform="translate(-272.04 -397.33)"/><path d="M315.78,407.31l-.28.26C315.76,407.4,315.75,407.37,315.78,407.31Z" transform="translate(-272.04 -397.33)"/><path d="M312.79,409.68s.09,0,.18-.09.06-.08,0-.09l-.12.07Z" transform="translate(-272.04 -397.33)"/><path d="M303.86,419.39a3,3,0,0,0-.61.41A4.07,4.07,0,0,0,303.86,419.39Z" transform="translate(-272.04 -397.33)"/><path d="M279.34,438.7l.14-.1,0-.1-.13.09Z" transform="translate(-272.04 -397.33)"/><polygon points="38.73 16.2 38.76 16.2 39.06 15.96 39.02 15.96 38.73 16.2"/><path d="M314.11,406.67l.12-.23C314,406.68,314,406.68,314.11,406.67Z" transform="translate(-272.04 -397.33)"/><polygon points="42.07 9.34 42.07 9.34 42.07 9.35 42.07 9.35 42.07 9.35 42.07 9.35 42.07 9.35 42.07 9.34 42.07 9.34 42.07 9.34"/><path d="M280.8,436.52l.1-.17C280.63,436.59,280.63,436.59,280.8,436.52Z" transform="translate(-272.04 -397.33)"/><path d="M278.89,433.1l.09,0,.13-.13a.38.38,0,0,0-.12.05S278.88,433.1,278.89,433.1Z" transform="translate(-272.04 -397.33)"/><path d="M275.66,438.77l-.06.12c.34-.28.33-.3.15-.2Z" transform="translate(-272.04 -397.33)"/><path d="M313.62,406.82h0l.26-.21h0Z" transform="translate(-272.04 -397.33)"/><path d="M309.67,408.7l.13-.06c.05-.05.11-.11.1-.11l-.14.08Z" transform="translate(-272.04 -397.33)"/><path d="M313,409.06l0,0-.07.06.06,0Z" transform="translate(-272.04 -397.33)"/><path d="M314.15,408.08l-.09.08.21-.09c0-.06.09-.11.07-.1Z" transform="translate(-272.04 -397.33)"/><path d="M278.19,437h-.05l-.1.1.07,0Z" transform="translate(-272.04 -397.33)"/><polygon points="45.85 25.94 45.85 25.94 45.85 25.94 45.85 25.93 45.85 25.93 45.85 25.93 45.85 25.93 45.85 25.93 45.85 25.93 45.85 25.94 45.85 25.94"/><path d="M322.73,400.29c-.08-.07-.17-.15-.28-.23a5.63,5.63,0,0,0-1.07-1,7.26,7.26,0,0,1,.81.79,3.49,3.49,0,0,1,.56.81c0,.05.26.44.37.67a6.39,6.39,0,0,1,.41,1,5,5,0,0,1,.16.7l0,0c-.07-.3-.16-.59-.26-.89l-.25-.42c-.08-.2-.14-.35-.22-.51a4,4,0,0,0-.23-.42,4.29,4.29,0,0,0-.35-.28,5.52,5.52,0,0,0-.78-.84,4.1,4.1,0,0,0-.78-.47s0-.07.1,0a4.19,4.19,0,0,1,.66.44c.44.35.67.56.52.35a3,3,0,0,0-.48-.47,4.18,4.18,0,0,0-.68-.47,4.45,4.45,0,0,0-.67-.27,7.9,7.9,0,0,0-1.67-.48l.15.1-.74-.09a4.21,4.21,0,0,0-.65-.11c-.26,0-.06,0,0,.06l-.31,0a.4.4,0,0,1-.13-.13,2.1,2.1,0,0,1-.76-.18,3.32,3.32,0,0,0-.9-.16h-.12l.66.18a3.53,3.53,0,0,1-.5-.06,2.39,2.39,0,0,0-.36-.05,6.6,6.6,0,0,1-1.15-.16l-.59-.09H313l.33.09-.48,0-.13-.08c-.38,0-.49.07-.34.14l-.44,0v-.16l-1.13-.11c0,.09.62.09.81.16l-.37.05-.37-.12c-.41,0-.22.12-.83.09a5.39,5.39,0,0,1-1.18,0l.24-.05-.45-.07-.9.05c-.1,0,.29.11-.2.13a3.56,3.56,0,0,0-.92,0c-.37,0-.81,0-1.26,0l-.62,0,.21.15c-.48,0-.68,0-.74,0h-.14l-.3-.08h-.59s.51.08,0,.09l-1.17-.06-.11,0a2.24,2.24,0,0,0,.31.05c.17,0,.38,0,.57,0v0l-.67,0,.31.18a5.17,5.17,0,0,1-.73,0c-.24,0-.51,0-.83,0,.07.07,0,.11-.53.11l-.12-.09-2,0a.8.8,0,0,1-.23.05,2,2,0,0,1-.65-.05,3.49,3.49,0,0,0-1,0c-.3,0-.64,0-1,.05l-.72.17.53,0-1.32.11,1.12,0c-.11.05.07.07.74.08l-.31.07a1.51,1.51,0,0,0-.35.1s0,.05.1.08h.32l-.12-.08.61,0s0,.07.1.1.21.15.15.22l-.14,0c-.34,0-.84,0-.85.1a4.43,4.43,0,0,1-.59.07l-.08,0,.4-.05,0,0-1.75.09c-.13.11-.12.19.39.26l-1.21.1-.07.09,1,.1.45,0a7.83,7.83,0,0,0,1.1,0c.15,0,.24.05.41.06.4,0,.67.06.63.12a13,13,0,0,1,1.3-.05l-.39,0-.41,0a4,4,0,0,0,.92,0V400l1.77-.17a.65.65,0,0,0,.18-.05l.43,0c.08.12-.33.25.3.35,0,0-.13.07-.09.09a1.3,1.3,0,0,0,.31.08h-.58a4.21,4.21,0,0,1-.71,0l-.1-.11h-.37a5.72,5.72,0,0,0-1.52.26s0,0,.07.06.09.15-.38.2h.16c.21,0,.49,0,.4,0a2.43,2.43,0,0,1-.45.06l-.52,0c.23.08.48.15.36.24s.16.07-.19.1c-.05,0-.06,0,0,.05.26.07-.08.14-.12.2a.18.18,0,0,1-.07.05h.13l.41-.13a7.25,7.25,0,0,0,1.25.11c.54,0,.76-.11,1.37-.12l.14.09c.12,0,.22,0,.33,0a2.75,2.75,0,0,1,.48,0c.06-.06.71,0,.7-.11l.38.06a3.44,3.44,0,0,1,.83-.06l-.06,0h0l.94.19-.6,0c0,.11,0,.13-.42.2,0,0,.61,0,.09.08l-.4-.06c.05.09-.5.12-.79.17a5.76,5.76,0,0,0,.9,0,3,3,0,0,1,.85,0l-1.61.07c.42,0,.66.1.69.17l.21,0-.07-.06a4.51,4.51,0,0,0,.61,0l.38,0-.31.07a4.85,4.85,0,0,1,.92,0l-.14.06.94.12a5.5,5.5,0,0,1,.92-.06l-.58.08.7.07.12-.09c.7,0,.91.12.85.2a5.17,5.17,0,0,1,1,.11l.85-.07a9.15,9.15,0,0,1,1.39,0,5.6,5.6,0,0,0,.86,0l.66.1v.1h-.85a3.48,3.48,0,0,0,1,.1c.25,0,.57,0,.56.07s.31.07.47.11c-.59,0-.27.07-.63.08a2.92,2.92,0,0,0,.84,0c1.06.08,1.06.08,1.11.22a3,3,0,0,0,.91,0h.27l.21.05a2.14,2.14,0,0,0,.34.12c.33.06.72.11,1.13.17.07-.06,0-.14.34-.18v.1l.38,0c0-.06.26-.08.52-.05a6,6,0,0,0-.77-.17l.49.05-.27-.14a2.19,2.19,0,0,1,.84.27H318l0,0h0c-.05,0,0,0,0,0s0,.05,0,.1,0,.12,0,.13a.56.56,0,0,0-.13.07,3.13,3.13,0,0,1,.21.72s0,0,0,0,0,.26,0,.4c0-.3.09-.32.15-.4a2.81,2.81,0,0,1,0,.29c0,.1,0,.21,0,.37.07-.31.09-.22.12,0s0,.09.07-.12a.62.62,0,0,1,0-.2.37.37,0,0,1,0,.2,5,5,0,0,1,0,.52,1.82,1.82,0,0,0-.07-.25,1.64,1.64,0,0,0,0,.62,3.4,3.4,0,0,1-.12.38,2.23,2.23,0,0,0-.15.49c-.05.31.06,0,.08.09-.09.32-.2.64-.32,1l0,.16a2.54,2.54,0,0,1-.43.86l.05-.35-.32.71c-.08.34.07.21-.14.83l.33-.78h0c-.12.37-.25.73-.37,1.1l.32-.28a3.87,3.87,0,0,0-.2.56l.25-.49c-.06.17-.1.31-.18.59a14.84,14.84,0,0,1,.69-1.59,2.17,2.17,0,0,1-.18.79l0-.06a16.36,16.36,0,0,1-.61,1.52c0-.19.11-.38.17-.59a3.58,3.58,0,0,0-.31.75,6.66,6.66,0,0,1-.3.89c-.18.45-.35.93-.55,1.46l.09-.4c-.17.45-.32.88-.48,1.32a2.63,2.63,0,0,0-.29.91l-.09.4-.48,1.09.13,0c-.11.39-.12.26-.16.32a.69.69,0,0,0-.07.19l0,.22c.09-.2.2-.55.23-.49-.07.25-.13.46-.2.68a1,1,0,0,1-.12.57c-.09.38-.18.75-.28,1.27.09-.3.15-.49.21-.66l.09.08-.14.49,0,.42a9.28,9.28,0,0,1,.19-1c0,.27,0,.53,0,.88l.18-.74a3,3,0,0,1-.22,1.05c.06.07-.07.49-.13.77a4.62,4.62,0,0,0-.17.87l.29-.95,0,.45-.07.15v.46l-.15.37c0,.31-.07.5-.09.72.06,0,.19-.27.18.15h0c0,.11,0,.23.1,0s.18-.36.16.1l.1-.62,0,0c-.05.48-.09,1-.14,1.49a1.3,1.3,0,0,1,.18-.32c.05,0,.07.08.1.13.1-.44,0-.41.1-.8l.06.22,0-.14v-.51a.84.84,0,0,0,.17-.26c.06-.15.12-.42.2-.67a2.78,2.78,0,0,1-.06.59c-.06.33,0,.34-.07.74.08-.25,0,.13.06.12,0-.24.1-.47.18-.84l-.07.65c.08-.05.15-.13.21-.1a1.06,1.06,0,0,1,0,.4c-.05.34-.12.7-.19,1.11s0,.91,0,1.32l.29-1.05.14,0,0,.47.06-.18,0,.81h.09a3,3,0,0,0-.1.83l0-.17c.11-.46.11-.46.12-.08a2.26,2.26,0,0,0,0,.26c0,.19,0,.15.08-.17,0-.1.05-.19.09-.36l-.07.86c.05,0,.08-.19.1-.39a.52.52,0,0,1,0-.32c0-.12.08-.19.11-.28l0,.23a1.34,1.34,0,0,0,.07.18c0-.24.05-.41.06-.58l-.08.13.11-.64c0,.23,0,.37,0,.5h0v0h0l.12,0-.09.75h0c.05-.28.1-.59.16-.84s.13-.45.2-.68l0,.33c.06,0,.11-.15.17-.51s.11-.63.17-.9l.09-.18c.05-.27.09-.5.14-.72a1.78,1.78,0,0,1,.19-.63c.15-.67.3-1.35.45-1.94,0-.36-.08-.08-.16.07.11-.38.23-.75.35-1.13l0,.61c0,.26-.05.54-.07.81.1-.19.17-.83.28-.91,0,.19-.06.37-.07.5-.11.4-.22.76-.31,1.12.05,0,0,.24-.05.47-.09.43-.08.43,0,.45l0-.19.05-.24c.12-.1.14-.17.25-.76,0-.22.08-.46.13-.66a6.54,6.54,0,0,0,.18-.88c.17-.61.13-.15.26-.39l0-.2c.08-.25.16-.59.22-.74s.11-.14.17-.21a13.86,13.86,0,0,1,.26-1.49,2,2,0,0,1-.07.55c-.06.26-.06.36,0,.32a5.58,5.58,0,0,1,.3-1.15c.07.06,0,.47-.09.82s0,.44.05.28.07-.27.11-.38.08-.14.11-.23a6.79,6.79,0,0,0,.33-1.32c.09-.21.18-.4.23-.56.15-.48.15-.4.18-.32s.06-.05.12-.1,0-.21,0-.23c.15-.39.23-.79.4-1.17a1.13,1.13,0,0,0,.08-.24,4,4,0,0,1,.25-.74,4.32,4.32,0,0,1,.34-.71c.13-.2.27-.45.4-.68a13.9,13.9,0,0,0,.68-1.54,2.34,2.34,0,0,0,.12-.41c0-.07,0,0-.07,0,.1-.26.19-.5.27-.77a4.23,4.23,0,0,0,.13-.51c0-.08,0-.19,0-.16l-.14.45c0,.11-.07.25-.11.38l0-.1a4,4,0,0,0-.31,1.33c-.07.16-.14.3-.22.47.07-.28.12-.5.16-.67l-.29.59a5.39,5.39,0,0,0,.35-1.16c-.07.16-.13.29-.2.42h0l.05-.3a4.65,4.65,0,0,0,.49-1.7c.05-.15.12-.34.14-.43.08-.55.16-.72.21-1a14.3,14.3,0,0,0-.06-2.78c.06,0,.08-.15.11-.33s0-.38.08-.33a11.26,11.26,0,0,0-.3-1.27A4.68,4.68,0,0,0,322.73,400.29Zm.45,1a4.43,4.43,0,0,0-.26-.54l.05.07a5.72,5.72,0,0,1,.28.55Zm-26.49-2.45-.16-.08h.1l.2.08Zm.9,2.6-.78-.09.11,0,.48,0,.39,0Zm2.36-2.05-.46.08h-.18c.07,0-.08-.07-.48-.06A5,5,0,0,1,300,399.44Zm-1.44-1.3.53,0h0l-.51,0Zm.22,1.44c.43,0,.47,0,.33.06Zm1.48.28-.17,0,.4,0,.09,0Zm-.86-.1-.06.05c-.25-.06-.25-.07.08-.09a2,2,0,0,0,.49-.07,1.73,1.73,0,0,1,.47,0l.54.06A13.74,13.74,0,0,1,299.35,399.76Zm2.81,2.39c.37,0,.39,0,.4.05Zm11.28-.25h-.53a.57.57,0,0,0-.22.07l-.45-.06.11,0a5.6,5.6,0,0,1,.83-.07l.36,0S313.52,401.9,313.44,401.9Zm1,.44-.13,0h.25l.11,0Zm.74,0-.09,0h.29l.07,0Zm.71,1.29-.13,0,0,0,.1,0S315.9,403.63,315.9,403.64Zm1.78-.12-.07,0h0l.06,0S317.69,403.52,317.68,403.52Zm-.27-5.21-.06-.1.74.16Zm.69,6.56c0-.18,0-.18,0-.17Zm.17-6.32-.17,0,.11,0,.25,0Zm-3.45,22.65a1.37,1.37,0,0,1,.23-.79C315,420.75,314.89,421,314.82,421.2Zm.39-2.67,0-.08.05-.15,0,.25,0,.13C315.17,418.77,315.17,418.77,315.21,418.53Zm.61,7.18a.75.75,0,0,1,0,.15s0-.05,0-.11l.06-.18A.61.61,0,0,1,315.82,425.71Zm0-2.88.19-.7A1.83,1.83,0,0,1,315.84,422.83Zm.71,3.75-.08,0,.09-.09Zm0,.11v-.09l.05-.22v.06Zm.94-15.27c-.12.1,0-.26.11-.53C317.74,410.8,317.73,410.79,317.53,411.42Zm1.72-6.12a1.55,1.55,0,0,1,0,.22l0,0a1.76,1.76,0,0,0,0-.23Zm-.05.59.05.36-.05.16c0-.15,0-.3,0-.44Zm-.05.81v.06l-.05.15v0Zm-.28,13.78,0,.1,0-.29.06-.13Zm.14-1.07.16-.66c0,.26.12,0,.24-.38l-.14.51h0A1.83,1.83,0,0,1,319,419.41Zm.26-.53.15-.33C319.32,418.87,319.32,418.88,319.27,418.88Zm.93-2.47-.11.46-.09.06c.09-.32.18-.61.27-.9l0,0Zm.6-1.43a4.93,4.93,0,0,1,.25-.83l.05.18Zm.43-1.07.12-.11C321.22,414.11,321.2,414.11,321.23,413.91Zm.21-.25a5,5,0,0,1,.3-.84v0C321.67,413.08,321.58,413.3,321.44,413.66Zm1.15-2.46-.14.17.23-.6h0Zm-.15-.25c0-.12.09-.29.12-.35l.28-.57A3.75,3.75,0,0,1,322.44,411Zm1-8.11c-.18-.8-.06-.49.06-.21A1.43,1.43,0,0,1,323.47,402.84Z" transform="translate(-272.04 -397.33)"/><polygon points="42.7 21.84 42.7 21.83 42.7 21.82 42.7 21.84"/><path d="M317.66,398.08h0l.73.1h.07l-.42-.09c-.23,0-.46,0-.38,0l-.38-.07.42,0-.75-.08c.07.06-.3.07-.06.14l1.05.15Z" transform="translate(-272.04 -397.33)"/><path d="M316.9,398Z" transform="translate(-272.04 -397.33)"/><path d="M315.26,425.68l0-.24c0,.31-.06.5-.09.72.08,0,.19-.58.28-.78C315.42,424.87,315.31,425.58,315.26,425.68Z" transform="translate(-272.04 -397.33)"/><path d="M306,397.36a8.66,8.66,0,0,1,1.28.06,2.68,2.68,0,0,0,.42,0c.25,0,.22,0,.15,0l-1.83-.07Z" transform="translate(-272.04 -397.33)"/><path d="M314.52,424.5c0-.2.05-.38.08-.57l-.14.09C314.41,424.53,314.42,424.59,314.52,424.5Z" transform="translate(-272.04 -397.33)"/><path d="M314.58,424.29l0,.64a1.38,1.38,0,0,0,.16-.53C314.75,423.9,314.62,424.38,314.58,424.29Z" transform="translate(-272.04 -397.33)"/><path d="M295.2,401c0,.05.3.06.75.06l-.42-.06.26-.08C295.34,401,295.2,401,295.2,401Z" transform="translate(-272.04 -397.33)"/><path d="M293.91,398.49c.07-.07-.37-.08-.46-.14C293.17,398.43,293.17,398.43,293.91,398.49Z" transform="translate(-272.04 -397.33)"/><path d="M318.33,405.94a4.36,4.36,0,0,0-.14.83l.05-.11A6.65,6.65,0,0,0,318.33,405.94Z" transform="translate(-272.04 -397.33)"/><path d="M317.77,408.16c-.08.16-.15.3-.22.47a4.22,4.22,0,0,0-.13.41c.1-.22.15-.35.2-.44A1.19,1.19,0,0,0,317.77,408.16Z" transform="translate(-272.04 -397.33)"/><polygon points="42.83 21.25 42.83 21.25 42.83 21.25 42.83 21.25 42.83 21.26 42.83 21.26 42.83 21.26 42.83 21.26 42.83 21.26 42.83 21.26 42.83 21.25 42.83 21.25 42.83 21.25"/><polygon points="42.7 21.82 42.7 21.82 42.7 21.84 42.7 21.82"/><path d="M314.75,419.15l.12-.56c-.05.08-.09,0-.21.43Z" transform="translate(-272.04 -397.33)"/><path d="M318,407.32l0,.13c0,.16-.05.31-.09.57a3.89,3.89,0,0,0,.16-.52A.22.22,0,0,0,318,407.32Z" transform="translate(-272.04 -397.33)"/><path d="M301.18,397.78h.17l.44-.08h-.1l-.63,0Z" transform="translate(-272.04 -397.33)"/><path d="M316.89,427.38l0,.56c.06-.38.1-.6.15-.83V427Z" transform="translate(-272.04 -397.33)"/><path d="M301.27,402.19l-.62,0s0,0-.06.07l.73-.06Z" transform="translate(-272.04 -397.33)"/><polygon points="37.92 0.19 38.11 0.19 37.86 0.07 37.68 0.06 37.92 0.19"/><path d="M314.44,422.2a2.38,2.38,0,0,0,.16-.71c-.08.29-.12.45-.17.62C314.43,422.12,314.43,422.23,314.44,422.2Z" transform="translate(-272.04 -397.33)"/><path d="M316.67,411.19l.15-.11C316.88,410.74,316.88,410.74,316.67,411.19Z" transform="translate(-272.04 -397.33)"/><path d="M317.83,423.74s.05-.07.06-.13c.05-.25,0-.31,0-.35h0l0,.11C317.81,423.61,317.8,423.74,317.83,423.74Z" transform="translate(-272.04 -397.33)"/><path d="M315.42,403.81l-.52,0,.11,0C315.44,403.88,315.44,403.88,315.42,403.81Z" transform="translate(-272.04 -397.33)"/><path d="M314,397.53l-.83-.07C313.87,397.58,313.87,397.58,314,397.53Z" transform="translate(-272.04 -397.33)"/><path d="M316.19,429.18c0,.35,0,.39.05.38C316.26,429.2,316.25,429.07,316.19,429.18Z" transform="translate(-272.04 -397.33)"/><path d="M309.86,402.8l-.41.06C310,402.9,310.06,402.88,309.86,402.8Z" transform="translate(-272.04 -397.33)"/><path d="M302.73,402.49h.46A.7.7,0,0,0,302.73,402.49Z" transform="translate(-272.04 -397.33)"/><path d="M324,404.52a3.35,3.35,0,0,0-.1-1C323.94,404.05,324,404.05,324,404.52Z" transform="translate(-272.04 -397.33)"/><path d="M318,423.77a3.08,3.08,0,0,0-.15.79Z" transform="translate(-272.04 -397.33)"/><polygon points="42.23 26.73 42.26 26.83 42.3 26.66 42.27 26.51 42.23 26.73"/><polygon points="44.14 31 44.07 31.29 44.08 31.43 44.14 31.19 44.14 31"/><path d="M296.31,401.6c-.1.06,0,.07.44,0Z" transform="translate(-272.04 -397.33)"/><path d="M314.88,428.1l0-.37C314.83,428,314.86,428.05,314.88,428.1Z" transform="translate(-272.04 -397.33)"/><path d="M315.35,424.5c0,.05,0,.1,0,.1a.89.89,0,0,0,.05-.13.76.76,0,0,0,0-.16S315.39,424.4,315.35,424.5Z" transform="translate(-272.04 -397.33)"/><path d="M316.93,411a3.63,3.63,0,0,0,.3-.66A3.41,3.41,0,0,0,316.93,411Z" transform="translate(-272.04 -397.33)"/><path d="M319.61,398.24l-.18,0a5.77,5.77,0,0,1,.59.25l.18.06C320,398.42,319.8,398.32,319.61,398.24Z" transform="translate(-272.04 -397.33)"/><path d="M299.6,402.22l-.12,0h.17l.11,0Z" transform="translate(-272.04 -397.33)"/><polygon points="42.43 22.69 42.34 23.09 42.38 23.07 42.45 22.68 42.43 22.69"/><polygon points="44.48 30.07 44.48 30.07 44.48 30.07 44.48 30.07 44.47 30.07 44.47 30.07 44.47 30.07 44.47 30.07 44.48 30.07 44.48 30.07"/><path d="M316.52,427.4l.08.24C316.61,427.3,316.56,427.35,316.52,427.4Z" transform="translate(-272.04 -397.33)"/><path d="M302,401.52l.18-.06C301.8,401.47,301.8,401.47,302,401.52Z" transform="translate(-272.04 -397.33)"/><path d="M302.81,397.71l.18,0-.13,0h-.15S302.76,397.7,302.81,397.71Z" transform="translate(-272.04 -397.33)"/><path d="M323.17,401.49c-.09-.19-.2-.39-.32-.59h0a5.24,5.24,0,0,1,.32.62Z" transform="translate(-272.04 -397.33)"/><path d="M296.72,400h-.13l-.12.07C296.91,400.06,296.92,400,296.72,400Z" transform="translate(-272.04 -397.33)"/><path d="M316.75,427l-.05.32,0,0,0-.32Z" transform="translate(-272.04 -397.33)"/><path d="M318.35,423.15c0,.07,0,.16,0,.15l0-.15s0-.13,0-.12S318.38,423.1,318.35,423.15Z" transform="translate(-272.04 -397.33)"/><path d="M315.67,424.93s0,0,0-.05v-.09l0,0S315.67,424.92,315.67,424.93Z" transform="translate(-272.04 -397.33)"/><path d="M315.43,426.51c0,.06,0,.13,0,.12a1.91,1.91,0,0,0,.06-.21v-.13Z" transform="translate(-272.04 -397.33)"/><path d="M299.59,400.24h0Z" transform="translate(-272.04 -397.33)"/><polygon points="27.25 39.02 27.25 39.01 27.25 39.01 27.25 39.02"/><polygon points="31.52 41.03 31.52 41.04 31.52 41.03 31.52 41.03 31.52 41.02 31.52 41.03 31.52 41.02 31.52 41.03 31.52 41.03 31.52 41.03 31.52 41.03"/><polygon points="23.57 21.41 23.57 21.4 23.57 21.4 23.57 21.4 23.57 21.4 23.57 21.4 23.57 21.4 23.57 21.41 23.57 21.41"/><path d="M301.61,440.81l-.08-.17.07.55c.08,0,.06-.47.1-.64C301.59,440.17,301.64,440.73,301.61,440.81Z" transform="translate(-272.04 -397.33)"/><path d="M288.29,414.15l-.73-.27,0,0a5,5,0,0,1,1,.42l.34.15c.2.08.18,0,.13,0C288.78,414.37,288.54,414.25,288.29,414.15Z" transform="translate(-272.04 -397.33)"/><path d="M300.63,440.09l-.06-.43-.11.1C300.53,440.13,300.55,440.18,300.63,440.09Z" transform="translate(-272.04 -397.33)"/><path d="M300.64,439.92l.11.48a.65.65,0,0,0,0-.42C300.7,439.6,300.7,440,300.64,439.92Z" transform="translate(-272.04 -397.33)"/><path d="M278.4,416.06s.22.06.56.06l-.32-.06.2-.08C278.5,416,278.39,416,278.4,416.06Z" transform="translate(-272.04 -397.33)"/><path d="M277.29,413.54c.06-.07-.31-.06-.39-.11C276.66,413.52,276.67,413.52,277.29,413.54Z" transform="translate(-272.04 -397.33)"/><path d="M295.61,427.06a2.83,2.83,0,0,0,.38.64l0-.11C295.81,427.37,295.71,427.21,295.61,427.06Z" transform="translate(-272.04 -397.33)"/><path d="M296.5,428.77c0,.14.06.25.11.39s.08.14.15.28l-.11-.34A.8.8,0,0,0,296.5,428.77Z" transform="translate(-272.04 -397.33)"/><polygon points="27.25 39.01 27.25 39 27.25 39.02 27.25 39.01"/><path d="M299.17,436.27l.12.06-.09-.4C299.18,436,299.13,436,299.17,436.27Z" transform="translate(-272.04 -397.33)"/><polygon points="27.16 38.59 27.16 38.59 27.16 38.59 27.16 38.59 27.16 38.6 27.16 38.6 27.16 38.6 27.16 38.6 27.16 38.6 27.16 38.6 27.16 38.59 27.16 38.59 27.16 38.59"/><path d="M296.32,428.22c-.06-.07-.09-.06-.13-.08l0,.11a4,4,0,0,1,.27.37A2.39,2.39,0,0,0,296.32,428.22Z" transform="translate(-272.04 -397.33)"/><path d="M283.45,413.29l.15,0H284l-.08,0-.53-.07Z" transform="translate(-272.04 -397.33)"/><path d="M303.54,441.84l.08.44v-.68a.19.19,0,0,0,0-.07Z" transform="translate(-272.04 -397.33)"/><path d="M282.71,417.64l-.44-.08s0,0-.06.07c.23,0,.38,0,.53.05Z" transform="translate(-272.04 -397.33)"/><polygon points="18.51 17.77 18.65 17.98 18.8 18.05 18.66 17.84 18.51 17.77"/><path d="M299.93,438.42s0,.08,0,.05a1.38,1.38,0,0,0-.07-.53Z" transform="translate(-272.04 -397.33)"/><path d="M297.4,430.92l.06-.13C297.32,430.59,297.32,430.59,297.4,430.92Z" transform="translate(-272.04 -397.33)"/><path d="M303.64,438.75s0-.07,0-.12c0-.21-.05-.25-.08-.27h0v.1C303.58,438.65,303.61,438.76,303.64,438.75Z" transform="translate(-272.04 -397.33)"/><path d="M293.22,416.51c.45.4.44.41.58.44C293.63,416.83,293.48,416.69,293.22,416.51Z" transform="translate(-272.04 -397.33)"/><path d="M303.15,443.36c0,.28.05.31.1.3C303.22,443.37,303.19,443.26,303.15,443.36Z" transform="translate(-272.04 -397.33)"/><path d="M288.33,420,288,420C288.37,420.15,288.43,420.16,288.33,420Z" transform="translate(-272.04 -397.33)"/><path d="M283.66,418.13l.32.08C283.85,418.14,283.74,418.09,283.66,418.13Z" transform="translate(-272.04 -397.33)"/><path d="M303.9,439.39l-.06-.66A2.33,2.33,0,0,0,303.9,439.39Z" transform="translate(-272.04 -397.33)"/><polygon points="28.23 42.33 28.23 42.5 28.29 42.56 28.29 42.44 28.23 42.33"/><polygon points="30.95 45.6 30.97 45.71 31 45.51 30.97 45.37 30.95 45.6"/><path d="M279.53,416.7l-.32-.06C279.14,416.71,279.24,416.7,279.53,416.7Z" transform="translate(-272.04 -397.33)"/><path d="M301.69,442.71l0-.29C301.63,442.65,301.66,442.67,301.69,442.71Z" transform="translate(-272.04 -397.33)"/><path d="M301.46,439.76a.43.43,0,0,0,0,.15s0,.08.05.07,0-.09,0-.1A.91.91,0,0,0,301.46,439.76Z" transform="translate(-272.04 -397.33)"/><path d="M297.48,430.67a1.57,1.57,0,0,0-.13-.5A1.61,1.61,0,0,0,297.48,430.67Z" transform="translate(-272.04 -397.33)"/><path d="M281.53,417.48l-.09,0,.12,0a.3.3,0,0,1,.08,0Z" transform="translate(-272.04 -397.33)"/><polygon points="27.29 39.66 27.33 39.95 27.36 39.92 27.31 39.65 27.29 39.66"/><polygon points="31.14 44.59 31.14 44.58 31.14 44.58 31.14 44.58 31.14 44.58 31.14 44.58 31.14 44.58 31.14 44.58 31.14 44.59 31.14 44.59"/><path d="M303.18,441.91l.12.17C303.25,441.82,303.22,441.86,303.18,441.91Z" transform="translate(-272.04 -397.33)"/><path d="M283.34,417.08l.15,0C283.23,417,283.23,417,283.34,417.08Z" transform="translate(-272.04 -397.33)"/><path d="M284.76,413.44l.07.06.15,0s-.06,0-.09-.06Z" transform="translate(-272.04 -397.33)"/><path d="M279.58,415.07h-.1l-.1.06C279.72,415.13,279.73,415.11,279.58,415.07Z" transform="translate(-272.04 -397.33)"/><path d="M303.33,441.54v.26l0,0a2.28,2.28,0,0,1,0-.26S303.33,441.53,303.33,441.54Z" transform="translate(-272.04 -397.33)"/><path d="M304,438.15a.6.6,0,0,0,0,.11.42.42,0,0,0,0-.13l0-.1A.33.33,0,0,0,304,438.15Z" transform="translate(-272.04 -397.33)"/><path d="M301.83,440.1s0,.06,0,.06,0,0,0,0l0-.07Z" transform="translate(-272.04 -397.33)"/><path d="M302,441.4c0,.05,0,.11,0,.09a.72.72,0,0,0,0-.17l0-.09S302,441.31,302,441.4Z" transform="translate(-272.04 -397.33)"/><path d="M281.83,415.53l0,0h-.1l.06,0Z" transform="translate(-272.04 -397.33)"/></svg>