<svg id="Camada_1" data-name="Camada 1" xmlns="http://www.w3.org/2000/svg" viewBox="0 0 49.96 62.36"><title>touro</title><polygon points="46.17 19.01 46.16 19.02 46.16 19.03 46.17 19.01"/><path d="M273.44,395.27a12.13,12.13,0,0,0,.61,1.54c.33.64.57.85,1,1.54v.21c.09.13.18.23.26.36s.19.34.31.56c.09,0,.53.78.58.72.09.19.16.31.24.45a6.51,6.51,0,0,1,.68.86l-.08,0h0v0l.28.54c.1.19.21.37.32.57-.2-.24-.37-.42-.51-.62-.07.09-.11.06-.48-.34,0,0,.44.69,0,.15l-.26-.47c0,.1-.5-.48-.75-.77a6.73,6.73,0,0,0,.72,1,7.17,7.17,0,0,1,.66.93c-.5-.63-.89-1.14-1.32-1.71.29.48.44.78.4.85l0,.07.11.17v-.11a5.8,5.8,0,0,0,.52.65c.09.14.19.27.3.41l-.32-.27a7.8,7.8,0,0,1,.75,1l-.16-.12c.25.37.45.71.72,1.07a10.11,10.11,0,0,1,.89.89l-.59-.53.6.75.17.06c.64.71.81,1,.69,1a13.87,13.87,0,0,1,.93,1l.94.72c.44.35,1,.72,1.49,1.17a8.35,8.35,0,0,0,.95.71l.69.59-.06.08-1-.65a6.12,6.12,0,0,0,1.07.85c.29.18.66.43.63.47s.33.27.51.43c-.7-.45-.36-.14-.8-.38a5.42,5.42,0,0,0,1,.57,7.94,7.94,0,0,0,.72.45l.38.24c.16.12.16.16.17.24a4.53,4.53,0,0,0,1.13.56,2.28,2.28,0,0,1,.35.15,1.24,1.24,0,0,1,.24.16,3.69,3.69,0,0,0,.41.3A14.24,14.24,0,0,0,291,415c.1,0,0-.14.51,0l0,.09.59.23a3.65,3.65,0,0,1,1.08.27c-.49-.19-.86-.36-1.44-.61l.82.3-.45-.28c.4.17.76.34,1.1.47l.82.31a10.7,10.7,0,0,0-1.26.36l.78-.19-.44.23a10,10,0,0,0,1-.35,5.28,5.28,0,0,0,1.27.27l-.17,0c.34.11.64.2.79.27a3.39,3.39,0,0,0,.7.16l-.69.11-1,.24a6.87,6.87,0,0,0-.72.13c-.67.18-1.14.31-1.09.22-.75.28-1.22.54-2.1.92l.61-.32c.17-.09.38-.18.66-.3a7.06,7.06,0,0,0-1.48.67l-.07-.13a19.56,19.56,0,0,0-2.6,1.73,1.88,1.88,0,0,0-.24.22c-.22.16-.43.33-.62.45s.31-.58-.63.07c0-.08.13-.2.07-.18s-.28.18-.47.3l.8-.67a7.46,7.46,0,0,1,1-.78l.22,0,.54-.36c1.18-.78,1.89-1.21,2.33-1.52.07,0-.05,0-.13,0-.37.07-.22-.07.56-.45a1.57,1.57,0,0,0-.28.1c-.36.15-.83.37-.69.27a7.21,7.21,0,0,1,.73-.4c.25-.11.56-.25.91-.38-.44.08-.9.2-.71,0s-.31.05.28-.22c.1,0,.11-.08,0-.06-.47.12.11-.19.16-.28a1,1,0,0,1,.1-.09l-.23.08-.68.41a12.41,12.41,0,0,0-2.21.95c-.44.27-.75.48-1.06.71l-1.09.82-.27.09c-.17.15-.31.3-.48.43s-.46.36-.73.58a3.71,3.71,0,0,1-.5.54c-.23.23-.43.46-.4.48-.23.2-.37.34-.54.5l-.39.52c-.13.19-.32.41-.58.76l0-.12v0h0l0,0c-.4.43-.8.88-1.2,1.4.23-.4.44-.7.63-1-.11,0-.09-.1.34-.79,0,0-.76,1-.18.1.18-.21.37-.4.55-.59-.14,0,.55-.84.91-1.28a9.72,9.72,0,0,0-1.16,1.36c-.16.22-.29.41-.45.62l-.57.75a19.08,19.08,0,0,1,1.95-2.56,5.4,5.4,0,0,1-1,.93l-.09.1-.19.22.13-.07a8.69,8.69,0,0,0-.7,1c-.15.2-.3.4-.45.63l.29-.56c-.23.32-.41.62-.57.89s-.31.49-.44.68l.09-.28c-.37.57-.66,1.07-1,1.68s-.18.61-.62,1.81c.1-.42.21-.76.33-1.16l-.3.7-.24.67,0,.25c-.11.35-.2.64-.27.88s-.12.42-.16.56-.14.35-.17.27c-.18,1.24-.2,1.23-.32,2.14,0,.61.06,1.15.1,1.82,0,.43.13.9.19,1.39s.2,1,.27,1.48a12.09,12.09,0,0,0,.5,1.73,11.35,11.35,0,0,0,.42,1.31l-.1,0-.18-.4-.16-.42c-.1-.27-.2-.55-.31-.83.07.26.13.52.23.84a5.31,5.31,0,0,0,.18.51c.07.19.17.39.28.62a7.2,7.2,0,0,1,.46,1.1,6.36,6.36,0,0,0,.41.93,10.91,10.91,0,0,0-.73-1.13c.25.5.43.81.57,1s.25.35.36.49l.38.63.32.46.38.57c.16.25.17.29.16.4.3.37.54.66.75.88s.41.38.57.52a4.81,4.81,0,0,1,.42.4,2.92,2.92,0,0,1,.31.33,7.2,7.2,0,0,0,.52.58c.25.25.57.49.89.75a11.35,11.35,0,0,0,1.07.78c.15,0,0-.14.72.21l-.05.08.86.47a9.47,9.47,0,0,1,1.58.58l-1-.48c-.34-.15-.68-.37-1.1-.6.58.3.83.44,1.19.59-.22-.13-.39-.24-.67-.44l.42.24a4.09,4.09,0,0,1,.42.2l.79.37c.52.2,1,.4,1.5.56l-.34-.07a7.27,7.27,0,0,0,1.15.3c.27.06.5.08.9.13l-.25,0,1.22.28a6.37,6.37,0,0,0,1.41.14c.12.06,1.4.13,1.43.17s.1.1.16.15c.52,0,1,0,1.49-.11s.94-.11,1.39-.2c.07,0,0,0,0,0a11.07,11.07,0,0,0,1.28-.23,4.33,4.33,0,0,1-.88.1l-.38,0c.32,0,.59-.07.9-.13l1.11-.23c-.92.15-.67.07-.15-.08s.21-.1-.38,0a4.49,4.49,0,0,1-.59.08,4.79,4.79,0,0,1,.58-.17c.2,0,.42-.09.65-.16l.73-.22-.6.27a5.14,5.14,0,0,0,1.56-.6c.33-.11.71-.21,1-.32a7.52,7.52,0,0,0,1.21-.51c.67-.38-.08,0,.09-.16.36-.19.73-.37,1.08-.57l1.05-.66.23-.27c.9-.62,1.5-1.15,1.72-1.23l-.53.55.7-.57c.22-.17.4-.36.59-.53.48-.55.2-.36,1.06-1.39l-.59.65c-.2.22-.42.42-.63.62h0c.28-.29.56-.57.81-.88s.52-.6.75-.93a7.68,7.68,0,0,1-.64.46,7.09,7.09,0,0,0,.74-.93,10.89,10.89,0,0,1-.73.81c.24-.28.39-.51.74-1-.23.28-.44.57-.66.82l-.63.71c-.41.43-.8.77-1.11,1a12.73,12.73,0,0,1,1.07-1.26l0,.1.76-.88.54-.71c.33-.4.52-.72.7-.94-.21.33-.39.66-.64,1a5.5,5.5,0,0,0,.47-.61c.15-.22.29-.44.43-.68s.29-.51.43-.78.31-.51.46-.81.44-.84.63-1.3l.3-.7c.09-.24.18-.49.28-.74-.09.32-.17.58-.22.75.16-.43.32-.86.47-1.28s.26-.86.38-1.29a7.19,7.19,0,0,0,.37-1.83c0-.27.06-.58.08-.79l.17-1.13c.06-.38.08-.76.11-1.17h-.13a4.63,4.63,0,0,1,0-.6s0,0,0-.09v-.39l-.1-.41c0,.42,0,1.15-.05,1.05,0-.51,0-.94-.06-1.38a4.82,4.82,0,0,1-.16-1.13,20.79,20.79,0,0,0-.57-2.46c.15.6.22,1,.28,1.32l-.13-.08c-.08-.35-.13-.64-.22-1s-.21-.44-.35-.7a11.49,11.49,0,0,1,.55,1.91c-.15-.49-.32-1-.56-1.57.17.59.27,1,.36,1.41-.14-.3-.19-.66-.58-2a13.28,13.28,0,0,1-.57-1.38,9.13,9.13,0,0,0-.77-1.53c.29.6.52,1.13.75,1.75-.13-.26-.25-.5-.4-.76l-.11-.3c-.15-.24-.29-.44-.49-.72s-.25-.55-.32-.69-.32-.45-.46-.63-.25-.33-.39-.49c-.09,0,.25.55-.3-.06h0v0h0c-.16-.14-.33-.28-.11,0,.31.51.36.65-.23,0,.26.31.5.62.74.95l0,.08a14.36,14.36,0,0,0-1.9-2.09,3.3,3.3,0,0,1,.36.55c0,.08-.14,0-.22-.06.27.31.41.43.53.55a2.68,2.68,0,0,1,.47.55l-.31-.23.15.21c.18.19.36.38.62.69a4,4,0,0,0,.21.51c.13.26.38.71.57,1.14-.17-.27-.22-.3-.58-.91s-.38-.47-.82-1.09c.27.41-.17-.14-.18-.11a14.59,14.59,0,0,1,.88,1.31c-.36-.52-.6-.82-.72-1,0,.13.07.31,0,.32a6.32,6.32,0,0,1-.48-.54,15.93,15.93,0,0,0-1.35-1.48,11.32,11.32,0,0,0-1.94-1.26,12.75,12.75,0,0,1,1.44,1.24l-.1.11-.64-.48.22.23c-.37-.27-.77-.51-1.16-.74l-.05.07a5.43,5.43,0,0,0-1.25-.68l.27.15c.67.42.67.42.09.17l-.4-.16c-.3-.11-.24-.06.23.19.15.09.29.17.53.33a11.57,11.57,0,0,0-1.3-.61,2.13,2.13,0,0,0,.58.32,1.4,1.4,0,0,1,.47.23c.18.12.26.22.39.32-.12-.07-.32-.2-.34-.2a1.51,1.51,0,0,0-.28-.05,9.15,9.15,0,0,1,.82.47l-.15-.18c.23.16.47.31.86.63a7.74,7.74,0,0,0-.69-.44h0l0,0h0l-.07.1a11.33,11.33,0,0,0-1.07-.61v0a9.24,9.24,0,0,1,1.16.74,7,7,0,0,1,.85.76l-.42-.32c0,.09.15.21.6.61a10,10,0,0,1,1,1.05l.15.28c.28.33.5.64.71.94a3.79,3.79,0,0,1,.49.93,14.18,14.18,0,0,1,1.21,3c.22.54.12.07.08-.2a15,15,0,0,1,.38,1.91c-.09-.33-.19-.64-.3-1s-.29-.83-.46-1.23a10.38,10.38,0,0,1,.34,1.51c-.08-.31-.17-.59-.24-.79a14.46,14.46,0,0,0-.56-1.79c-.07,0-.19-.32-.36-.66-.31-.62-.33-.61-.39-.58l.15.27.18.33c0,.22.05.31.42,1.2.13.34.27.7.36,1l.38,1.4c.15,1-.05.29,0,.72l.12.28c0,.21.06.46.07.68s0,.43,0,.56a1,1,0,0,1-.09.4c0,.5,0,.79.06,1.12,0,.16,0,.33,0,.54a4.69,4.69,0,0,1-.06.77,1.75,1.75,0,0,1,0-.34c0-.14,0-.32,0-.56,0-.43,0-.58-.05-.49a6,6,0,0,1,0,.94c0,.31-.11.63-.15,1a1.06,1.06,0,0,1,0-.47l0-.41c0-.14,0-.29,0-.43,0-.62,0-.7-.09-.41s0,.44-.05.62-.06.25-.08.4c-.07.41-.12.82-.2,1.19s-.13.71-.16.95-.22.65-.32.91c-.25.75-.24.63-.25.51s-.07.08-.15.17-.07.32-.08.35c-.14.3-.24.6-.39.9a6.61,6.61,0,0,1-.46.87,3.12,3.12,0,0,0-.2.35,7.11,7.11,0,0,1-.64,1.06,9.06,9.06,0,0,1-.81.91c-.26.22-.56.53-.86.74s-.51.45-.84.7l-.48.38-.49.33-.22.17-.21.15c-.07.07,0,0,0,.05-.31.17-.58.36-.9.5l-.55.3c-.1.06-.2.13-.16.12a3.87,3.87,0,0,0,.53-.24l.43-.22-.06.1a10.08,10.08,0,0,0,.9-.55,4.06,4.06,0,0,0,.5-.51l.29-.18.29-.21a8.12,8.12,0,0,1-.69.63,7.93,7.93,0,0,0,.74-.48c-.23.2-.46.35-.66.52l-.31.25-.31.23.29-.15.25-.15h0a3.84,3.84,0,0,1-.3.28l-.69.37c-.18.1-.33.15-.46.22s-.44.28-.86.5a4.44,4.44,0,0,0-.53.19,5.89,5.89,0,0,1-1.19.35,11.56,11.56,0,0,1-3.09.66c.07-.12-.76-.13-.65-.25a22.59,22.59,0,0,1-2.52-.19l-.25.05c-.36-.06-.66-.15-1-.21.18.07.46.14.72.21s.54.11.68.17a3.76,3.76,0,0,0,.59.07c.31,0,.63,0,.94,0h.68l-.05,0c-.29,0-.58,0-.86,0l-.43.06-.46-.06-.37-.06-.34.09c-.36,0-.62-.12-.82-.15s-.37,0-.67-.09c0,0,0-.06.07,0l.57.1c.39.06.62.05.44,0a7.63,7.63,0,0,0-1-.23,4.56,4.56,0,0,0-.55-.08c-.26-.06-.49-.16-.75-.24l-.38-.13-.38-.17.13.14-.76-.31c-.22-.14-.49-.32-.71-.43s-.1,0,0,0c-.14-.08-.34-.23-.36-.24a.77.77,0,0,1-.1-.21l-.33-.23-.24-.22a2.38,2.38,0,0,1-.26-.29c-.13-.17-.56-.57-.91-.91l-.14-.12.15.2.16.19.31.36c-.1-.11-.38-.31-.52-.49a4.47,4.47,0,0,0-.35-.4c-.13-.13-.25-.25-.35-.37l-.26-.34a3.83,3.83,0,0,1-.41-.61c-.1-.2-.3-.47-.44-.73l-.13-.2a4.71,4.71,0,0,0,.22.45c-.17-.19-.29-.36-.44-.55l0-.19c-.32-.45-.42-.59-.38-.35l-.29-.58.15-.07a12.87,12.87,0,0,1-.57-1.53,1.4,1.4,0,0,0,.1.5c.08.24.19.5.22.64-.08-.13-.16-.27-.28-.45s-.06-.4-.09-.56a2.59,2.59,0,0,0-.23-.44,3.58,3.58,0,0,1-.23-.67,3.2,3.2,0,0,1-.2-.73l-.08-.45,0-.5.1.33c0-.27,0-.5,0-.64a4.81,4.81,0,0,1-.07-.64c0-.21-.06-.43-.06-.64s-.11.42-.12-.29c.05-.18.05-.42.09-.66s.05-.46.06-.64a7.47,7.47,0,0,1,.38-1.79c.1-.34.22-.65.29-.87l-.25.24c.13-.33.24-.56.3-.73a1.11,1.11,0,0,0,.08-.31l.09-.19.28-.38c.15-.27.27-.52.44-.77,0,0-.46.62-.09,0a15.64,15.64,0,0,1,1.07-1.43l.09-.14a3.83,3.83,0,0,0-.35.35c-.16.19-.35.45-.52.69h0c.16-.26.33-.51.59-.86l-.44.28c.15-.22.27-.37.38-.51l.35-.37c.12-.15.26-.29.4-.45s.31-.33.5-.51c-.07,0-.09,0,0-.09a4.2,4.2,0,0,1,.55-.56l.2-.07a18.24,18.24,0,0,1,2.52-1.88l.29-.23a3.77,3.77,0,0,1,.94-.43l.65-.25.84-.38c.45-.2,1-.39,1.5-.57.32-.14.71-.32,1.11-.47-.24,0-.53.1-.86.18a21.46,21.46,0,0,1,2.09-.6c-.78.13-1.29.25-1.81.38.09-.05.06-.06-.13,0a8.34,8.34,0,0,0-1.06.29l.47-.23c.19-.09.46-.19.54-.25s-.08,0-.18,0a5.06,5.06,0,0,0-.51.14l.21,0c-.36.14-.69.25-.95.36-.07,0-.06,0-.19,0-.37.06-.38,0-.31-.13l.22-.09a10,10,0,0,0,1.34-.54,1.48,1.48,0,0,1,.34-.13l.61-.19.14,0-.65.21H295a24.07,24.07,0,0,1,2.78-.63,1,1,0,0,0,.07.15l1,.12.95.06c.05,0,0,0,0,0,.29,0,.58.07.88.08a1.69,1.69,0,0,1-.83-.24l.61.08.77.06c-.63-.09-.45-.11-.08-.12s.16,0-.25-.08a1.71,1.71,0,0,1-.4-.06l.41,0,1,0-.45.07a2.3,2.3,0,0,0,1.05-.06c.55.06.78.09.63,0h.17a2.92,2.92,0,0,0,.54,0l.35.13.3.08-.46-.18-.16,0,.32,0c.53-.06,0-.06.1-.11l.84,0,.84-.1.22-.11c.38,0,.71-.1,1-.13a1.64,1.64,0,0,1,.51,0l-.5.18c.44-.07.81-.12,1.16-.19a6.42,6.42,0,0,1,1.13-.5l-1.2.31h0c.53-.18,1.07-.33,1.6-.54a3.92,3.92,0,0,1-.58,0,4.07,4.07,0,0,0,.8-.28c-.25.07-.48.15-.75.2a7.74,7.74,0,0,0,.81-.34c-.25.09-.48.19-.71.25l-.64.18a5,5,0,0,1-1,.21,7.44,7.44,0,0,1,1.09-.41l-.05.07.78-.24.6-.22c.34-.12.6-.21.79-.26l-.78.34a3.94,3.94,0,0,0,1.05-.39,12.75,12.75,0,0,1,1.17-.58l.91-.5c.15-.09.32-.18.47-.28l.48-.31-.44.36a18.68,18.68,0,0,0,1.59-1.11,2.65,2.65,0,0,0,.51-.34c.17-.15.33-.34.5-.51l.39-.4c.43-.34.81-.67,1.24-1.05L318,410c.36-.42.29-.26.37-.31l.18-.19.13-.27c-.22.2-.55.57-.55.48.23-.26.44-.48.63-.71a1.94,1.94,0,0,1,.47-.64c.31-.41.58-.84,1-1.41-.26.33-.42.53-.56.72l-.05-.12c.15-.2.26-.36.41-.55s.11-.31.17-.51a9.29,9.29,0,0,1-.72,1.14c.16-.31.32-.62.51-1-.23.35-.41.59-.57.82a1.53,1.53,0,0,1,.21-.39l.56-.8c0-.1.31-.55.5-.87a6.85,6.85,0,0,0,.56-1c-.24.37-.47.68-.71,1.05.08-.18.15-.34.24-.52l.14-.17c.07-.17.13-.33.2-.55l.31-.4c.18-.36.29-.59.39-.84,0-.07-.3.28-.11-.23h0c0-.14.06-.28-.09-.07s-.33.39-.11-.16l-.35.73,0,0c.25-.58.5-1.15.74-1.76a2.27,2.27,0,0,1-.3.34c-.06,0,0-.11-.05-.17-.27.49-.15.48-.42.93l0-.28-.09.15c-.06.17-.11.35-.21.61a1.72,1.72,0,0,0-.27.27c-.13.17-.3.47-.49.74a5.41,5.41,0,0,1,.31-.68c.21-.37.14-.4.39-.86-.18.28,0-.16,0-.16-.15.28-.29.54-.53,1,.18-.4.3-.64.34-.76s-.2.12-.25.07a1.86,1.86,0,0,1,.18-.48c.18-.39.4-.8.62-1.27s.37-1.09.51-1.59c-.23.42-.46.83-.68,1.2l-.13-.06.21-.56-.13.2.34-1-.08,0a6.1,6.1,0,0,0,.42-1l-.11.19c-.28.53-.28.53-.15.07l.09-.31c.07-.24,0-.19-.15.17l-.22.43.4-1c-.06,0-.15.21-.25.45a.74.74,0,0,1-.14.38c-.08.14-.15.21-.22.32,0-.1.12-.26.12-.28a1.76,1.76,0,0,0,0-.23c-.11.28-.2.48-.28.68l.13-.13-.35.74c.1-.28.15-.44.21-.59h0v0h0l-.12,0c.13-.3.26-.59.38-.88h0c-.16.32-.32.69-.47,1s-.3.51-.45.78l.15-.39c-.07,0-.15.15-.35.57l-.52,1-.17.19c-.16.3-.28.56-.42.81a3,3,0,0,1-.45.68c-.21.37-.44.73-.65,1.08l-.64,1c-.2.38,0,.11.18,0-.29.39-.58.77-.88,1.14.13-.22.22-.44.34-.66s.31-.57.45-.87c-.18.18-.56.86-.7.91l.32-.52c.29-.41.54-.78.8-1.16,0,0,.1-.28.25-.53.27-.45.26-.46.2-.5l-.11.21-.15.25c-.16.08-.2.16-.57.79-.15.24-.29.49-.43.71a7.88,7.88,0,0,0-.59.9c-.46.58-.2.1-.43.32l-.07.22c-.1.13-.2.27-.31.4l-.28.3c-.14.14-.18.1-.27.15-.22.29-.34.45-.48.65a3.86,3.86,0,0,1-.61.71,2.78,2.78,0,0,1,.4-.51c.2-.23.25-.33.17-.32a2.7,2.7,0,0,1-.44.52c-.17.14-.35.29-.51.45,0-.09.31-.43.57-.74s.29-.41.11-.29l-.31.32c-.09.07-.16.1-.24.17s-.43.4-.63.57a3.6,3.6,0,0,0-.48.47c-.2.15-.42.24-.56.36-.45.32-.4.24-.36.17s-.08,0-.17,0l-.17.17a9,9,0,0,1-1.18.65l-.25.13c-.1.07-.22.13-.34.2a2.52,2.52,0,0,1-.44.16,3.7,3.7,0,0,1-.82.23l-.81.09-.77.11a6.9,6.9,0,0,1-.87.11l-.4.08c-.06,0,0,0,0,.06-.26,0-.5,0-.76,0l-.47,0c-.08,0-.17,0-.14.05h.43l.36,0-.07.06a2.71,2.71,0,0,0,1.27-.26l.5-.05c-.26.09-.48.16-.65.2a5.94,5.94,0,0,0,.65,0c-.45.09-.82.14-1.17.24h.46l-.28.09-.58,0h-.37a5.67,5.67,0,0,0-.73.11,3.73,3.73,0,0,0-.41,0,5.15,5.15,0,0,1-.92-.05c-.39,0-.8,0-1.2,0s-.79-.1-1.15-.12c.08-.1-.53-.28-.43-.37a8,8,0,0,1-.87-.21,6,6,0,0,0-1-.24l-.2,0-.72-.23c.26.13.83.31,1,.41a3.4,3.4,0,0,0,.44.11c.23.05.47.11.7.14l.5.11h0l-.64-.09h-.33l-.34-.11-.27-.07-.27.07c-.26-.06-.46-.14-.61-.18l-.51-.08s0-.05.05,0,.3.07.44.1c.3.06.47.05.34,0a3.59,3.59,0,0,0-.77-.23c-.18,0-.29,0-.43-.06-.37-.12-.75-.23-1.17-.38l.1.12-.61-.21a6.11,6.11,0,0,0-.58-.27c-.25-.1-.08,0,0,0a1.78,1.78,0,0,1-.31-.15.82.82,0,0,1-.1-.17,2.71,2.71,0,0,1-.74-.47,4.8,4.8,0,0,0-.88-.54l-.13-.05.62.46a3.68,3.68,0,0,1-.5-.27,2.47,2.47,0,0,0-.36-.21,6.81,6.81,0,0,1-1.1-.71c-.14-.11-.37-.25-.55-.39l-.16-.09a2.34,2.34,0,0,0,.3.25c-.19-.07-.34-.15-.51-.22l-.09-.14c-.38-.2-.52-.22-.4-.07l-.42-.28.09-.14c-.37-.25-.67-.52-1-.78,0,.08.54.46.68.63l-.37-.18-.29-.33c-.39-.25-.28,0-.83-.47a7.32,7.32,0,0,1-1.07-.84l.25.12-.36-.36-.82-.63c-.11-.05.19.3-.26-.05a5.9,5.9,0,0,0-.75-.75c-.17-.14-.34-.3-.52-.47s-.35-.35-.52-.54-.37-.39-.5-.53l.05.29c-.35-.43-.52-.59-.6-.61a.44.44,0,0,1-.11-.12l-.16-.33-.43-.53s.31.5-.06.07c-.14-.18-.27-.36-.4-.55l-.37-.58-.09-.09a2.14,2.14,0,0,0,.17.34c.1.16.23.37.36.54v0c-.15-.17-.28-.36-.48-.62,0,.14.05.26.07.4a5,5,0,0,1-.47-.72c-.16-.24-.35-.48-.54-.82,0,.12-.09.07-.43-.47v-.16l-.34-.53-.31-.53c-.19-.34-.38-.66-.54-1a1,1,0,0,1-.17-.22,2.67,2.67,0,0,1-.28-.71,6.25,6.25,0,0,0-.46-1.1c-.15-.32-.31-.68-.47-1.06-.15-.22-.28-.49-.44-.76,0,.17.1.38.16.62l-.6-1.46c.17.55.28.91.4,1.28-.09-.12-.07.11.22.85l-.2-.32c-.09-.13-.18-.31-.23-.36s0,.06,0,.14a3.76,3.76,0,0,0,.13.36l0-.17c.12.25.23.48.31.67s-.05.05,0,.15c0,.27-.05.29-.15.25l-.07-.15c-.17-.38-.39-.94-.48-.93a6.35,6.35,0,0,1-.29-.65l0-.11.21.45v-.06c-.25-.67-.52-1.33-.71-2-.14-.13-.22-.09-.12.53-.18-.52-.33-1-.48-1.42l-.11-.07.23,1.27c0,.14.11.34.18.53a10,10,0,0,0,.41,1.3,3.39,3.39,0,0,0,.1.52c.16.46.26.79.18.77.22.51.4.85.69,1.47-.12-.19-.18-.3-.25-.42s-.13-.27-.22-.47a4.53,4.53,0,0,0,.48,1l-.12.06.57,1,.58.91a.9.9,0,0,0,.16.17c.09.17.17.35.25.49s-.45-.24-.11.5c-.06,0-.14-.11-.14-.06a2.41,2.41,0,0,0,.14.38l-.39-.63a5,5,0,0,1-.45-.77l0-.18-.23-.39a11.41,11.41,0,0,0-1.09-1.64s0,0,0,.1c0,.26-.09.17-.37-.37a1.17,1.17,0,0,0,.06.2c.11.25.27.58.19.49a4.28,4.28,0,0,1-.31-.51c-.08-.16-.17-.38-.27-.62,0,.31.1.64,0,.52s0,.23-.19-.18c0-.07-.07-.07-.06,0,.07.34-.16-.05-.24-.07l-.08-.07.05.16Zm3,6.6c.3.4.3.44.28.47ZM289.76,417c.53-.23.95-.39,1.37-.54l-.18.1c-.28.11-.56.22-.83.35s-.31.16-.66.37ZM282,422.79c.15-.2.3-.38.52-.63C282,422.76,282,422.78,282,422.79Zm.83,20.27-.62-.82a1.49,1.49,0,0,0-.29-.31c-.16-.29-.29-.51-.43-.78a1.64,1.64,0,0,0,.13.16,5,5,0,0,1,.42.58l.27.39.27.33c.05.05.26.37.4.57C282.88,443.14,282.88,443.18,282.78,443.06Zm33.11-14,.05.14v.31l-.06-.48-.1-.22C315.82,428.62,315.83,428.62,315.89,429.08Zm-.92-3.46c-.15-.65-.28-1.06-.42-1.5A3.46,3.46,0,0,1,315,425.62Zm-6.31-6.91-.19-.17s.08,0,.16.1l.24.23A1.66,1.66,0,0,1,308.66,418.71Zm-1.44-.11.08.15-.18-.12Zm.08.25-.35-.26.13.06.3.24Zm5.51,4.65a8.21,8.21,0,0,1-.55-1.19C312.48,422.76,312.61,423,312.81,423.5Zm-.76,6.6,0,.27v.32c-.08-.4-.11.12-.14.7v-.89h0a5.58,5.58,0,0,1,.07-.92Zm-.12.43-.06.58C311.89,430.56,311.89,430.55,311.93,430.53Zm-.26-2.66a.78.78,0,0,0,0-.16c.05.14.09.29.13.43a1.94,1.94,0,0,1,0,.24Zm.37,14.74c.21-.16-.23.42-.57.89C311.28,443.65,311.29,443.65,312,442.61Zm-.82-7.87c0-.22.09-.44.14-.76l.1-.11c-.06.26-.1.52-.17.76s-.13.48-.2.72l0,0C311.11,435.17,311.17,435,311.22,434.74Zm-1.48,3.32c.21-.38.38-.65.54-1a7.3,7.3,0,0,1-.56,1.28Zm-.33.62-.18.18C309.51,438.4,309.54,438.39,309.41,438.68Zm-1.13,1.51.18-.23.18-.26c.12-.19.27-.39.43-.65a6.1,6.1,0,0,1-.8,1.18Zm-2,1.9.27-.15c-.14.14-.26.25-.37.34l-.31.26h0Zm-.53.69a4.29,4.29,0,0,1,.5-.35c-.14.13-.32.3-.39.35-.25.19-.5.31-.74.47ZM304,448.91l.34-.13,0,0-.41.17Zm-1.12.41.37-.11-.47.21-.48.19-.18,0C302.37,449.54,302.63,449.45,302.88,449.32Zm-1.66.54h0l-.54.13h0Zm-2.17,1.51.57,0C299,451.43,299,451.42,299.05,451.37Zm-3.38-5.73a3.78,3.78,0,0,1-.47-.06h.07c.16,0,.32,0,.48.05Zm1.16.16.19.11C296.21,445.89,296.55,445.84,296.83,445.8Zm-4.33,5c.76.17.57.16.3.14C291.94,450.72,292.18,450.73,292.5,450.76ZM291.06,445l-.21,0-.18-.08h.13Zm-.37-.28c-.3-.14-.46-.23-.75-.38l0-.12Zm-1.51,4.93.22.12-.11,0-.22-.11Zm-3.73-1.78s0,0-.05,0l-.22-.18s.06,0,.09,0Zm-.24-1.78.11.1-.43-.34-.12-.13ZM284,445a1.12,1.12,0,0,1,.14.18l-.34-.3c-.08-.12-.19-.25-.17-.23Zm2.64-24,.25-.16-.51.49-.12.09C286.38,421.31,286.48,421.18,286.65,421Zm0,.31c-.23.2-.45.35-.72.61a11.1,11.1,0,0,1,2-1.78l0-.1c.39-.21.4-.2-.05.15a4.62,4.62,0,0,0-.64.58A5.48,5.48,0,0,1,286.64,421.32Zm.63-.28c.2-.21.39-.38.57-.56l.25-.18c-.07.11.14,0,.72-.42Zm1.1-1.09.51-.26C288.25,420.1,288.21,420.13,288.37,420Zm.89,1.25-.06,0c.2-.17.43-.32.65-.48l.1,0C289.72,420.87,289.48,421,289.26,421.2Zm3.14-2.49-.35.06.22-.1.28,0Zm28.77-18.45.09-.16s0,.07,0,.14l-.12.2Zm-.32-1.14-.12.08.06-.15Zm-.21.08.15-.29,0,.11-.14.25Zm-.43,6.7a2,2,0,0,1-.61.86C319.87,406.4,320,406.16,320.21,405.9Zm-.23-2.21-.5.77A2.87,2.87,0,0,1,320,403.69Zm-1.59,5.21a.53.53,0,0,0,0-.17c.13-.08.14-.08-.05.18l0,.11-.15.16ZM316,405.47l.08-.09-.16.29-.12.13ZM314.74,407l-.32.27C314.7,407,314.69,407,314.74,407Zm0,0h0a2.19,2.19,0,0,1,.53-.45l-.51.63c.13-.28-.13,0-.44.27C314.46,407.3,314.61,407.16,314.74,407Zm-2.33,1.94.4-.36h.11c-.29.24-.55.47-.83.67h0C312.18,409.15,312.29,409,312.41,408.94Zm-2.21,1.21.71-.33a5.46,5.46,0,0,1-.81.5Zm-.43.22h-.18C309.93,410.23,310,410.25,309.77,410.37Zm.51,4.5c.2,0-.29.19-.66.34C309.44,415.22,309.44,415.22,310.28,414.87Zm-1.76-4.1.4-.14a4.56,4.56,0,0,0,.5-.21l-.29.16-.24.09c-.14.06-.26.09-.38.13Zm-1.91.36.23,0-.64.13h0Zm-.56.3a1.77,1.77,0,0,1,.44,0l-.37.09-.33,0h-.31Zm-2.84,4.71h-.08Zm-.83,0,.27,0c-.23,0-.47.06-.71.07h-.13Zm-1.2,0,0,0h-.38l0,0ZM298.12,411l-.34-.1h.05l.36.09Zm-.88,5.73h0Zm2.58.48c-.42-.05-.42-.05-.38-.1Zm-.86-5.92.12.13C298.5,411.28,298.75,411.28,299,411.28ZM295.15,416c.5.16.37.15.19.14C294.78,415.92,294.94,415.93,295.15,416Zm-1.09-.13h0l.1,0Zm.52-5.35h-.17l-.14-.06.11,0Zm-.29-.22-.62-.22,0-.11Zm-1.34,5,.14.07H293l-.15-.08Zm-2.62-.75s0,0,0,0l-.16-.09h.06Zm-.24-1.5.08.06-.34-.14-.1-.07Zm-1-.47s.15.09.13.09l-.29-.1-.14-.12Zm-2.44-1.73c.17,0,.67.37,1,.49l.41.24s0,0-.13,0l-.63-.32a.93.93,0,0,0-.28-.08l-.48-.36ZM275.77,394.2V394l.05.1a2.48,2.48,0,0,0,0,.27Zm1.15,4.28-.07-.2.29.41,0,.1Zm.8-2.11,0,.06-.32-.51,0-.08Zm-.61,1.62c-.14-.16-.25-.31-.36-.46l-.11-.19c.09.05,0-.12-.23-.55A11.77,11.77,0,0,1,277.11,398Zm-.86-1.25c.26.47.27.52.14.39Zm.21.76-.07,0c-.11-.31-.1-.32.12,0a2.54,2.54,0,0,0,.36.51,2.19,2.19,0,0,1,.32.48c.11.19.19.37.31.6-.18-.28-.35-.48-.51-.71A5.08,5.08,0,0,1,276.46,397.5Zm-2.85-2.05c.07.19.15.39.23.58l.26.45-.22-.2c-.14-.37-.25-.66-.35-.95Z" transform="translate(-273.04 -389.32)"/><polygon points="45.12 13.32 45.12 13.32 45.12 13.32 45.12 13.33 45.11 13.34 45.12 13.33 45.11 13.34 45.12 13.33 45.12 13.33 45.12 13.32 45.12 13.32"/><path d="M294.22,410l-.24-.15h0l.61.24h.06a2.49,2.49,0,0,0-.33-.16c-.19-.07-.41-.15-.34-.08l-.35-.18.42.08a7,7,0,0,1-.73-.31c.06.08-.34-.05-.11.11l.46.22Z" transform="translate(-273.04 -389.32)"/><path d="M293.22,409.58Z" transform="translate(-273.04 -389.32)"/><path d="M322,399.89c-.08,0-.4.66-.57.87-.2.6.2-.21.28-.32l-.07.29C321.8,400.37,321.89,400.15,322,399.89Z" transform="translate(-273.04 -389.32)"/><path d="M284.14,403.42l.35.33c.22.19.2.15.15.08-.54-.48-1-1-1.48-1.49h0A13.94,13.94,0,0,1,284.14,403.42Z" transform="translate(-273.04 -389.32)"/><path d="M322,402c-.1.24-.2.45-.3.67l.17-.08C322.09,402,322.1,401.94,322,402Z" transform="translate(-273.04 -389.32)"/><path d="M321.82,402.27c.14-.33.21-.55.3-.77a2.13,2.13,0,0,0-.37.61C321.5,402.69,321.82,402.15,321.82,402.27Z" transform="translate(-273.04 -389.32)"/><path d="M273.25,393.62l.2.29c-.23-.54-.33-.7-.35-.68s.08.38.3.93Z" transform="translate(-273.04 -389.32)"/><path d="M275,390.72a1.68,1.68,0,0,1,0-.35c-.16-.3-.17-.3,0,.56C275.05,391,275,390.85,275,390.72Z" transform="translate(-273.04 -389.32)"/><path d="M303.58,417.08l-.21,0-1.34,0A9.16,9.16,0,0,0,303.58,417.08Z" transform="translate(-273.04 -389.32)"/><path d="M306.77,416.78a3.6,3.6,0,0,0-.74.11c.29,0,.53,0,.82-.06l.66-.16C307.13,416.73,306.92,416.77,306.77,416.78Z" transform="translate(-273.04 -389.32)"/><path d="M319.2,408.53v-.18l-.45.62C318.84,408.89,318.84,409,319.2,408.53Z" transform="translate(-273.04 -389.32)"/><polygon points="46.16 19.03 46.16 19.03 46.17 19.01 46.16 19.03"/><polygon points="45.69 19.67 45.69 19.67 45.69 19.67 45.69 19.67 45.7 19.65 45.7 19.65 45.7 19.65 45.69 19.66 45.69 19.67 45.69 19.67"/><path d="M304.58,417.05h.24l.92-.18-.56.06-.33,0A.6.6,0,0,0,304.58,417.05Z" transform="translate(-273.04 -389.32)"/><path d="M279.4,398.52l.37.37-.06-.11c-.14-.18-.3-.36-.44-.58l0,.15A1,1,0,0,1,279.4,398.52Z" transform="translate(-273.04 -389.32)"/><path d="M321,397.34l-.47,1,0,.1.26-.4Z" transform="translate(-273.04 -389.32)"/><path d="M275.71,400.92c-.17-.24-.32-.49-.47-.71,0-.06-.05,0-.1,0,.25.35.41.59.59.81Z" transform="translate(-273.04 -389.32)"/><polygon points="13.62 16.26 13.46 15.98 13.3 15.86 13.45 16.13 13.62 16.26"/><path d="M321,404.91s.05-.14,0-.11a5.11,5.11,0,0,0-.48.82Z" transform="translate(-273.04 -389.32)"/><path d="M310.71,415.65l-.23,0C310.05,415.87,310.05,415.87,310.71,415.65Z" transform="translate(-273.04 -389.32)"/><path d="M318.41,402.1a.61.61,0,0,0-.11.15c-.15.27-.16.34-.16.39h0l.08-.13C318.38,402.26,318.45,402.11,318.41,402.1Z" transform="translate(-273.04 -389.32)"/><path d="M289.62,414.4l-.68-.27.13.09C289.62,414.47,289.62,414.47,289.62,414.4Z" transform="translate(-273.04 -389.32)"/><path d="M289.61,407.36c.63.46.63.46.81.49C290.19,407.71,290,407.58,289.61,407.36Z" transform="translate(-273.04 -389.32)"/><path d="M322.14,396c.17-.41.16-.47.1-.47C322.08,396,322,396.12,322.14,396Z" transform="translate(-273.04 -389.32)"/><path d="M283.37,409.73l-.48-.3C283.45,409.91,283.55,410,283.37,409.73Z" transform="translate(-273.04 -389.32)"/><path d="M276.63,402.7l.4.49A1.33,1.33,0,0,0,276.63,402.7Z" transform="translate(-273.04 -389.32)"/><path d="M299.67,411.23a5.13,5.13,0,0,0,.8.1A3.49,3.49,0,0,0,299.67,411.23Z" transform="translate(-273.04 -389.32)"/><path d="M318.23,402a3.91,3.91,0,0,0,.47-.88C318.55,401.44,318.4,401.73,318.23,402Z" transform="translate(-273.04 -389.32)"/><polygon points="48.99 13.3 49 13.18 48.9 13.36 48.85 13.55 48.99 13.3"/><polygon points="49.01 7.21 48.85 7.48 48.78 7.71 48.95 7.37 49.01 7.21"/><path d="M273.09,394.79c-.11-.11,0,.07.18.55Z" transform="translate(-273.04 -389.32)"/><path d="M322.84,398.07c.18-.34.15-.38.16-.45Z" transform="translate(-273.04 -389.32)"/><path d="M321,402a1.22,1.22,0,0,0,.14-.2c0-.07,0-.13,0-.13a.66.66,0,0,0-.09.15A.62.62,0,0,0,321,402Z" transform="translate(-273.04 -389.32)"/><path d="M309.24,416a3.67,3.67,0,0,0,.5-.11l.51-.18C310.07,415.67,309.72,415.83,309.24,416Z" transform="translate(-273.04 -389.32)"/><polygon points="22.85 21.08 22.48 20.89 22.35 20.87 22.73 21.05 22.85 21.08"/><path d="M274.47,399.11a.44.44,0,0,0,.11.09l-.1-.18-.12-.12Z" transform="translate(-273.04 -389.32)"/><polygon points="46.91 18.08 47.21 17.64 47.17 17.66 46.88 18.09 46.91 18.08"/><polygon points="48.09 8.75 48.09 8.75 48.09 8.76 48.09 8.76 48.09 8.76 48.09 8.76 48.09 8.76 48.09 8.75 48.09 8.75 48.09 8.75"/><path d="M321.13,398.07c0-.09,0-.18,0-.31C321,398.17,321.07,398.12,321.13,398.07Z" transform="translate(-273.04 -389.32)"/><path d="M276.81,401.29l.19.16C276.72,401.08,276.72,401.08,276.81,401.29Z" transform="translate(-273.04 -389.32)"/><path d="M280.61,400a1.31,1.31,0,0,1-.07-.13l-.12-.13s0,.06,0,.12Z" transform="translate(-273.04 -389.32)"/><polygon points="25.15 21.76 24.74 21.68 24.74 21.69 25.16 21.79 25.15 21.76"/><path d="M274.76,394.66a1.13,1.13,0,0,1-.06-.14l-.12-.12C274.8,394.91,274.84,394.9,274.76,394.66Z" transform="translate(-273.04 -389.32)"/><path d="M320.75,398.53l.16-.38,0,0c-.06.12-.11.25-.16.37Z" transform="translate(-273.04 -389.32)"/><path d="M317.73,402.49a.52.52,0,0,0-.11.15.45.45,0,0,0-.07.14l.11-.13A.84.84,0,0,0,317.73,402.49Z" transform="translate(-273.04 -389.32)"/><path d="M321,401.34a.64.64,0,0,1,0-.1l0,.05,0,.11Z" transform="translate(-273.04 -389.32)"/><path d="M321.88,399.26l-.14.23s-.06.16-.05.15l.16-.23C321.87,399.32,321.9,399.24,321.88,399.26Z" transform="translate(-273.04 -389.32)"/><path d="M276.21,398.07V398l-.09-.14,0,.1Z" transform="translate(-273.04 -389.32)"/><polygon points="37.37 33.98 37.37 33.98 37.37 33.98 37.38 33.99 37.38 34 37.38 34 37.38 34 37.38 33.99 37.38 33.99 37.37 33.98 37.37 33.98"/><path d="M316,427.65v0h0Z" transform="translate(-273.04 -389.32)"/><path d="M290.6,444.5l-.28-.23h0l.37.19c.12.07.26.12.39.18h.08l-.43-.21c-.22-.13-.49-.26-.41-.17l-.41-.27.5.18L290,444l-.41-.27c.06.1-.41-.15-.14.08a5.45,5.45,0,0,0,.53.36Z" transform="translate(-273.04 -389.32)"/><path d="M289.42,443.76Z" transform="translate(-273.04 -389.32)"/><path d="M308.25,417.64s.19.22.43.43a6.48,6.48,0,0,1,.64.62c.72.55-.24-.34-.38-.47l.37.22C308.87,418.08,308.58,417.87,308.25,417.64Z" transform="translate(-273.04 -389.32)"/><path d="M283.9,430c0,.16-.07.32-.1.47a4.14,4.14,0,0,0-.09.46c0,.29-.1.57-.15.85s0,.4,0,.59c0,.36,0,.31,0,.21a10.59,10.59,0,0,1,.13-1.3,8.89,8.89,0,0,1,.24-1.25Z" transform="translate(-273.04 -389.32)"/><path d="M311.06,418.82c-.1-.07-.11,0-.07.07.27.27.51.54.74.82a2.21,2.21,0,0,0-.05-.25A6.55,6.55,0,0,0,311.06,418.82Z" transform="translate(-273.04 -389.32)"/><path d="M311.26,419.22c-.38-.39-.64-.62-.9-.85a6.83,6.83,0,0,0,.69.81C311.7,419.88,311.12,419.13,311.26,419.22Z" transform="translate(-273.04 -389.32)"/><path d="M296.81,417.75c-.1.09.61,0,.76,0C298,417.63,298,417.6,296.81,417.75Z" transform="translate(-273.04 -389.32)"/><path d="M302.71,450.37a10,10,0,0,0,2.12-.79l-.3.1c-.37.18-.71.28-1,.4S303,450.3,302.71,450.37Z" transform="translate(-273.04 -389.32)"/><path d="M308,447.86c.34-.22.64-.41,1-.66a8,8,0,0,0,.74-.64c-.43.35-.67.54-.86.67A6.41,6.41,0,0,0,308,447.86Z" transform="translate(-273.04 -389.32)"/><path d="M316,427.67h0v0Z" transform="translate(-273.04 -389.32)"/><path d="M316.16,427.86l-.14-.18c.06.37.12.74.16,1.11A2.23,2.23,0,0,0,316.16,427.86Z" transform="translate(-273.04 -389.32)"/><path d="M316.18,428.82h0v0h0v0Z" transform="translate(-273.04 -389.32)"/><path d="M306.15,449l.31-.16c.33-.19.64-.42,1.14-.78-.51.33-1,.61-1.13.67A2.3,2.3,0,0,0,306.15,449Z" transform="translate(-273.04 -389.32)"/><path d="M287,423.61l-.19.2c-.13.18-.26.37-.38.56l.11-.11c.19-.24.39-.48.62-.74Z" transform="translate(-273.04 -389.32)"/><path d="M306.32,418.75l-.47-.35c-.27-.12-.46-.2-.82-.33a10.6,10.6,0,0,1,1.18.63Z" transform="translate(-273.04 -389.32)"/><path d="M283.49,420.82l.09-.06c.28-.32.6-.63.87-.91.08-.07,0-.07,0-.13C284.05,420.18,283.76,420.49,283.49,420.82Z" transform="translate(-273.04 -389.32)"/><path d="M284,435.51l-.05-.26a2.47,2.47,0,0,0,0,.38l.08.26Z" transform="translate(-273.04 -389.32)"/><path d="M313.87,422.17c.1.25.26.58.59,1.29a12,12,0,0,0-.49-1.16S313.85,422.12,313.87,422.17Z" transform="translate(-273.04 -389.32)"/><path d="M312.85,443a1.75,1.75,0,0,1-.26.18C312.24,443.75,312.24,443.76,312.85,443Z" transform="translate(-273.04 -389.32)"/><path d="M310,422.66a.69.69,0,0,0,.1.21c.2.35.27.42.32.45s0,0,0,0l-.09-.17C310.14,422.81,310,422.64,310,422.66Z" transform="translate(-273.04 -389.32)"/><path d="M283.77,446.91c.7.6.71.6.72.52l-.89-.7Z" transform="translate(-273.04 -389.32)"/><path d="M286.56,440.77c-.21-.27-.4-.56-.68-1C286.38,440.63,286.38,440.64,286.56,440.77Z" transform="translate(-273.04 -389.32)"/><path d="M278.67,437a2,2,0,0,0,.1.33c0,.12,0,0,0-.17s-.19-.51-.27-.81A5.41,5.41,0,0,0,278.67,437Z" transform="translate(-273.04 -389.32)"/><path d="M281,423.72a3.52,3.52,0,0,0,.51-.81C281.29,423.23,281.15,423.48,281,423.72Z" transform="translate(-273.04 -389.32)"/><path d="M298.36,445.53c-.17,0-.35,0-.61.07a5.77,5.77,0,0,0,1.07-.11Z" transform="translate(-273.04 -389.32)"/><path d="M309.52,422.3a4.18,4.18,0,0,0-.43-.54,10.5,10.5,0,0,1,.73,1A2.74,2.74,0,0,0,309.52,422.3Z" transform="translate(-273.04 -389.32)"/><path d="M311.79,419.4l.22.19a4.11,4.11,0,0,0-.27-.35l-.15-.1Z" transform="translate(-273.04 -389.32)"/><path d="M291.16,416.15l.79-.27C292.12,415.76,291.86,415.84,291.16,416.15Z" transform="translate(-273.04 -389.32)"/><path d="M310.78,419.93a2.42,2.42,0,0,0-.21-.29c-.08-.06-.15-.12-.15-.1l.16.19Z" transform="translate(-273.04 -389.32)"/><path d="M311.39,444.5c.18-.17.34-.33.5-.51s.3-.37.47-.61C312.17,443.55,311.87,444,311.39,444.5Z" transform="translate(-273.04 -389.32)"/><path d="M292.56,445.07l.14,0a5.24,5.24,0,0,1-.48-.23l-.15,0Z" transform="translate(-273.04 -389.32)"/><path d="M285.92,418.48l-.14.17.26-.19.15-.18Z" transform="translate(-273.04 -389.32)"/><path d="M315.72,426v0c-.06-.25-.14-.51-.21-.76v.06C315.58,425.47,315.66,425.71,315.72,426Z" transform="translate(-273.04 -389.32)"/><path d="M305.92,418l-.38-.07C306.05,418.17,306,418.1,305.92,418Z" transform="translate(-273.04 -389.32)"/><polygon points="32.88 28.7 32.88 28.7 32.89 28.71 32.89 28.71 32.89 28.71 32.89 28.71 32.89 28.71 32.88 28.7 32.88 28.7 32.88 28.7"/><path d="M283.19,422.25c-.07.12-.11.22-.16.32C283.44,422,283.45,422,283.19,422.25Z" transform="translate(-273.04 -389.32)"/><path d="M285.45,425.71l.11-.2-.11.1a1.59,1.59,0,0,0-.13.24Z" transform="translate(-273.04 -389.32)"/><path d="M295.77,445.72c-.18,0-.37,0-.54,0h0a5.48,5.48,0,0,0,.57.05Z" transform="translate(-273.04 -389.32)"/><path d="M291.81,417.65l.21-.08.18-.15C291.47,417.73,291.48,417.77,291.81,417.65Z" transform="translate(-273.04 -389.32)"/><path d="M306.48,418.53l-.46-.26,0,0c.15.09.31.16.45.25S306.5,418.54,306.48,418.53Z" transform="translate(-273.04 -389.32)"/><path d="M310.26,424l-.07-.2-.13-.19a1.46,1.46,0,0,0,.09.22Z" transform="translate(-273.04 -389.32)"/><path d="M309.88,419.49l.12.11-.06-.08-.11-.1Z" transform="translate(-273.04 -389.32)"/><path d="M307.91,417.88l-.3-.26a1.14,1.14,0,0,0-.2-.09l.31.24Z" transform="translate(-273.04 -389.32)"/><path d="M287.26,420l.18-.15-.12.07-.14.12Z" transform="translate(-273.04 -389.32)"/></svg>