<svg id="Camada_1" data-name="Camada 1" xmlns="http://www.w3.org/2000/svg" viewBox="0 0 66.32 56.28"><title>virgem</title><path d="M312.47,419.58h0v-.05h0v0h0v0Z" transform="translate(-264.84 -392.37)"/><path d="M306.88,404.3h0v0h0s0,0,0,.06Z" transform="translate(-264.84 -392.37)"/><path d="M269.11,420.92c.15-1.06.12-.93.05-.61a36.27,36.27,0,0,0-.48,8.07l0,.07a27.79,27.79,0,0,1,.16-5.71C268.93,422.29,269,421.51,269.11,420.92Z" transform="translate(-264.84 -392.37)"/><path d="M309.31,427.2c0-.81,0-1.58,0-2.34l-.12.47C309.19,427.39,309.21,427.63,309.31,427.2Z" transform="translate(-264.84 -392.37)"/><path d="M309.46,426.65c0-2-.08,0-.13-.36,0,1.15,0,1.9.06,2.64A21.42,21.42,0,0,0,309.46,426.65Z" transform="translate(-264.84 -392.37)"/><path d="M270.69,406.13c-.14-.35-.2-.47-.21-.45s.36,1.14.9,2.93c-.22-.8-.34-1.26-.47-1.68.14.33.25.6.4,1C271,407,270.82,406.47,270.69,406.13Z" transform="translate(-264.84 -392.37)"/><path d="M270,398.31c.11.2.24.44.38.72l.46.94c.1.12-.06-.24-.26-.67s-.48-1-.56-1.16c-.38-.55-.61-.82-.47-.59S269.74,397.91,270,398.31Z" transform="translate(-264.84 -392.37)"/><path d="M306.94,404.71l.29,1.34c.07.12.14.23.2.35-.17-.71-.34-1.4-.55-2.09C306.91,404.47,306.91,404.52,306.94,404.71Z" transform="translate(-264.84 -392.37)"/><path d="M279.28,429.18l.06.75c.08.65.14,1.3.17,2,0-.16,0-.31,0-.47a27.29,27.29,0,0,0-.24-2.77Z" transform="translate(-264.84 -392.37)"/><path d="M274.94,430.09c-.08-.82-.19-1.7-.31-2.48,0-.2-.05-.12-.1-.22.21,1.24.31,2.09.4,2.91Z" transform="translate(-264.84 -392.37)"/><path d="M271,411.49l.2-.79c-.13.35-.26.69-.38,1l-.17.74Z" transform="translate(-264.84 -392.37)"/><path d="M308.88,418.14c0-.55,0-1.3-.06-2.9,0,1.18,0,1.86,0,2.57A2.6,2.6,0,0,0,308.88,418.14Z" transform="translate(-264.84 -392.37)"/><path d="M295.17,409.75c-.07.21-.12.38-.18.55C294.9,411.62,294.89,411.62,295.17,409.75Z" transform="translate(-264.84 -392.37)"/><path d="M312.5,421.64a5.3,5.3,0,0,0,0-.62,7.16,7.16,0,0,0,0-1.46s0,0,0,0v.52A7.56,7.56,0,0,0,312.5,421.64Z" transform="translate(-264.84 -392.37)"/><path d="M284.6,402.74a7,7,0,0,0-.83-1.26c.05.08.1.15.15.24a8.71,8.71,0,0,1,.57.94C284.57,402.8,284.58,402.78,284.6,402.74Z" transform="translate(-264.84 -392.37)"/><path d="M277.85,396.81a10.68,10.68,0,0,1,1-.82,13.15,13.15,0,0,1,1.18-.78,8.92,8.92,0,0,0-1.93,1.33c-.28.26-.56.54-.83.84a12.45,12.45,0,0,0-.81,1A14.06,14.06,0,0,1,277.85,396.81Z" transform="translate(-264.84 -392.37)"/><path d="M314.23,446.21c-.52-1.34-.69-1.88-.59-1.4C314.12,446.15,314.21,446.3,314.23,446.21Z" transform="translate(-264.84 -392.37)"/><path d="M276,413.71c.25-1.06.4-1.65.45-1.89s0-.11-.14.27C276.13,412.71,276.06,413.12,276,413.71Z" transform="translate(-264.84 -392.37)"/><path d="M295.8,432.3a28.05,28.05,0,0,0,.07-3.12C295.86,430.85,295.83,430.85,295.8,432.3Z" transform="translate(-264.84 -392.37)"/><path d="M312.69,421.6c-.05,1.48-.05,1.48,0,3.4Z" transform="translate(-264.84 -392.37)"/><path d="M309,424.67c0,.31,0,.62,0,.93l.05.36c0-.23,0-.45,0-.68S309,424.88,309,424.67Z" transform="translate(-264.84 -392.37)"/><path d="M312.82,442.26l-.19-.73c.08.4.15.79.25,1.18.05.18.11.35.16.53C313,442.91,312.88,442.59,312.82,442.26Z" transform="translate(-264.84 -392.37)"/><path d="M311,440a6.67,6.67,0,0,0,.33,1.53C311.16,441.05,311.07,440.54,311,440Z" transform="translate(-264.84 -392.37)"/><path d="M310.18,426.44c0-.27,0-.65,0-.64s0,.38-.05.8a3.1,3.1,0,0,0,0,.4S310.18,426.53,310.18,426.44Z" transform="translate(-264.84 -392.37)"/><path d="M294.69,412.39c.05-.45.1-.93.17-1.51-.11.49-.22,1.54-.34,2.88C294.58,413.28,294.63,412.85,294.69,412.39Z" transform="translate(-264.84 -392.37)"/><path d="M308,409.77l0,.06c.08.51.12,1,.18,1.55l0-.12C308.09,410.76,308,410.26,308,409.77Z" transform="translate(-264.84 -392.37)"/><path d="M275.75,432.35c0-.1,0,.07-.06.41s0,.47,0,.68A9.93,9.93,0,0,0,275.75,432.35Z" transform="translate(-264.84 -392.37)"/><path d="M279,436.31a.49.49,0,0,0-.06.15c0,.08-.08.2-.12.31-.14.45-.31.89-.3.86s.17-.38.26-.59.1-.31.14-.46S279,436.31,279,436.31Z" transform="translate(-264.84 -392.37)"/><path d="M295.54,423.48l-.15-1.56v0c.05.54.09,1.08.14,1.62Z" transform="translate(-264.84 -392.37)"/><path d="M313,418.66a4.12,4.12,0,0,0,0-.55c0,.09,0,.34,0,.59s0,.67,0,.62S313,418.93,313,418.66Z" transform="translate(-264.84 -392.37)"/><path d="M310.51,427.55v.23a3,3,0,0,0,0,.35s0-.13,0-.21Z" transform="translate(-264.84 -392.37)"/><path d="M275.84,423.24l0-.21-.13-.52c0,.1,0,.19.06.32Z" transform="translate(-264.84 -392.37)"/><polygon points="39.69 45.68 39.7 45.67 39.7 45.66 39.69 45.68"/><path d="M331.13,416.23c-.05.19-.09.36-.13.54,0-.28,0-.51,0-.78l.08-.2c0-.62-.06-.8-.13-.55,0-.34,0-.56,0-.72h.17a11.51,11.51,0,0,0-.17-1.92,1.67,1.67,0,0,0,0,.61,3.79,3.79,0,0,1,0,.78,5.41,5.41,0,0,0-.13-.58c0-.27,0-.47,0-.66a2.8,2.8,0,0,0-.2-.55,5.89,5.89,0,0,1-.28-.79c-.23-.45-.46-1.11-.86-1.83.11.13.19.24.25.32a7.44,7.44,0,0,0-.34-.69,9.76,9.76,0,0,0-1-1.22c-.14-.1.28.45-.33-.17a5.27,5.27,0,0,0-1.22-1.09,10.25,10.25,0,0,0-2.07-1c-.21-.07-.41-.12-.6-.17l-.51-.11.35.24a2.86,2.86,0,0,0-1.29-.17l-.24,0-.51-.1c-.35,0-.66,0-1,.06,0,0,.83,0,0,.09a12.17,12.17,0,0,0-1.84.27l-.16.07.49-.07c.24,0,.57-.11.87-.15v0c-.3.05-.6.12-1,.23l.5.07c-.49.13-.74.16-1.07.25a11.16,11.16,0,0,0-1.17.41c.13,0,0,.09-.66.41h-.2a15.92,15.92,0,0,0-2.43,1.5l-.24.23a5.45,5.45,0,0,1-.75.55,4.3,4.3,0,0,0-.94.81c-.13-1.19-.3-2.16-.46-3-.52-2.77,0-.77-.23-2-.13-.36-.2-.58-.28-.79-.12-.59-.34-1.26-.5-1.87s-.37-1.16-.48-1.51c-.25-.76-.2-.77-.31-1.14a13.31,13.31,0,0,0-1.7-3,12.88,12.88,0,0,0-1.18-1.36,10,10,0,0,0-2.14-1.62,7.18,7.18,0,0,1,1,.59,8.5,8.5,0,0,1,1.46,1.29,14.47,14.47,0,0,1,.93,1.14c.17.21.21.24.15.1a12.15,12.15,0,0,0-2.2-2.37,8.5,8.5,0,0,0-3.11-1.64,5.32,5.32,0,0,1,1.63.54,9.45,9.45,0,0,1,2.48,1.79,16.56,16.56,0,0,1,1.24,1.43c.12.16.06,0-.23-.43a10.76,10.76,0,0,0-1.51-1.65,8.66,8.66,0,0,0-1.22-.94,8.17,8.17,0,0,0-4.6-1.33,7,7,0,0,0-2.21.42,6.58,6.58,0,0,0-1.51.77,10.33,10.33,0,0,0-2.64,2.23c-.84,1-1.07,1.49-1.2,1.62s0,0,.05-.16-.22.23-.44.52c-.31.57-.44.91-.49,1a22.32,22.32,0,0,0-1.73,4.25c-.1-.28-.18-.54-.25-.76-.18-.53-.3-.91-.37-1.13a10.57,10.57,0,0,0-.72-1.7,11.91,11.91,0,0,0-1.64-2.37,7,7,0,0,0-.55-.53,10.71,10.71,0,0,1,2.13,3.06,10.08,10.08,0,0,0-.6-1c-.27-.42-.61-.87-.89-1.23-.09-.1-.31-.37-.62-.67a7.65,7.65,0,0,0-1-.83,6.6,6.6,0,0,0-2.3-1,5.32,5.32,0,0,0-1.24-.15,3.88,3.88,0,0,0-.59,0,3.18,3.18,0,0,0-.55.07,6.7,6.7,0,0,0-1.85.61,7.85,7.85,0,0,0-1.32.82,11.73,11.73,0,0,0-2.21,2.24l-.45.62c.36-.44.64-.82,1-1.26-.28.36-.48.66-.69,1s-.41.59-.6.92l-.39.45c-.88,1.52-1,2-.64,1.4-.47.84-.72,1.37-.92,1.77l-.15-.07c-.21.44-.4.87-.59,1.29-.22-.53-.47-1.09-.73-1.64.11.29.24.61.36,1s.2.55.3.85v0c-.27-.72-.55-1.4-.87-2.12s-.77-1.72-1.31-2.75a42.32,42.32,0,0,1,1.87,4.41c-.15-.28-.08-.1.2.72l-.08.2c-.1-.25-.19-.45-.24-.55s0,.18.06.42a2,2,0,0,0,.11.31c-.06.13-.11.25-.16.38-.08-.21-.14-.34-.17-.34a.25.25,0,0,1,0-.07l-.08-.18c-.06-.15-.13-.37-.23-.6-.19-.47-.42-1-.6-1.44l-.12-.33c.23.51.46,1,.67,1.55l0-.18c-.46-1.15-1-2.29-1.5-3.39-.13-.28-.28-.55-.42-.83s-.28-.54-.44-.81a13.67,13.67,0,0,0-1-1.6c-.24-.22-.37-.3-.26-.1s.45.68,1,1.66a10.19,10.19,0,0,0-1.68-2.23,5.35,5.35,0,0,0-2.38-1.43h-.37a5.14,5.14,0,0,1,2.21,1.18,8.39,8.39,0,0,1,1.4,1.71,15.44,15.44,0,0,1,1,1.63c.47,1,.68,1.45.92,2s.49,1.08.94,2.23l.53,1.64c.13.39.24.75.34,1.07l-.36,1.05a6,6,0,0,0,.39-1l0,.11-.23.57c-.41,1.44-.26,1.11-.61,2.51a.69.69,0,0,0-.07-.13s-.08-.17-.12-.26l.13.51,0,0,0,.05a1.21,1.21,0,0,0-.05-.18c-.1-.23-.09-.14,0,.28-.05.19-.1.4-.17.63-.24,1.21-.64,2.9-1.05,4.83l.13-1-.41,1.8c-.22,1.27-.41,2.45-.59,3.76,0,.41.28-1.25,0,.84a24.46,24.46,0,0,0-.36,4,31,31,0,0,0,.41,5.65,23.49,23.49,0,0,0,.71,2.8c-.05-.38-.1-.65-.13-1a12.18,12.18,0,0,0,1.2,3.21l.3.6c.19.41.39.83.64,1.29.13.21.27.41.4.6l.2.3a5.26,5.26,0,0,0,.4.48,3.3,3.3,0,0,0,.81.63,2.93,2.93,0,0,0,1.46.38,3,3,0,0,0,1.47-.39,3.32,3.32,0,0,0,.85-.68,5.73,5.73,0,0,1-.73.58,3.08,3.08,0,0,1-1.17.42,3.12,3.12,0,0,1-1.25-.1,2.53,2.53,0,0,1-.63-.29l.08,0a3.45,3.45,0,0,0,.41.17,2.71,2.71,0,0,0,.84.16,2.83,2.83,0,0,0,1.22-.22,3,3,0,0,0,1.05-.71,4.3,4.3,0,0,0,.77-1.11c.12-.25.22-.46.31-.7A12.11,12.11,0,0,0,279,436a14,14,0,0,0,.46-2.81c0-.17,0-.34,0-.51,0,.48-.09.84-.17,1.49a15,15,0,0,1-.63,2.7h0a13.5,13.5,0,0,0,.63-3.21,13.84,13.84,0,0,1-.38,1.44c.14-.79.19-1.37.24-1.89s.06-1,.07-1.48a32.06,32.06,0,0,0-.27-3.64c0,.17,0,.18-.1-.13s-.15-1-.33-2.08v-.52c-.53-3-1.21-5.77-1.77-8.08-.13-.43-.18-.58-.27-.91-.38-1.52-.45-1.95-.57-2.58l0-.18c0-.2.09-.39.14-.58.43-1.66.65-2.54.9-3.35.34-1,.61-1.72.91-2.43l.1,0c-.39,1-.72,2.07-1,3.16.35-1,.66-1.91,1.31-3.64a10.83,10.83,0,0,1,.94-1.94s.59-1,.95-1.51a7.18,7.18,0,0,0-.7,1.32,4.25,4.25,0,0,1-.32.78c.43-.88.74-1.42,1-1.82s.38-.64.52-.9c.27-.41.54-.74.75-1a6.17,6.17,0,0,1,.54-.61,3,3,0,0,1,.61-.5c.24-.13.25-.09.32-.05a.82.82,0,0,1,.17-.05H283a1.48,1.48,0,0,1,.41.17,2.08,2.08,0,0,1,.44.38,2.18,2.18,0,0,1,.31.46c.17.3.22.44.47,1s.46,1.09.72,1.81.53,1.51.78,2.3c.14.22.08-.17.61,1.21l-.09,0c.21.65.34,1.16.51,1.74a16.73,16.73,0,0,1,.93,3c-.32-1.44-.62-2.58-1.11-4.32.35,1.18.52,1.69.7,2.41-.09-.49-.17-.85-.31-1.48l.24.89c.08.29.15.57.22.85.13.56.27,1.08.38,1.6s.22,1,.33,1.52l.27,1.47-.15-.63c.11.56.19,1,.26,1.36-.13,1.67-.19,4.17-.2,6.08,0,.33,0,1.36,0,1.59s0,0,.07,0c0,1,0,2,.05,3,0,.57,0,1.28.08,1.83a1.94,1.94,0,0,0,.07.54c0-.45,0-1.06-.05-1.66,0-.41,0-.9-.05-1.38l.07.28c-.08-3.09-.06-3.29-.21-5.06,0-.67,0-1.28.07-2,0,1.11,0,2,.06,2.67,0-.95.05-1.74.08-2.53,0,1.79,0,3.25.07,4.66,0-.68,0-1.22,0-1.76v0l.06,1.15c0,1.87,0,2.82,0,3.63s.08,1.48.19,2.79c0,.52,0,1.2,0,1.54.13,1.88.12,2.46.16,3.44.07.62.12,1.26.17,1.88v.06a2.76,2.76,0,0,0,5.51,0c.22-2.43.38-4.93.36-7,.12.23.2-2.16.3-1.83,0-1.35,0-2.36-.08-3.45,0-.54,0-1.11-.1-1.74s-.11-1.35-.22-2.18l-.16-.7c-.11-1.08-.26-2-.37-2.88,0,.55.15,1.4.25,2.2s.14,1.59.16,2c0,.13.09,1.11.14,1.71.09.91.12,1.84.18,2.73,0,.67,0,1.31,0,2l0-.15c0-.84,0-1.69-.1-2.48-.05-.4-.1-.76-.15-1.21s-.06-.92-.08-1.33-.06-.79-.08-1.07-.16-.62-.23-.92c-.06-.5-.1-.94-.16-1.34s-.1-.73-.14-1-.14-.8-.24-1.31v-.19c0,.16.06.35.1.54l.14.88c.18,1.12.31,1.74.27,1.22s-.24-2.08-.44-3l-.05-.23a18.28,18.28,0,0,1,.06-3l-.15,1.71-.05.64,0-.15c.06-1.14.14-2.27.26-3.41-.1.43-.23.93-.35,1.47.12-1.14.15-1.5.24-2.36-.12.71-.19,1.41-.29,2.16.07-.73.09-1.29.22-2.46-.11.9-.21,1.75-.28,2.55l-.06-.35,0-.12c.08-.91.18-1.68.27-2.33.13-1,.26-1.77.38-2.31-.12.76-.23,1.51-.31,2.36.17-1,.33-2,.51-3.07a20.68,20.68,0,0,1,.87-3.42,18.6,18.6,0,0,1,1-2.5,13.25,13.25,0,0,1,.68-1.21,14.06,14.06,0,0,1,.81-1.16,13.24,13.24,0,0,0-.74,1.17,9.74,9.74,0,0,1,1.42-1.83,4.41,4.41,0,0,1,1.52-1,4.28,4.28,0,0,1,.91-.11,3.13,3.13,0,0,1,1.17.24,3.57,3.57,0,0,1,.95.53,4,4,0,0,1,.58.58c.18.22.35.45.52.69a11.15,11.15,0,0,1,.87,1.73l.12-.05a5.41,5.41,0,0,1,.38,1c0,.1,0,.06,0,.18s.11.33.22.69l.32.73c-.11-.38-.26-.91-.39-1.31s-.21-.67-.15-.59c.16.44.31.87.44,1.29s.25.79.35,1.19a9.74,9.74,0,0,1,.56,2.15h0v.06h0v0a44.88,44.88,0,0,1,.78,4.9c-.1-1.22-.19-2-.28-2.64l.14.19c.09.71.17,1.27.23,2,.1.5.18.94.27,1.53-.16-1.89-.34-2.67-.51-3.95.22,1,.38,2,.57,3.3-.11-1.26-.22-2.12-.34-2.94a23.71,23.71,0,0,1,.47,4.19,22,22,0,0,1,.18,3.05c0,1.11,0,2.1.05,3.52,0-1.37.05-2.56,0-3.92,0,.59.06,1.15.1,1.76l0,.67c0,.57.06,1.09.1,1.79s-.07,1.26-.09,1.58c0,1.26,0,2.06,0,2.92.06.14.15-1.23.19.49h0v0h0c0,.44.05.88.1.07.08-1.26.14-1.57.17.31,0-.86,0-1.72,0-2.58l0-.18c0,2,0,4,.06,6.12,0-.48.08-1.23.13-1.42s.08.27.12.44c0-1.83-.08-1.62,0-3.3,0,.3.06.57.09.85v-.58l-.06-2.05c.05-.48.09-.59.13-1.19s.05-1.78.08-2.85c0,.73.06.84,0,2.41,0,1.39.07,1.36,0,3.06.05-1.08,0,.5.08.45,0-1,0-2,.06-3.56,0,1.42,0,2.29,0,2.72.08-.27.14-.68.2-.6s0,.95,0,1.66c0,1.41,0,2.94,0,4.64.05,1.13.13,2.48.23,3.75l-.53.38c0-.47,0-2.5,0-3.28-.1-2.05-.07.91-.09,1.35,0-.29,0-.53-.08-1,0,.63,0,1.15.05,1.63s0,.85.07,1.27l-.66.47.37-.34-1.4,1a4.37,4.37,0,0,0-.94.7l-.39.33c-.44.27-.85.52-1.32.83l.09.11c-.43.35-.33.21-.41.25a1.63,1.63,0,0,0-.22.17l-.17.26c.25-.18.64-.5.62-.41l-.74.63a2.43,2.43,0,0,1-.58.61,11.69,11.69,0,0,0-1.2,1.52,9.7,9.7,0,0,1,.67-.8l0,.13c-.18.21-.32.38-.48.6a5.39,5.39,0,0,0-.23.58,6.7,6.7,0,0,1,.86-1.27,11.84,11.84,0,0,0-.63,1.12,9.13,9.13,0,0,1,.67-.9,2,2,0,0,1-.26.41c-.13.19-.35.46-.64.92a9.09,9.09,0,0,1-.49,1.08,5,5,0,0,0-.4,1.31,7.94,7.94,0,0,1,.55-1.41c-.06.21-.13.41-.18.64l-.12.24c0,.22-.06.41-.08.69s-.14.46-.18.58a7.24,7.24,0,0,0,0,1.16c.07.05.11-.48.21.17h0c.06.17.11.33.12,0s0-.39.06-.39.05.14.12.49a6.11,6.11,0,0,1,0-.95l0-.07a5.64,5.64,0,0,0,.42,2.19,2,2,0,0,1,0-.52c0-.07.11.07.16.12a4,4,0,0,1-.22-1.13,2.36,2.36,0,0,0,.12.28v-.2a6.11,6.11,0,0,1-.1-.7,1.76,1.76,0,0,0,.15-.39c.06-.22.14-.59.26-.92,0,.24,0,.28-.11.79a6.77,6.77,0,0,0,0,1c0-.36.06.16.09.14a5.39,5.39,0,0,1,.07-1.14,5.05,5.05,0,0,0,0,.87c.07-.09.14-.21.19-.19a2.64,2.64,0,0,1,.08.51,4.49,4.49,0,0,0,.31,1.36,3.54,3.54,0,0,0,1.08,1.16,3.73,3.73,0,0,1-.68-1.06l.13-.07a4.92,4.92,0,0,0,.31.41l-.09-.19a4.3,4.3,0,0,0,.62.59l.06-.07c.23.19.51.45.72.47l-.15-.11c-.38-.28-.37-.29,0-.13l.24.08c.18,0,.14,0-.12-.14a2.53,2.53,0,0,1-.28-.22,3,3,0,0,0,.72.34c0-.05-.14-.11-.3-.19a.36.36,0,0,1-.26-.13,1,1,0,0,1-.17-.22l.16.13a1.08,1.08,0,0,0,.18,0,2.07,2.07,0,0,1-.41-.29c0,.05,0,.09,0,.13a2.85,2.85,0,0,1-.38-.42,4.19,4.19,0,0,0,.33.28h0l.08-.09a2.26,2.26,0,0,0,.52.35h0a2,2,0,0,1-.53-.45,1.51,1.51,0,0,1-.26-.48,1.57,1.57,0,0,0,.15.19c0-.06,0-.14-.14-.36l-.06-.14-.06-.17a2.17,2.17,0,0,1-.07-.35l0-.16a3.24,3.24,0,0,1,0-.62,1,1,0,0,1,.16-.56,5.17,5.17,0,0,1,.78-1.72c.16-.33-.05-.1-.17,0a8.88,8.88,0,0,1,.83-.94c-.13.2-.24.37-.35.56a5.27,5.27,0,0,0-.35.72,4.35,4.35,0,0,0,.29-.4c.11-.16.23-.31.3-.32-.11.16-.21.32-.27.43a5.41,5.41,0,0,0-.58.92s0,.21-.1.41c-.11.37-.1.37,0,.39a.75.75,0,0,1,0-.16.73.73,0,0,1,.05-.2c.13-.07.13-.13.35-.62a4,4,0,0,1,.3-.54c.2-.29.38-.53.51-.73.46-.47.19-.06.42-.23,0-.09.06-.14.08-.2a5.07,5.07,0,0,1,.64-.57c.16-.11.19-.07.29-.1a13.21,13.21,0,0,1,1.34-1.27,2.84,2.84,0,0,1-.5.49c-.25.21-.32.31-.23.31a8,8,0,0,1,1.16-.94c0,.09-.4.45-.73.74s-.38.39-.17.29l.39-.29c.1-.08.18-.1.28-.17a11.19,11.19,0,0,0,1.38-1.13l.25-.17c.08.48.1.48.05,0l.06,0c.07.44.13.84.2,1.23a8.48,8.48,0,0,0-.14-1.27l0,0c0,.17.09.35.15.57,0-.25-.07-.44-.1-.6l.15-.1.11-.09.09.6c.06.34.13.71.21,1.19-.1-.72-.19-1.31-.24-1.84.33-.25.28-.17.24-.09s.09,0,.19,0l.2-.23c.45-.31.83-.69,1.3-1l.26-.2a6.39,6.39,0,0,1,.8-.65,10,10,0,0,1,.86-.56l.85-.47c.43-.24,1.12-.76,1.67-1.13l.37-.31c.06-.06,0,0-.05-.05l.75-.54c.15-.11.32-.25.45-.36s.14-.16.11-.14l-.42.3-.35.27,0-.1a4.21,4.21,0,0,0-1.17,1l-.52.33.6-.55-.65.41a9.87,9.87,0,0,0,1.09-.91l-.46.29h0a3.07,3.07,0,0,1,.25-.26,6.82,6.82,0,0,0,1.58-1.23,3.86,3.86,0,0,0,.4-.28,10.36,10.36,0,0,1,.88-.67c.63-.67,1.47-1.32,2.05-2,0,.14.62-.34.62-.2a16.33,16.33,0,0,0,1.68-1.72l.09-.23c.23-.27.43-.49.62-.73-.26.27-.77.82-1,1l-.38.41c-.2.22-.39.46-.59.66l-.46.44,0,0,.54-.59.21-.34.31-.3.25-.26.1-.31c.21-.25.38-.44.5-.6s.18-.29.34-.53c0,0,.06,0,0,.08l-.33.45c-.22.29-.31.49-.18.37a4.7,4.7,0,0,0,.64-.77c.12-.19.18-.32.26-.47.28-.41.58-.81.87-1.29l-.16.11.4-.69a5.72,5.72,0,0,0,.44-.69c.16-.31,0-.09,0,0a3.9,3.9,0,0,1,.22-.37.65.65,0,0,1,.2-.12,6.41,6.41,0,0,1,.6-1,5.38,5.38,0,0,0,.58-1.22l.05-.19c-.16.32-.32.63-.48.9.07-.13.17-.48.29-.69a3.33,3.33,0,0,0,.19-.51c.23-.76.39-1.25.53-1.72.06-.23.15-.59.2-.92A2.07,2.07,0,0,0,331.13,416.23Zm-58-11.68,0,.06h0Zm-.11.24v0h0l0,0Zm-.12.28,0,.07-.06.19,0-.08Zm-.15.37,0,.11c-.05.13-.09.27-.14.42a1.42,1.42,0,0,1-.05-.16Zm1.12,21.05c0-.52.08-.67.12-.55,0-1.11.08-1.68.13-2.17s.11-.88.25-1.66l.06.25c0,.21,0,.39,0,.58.12.46.23.87.32,1.32s.21,1.21.32,1.94c.05.12.17.83.28,1.51a9.46,9.46,0,0,0,.22,1.29c.05.64.07,1.05.09,1.52s.08.84.1,1.31a10.23,10.23,0,0,1-.08,1.89l0-.21v0c-.05.32-.12.64-.19.94l-.24-.54c0-.19,0-.42.05-.71,0,0-.05.3-.1.6l0-.11c0-.05,0-.1,0-.16.07-.5.11-1,.14-1.49,0,.1-.07-.37-.13-1s-.16-1.45-.26-2c.17,1.51.23,2.74.24,3.45a10.22,10.22,0,0,1-.05,1.13s0-.09-.05-.13c0-.3,0-.61.05-.91a22,22,0,0,0-.18-3,8.45,8.45,0,0,1,0,2.64v.24c0,.14,0,.33,0,.52l-.12-.29c-.07-.18-.14-.33-.2-.53a10,10,0,0,1-.51-2,15.62,15.62,0,0,0,.58,2,16.75,16.75,0,0,1-.52-2.53c-.06-.15-.1-.27-.15-.41A15.4,15.4,0,0,1,273.88,426.49Zm1,6.44.07-.24c0,.11,0,.24,0,.39Zm-.08,3.38a1.24,1.24,0,0,1-.13.22l.05-.11.11-.26c.07-.16.12-.32.18-.48h.08c0,.09-.07.17-.11.26S274.88,436.18,274.82,436.31Zm1.84-10.85-.08-.69c.11.54.21,1.08.31,1.62l0,.37C276.85,426.38,276.78,426,276.66,425.46Zm-.59-3.53-.09-.2c-.17-1-.16-1,.15.27.21.92.38,1.69.48,2a18.84,18.84,0,0,1,.36,1.9c.1.73.18,1.36.26,2.24C276.92,425.94,276.62,424.73,276.07,421.93Zm1.34-1.55,0,.18-.51-2,0-.27C277.06,419,277.24,419.67,277.41,420.38Zm-.53,3.94c-.16-.68-.3-1.28-.45-1.87l-.16-.71c.1.26,0-.33-.38-2C276.37,421.68,276.39,421.68,276.88,424.32Zm-.95-3.56c-.09-.49-.15-.82-.24-1.34C276.1,421.16,276.1,421.31,275.93,420.76Zm-.16.26a7.5,7.5,0,0,0,.21.73c.13.62.26,1.25.35,1.77-.06.35-.51-1.32-.11,1.27-.07-.17-.17-.5-.16-.36s.09.76.15,1.27c-.18-1-.39-2.1-.45-2.35-.24-.93-.43-1.94-.64-2.84v-.45c-.14-.58-.23-1-.31-1.25a1.29,1.29,0,0,0,0-.19c0-.23.07-.45.11-.69C275.25,419,275.51,420,275.77,421Zm5.53-21.43A8,8,0,0,0,280,401a8.18,8.18,0,0,0-.42.71c-.38.54-.67,1-1,1.48.08-.17.16-.31.19-.37a9,9,0,0,1,.72-1.22l.55-.78c.18-.24.36-.45.5-.63l.37-.37a6.22,6.22,0,0,1,.55-.44A.67.67,0,0,1,281.3,399.59Zm2.41-.11a3,3,0,0,0-.29-.16,2,2,0,0,1,.57.27,2.39,2.39,0,0,1,.25.21A4.5,4.5,0,0,0,283.71,399.48Zm1.72,4.72-.17-.47s.05.08.08.13l.14.4S285.45,404.23,285.43,404.2ZM285.3,401l-.16-.26a8.7,8.7,0,0,1,.55.84l.11.24C285.64,401.56,285.47,401.28,285.3,401Zm2.85,10.82-.1-.45.06.21c0,.16.09.34.11.45S288.18,412,288.15,411.85Zm7.43,11.31-.09-1.35,0,.19c0,.47.07.93.11,1.4Zm0,2.47a5.42,5.42,0,0,1,.09.89l-.09.54A13.88,13.88,0,0,1,295.56,425.63Zm-4.07-21.35,0,.06,0,0Zm-.12-1.52a24.54,24.54,0,0,1,1.32-3.13,30.56,30.56,0,0,0-1.43,3.85C291.3,403.2,291.33,403,291.37,402.76Zm.12,1.53v0ZM289,419.42h0c0-.54,0-1.07,0-1.75l.09-.7v0C289,418,289,418.73,289,419.42Zm.16.46c0,.9-.06,1.66-.07,2.46,0-1.63,0-3.08.09-3.93C289.16,419,289.15,419.63,289.14,419.88Zm5.05-6.51c0,.23-.05.46-.06.68l-.09-.44q0-.37.06-.72Zm-.11-1.3c-.05.24-.08.36-.06.09s0-.37.06-.73.1-.84.17-1.49S294.19,410.91,294.08,412.07ZM299.8,393a8.25,8.25,0,0,0-1.4.5,9.18,9.18,0,0,0-2.19,1.5l-.12.08a9.61,9.61,0,0,1,1.87-1.4,7.27,7.27,0,0,1,2.88-.92l.52,0A7.83,7.83,0,0,0,299.8,393Zm6.94,9.91.3.85-.13-.27Zm.31.86v0l.19.42C307.31,404.6,307.31,404.6,307.05,403.73Zm-3.8,37a2.13,2.13,0,0,1,.68-1A8.54,8.54,0,0,0,303.25,440.72Zm.56,2.3a5.87,5.87,0,0,1,.31-.89A5.83,5.83,0,0,1,303.81,443Zm.9,3.42a.65.65,0,0,1,.09.15l-.1-.09-.09-.21A.65.65,0,0,1,304.71,446.44Zm1.08.1v-.12l.09.08Zm0-.19.16.17-.07,0c0-.05-.09-.1-.13-.16Zm-.37-8.81-.07.17c-.14.06-.14.06.08-.18l.06-.11.16-.14Zm2,3.68-.08.07c.05-.08.1-.17.16-.25l.12-.1Zm1.32-1.28.36-.23C308.84,440,308.84,440,308.8,439.94Zm0,0h0a3.3,3.3,0,0,1-.58.36c.17-.17.33-.31.58-.54-.17.25.13,0,.49-.22Zm16.79-12.77.32-.31,0,.06-.31.33Zm-7.3-19c-.64.29-1,.54-1.75.94l0,.08c-.31.12-.32.11,0-.12a4.93,4.93,0,0,0,.54-.37,1.92,1.92,0,0,1,.53-.29C317.83,408.32,318,408.26,318.29,408.17Zm-.37.28-.35.23-.21.05.45-.25Zm-1.57.39a5.38,5.38,0,0,1,.73-.38l-.5.36-.2.12c.06-.08-.13,0-.57.28A3.72,3.72,0,0,1,316.35,408.84Zm-.19.36-.39.19C316.24,409.07,316.29,409.07,316.16,409.2Zm-.82-1.28.06,0-.59.43-.09,0Zm-2.26,2.66.26-.14-.14.14-.22.1Zm-.25.52-.12.15-.11.13,0-.27v0C312.79,410.93,312.84,411,312.83,411.1Zm-1,21.15h0Zm.3-.23c0-.35,0-.7,0-1.07,0,.37,0,.72,0,1Zm.05-20.67.1-.13.06.48-.12.16C312.23,411.69,312.21,411.52,312.2,411.35Zm.2.29c0-.15,0-.32,0-.49h.07c0,.14,0,.28,0,.42A.27.27,0,0,0,312.4,411.64Zm0-1.38,0,0,0,0,0-.21c-.1-.87-.21-1.69-.21-1.93C312.17,409,312.28,409.71,312.35,410.26Zm-.44-3.48c0,.14,0,.28.06.43-.07-.41-.18-.82-.27-1.22,0-.21-.08-.42-.11-.63Zm-.2.78c.08.43.18.87.25,1.32s.17,1,.24,1.55l-.1.11c-.09-.55-.09-.32-.07.08l0,0c-.14-1.47-.32-2.94-.6-4.42Q311.57,406.92,311.71,407.56Zm-2-8.26c.08.19.07.22.07.25a16.2,16.2,0,0,0-.73-1.6A13.35,13.35,0,0,1,309.75,399.3Zm-1,12.76c0-.44,0-.79,0-1.35.06.68.1,1.25.13,1.76s0,1,.07,1.45C308.85,413,308.79,412.5,308.76,412.06Zm.74-12.89c.28.53.27.44.1,0a12.56,12.56,0,0,0-1-2,14.8,14.8,0,0,1,1.24,2.35,14.16,14.16,0,0,1,.8,2.53A25.3,25.3,0,0,0,309.5,399.17Zm.88,20.32c0-1.12,0-1.79,0-3A24.72,24.72,0,0,1,310.38,419.49Zm.43,12.35c0,.06,0-.21,0-.44s0-.56,0-.78l0,.61Zm.14-1.67h.14c0,.58.05,1.25.09,1.93,0-.36,0-.58,0-.78l.09,1.38-.09.07-.24.17C310.94,432,310.93,431.05,311,430.17Zm.6,7.88-.48.4H311l.87-.67v0Zm.3-.25v0l.08-.06h0Zm1.09-6c-.17,0,.2-.24.48-.48C313.58,431.27,313.58,431.27,312.94,431.79Zm1.09,4.63-.78.51a7.77,7.77,0,0,1,.88-.72Zm.45-.36.2-.06C314.32,436.25,314.29,436.24,314.48,436.06Zm1.31-.84-.92.68a6.75,6.75,0,0,1,.93-.71Zm2-1.23-.26.1.63-.47h0Zm0-.32c.13-.1.28-.23.35-.27l.64-.4A5.2,5.2,0,0,1,317.78,433.67ZM318,428l0,0,.21-.17,0,.06Zm.76-.62-.2.15L319,427l.09-.07Zm.78-.75h0l.24-.24h0Zm0-1.6c.26-.24.26-.24.27-.18Zm2.94-2.7c-.27.33-.24.23-.17.09C322.59,422,322.54,422.14,322.46,422.3Zm1.13-1.52-.09.1a.39.39,0,0,1,0-.06l.09-.1S323.59,420.75,323.59,420.78Zm.82-2.12s-.05.1-.06.1,0,0,0,0l.06-.13A.07.07,0,0,1,324.41,418.66Zm.36,9.23-.2,0C325.1,427.43,324.92,427.67,324.77,427.89Zm.84-13.67c-.05-.25-.1-.47-.17-.71a3.87,3.87,0,0,0,.08.85c.05.23,0,.53,0,.52s-.06.28-.1.44c0-.55-.07-.26-.11-.57a4,4,0,0,0,.06.76,5.44,5.44,0,0,1-.16.88c-.05.13-.09.13-.16.15a4.65,4.65,0,0,0-.18.88.83.83,0,0,1-.07.27,1.09,1.09,0,0,1-.1.19,1.66,1.66,0,0,0-.22.31c-.16.3-.35.67-.58,1.05,0,.09.13,0,0,.42l-.08-.05-.25.43c0,.07-.08.34-.34.8.22-.34.43-.59.68-1a5.31,5.31,0,0,1-.34.6c.1-.1.19-.17.31-.3l-.55.78-.52.68.08-.17a5.46,5.46,0,0,0-.6,1l0-.15a6,6,0,0,1-.47.49,3.41,3.41,0,0,0-.49.6c-.09,0-.55.55-.62.51a.39.39,0,0,0-.17,0c-.36.43-.71.82-1.06,1.21,0,0,0,0,0,0l-.54.5a1.35,1.35,0,0,1,.63-.36l-.88.76c.43-.31.34-.19.13,0s-.06.13.21-.09a1.61,1.61,0,0,1,.27-.21,1.4,1.4,0,0,1-.22.27l-.62.57.23-.32a3.31,3.31,0,0,0-.68.72c-.16.12-.35.26-.49.35a3.38,3.38,0,0,0-.62.46c-.34.3.06,0,0,.13l-1.17.89-.11.18a4.3,4.3,0,0,1-1.09.69l.32-.33-.85.56c-.32.31-.1.26-.74.78l.88-.63h0l-1.15.93.5-.13a6.11,6.11,0,0,0-.6.46l.59-.37-.6.51c.76-.55,1.37-1,1.82-1.28a3.71,3.71,0,0,1-.76.72v-.07c-.87.67-1.35,1-1.65,1.21l.57-.49a4.12,4.12,0,0,0-.66.46c0-.32,0-.86,0-1.83,0-1.33,0-2.65,0-3.85,0-.33.05-.57.07-.81,0-1.16,0-2.14.05-3.11,0-1.4,0-2.43.09-2.79,0-2.24,0-4.5-.15-6.64l.22-.25c.06,1,.1,1.91.12,2.86a15.2,15.2,0,0,1,.09,2c0,1.88,0,1.88.08,1.9v-.84c0-.35,0-.69,0-1a4.46,4.46,0,0,0,.07-.95c0-.47,0-1.21-.07-2.53,0-.5-.07-1-.11-1.52v-.1c.29-.34.52-.54.53-.46a8.09,8.09,0,0,1,1.15-1.24c-.16.16-.24.27-.34.37s-.22.22-.36.39a5.49,5.49,0,0,0,.43-.4l.42-.42.09.1a15.19,15.19,0,0,1,1.73-1.47,1.64,1.64,0,0,0,.18-.16l.49-.26c.15.06-.25.42.5.13,0,.06-.11.14-.06.14s.23-.07.38-.11l-.64.34c-.23.19-.51.31-.74.47l-.17,0a3.26,3.26,0,0,0-.37.26,5,5,0,0,0-1.31,1.39c0,.05,0,0,.1,0,.23-.1.17,0-.2.45l.15-.12c.18-.17.43-.4.38-.3a3.1,3.1,0,0,1-.36.41c-.12.12-.26.29-.42.46.26-.15.5-.31.46-.14s.18-.08-.07.23c0,.05,0,.08,0,.05.25-.16,0,.17,0,.24a.37.37,0,0,1,0,.09l.1-.1c.08-.13.14-.26.24-.42l1.15-.84a8.48,8.48,0,0,1,1.24-1h.18a3,3,0,0,1,.31-.22,4.08,4.08,0,0,1,.51-.23c0-.09.73-.35.69-.42l.42-.09a2.86,2.86,0,0,1,.87-.33l0,.06h0a5.9,5.9,0,0,1,1,0,4.27,4.27,0,0,0-.62.12c.05.11,0,.12-.39.29,0,0,.63-.11.12.06l-.42.05c.07.07-.48.28-.74.45l.89-.34a2.12,2.12,0,0,1,.84-.2,8.78,8.78,0,0,0-1.57.53c.43-.12.69-.13.73-.07l.21-.05-.08,0c.15-.07.54-.12.58-.18l.36,0L321,410a2.42,2.42,0,0,1,.85-.06l-.13.06a3.61,3.61,0,0,1,.78.14,1.29,1.29,0,0,0,.28,0H323l.25.08a3.15,3.15,0,0,0-.44,0l.26.09.22.11.11-.06a3.08,3.08,0,0,1,.28.16,1,1,0,0,1,.15.15c.07.07.07.13,0,.15a1.41,1.41,0,0,1,.52.55,2.87,2.87,0,0,1,.52.48,2.8,2.8,0,0,1,.6,1c.11.36.17.55.23.73s0,.41,0,.59Zm-9.73-2.69-.12.23c-.29.2-.5.36-.71.52l.07-.1a4.46,4.46,0,0,1,.43-.33C315.63,411.78,315.69,411.69,315.88,411.53Zm5-1.58-.4.05C320.87,409.9,320.89,409.93,320.91,410Zm4.86,8.68,0,.07.08-.3.05-.09Zm.29-.89-.06.12c0-.06,0-.14,0-.25s.08-.16.08-.14A2,2,0,0,1,326.06,417.74Zm.73-1.46s-.05.26-.08.4c0,0,0,0,0-.11s.06-.46.06-.6,0-.15-.06-.24.05-.33.07-.49a.89.89,0,0,1,0,.11A3.9,3.9,0,0,1,326.79,416.28Zm1.23,6.89-.15.22.06-.19.1-.16Zm.16-.09c.17-.27.25-.43.4-.71l.12,0C328.55,422.55,328.41,422.79,328.18,423.08Z" transform="translate(-264.84 -392.37)"/><polygon points="41 51.14 41 51.14 41 51.14 41 51.14 41.01 51.13 41.01 51.13 41.01 51.13 41 51.13 41 51.13 41 51.14 41 51.14"/><path d="M329.13,421.83h0v0h0Z" transform="translate(-264.84 -392.37)"/><path d="M328.65,422.74h0c-.13.25-.29.48-.43.72l0,.07c.09-.13.19-.26.27-.39s.26-.48.18-.4l.28-.41-.2.5.51-.88c-.1.07.1-.43-.11-.13s-.42.73-.7,1.19C328.54,422.89,328.59,422.82,328.65,422.74Z" transform="translate(-264.84 -392.37)"/><path d="M304.05,446.31c.06.17.21.42.24.49s-.13-.14-.23-.24a4.35,4.35,0,0,0,.61.79s-.1-.19-.22-.4a3.28,3.28,0,0,1-.3-.59C304,446.07,304,446.14,304.05,446.31Z" transform="translate(-264.84 -392.37)"/><path d="M328.37,407.81c.3.33.28.28.2.16a8.8,8.8,0,0,0-2.62-2.11h0a7.1,7.1,0,0,1,1.93,1.39C328,407.4,328.21,407.62,328.37,407.81Z" transform="translate(-264.84 -392.37)"/><path d="M302.75,445.74c0,.1.07.07.09,0a6,6,0,0,1-.18-.9l-.1.2A2.81,2.81,0,0,0,302.75,445.74Z" transform="translate(-264.84 -392.37)"/><path d="M302.78,445.37a6.58,6.58,0,0,0,.34,1,6.68,6.68,0,0,0-.18-.86C302.76,444.72,302.86,445.49,302.78,445.37Z" transform="translate(-264.84 -392.37)"/><path d="M313.77,413.12c0-.09.07-.17.13-.28-.33.42-.39.57-.36.59s.24-.25.6-.65C314,412.94,313.85,413,313.77,413.12Z" transform="translate(-264.84 -392.37)"/><path d="M317.32,427.29l.16-.09.86-.76A9.12,9.12,0,0,0,317.32,427.29Z" transform="translate(-264.84 -392.37)"/><path d="M314.6,429.34l.54-.36a2,2,0,0,0,.51-.39l-.59.38Z" transform="translate(-264.84 -392.37)"/><path d="M304.54,438Z" transform="translate(-264.84 -392.37)"/><path d="M305.13,437.41h0l0,0h0Z" transform="translate(-264.84 -392.37)"/><path d="M304.54,438l.57-.6c-.11.07-.1,0-.54.41Z" transform="translate(-264.84 -392.37)"/><path d="M315.89,428.49c.28-.21.55-.41.61-.47a.57.57,0,0,0,.14-.21l-.17.12C316.31,428.09,316.15,428.25,315.89,428.49Z" transform="translate(-264.84 -392.37)"/><path d="M318,406.24l.24-.09.62-.29-.16,0-.89.35Z" transform="translate(-264.84 -392.37)"/><path d="M306.52,446.33l-.06,0a2,2,0,0,0,.2.22.67.67,0,0,0,.18.07l.21.06A2,2,0,0,1,306.52,446.33Z" transform="translate(-264.84 -392.37)"/><path d="M319,410.58c-.05,0,0,0,0,.09a6.45,6.45,0,0,1,.7-.35h-.06A5.63,5.63,0,0,0,319,410.58Z" transform="translate(-264.84 -392.37)"/><path d="M330.52,411.51c0-.15,0-.3,0-.46l-.12-.29,0,.44C330.45,411.31,330.49,411.41,330.52,411.51Z" transform="translate(-264.84 -392.37)"/><path d="M302.89,441.1a6.36,6.36,0,0,0-.39.94s0,.17,0,.13C302.58,442,302.66,441.69,302.89,441.1Z" transform="translate(-264.84 -392.37)"/><path d="M312.32,431.15l.21,0C312.83,430.81,312.83,430.81,312.32,431.15Z" transform="translate(-264.84 -392.37)"/><path d="M305.81,443.93s0-.07,0-.12c0-.22,0-.27,0-.31h0l0,.11C305.78,443.81,305.78,443.93,305.81,443.93Z" transform="translate(-264.84 -392.37)"/><path d="M324.34,418.21l.13-.51-.06.1C324.27,418.2,324.27,418.21,324.34,418.21Z" transform="translate(-264.84 -392.37)"/><path d="M330.91,417.83c.08-.37.17-.73.25-1.31C330.92,417.6,330.89,417.58,330.91,417.83Z" transform="translate(-264.84 -392.37)"/><path d="M308.21,447c-.23.12-.34.14-.24.17C308.23,447.13,308.24,447.08,308.21,447Z" transform="translate(-264.84 -392.37)"/><path d="M325.48,413.11c-.07-.12-.13-.19-.2-.3C325.44,413.24,325.46,413.3,325.48,413.11Z" transform="translate(-264.84 -392.37)"/><path d="M321.12,410.21l.41-.06A.55.55,0,0,0,321.12,410.21Z" transform="translate(-264.84 -392.37)"/><path d="M323.57,429.3a4.34,4.34,0,0,0,.72-.69A9.81,9.81,0,0,0,323.57,429.3Z" transform="translate(-264.84 -392.37)"/><path d="M306,444.23a1.77,1.77,0,0,0,0,.33,2.51,2.51,0,0,1,0-.61A.91.91,0,0,0,306,444.23Z" transform="translate(-264.84 -392.37)"/><path d="M302.44,445l-.08-.25,0,.38a1,1,0,0,0,.08.14A2.48,2.48,0,0,1,302.44,445Z" transform="translate(-264.84 -392.37)"/><path d="M307.44,447.34h-.16a.75.75,0,0,0,.26.05h.11Z" transform="translate(-264.84 -392.37)"/><path d="M315.16,412.51c-.17.13-.26.23-.37.31S314.87,412.84,315.16,412.51Z" transform="translate(-264.84 -392.37)"/><path d="M307,448.64a4.18,4.18,0,0,1-.51-.1C306.89,448.69,306.93,448.65,307,448.64Z" transform="translate(-264.84 -392.37)"/><path d="M303.65,445.45a1.54,1.54,0,0,0,0-.19.8.8,0,0,0-.06-.2,1.4,1.4,0,0,0,0,.27C303.61,445.4,303.64,445.46,303.65,445.45Z" transform="translate(-264.84 -392.37)"/><path d="M313.48,430.53a5.16,5.16,0,0,0-.76.52A6.14,6.14,0,0,0,313.48,430.53Z" transform="translate(-264.84 -392.37)"/><polygon points="62.58 32.56 62.93 32.16 63 32.02 62.66 32.43 62.58 32.56"/><path d="M318.19,411l-.16.07-.08.11.16-.08Z" transform="translate(-264.84 -392.37)"/><path d="M303.62,439l-.36.5.05,0c.11-.17.23-.33.34-.49Z" transform="translate(-264.84 -392.37)"/><polygon points="41.69 54.51 41.69 54.5 41.68 54.5 41.68 54.5 41.68 54.5 41.68 54.5 41.68 54.5 41.68 54.51 41.69 54.51 41.69 54.51"/><path d="M306.53,446.87h.22C306.48,446.77,306.5,446.81,306.53,446.87Z" transform="translate(-264.84 -392.37)"/><path d="M320.15,409.44l.18-.11C320,409.44,320,409.45,320.15,409.44Z" transform="translate(-264.84 -392.37)"/><path d="M320.22,405.48h.16l.28-.06h-.2Z" transform="translate(-264.84 -392.37)"/><polygon points="60.63 34.83 60.96 34.45 60.95 34.44 60.59 34.84 60.63 34.83"/><path d="M314,411.36l-.12.11-.06.16C314.2,411.22,314.21,411.21,314,411.36Z" transform="translate(-264.84 -392.37)"/><path d="M306.28,446.52a1.94,1.94,0,0,0,.24.15v0l-.23-.15Z" transform="translate(-264.84 -392.37)"/><path d="M306.3,443.56l.05-.12a.65.65,0,0,0,0-.11.91.91,0,0,0-.06.11A.83.83,0,0,0,306.3,443.56Z" transform="translate(-264.84 -392.37)"/><path d="M304.08,445.64l0-.11v.08l0,.1S304.08,445.67,304.08,445.64Z" transform="translate(-264.84 -392.37)"/><path d="M305.33,447.46a1.9,1.9,0,0,1-.18-.2.91.91,0,0,0-.13-.1l.17.23C305.27,447.43,305.34,447.48,305.33,447.46Z" transform="translate(-264.84 -392.37)"/><path d="M317.12,409.35l-.07,0-.13.09.09,0Z" transform="translate(-264.84 -392.37)"/></svg>